G04 #@! TF.GenerationSoftware,KiCad,Pcbnew,(5.0.0)*
G04 #@! TF.CreationDate,2020-02-01T14:37:15+09:00*
G04 #@! TF.ProjectId,m file,6D2066696C652E6B696361645F706362,rev?*
G04 #@! TF.SameCoordinates,Original*
G04 #@! TF.FileFunction,Copper,L2,Bot,Signal*
G04 #@! TF.FilePolarity,Positive*
%FSLAX46Y46*%
G04 Gerber Fmt 4.6, Leading zero omitted, Abs format (unit mm)*
G04 Created by KiCad (PCBNEW (5.0.0)) date 02/01/20 14:37:15*
%MOMM*%
%LPD*%
G01*
G04 APERTURE LIST*
G04 #@! TA.AperFunction,SMDPad,CuDef*
%ADD10R,0.800000X0.800000*%
G04 #@! TD*
G04 #@! TA.AperFunction,SMDPad,CuDef*
%ADD11R,0.800000X0.750000*%
G04 #@! TD*
G04 #@! TA.AperFunction,SMDPad,CuDef*
%ADD12R,0.500000X0.900000*%
G04 #@! TD*
G04 #@! TA.AperFunction,SMDPad,CuDef*
%ADD13R,0.900000X0.500000*%
G04 #@! TD*
G04 #@! TA.AperFunction,SMDPad,CuDef*
%ADD14R,2.000000X1.300000*%
G04 #@! TD*
G04 #@! TA.AperFunction,SMDPad,CuDef*
%ADD15R,0.300000X1.000000*%
G04 #@! TD*
G04 #@! TA.AperFunction,SMDPad,CuDef*
%ADD16R,1.000000X1.450000*%
G04 #@! TD*
G04 #@! TA.AperFunction,ViaPad*
%ADD17C,0.800000*%
G04 #@! TD*
G04 #@! TA.AperFunction,Conductor*
%ADD18C,0.250000*%
G04 #@! TD*
G04 #@! TA.AperFunction,NonConductor*
%ADD19C,0.254000*%
G04 #@! TD*
G04 APERTURE END LIST*
D10*
G04 #@! TO.P,D5,1*
G04 #@! TO.N,N/C*
X133250000Y-119000000D03*
G04 #@! TO.P,D5,2*
X131750000Y-119000000D03*
G04 #@! TD*
D11*
G04 #@! TO.P,C1,2*
G04 #@! TO.N,N/C*
X151750000Y-118900000D03*
G04 #@! TO.P,C1,1*
X150250000Y-118900000D03*
G04 #@! TD*
D10*
G04 #@! TO.P,D4,1*
G04 #@! TO.N,N/C*
X168750000Y-119000000D03*
G04 #@! TO.P,D4,2*
X170250000Y-119000000D03*
G04 #@! TD*
D12*
G04 #@! TO.P,R4,2*
G04 #@! TO.N,N/C*
X170250000Y-116700000D03*
G04 #@! TO.P,R4,1*
X168750000Y-116700000D03*
G04 #@! TD*
G04 #@! TO.P,R3,2*
G04 #@! TO.N,N/C*
X204250000Y-116700000D03*
G04 #@! TO.P,R3,1*
X202750000Y-116700000D03*
G04 #@! TD*
D13*
G04 #@! TO.P,R1,2*
G04 #@! TO.N,N/C*
X147800000Y-118250000D03*
G04 #@! TO.P,R1,1*
X147800000Y-116750000D03*
G04 #@! TD*
D10*
G04 #@! TO.P,D6,2*
G04 #@! TO.N,N/C*
X97750000Y-119000000D03*
G04 #@! TO.P,D6,1*
X99250000Y-119000000D03*
G04 #@! TD*
G04 #@! TO.P,D3,1*
G04 #@! TO.N,N/C*
X202750000Y-119000000D03*
G04 #@! TO.P,D3,2*
X204250000Y-119000000D03*
G04 #@! TD*
D12*
G04 #@! TO.P,R6,2*
G04 #@! TO.N,N/C*
X97750000Y-116700000D03*
G04 #@! TO.P,R6,1*
X99250000Y-116700000D03*
G04 #@! TD*
D14*
G04 #@! TO.P,J1,*
G04 #@! TO.N,*
X155550000Y-124850000D03*
X146450000Y-124850000D03*
D15*
G04 #@! TO.P,J1,10*
G04 #@! TO.N,N/C*
X153250000Y-122150000D03*
G04 #@! TO.P,J1,9*
X152750000Y-122150000D03*
G04 #@! TO.P,J1,8*
X152250000Y-122150000D03*
G04 #@! TO.P,J1,7*
X151750000Y-122150000D03*
G04 #@! TO.P,J1,6*
X151250000Y-122150000D03*
G04 #@! TO.P,J1,5*
X150750000Y-122150000D03*
G04 #@! TO.P,J1,4*
X150250000Y-122150000D03*
G04 #@! TO.P,J1,3*
X149750000Y-122150000D03*
G04 #@! TO.P,J1,2*
X149250000Y-122150000D03*
G04 #@! TO.P,J1,1*
X148750000Y-122150000D03*
G04 #@! TD*
D12*
G04 #@! TO.P,R5,2*
G04 #@! TO.N,N/C*
X131750000Y-116700000D03*
G04 #@! TO.P,R5,1*
X133250000Y-116700000D03*
G04 #@! TD*
D13*
G04 #@! TO.P,R2,1*
G04 #@! TO.N,N/C*
X154000000Y-116650000D03*
G04 #@! TO.P,R2,2*
X154000000Y-118150000D03*
G04 #@! TD*
D16*
G04 #@! TO.P,Q2,2*
G04 #@! TO.N,N/C*
X177800000Y-119000000D03*
G04 #@! TO.P,Q2,1*
X176200000Y-119000000D03*
G04 #@! TD*
G04 #@! TO.P,Q6,1*
G04 #@! TO.N,N/C*
X91800000Y-119000000D03*
G04 #@! TO.P,Q6,2*
X90200000Y-119000000D03*
G04 #@! TD*
G04 #@! TO.P,Q1,1*
G04 #@! TO.N,N/C*
X210200000Y-119000000D03*
G04 #@! TO.P,Q1,2*
X211800000Y-119000000D03*
G04 #@! TD*
G04 #@! TO.P,Q4,1*
G04 #@! TO.N,N/C*
X140800000Y-119000000D03*
G04 #@! TO.P,Q4,2*
X139200000Y-119000000D03*
G04 #@! TD*
G04 #@! TO.P,Q5,2*
G04 #@! TO.N,N/C*
X124200000Y-119000000D03*
G04 #@! TO.P,Q5,1*
X125800000Y-119000000D03*
G04 #@! TD*
G04 #@! TO.P,Q3,2*
G04 #@! TO.N,N/C*
X162800000Y-119000000D03*
G04 #@! TO.P,Q3,1*
X161200000Y-119000000D03*
G04 #@! TD*
D10*
G04 #@! TO.P,D5,1*
G04 #@! TO.N,N/C*
X133250000Y-102000000D03*
G04 #@! TO.P,D5,2*
X131750000Y-102000000D03*
G04 #@! TD*
D11*
G04 #@! TO.P,C1,2*
G04 #@! TO.N,N/C*
X151750000Y-101900000D03*
G04 #@! TO.P,C1,1*
X150250000Y-101900000D03*
G04 #@! TD*
D10*
G04 #@! TO.P,D4,1*
G04 #@! TO.N,N/C*
X168750000Y-102000000D03*
G04 #@! TO.P,D4,2*
X170250000Y-102000000D03*
G04 #@! TD*
D12*
G04 #@! TO.P,R4,2*
G04 #@! TO.N,N/C*
X170250000Y-99700000D03*
G04 #@! TO.P,R4,1*
X168750000Y-99700000D03*
G04 #@! TD*
G04 #@! TO.P,R3,2*
G04 #@! TO.N,N/C*
X204250000Y-99700000D03*
G04 #@! TO.P,R3,1*
X202750000Y-99700000D03*
G04 #@! TD*
D13*
G04 #@! TO.P,R1,2*
G04 #@! TO.N,N/C*
X147800000Y-101250000D03*
G04 #@! TO.P,R1,1*
X147800000Y-99750000D03*
G04 #@! TD*
D10*
G04 #@! TO.P,D6,2*
G04 #@! TO.N,N/C*
X97750000Y-102000000D03*
G04 #@! TO.P,D6,1*
X99250000Y-102000000D03*
G04 #@! TD*
G04 #@! TO.P,D3,1*
G04 #@! TO.N,N/C*
X202750000Y-102000000D03*
G04 #@! TO.P,D3,2*
X204250000Y-102000000D03*
G04 #@! TD*
D12*
G04 #@! TO.P,R6,2*
G04 #@! TO.N,N/C*
X97750000Y-99700000D03*
G04 #@! TO.P,R6,1*
X99250000Y-99700000D03*
G04 #@! TD*
D14*
G04 #@! TO.P,J1,*
G04 #@! TO.N,*
X155550000Y-107850000D03*
X146450000Y-107850000D03*
D15*
G04 #@! TO.P,J1,10*
G04 #@! TO.N,N/C*
X153250000Y-105150000D03*
G04 #@! TO.P,J1,9*
X152750000Y-105150000D03*
G04 #@! TO.P,J1,8*
X152250000Y-105150000D03*
G04 #@! TO.P,J1,7*
X151750000Y-105150000D03*
G04 #@! TO.P,J1,6*
X151250000Y-105150000D03*
G04 #@! TO.P,J1,5*
X150750000Y-105150000D03*
G04 #@! TO.P,J1,4*
X150250000Y-105150000D03*
G04 #@! TO.P,J1,3*
X149750000Y-105150000D03*
G04 #@! TO.P,J1,2*
X149250000Y-105150000D03*
G04 #@! TO.P,J1,1*
X148750000Y-105150000D03*
G04 #@! TD*
D12*
G04 #@! TO.P,R5,2*
G04 #@! TO.N,N/C*
X131750000Y-99700000D03*
G04 #@! TO.P,R5,1*
X133250000Y-99700000D03*
G04 #@! TD*
D13*
G04 #@! TO.P,R2,1*
G04 #@! TO.N,N/C*
X154000000Y-99650000D03*
G04 #@! TO.P,R2,2*
X154000000Y-101150000D03*
G04 #@! TD*
D16*
G04 #@! TO.P,Q2,2*
G04 #@! TO.N,N/C*
X177800000Y-102000000D03*
G04 #@! TO.P,Q2,1*
X176200000Y-102000000D03*
G04 #@! TD*
G04 #@! TO.P,Q6,1*
G04 #@! TO.N,N/C*
X91800000Y-102000000D03*
G04 #@! TO.P,Q6,2*
X90200000Y-102000000D03*
G04 #@! TD*
G04 #@! TO.P,Q1,1*
G04 #@! TO.N,N/C*
X210200000Y-102000000D03*
G04 #@! TO.P,Q1,2*
X211800000Y-102000000D03*
G04 #@! TD*
G04 #@! TO.P,Q4,1*
G04 #@! TO.N,N/C*
X140800000Y-102000000D03*
G04 #@! TO.P,Q4,2*
X139200000Y-102000000D03*
G04 #@! TD*
G04 #@! TO.P,Q5,2*
G04 #@! TO.N,N/C*
X124200000Y-102000000D03*
G04 #@! TO.P,Q5,1*
X125800000Y-102000000D03*
G04 #@! TD*
G04 #@! TO.P,Q3,2*
G04 #@! TO.N,N/C*
X162800000Y-102000000D03*
G04 #@! TO.P,Q3,1*
X161200000Y-102000000D03*
G04 #@! TD*
D10*
G04 #@! TO.P,D5,1*
G04 #@! TO.N,N/C*
X133250000Y-85000000D03*
G04 #@! TO.P,D5,2*
X131750000Y-85000000D03*
G04 #@! TD*
D11*
G04 #@! TO.P,C1,2*
G04 #@! TO.N,N/C*
X151750000Y-84900000D03*
G04 #@! TO.P,C1,1*
X150250000Y-84900000D03*
G04 #@! TD*
D10*
G04 #@! TO.P,D4,1*
G04 #@! TO.N,N/C*
X168750000Y-85000000D03*
G04 #@! TO.P,D4,2*
X170250000Y-85000000D03*
G04 #@! TD*
D12*
G04 #@! TO.P,R4,2*
G04 #@! TO.N,N/C*
X170250000Y-82700000D03*
G04 #@! TO.P,R4,1*
X168750000Y-82700000D03*
G04 #@! TD*
G04 #@! TO.P,R3,2*
G04 #@! TO.N,N/C*
X204250000Y-82700000D03*
G04 #@! TO.P,R3,1*
X202750000Y-82700000D03*
G04 #@! TD*
D13*
G04 #@! TO.P,R1,2*
G04 #@! TO.N,N/C*
X147800000Y-84250000D03*
G04 #@! TO.P,R1,1*
X147800000Y-82750000D03*
G04 #@! TD*
D10*
G04 #@! TO.P,D6,2*
G04 #@! TO.N,N/C*
X97750000Y-85000000D03*
G04 #@! TO.P,D6,1*
X99250000Y-85000000D03*
G04 #@! TD*
G04 #@! TO.P,D3,1*
G04 #@! TO.N,N/C*
X202750000Y-85000000D03*
G04 #@! TO.P,D3,2*
X204250000Y-85000000D03*
G04 #@! TD*
D12*
G04 #@! TO.P,R6,2*
G04 #@! TO.N,N/C*
X97750000Y-82700000D03*
G04 #@! TO.P,R6,1*
X99250000Y-82700000D03*
G04 #@! TD*
D14*
G04 #@! TO.P,J1,*
G04 #@! TO.N,*
X155550000Y-90850000D03*
X146450000Y-90850000D03*
D15*
G04 #@! TO.P,J1,10*
G04 #@! TO.N,N/C*
X153250000Y-88150000D03*
G04 #@! TO.P,J1,9*
X152750000Y-88150000D03*
G04 #@! TO.P,J1,8*
X152250000Y-88150000D03*
G04 #@! TO.P,J1,7*
X151750000Y-88150000D03*
G04 #@! TO.P,J1,6*
X151250000Y-88150000D03*
G04 #@! TO.P,J1,5*
X150750000Y-88150000D03*
G04 #@! TO.P,J1,4*
X150250000Y-88150000D03*
G04 #@! TO.P,J1,3*
X149750000Y-88150000D03*
G04 #@! TO.P,J1,2*
X149250000Y-88150000D03*
G04 #@! TO.P,J1,1*
X148750000Y-88150000D03*
G04 #@! TD*
D12*
G04 #@! TO.P,R5,2*
G04 #@! TO.N,N/C*
X131750000Y-82700000D03*
G04 #@! TO.P,R5,1*
X133250000Y-82700000D03*
G04 #@! TD*
D13*
G04 #@! TO.P,R2,1*
G04 #@! TO.N,N/C*
X154000000Y-82650000D03*
G04 #@! TO.P,R2,2*
X154000000Y-84150000D03*
G04 #@! TD*
D16*
G04 #@! TO.P,Q2,2*
G04 #@! TO.N,N/C*
X177800000Y-85000000D03*
G04 #@! TO.P,Q2,1*
X176200000Y-85000000D03*
G04 #@! TD*
G04 #@! TO.P,Q6,1*
G04 #@! TO.N,N/C*
X91800000Y-85000000D03*
G04 #@! TO.P,Q6,2*
X90200000Y-85000000D03*
G04 #@! TD*
G04 #@! TO.P,Q1,1*
G04 #@! TO.N,N/C*
X210200000Y-85000000D03*
G04 #@! TO.P,Q1,2*
X211800000Y-85000000D03*
G04 #@! TD*
G04 #@! TO.P,Q4,1*
G04 #@! TO.N,N/C*
X140800000Y-85000000D03*
G04 #@! TO.P,Q4,2*
X139200000Y-85000000D03*
G04 #@! TD*
G04 #@! TO.P,Q5,2*
G04 #@! TO.N,N/C*
X124200000Y-85000000D03*
G04 #@! TO.P,Q5,1*
X125800000Y-85000000D03*
G04 #@! TD*
G04 #@! TO.P,Q3,2*
G04 #@! TO.N,N/C*
X162800000Y-85000000D03*
G04 #@! TO.P,Q3,1*
X161200000Y-85000000D03*
G04 #@! TD*
D17*
G04 #@! TO.N,*
X149100000Y-84900000D03*
X148800000Y-89400008D03*
X124200000Y-83500000D03*
X111800000Y-84700000D03*
X158900000Y-84600000D03*
X189900000Y-84600000D03*
X177800000Y-83400000D03*
X216100000Y-84900000D03*
X152899998Y-84900000D03*
X207100000Y-83400000D03*
X211800000Y-83400000D03*
X166600000Y-85200000D03*
X134600000Y-83400000D03*
X162800000Y-83400000D03*
X85900000Y-85000000D03*
X189900000Y-88500000D03*
X146000000Y-83400000D03*
X160900000Y-90900000D03*
X154300000Y-88100000D03*
X139200000Y-83400000D03*
X90200000Y-83500000D03*
X142100000Y-91000000D03*
X151800000Y-83200000D03*
X111800000Y-88600000D03*
X149000000Y-82525010D03*
X136200000Y-85000000D03*
X136200000Y-87700000D03*
X157300000Y-84600000D03*
X157300000Y-87825010D03*
X150200000Y-90200000D03*
X155500000Y-84200000D03*
X149100000Y-101900000D03*
X148800000Y-106400008D03*
X124200000Y-100500000D03*
X111800000Y-101700000D03*
X158900000Y-101600000D03*
X189900000Y-101600000D03*
X177800000Y-100400000D03*
X216100000Y-101900000D03*
X152899998Y-101900000D03*
X207100000Y-100400000D03*
X211800000Y-100400000D03*
X166600000Y-102200000D03*
X134600000Y-100400000D03*
X162800000Y-100400000D03*
X85900000Y-102000000D03*
X189900000Y-105500000D03*
X146000000Y-100400000D03*
X160900000Y-107900000D03*
X154300000Y-105100000D03*
X139200000Y-100400000D03*
X90200000Y-100500000D03*
X142100000Y-108000000D03*
X151800000Y-100200000D03*
X111800000Y-105600000D03*
X149000000Y-99525010D03*
X136200000Y-102000000D03*
X136200000Y-104700000D03*
X157300000Y-101600000D03*
X157300000Y-104825010D03*
X150200000Y-107200000D03*
X155500000Y-101200000D03*
X149100000Y-118900000D03*
X148800000Y-123400008D03*
X124200000Y-117500000D03*
X111800000Y-118700000D03*
X158900000Y-118600000D03*
X189900000Y-118600000D03*
X177800000Y-117400000D03*
X216100000Y-118900000D03*
X152899998Y-118900000D03*
X207100000Y-117400000D03*
X211800000Y-117400000D03*
X166600000Y-119200000D03*
X134600000Y-117400000D03*
X162800000Y-117400000D03*
X85900000Y-119000000D03*
X189900000Y-122500000D03*
X146000000Y-117400000D03*
X160900000Y-124900000D03*
X154300000Y-122100000D03*
X139200000Y-117400000D03*
X90200000Y-117500000D03*
X142100000Y-125000000D03*
X151800000Y-117200000D03*
X111800000Y-122600000D03*
X149000000Y-116525010D03*
X136200000Y-119000000D03*
X136200000Y-121700000D03*
X157300000Y-118600000D03*
X157300000Y-121825010D03*
X150200000Y-124200000D03*
X155500000Y-118200000D03*
G04 #@! TD*
D18*
G04 #@! TO.N,*
X150250000Y-81850000D02*
X150200000Y-81800000D01*
X150250000Y-84900000D02*
X150250000Y-81850000D01*
X147800000Y-81800000D02*
X148300000Y-81800000D01*
X100650000Y-81800000D02*
X133050000Y-81800000D01*
X99750000Y-82700000D02*
X100650000Y-81800000D01*
X133050000Y-81800000D02*
X133300000Y-81800000D01*
X201350000Y-81800000D02*
X202250000Y-82700000D01*
X155850000Y-81800000D02*
X168800000Y-81800000D01*
X150700000Y-81800000D02*
X154000000Y-81800000D01*
X150200000Y-81800000D02*
X150700000Y-81800000D01*
X148300000Y-81800000D02*
X150200000Y-81800000D01*
X147800000Y-82750000D02*
X147800000Y-81800000D01*
X133250000Y-81850000D02*
X133300000Y-81800000D01*
X99250000Y-82700000D02*
X99750000Y-82700000D01*
X133250000Y-82700000D02*
X133250000Y-81850000D01*
X133300000Y-81800000D02*
X147800000Y-81800000D01*
X155900000Y-81800000D02*
X154000000Y-81800000D01*
X168800000Y-81800000D02*
X201350000Y-81800000D01*
X202250000Y-82700000D02*
X202750000Y-82700000D01*
X168750000Y-81850000D02*
X168800000Y-81800000D01*
X168750000Y-82700000D02*
X168750000Y-81850000D01*
X147900000Y-82650000D02*
X147800000Y-82750000D01*
X148750000Y-88150000D02*
X148750000Y-89350008D01*
X150250000Y-84900000D02*
X149100000Y-84900000D01*
X168750000Y-82700000D02*
X168750000Y-82500000D01*
X148750000Y-89350008D02*
X148800000Y-89400008D01*
X154000000Y-82150000D02*
X154000000Y-81800000D01*
X154000000Y-82650000D02*
X154000000Y-82150000D01*
X151750000Y-84900000D02*
X152899998Y-84900000D01*
X162800000Y-83400000D02*
X162800000Y-85000000D01*
X177800000Y-83400000D02*
X177800000Y-85000000D01*
X154250000Y-88150000D02*
X154300000Y-88100000D01*
X139200000Y-83400000D02*
X139200000Y-85000000D01*
X124200000Y-83500000D02*
X124200000Y-85000000D01*
X153250000Y-88150000D02*
X154250000Y-88150000D01*
X211800000Y-83400000D02*
X211800000Y-85000000D01*
X90200000Y-83500000D02*
X90200000Y-85000000D01*
X149000000Y-83250000D02*
X149000000Y-83090695D01*
X149000000Y-83090695D02*
X149000000Y-82525010D01*
X147800000Y-84250000D02*
X148000000Y-84250000D01*
X148000000Y-84250000D02*
X149000000Y-83250000D01*
X172000000Y-85900000D02*
X175649989Y-82250011D01*
X169000000Y-85900000D02*
X172000000Y-85900000D01*
X157300000Y-84600000D02*
X159500000Y-82400000D01*
X152750000Y-90150000D02*
X152700000Y-90200000D01*
X150200000Y-90200000D02*
X148035002Y-90200000D01*
X130000000Y-85900000D02*
X126500000Y-82400000D01*
X153964998Y-90200000D02*
X156339988Y-87825010D01*
X136200000Y-85000000D02*
X133250000Y-85000000D01*
X168100000Y-85000000D02*
X168750000Y-85000000D01*
X156339988Y-87825010D02*
X156734315Y-87825010D01*
X175649989Y-82250011D02*
X199350011Y-82250011D01*
X168750000Y-85000000D02*
X168750000Y-85650000D01*
X165500000Y-82400000D02*
X168100000Y-85000000D01*
X152750000Y-88150000D02*
X152750000Y-90150000D01*
X156734315Y-87825010D02*
X157300000Y-87825010D01*
X152700000Y-90200000D02*
X153964998Y-90200000D01*
X145535002Y-87700000D02*
X136200000Y-87700000D01*
X168750000Y-85650000D02*
X169000000Y-85900000D01*
X133250000Y-85650000D02*
X133000000Y-85900000D01*
X148035002Y-90200000D02*
X145535002Y-87700000D01*
X102500000Y-82400000D02*
X99900000Y-85000000D01*
X133000000Y-85900000D02*
X130000000Y-85900000D01*
X126500000Y-82400000D02*
X102500000Y-82400000D01*
X159500000Y-82400000D02*
X165500000Y-82400000D01*
X152400001Y-90200000D02*
X150200000Y-90200000D01*
X99900000Y-85000000D02*
X99250000Y-85000000D01*
X152700000Y-90200000D02*
X152400001Y-90200000D01*
X199350011Y-82250011D02*
X202100000Y-85000000D01*
X202100000Y-85000000D02*
X202750000Y-85000000D01*
X133250000Y-85000000D02*
X133250000Y-85650000D01*
X154050000Y-84200000D02*
X154000000Y-84150000D01*
X155500000Y-84200000D02*
X154050000Y-84200000D01*
X204250000Y-82700000D02*
X204250000Y-85000000D01*
X170250000Y-82700000D02*
X170250000Y-85000000D01*
X131750000Y-82700000D02*
X131750000Y-85000000D01*
X97750000Y-82700000D02*
X97750000Y-85000000D01*
X94450000Y-86900000D02*
X131727178Y-86900000D01*
X91800000Y-85000000D02*
X92550000Y-85000000D01*
X131727178Y-86900000D02*
X131727200Y-86900022D01*
X133272800Y-86900022D02*
X133272822Y-86900000D01*
X133272822Y-86900000D02*
X148750000Y-86900000D01*
X148750000Y-86900000D02*
X149250000Y-87400000D01*
X131727200Y-86900022D02*
X133272800Y-86900022D01*
X149250000Y-87400000D02*
X149250000Y-88150000D01*
X92550000Y-85000000D02*
X94450000Y-86900000D01*
X151750000Y-87400000D02*
X151750000Y-88150000D01*
X152050000Y-87100000D02*
X151750000Y-87400000D01*
X207350000Y-87100000D02*
X152050000Y-87100000D01*
X210200000Y-85000000D02*
X209450000Y-85000000D01*
X209450000Y-85000000D02*
X207350000Y-87100000D01*
X141550000Y-85000000D02*
X142450000Y-85900000D01*
X140800000Y-85000000D02*
X141550000Y-85000000D01*
X149636410Y-85900000D02*
X150250000Y-86513590D01*
X150250000Y-86513590D02*
X150250000Y-87400000D01*
X142450000Y-85900000D02*
X149636410Y-85900000D01*
X150250000Y-87400000D02*
X150250000Y-88150000D01*
X151900000Y-86500000D02*
X151250031Y-87149969D01*
X176200000Y-85000000D02*
X174800000Y-85000000D01*
X151250031Y-87399969D02*
X151250000Y-87400000D01*
X151250000Y-87400000D02*
X151250000Y-88150000D01*
X174800000Y-85000000D02*
X173300000Y-86500000D01*
X151250031Y-87149969D02*
X151250031Y-87399969D01*
X173300000Y-86500000D02*
X151900000Y-86500000D01*
X149186400Y-86449989D02*
X149750000Y-87013589D01*
X149750000Y-87013589D02*
X149750000Y-87400000D01*
X125800000Y-85000000D02*
X126550000Y-85000000D01*
X149750000Y-87400000D02*
X149750000Y-88150000D01*
X126550000Y-85000000D02*
X127999989Y-86449989D01*
X127999989Y-86449989D02*
X149186400Y-86449989D01*
X161200000Y-85000000D02*
X160450000Y-85000000D01*
X150750000Y-87322821D02*
X150750000Y-87400000D01*
X151913622Y-85649967D02*
X150800020Y-86763569D01*
X160450000Y-85000000D02*
X159800033Y-85649967D01*
X150750000Y-87400000D02*
X150750000Y-88150000D01*
X159800033Y-85649967D02*
X151913622Y-85649967D01*
X150800020Y-86763569D02*
X150800020Y-87272801D01*
X150800020Y-87272801D02*
X150750000Y-87322821D01*
X150250000Y-98850000D02*
X150200000Y-98800000D01*
X150250000Y-101900000D02*
X150250000Y-98850000D01*
X147800000Y-98800000D02*
X148300000Y-98800000D01*
X100650000Y-98800000D02*
X133050000Y-98800000D01*
X99750000Y-99700000D02*
X100650000Y-98800000D01*
X133050000Y-98800000D02*
X133300000Y-98800000D01*
X201350000Y-98800000D02*
X202250000Y-99700000D01*
X155850000Y-98800000D02*
X168800000Y-98800000D01*
X150700000Y-98800000D02*
X154000000Y-98800000D01*
X150200000Y-98800000D02*
X150700000Y-98800000D01*
X148300000Y-98800000D02*
X150200000Y-98800000D01*
X147800000Y-99750000D02*
X147800000Y-98800000D01*
X133250000Y-98850000D02*
X133300000Y-98800000D01*
X99250000Y-99700000D02*
X99750000Y-99700000D01*
X133250000Y-99700000D02*
X133250000Y-98850000D01*
X133300000Y-98800000D02*
X147800000Y-98800000D01*
X155900000Y-98800000D02*
X154000000Y-98800000D01*
X168800000Y-98800000D02*
X201350000Y-98800000D01*
X202250000Y-99700000D02*
X202750000Y-99700000D01*
X168750000Y-98850000D02*
X168800000Y-98800000D01*
X168750000Y-99700000D02*
X168750000Y-98850000D01*
X147900000Y-99650000D02*
X147800000Y-99750000D01*
X148750000Y-105150000D02*
X148750000Y-106350008D01*
X150250000Y-101900000D02*
X149100000Y-101900000D01*
X168750000Y-99700000D02*
X168750000Y-99500000D01*
X148750000Y-106350008D02*
X148800000Y-106400008D01*
X154000000Y-99150000D02*
X154000000Y-98800000D01*
X154000000Y-99650000D02*
X154000000Y-99150000D01*
X151750000Y-101900000D02*
X152899998Y-101900000D01*
X162800000Y-100400000D02*
X162800000Y-102000000D01*
X177800000Y-100400000D02*
X177800000Y-102000000D01*
X154250000Y-105150000D02*
X154300000Y-105100000D01*
X139200000Y-100400000D02*
X139200000Y-102000000D01*
X124200000Y-100500000D02*
X124200000Y-102000000D01*
X153250000Y-105150000D02*
X154250000Y-105150000D01*
X211800000Y-100400000D02*
X211800000Y-102000000D01*
X90200000Y-100500000D02*
X90200000Y-102000000D01*
X149000000Y-100250000D02*
X149000000Y-100090695D01*
X149000000Y-100090695D02*
X149000000Y-99525010D01*
X147800000Y-101250000D02*
X148000000Y-101250000D01*
X148000000Y-101250000D02*
X149000000Y-100250000D01*
X172000000Y-102900000D02*
X175649989Y-99250011D01*
X169000000Y-102900000D02*
X172000000Y-102900000D01*
X157300000Y-101600000D02*
X159500000Y-99400000D01*
X152750000Y-107150000D02*
X152700000Y-107200000D01*
X150200000Y-107200000D02*
X148035002Y-107200000D01*
X130000000Y-102900000D02*
X126500000Y-99400000D01*
X153964998Y-107200000D02*
X156339988Y-104825010D01*
X136200000Y-102000000D02*
X133250000Y-102000000D01*
X168100000Y-102000000D02*
X168750000Y-102000000D01*
X156339988Y-104825010D02*
X156734315Y-104825010D01*
X175649989Y-99250011D02*
X199350011Y-99250011D01*
X168750000Y-102000000D02*
X168750000Y-102650000D01*
X165500000Y-99400000D02*
X168100000Y-102000000D01*
X152750000Y-105150000D02*
X152750000Y-107150000D01*
X156734315Y-104825010D02*
X157300000Y-104825010D01*
X152700000Y-107200000D02*
X153964998Y-107200000D01*
X145535002Y-104700000D02*
X136200000Y-104700000D01*
X168750000Y-102650000D02*
X169000000Y-102900000D01*
X133250000Y-102650000D02*
X133000000Y-102900000D01*
X148035002Y-107200000D02*
X145535002Y-104700000D01*
X102500000Y-99400000D02*
X99900000Y-102000000D01*
X133000000Y-102900000D02*
X130000000Y-102900000D01*
X126500000Y-99400000D02*
X102500000Y-99400000D01*
X159500000Y-99400000D02*
X165500000Y-99400000D01*
X152400001Y-107200000D02*
X150200000Y-107200000D01*
X99900000Y-102000000D02*
X99250000Y-102000000D01*
X152700000Y-107200000D02*
X152400001Y-107200000D01*
X199350011Y-99250011D02*
X202100000Y-102000000D01*
X202100000Y-102000000D02*
X202750000Y-102000000D01*
X133250000Y-102000000D02*
X133250000Y-102650000D01*
X154050000Y-101200000D02*
X154000000Y-101150000D01*
X155500000Y-101200000D02*
X154050000Y-101200000D01*
X204250000Y-99700000D02*
X204250000Y-102000000D01*
X170250000Y-99700000D02*
X170250000Y-102000000D01*
X131750000Y-99700000D02*
X131750000Y-102000000D01*
X97750000Y-99700000D02*
X97750000Y-102000000D01*
X94450000Y-103900000D02*
X131727178Y-103900000D01*
X91800000Y-102000000D02*
X92550000Y-102000000D01*
X131727178Y-103900000D02*
X131727200Y-103900022D01*
X133272800Y-103900022D02*
X133272822Y-103900000D01*
X133272822Y-103900000D02*
X148750000Y-103900000D01*
X148750000Y-103900000D02*
X149250000Y-104400000D01*
X131727200Y-103900022D02*
X133272800Y-103900022D01*
X149250000Y-104400000D02*
X149250000Y-105150000D01*
X92550000Y-102000000D02*
X94450000Y-103900000D01*
X151750000Y-104400000D02*
X151750000Y-105150000D01*
X152050000Y-104100000D02*
X151750000Y-104400000D01*
X207350000Y-104100000D02*
X152050000Y-104100000D01*
X210200000Y-102000000D02*
X209450000Y-102000000D01*
X209450000Y-102000000D02*
X207350000Y-104100000D01*
X141550000Y-102000000D02*
X142450000Y-102900000D01*
X140800000Y-102000000D02*
X141550000Y-102000000D01*
X149636410Y-102900000D02*
X150250000Y-103513590D01*
X150250000Y-103513590D02*
X150250000Y-104400000D01*
X142450000Y-102900000D02*
X149636410Y-102900000D01*
X150250000Y-104400000D02*
X150250000Y-105150000D01*
X151900000Y-103500000D02*
X151250031Y-104149969D01*
X176200000Y-102000000D02*
X174800000Y-102000000D01*
X151250031Y-104399969D02*
X151250000Y-104400000D01*
X151250000Y-104400000D02*
X151250000Y-105150000D01*
X174800000Y-102000000D02*
X173300000Y-103500000D01*
X151250031Y-104149969D02*
X151250031Y-104399969D01*
X173300000Y-103500000D02*
X151900000Y-103500000D01*
X149186400Y-103449989D02*
X149750000Y-104013589D01*
X149750000Y-104013589D02*
X149750000Y-104400000D01*
X125800000Y-102000000D02*
X126550000Y-102000000D01*
X149750000Y-104400000D02*
X149750000Y-105150000D01*
X126550000Y-102000000D02*
X127999989Y-103449989D01*
X127999989Y-103449989D02*
X149186400Y-103449989D01*
X161200000Y-102000000D02*
X160450000Y-102000000D01*
X150750000Y-104322821D02*
X150750000Y-104400000D01*
X151913622Y-102649967D02*
X150800020Y-103763569D01*
X160450000Y-102000000D02*
X159800033Y-102649967D01*
X150750000Y-104400000D02*
X150750000Y-105150000D01*
X159800033Y-102649967D02*
X151913622Y-102649967D01*
X150800020Y-103763569D02*
X150800020Y-104272801D01*
X150800020Y-104272801D02*
X150750000Y-104322821D01*
X150250000Y-115850000D02*
X150200000Y-115800000D01*
X150250000Y-118900000D02*
X150250000Y-115850000D01*
X147800000Y-115800000D02*
X148300000Y-115800000D01*
X100650000Y-115800000D02*
X133050000Y-115800000D01*
X99750000Y-116700000D02*
X100650000Y-115800000D01*
X133050000Y-115800000D02*
X133300000Y-115800000D01*
X201350000Y-115800000D02*
X202250000Y-116700000D01*
X155850000Y-115800000D02*
X168800000Y-115800000D01*
X150700000Y-115800000D02*
X154000000Y-115800000D01*
X150200000Y-115800000D02*
X150700000Y-115800000D01*
X148300000Y-115800000D02*
X150200000Y-115800000D01*
X147800000Y-116750000D02*
X147800000Y-115800000D01*
X133250000Y-115850000D02*
X133300000Y-115800000D01*
X99250000Y-116700000D02*
X99750000Y-116700000D01*
X133250000Y-116700000D02*
X133250000Y-115850000D01*
X133300000Y-115800000D02*
X147800000Y-115800000D01*
X155900000Y-115800000D02*
X154000000Y-115800000D01*
X168800000Y-115800000D02*
X201350000Y-115800000D01*
X202250000Y-116700000D02*
X202750000Y-116700000D01*
X168750000Y-115850000D02*
X168800000Y-115800000D01*
X168750000Y-116700000D02*
X168750000Y-115850000D01*
X147900000Y-116650000D02*
X147800000Y-116750000D01*
X148750000Y-122150000D02*
X148750000Y-123350008D01*
X150250000Y-118900000D02*
X149100000Y-118900000D01*
X168750000Y-116700000D02*
X168750000Y-116500000D01*
X148750000Y-123350008D02*
X148800000Y-123400008D01*
X154000000Y-116150000D02*
X154000000Y-115800000D01*
X154000000Y-116650000D02*
X154000000Y-116150000D01*
X151750000Y-118900000D02*
X152899998Y-118900000D01*
X162800000Y-117400000D02*
X162800000Y-119000000D01*
X177800000Y-117400000D02*
X177800000Y-119000000D01*
X154250000Y-122150000D02*
X154300000Y-122100000D01*
X139200000Y-117400000D02*
X139200000Y-119000000D01*
X124200000Y-117500000D02*
X124200000Y-119000000D01*
X153250000Y-122150000D02*
X154250000Y-122150000D01*
X211800000Y-117400000D02*
X211800000Y-119000000D01*
X90200000Y-117500000D02*
X90200000Y-119000000D01*
X149000000Y-117250000D02*
X149000000Y-117090695D01*
X149000000Y-117090695D02*
X149000000Y-116525010D01*
X147800000Y-118250000D02*
X148000000Y-118250000D01*
X148000000Y-118250000D02*
X149000000Y-117250000D01*
X172000000Y-119900000D02*
X175649989Y-116250011D01*
X169000000Y-119900000D02*
X172000000Y-119900000D01*
X157300000Y-118600000D02*
X159500000Y-116400000D01*
X152750000Y-124150000D02*
X152700000Y-124200000D01*
X150200000Y-124200000D02*
X148035002Y-124200000D01*
X130000000Y-119900000D02*
X126500000Y-116400000D01*
X153964998Y-124200000D02*
X156339988Y-121825010D01*
X136200000Y-119000000D02*
X133250000Y-119000000D01*
X168100000Y-119000000D02*
X168750000Y-119000000D01*
X156339988Y-121825010D02*
X156734315Y-121825010D01*
X175649989Y-116250011D02*
X199350011Y-116250011D01*
X168750000Y-119000000D02*
X168750000Y-119650000D01*
X165500000Y-116400000D02*
X168100000Y-119000000D01*
X152750000Y-122150000D02*
X152750000Y-124150000D01*
X156734315Y-121825010D02*
X157300000Y-121825010D01*
X152700000Y-124200000D02*
X153964998Y-124200000D01*
X145535002Y-121700000D02*
X136200000Y-121700000D01*
X168750000Y-119650000D02*
X169000000Y-119900000D01*
X133250000Y-119650000D02*
X133000000Y-119900000D01*
X148035002Y-124200000D02*
X145535002Y-121700000D01*
X102500000Y-116400000D02*
X99900000Y-119000000D01*
X133000000Y-119900000D02*
X130000000Y-119900000D01*
X126500000Y-116400000D02*
X102500000Y-116400000D01*
X159500000Y-116400000D02*
X165500000Y-116400000D01*
X152400001Y-124200000D02*
X150200000Y-124200000D01*
X99900000Y-119000000D02*
X99250000Y-119000000D01*
X152700000Y-124200000D02*
X152400001Y-124200000D01*
X199350011Y-116250011D02*
X202100000Y-119000000D01*
X202100000Y-119000000D02*
X202750000Y-119000000D01*
X133250000Y-119000000D02*
X133250000Y-119650000D01*
X154050000Y-118200000D02*
X154000000Y-118150000D01*
X155500000Y-118200000D02*
X154050000Y-118200000D01*
X204250000Y-116700000D02*
X204250000Y-119000000D01*
X170250000Y-116700000D02*
X170250000Y-119000000D01*
X131750000Y-116700000D02*
X131750000Y-119000000D01*
X97750000Y-116700000D02*
X97750000Y-119000000D01*
X94450000Y-120900000D02*
X131727178Y-120900000D01*
X91800000Y-119000000D02*
X92550000Y-119000000D01*
X131727178Y-120900000D02*
X131727200Y-120900022D01*
X133272800Y-120900022D02*
X133272822Y-120900000D01*
X133272822Y-120900000D02*
X148750000Y-120900000D01*
X148750000Y-120900000D02*
X149250000Y-121400000D01*
X131727200Y-120900022D02*
X133272800Y-120900022D01*
X149250000Y-121400000D02*
X149250000Y-122150000D01*
X92550000Y-119000000D02*
X94450000Y-120900000D01*
X151750000Y-121400000D02*
X151750000Y-122150000D01*
X152050000Y-121100000D02*
X151750000Y-121400000D01*
X207350000Y-121100000D02*
X152050000Y-121100000D01*
X210200000Y-119000000D02*
X209450000Y-119000000D01*
X209450000Y-119000000D02*
X207350000Y-121100000D01*
X141550000Y-119000000D02*
X142450000Y-119900000D01*
X140800000Y-119000000D02*
X141550000Y-119000000D01*
X149636410Y-119900000D02*
X150250000Y-120513590D01*
X150250000Y-120513590D02*
X150250000Y-121400000D01*
X142450000Y-119900000D02*
X149636410Y-119900000D01*
X150250000Y-121400000D02*
X150250000Y-122150000D01*
X151900000Y-120500000D02*
X151250031Y-121149969D01*
X176200000Y-119000000D02*
X174800000Y-119000000D01*
X151250031Y-121399969D02*
X151250000Y-121400000D01*
X151250000Y-121400000D02*
X151250000Y-122150000D01*
X174800000Y-119000000D02*
X173300000Y-120500000D01*
X151250031Y-121149969D02*
X151250031Y-121399969D01*
X173300000Y-120500000D02*
X151900000Y-120500000D01*
X149186400Y-120449989D02*
X149750000Y-121013589D01*
X149750000Y-121013589D02*
X149750000Y-121400000D01*
X125800000Y-119000000D02*
X126550000Y-119000000D01*
X149750000Y-121400000D02*
X149750000Y-122150000D01*
X126550000Y-119000000D02*
X127999989Y-120449989D01*
X127999989Y-120449989D02*
X149186400Y-120449989D01*
X161200000Y-119000000D02*
X160450000Y-119000000D01*
X150750000Y-121322821D02*
X150750000Y-121400000D01*
X151913622Y-119649967D02*
X150800020Y-120763569D01*
X160450000Y-119000000D02*
X159800033Y-119649967D01*
X150750000Y-121400000D02*
X150750000Y-122150000D01*
X159800033Y-119649967D02*
X151913622Y-119649967D01*
X150800020Y-120763569D02*
X150800020Y-121272801D01*
X150800020Y-121272801D02*
X150750000Y-121322821D01*
G04 #@! TD*
D19*
G36*
X219265001Y-89265000D02*
X171072388Y-89265000D01*
X171000000Y-89250601D01*
X170927612Y-89265000D01*
X170713217Y-89307646D01*
X170470095Y-89470095D01*
X170429091Y-89531463D01*
X168185538Y-91775016D01*
X168175405Y-91773000D01*
X167159435Y-91773000D01*
X166894741Y-91133974D01*
X166266026Y-90505259D01*
X165444569Y-90165000D01*
X164555431Y-90165000D01*
X163733974Y-90505259D01*
X163105259Y-91133974D01*
X162765000Y-91955431D01*
X162765000Y-92844569D01*
X162778491Y-92877139D01*
X162778578Y-92888204D01*
X162898042Y-93228388D01*
X162882667Y-93251399D01*
X162873000Y-93300000D01*
X162873000Y-94265000D01*
X139127000Y-94265000D01*
X139127000Y-93324595D01*
X139117333Y-93275994D01*
X139112784Y-93269186D01*
X139133422Y-93230938D01*
X139172695Y-92994985D01*
X139235000Y-92844569D01*
X139235000Y-92620663D01*
X139255000Y-92500504D01*
X139254722Y-92465084D01*
X139235000Y-92357097D01*
X139235000Y-91955431D01*
X138894741Y-91133974D01*
X138266026Y-90505259D01*
X137444569Y-90165000D01*
X136555431Y-90165000D01*
X135733974Y-90505259D01*
X135105259Y-91133974D01*
X134799144Y-91873000D01*
X133912447Y-91873000D01*
X131570911Y-89531465D01*
X131529905Y-89470095D01*
X131286783Y-89307646D01*
X131072388Y-89265000D01*
X131072384Y-89265000D01*
X131000000Y-89250602D01*
X130927616Y-89265000D01*
X82735000Y-89265000D01*
X82735000Y-85285750D01*
X89065000Y-85285750D01*
X89065000Y-85851310D01*
X89161673Y-86084699D01*
X89340302Y-86263327D01*
X89573691Y-86360000D01*
X89914250Y-86360000D01*
X90073000Y-86201250D01*
X90073000Y-85127000D01*
X89223750Y-85127000D01*
X89065000Y-85285750D01*
X82735000Y-85285750D01*
X82735000Y-84148690D01*
X89065000Y-84148690D01*
X89065000Y-84714250D01*
X89223750Y-84873000D01*
X90073000Y-84873000D01*
X90073000Y-83798750D01*
X90327000Y-83798750D01*
X90327000Y-84873000D01*
X90347000Y-84873000D01*
X90347000Y-85127000D01*
X90327000Y-85127000D01*
X90327000Y-86201250D01*
X90485750Y-86360000D01*
X90826309Y-86360000D01*
X90999816Y-86288131D01*
X91052235Y-86323157D01*
X91300000Y-86372440D01*
X92300000Y-86372440D01*
X92547765Y-86323157D01*
X92697983Y-86222784D01*
X93859670Y-87384472D01*
X93902071Y-87447929D01*
X93965527Y-87490329D01*
X94153462Y-87615904D01*
X94169711Y-87619136D01*
X94375148Y-87660000D01*
X94375152Y-87660000D01*
X94450000Y-87674888D01*
X94524848Y-87660000D01*
X131652237Y-87660000D01*
X131652348Y-87660022D01*
X131652352Y-87660022D01*
X131727199Y-87674910D01*
X131802046Y-87660022D01*
X133197953Y-87660022D01*
X133272800Y-87674910D01*
X133347647Y-87660022D01*
X133347652Y-87660022D01*
X133347763Y-87660000D01*
X135165000Y-87660000D01*
X135165000Y-87905874D01*
X135322569Y-88286280D01*
X135613720Y-88577431D01*
X135994126Y-88735000D01*
X136405874Y-88735000D01*
X136786280Y-88577431D01*
X136903711Y-88460000D01*
X144873000Y-88460000D01*
X144873000Y-89920572D01*
X144851843Y-89952235D01*
X144802560Y-90200000D01*
X144802560Y-91500000D01*
X144851843Y-91747765D01*
X144992191Y-91957809D01*
X145202235Y-92098157D01*
X145450000Y-92147440D01*
X147450000Y-92147440D01*
X147697765Y-92098157D01*
X147907809Y-91957809D01*
X148048157Y-91747765D01*
X148097440Y-91500000D01*
X148097440Y-90962468D01*
X148109849Y-90960000D01*
X149496289Y-90960000D01*
X149613720Y-91077431D01*
X149994126Y-91235000D01*
X150405874Y-91235000D01*
X150786280Y-91077431D01*
X150903711Y-90960000D01*
X152625153Y-90960000D01*
X152700000Y-90974888D01*
X152774847Y-90960000D01*
X153890151Y-90960000D01*
X153902560Y-90962468D01*
X153902560Y-91500000D01*
X153951843Y-91747765D01*
X154092191Y-91957809D01*
X154302235Y-92098157D01*
X154550000Y-92147440D01*
X156550000Y-92147440D01*
X156797765Y-92098157D01*
X157007809Y-91957809D01*
X157148157Y-91747765D01*
X157197440Y-91500000D01*
X157197440Y-90200000D01*
X157148157Y-89952235D01*
X157145720Y-89948587D01*
X157131660Y-88860010D01*
X157505874Y-88860010D01*
X157886280Y-88702441D01*
X158177431Y-88411290D01*
X158335000Y-88030884D01*
X158335000Y-87860000D01*
X207275153Y-87860000D01*
X207350000Y-87874888D01*
X207424847Y-87860000D01*
X207424852Y-87860000D01*
X207646537Y-87815904D01*
X207897929Y-87647929D01*
X207940331Y-87584470D01*
X209302018Y-86222784D01*
X209452235Y-86323157D01*
X209700000Y-86372440D01*
X210700000Y-86372440D01*
X210947765Y-86323157D01*
X211000184Y-86288131D01*
X211173691Y-86360000D01*
X211514250Y-86360000D01*
X211673000Y-86201250D01*
X211673000Y-85127000D01*
X211927000Y-85127000D01*
X211927000Y-86201250D01*
X212085750Y-86360000D01*
X212426309Y-86360000D01*
X212659698Y-86263327D01*
X212838327Y-86084699D01*
X212935000Y-85851310D01*
X212935000Y-85285750D01*
X212776250Y-85127000D01*
X211927000Y-85127000D01*
X211673000Y-85127000D01*
X211653000Y-85127000D01*
X211653000Y-84873000D01*
X211673000Y-84873000D01*
X211673000Y-83798750D01*
X211927000Y-83798750D01*
X211927000Y-84873000D01*
X212776250Y-84873000D01*
X212935000Y-84714250D01*
X212935000Y-84148690D01*
X212838327Y-83915301D01*
X212659698Y-83736673D01*
X212426309Y-83640000D01*
X212085750Y-83640000D01*
X211927000Y-83798750D01*
X211673000Y-83798750D01*
X211514250Y-83640000D01*
X211173691Y-83640000D01*
X211000184Y-83711869D01*
X210947765Y-83676843D01*
X210700000Y-83627560D01*
X209700000Y-83627560D01*
X209452235Y-83676843D01*
X209242191Y-83817191D01*
X209101843Y-84027235D01*
X209052560Y-84275000D01*
X209052560Y-84351517D01*
X208965526Y-84409671D01*
X208965524Y-84409673D01*
X208902071Y-84452071D01*
X208859673Y-84515524D01*
X207035199Y-86340000D01*
X178474593Y-86340000D01*
X178659698Y-86263327D01*
X178838327Y-86084699D01*
X178935000Y-85851310D01*
X178935000Y-85285750D01*
X178776250Y-85127000D01*
X177927000Y-85127000D01*
X177927000Y-85147000D01*
X177673000Y-85147000D01*
X177673000Y-85127000D01*
X177653000Y-85127000D01*
X177653000Y-84873000D01*
X177673000Y-84873000D01*
X177673000Y-83798750D01*
X177927000Y-83798750D01*
X177927000Y-84873000D01*
X178776250Y-84873000D01*
X178935000Y-84714250D01*
X178935000Y-84148690D01*
X178838327Y-83915301D01*
X178659698Y-83736673D01*
X178426309Y-83640000D01*
X178085750Y-83640000D01*
X177927000Y-83798750D01*
X177673000Y-83798750D01*
X177627000Y-83752750D01*
X177627000Y-83010011D01*
X199035210Y-83010011D01*
X201509670Y-85484472D01*
X201552071Y-85547929D01*
X201615527Y-85590329D01*
X201792461Y-85708553D01*
X201892191Y-85857809D01*
X202102235Y-85998157D01*
X202350000Y-86047440D01*
X203150000Y-86047440D01*
X203397765Y-85998157D01*
X203500000Y-85929845D01*
X203602235Y-85998157D01*
X203850000Y-86047440D01*
X204650000Y-86047440D01*
X204897765Y-85998157D01*
X205107809Y-85857809D01*
X205248157Y-85647765D01*
X205297440Y-85400000D01*
X205297440Y-84600000D01*
X205248157Y-84352235D01*
X205107809Y-84142191D01*
X205010000Y-84076837D01*
X205010000Y-83529700D01*
X205098157Y-83397765D01*
X205147440Y-83150000D01*
X205147440Y-82250000D01*
X205098157Y-82002235D01*
X204957809Y-81792191D01*
X204747765Y-81651843D01*
X204500000Y-81602560D01*
X204000000Y-81602560D01*
X203752235Y-81651843D01*
X203542191Y-81792191D01*
X203500000Y-81855334D01*
X203457809Y-81792191D01*
X203247765Y-81651843D01*
X203000000Y-81602560D01*
X202500000Y-81602560D01*
X202272595Y-81647793D01*
X201940331Y-81315530D01*
X201897929Y-81252071D01*
X201646537Y-81084096D01*
X201424852Y-81040000D01*
X201424847Y-81040000D01*
X201350000Y-81025112D01*
X201275153Y-81040000D01*
X168874848Y-81040000D01*
X168800000Y-81025112D01*
X168725152Y-81040000D01*
X154074852Y-81040000D01*
X154000000Y-81025111D01*
X153925148Y-81040000D01*
X150274847Y-81040000D01*
X150200000Y-81025112D01*
X150125153Y-81040000D01*
X147874852Y-81040000D01*
X147800000Y-81025111D01*
X147725148Y-81040000D01*
X133374848Y-81040000D01*
X133300000Y-81025112D01*
X133225152Y-81040000D01*
X100724846Y-81040000D01*
X100649999Y-81025112D01*
X100575152Y-81040000D01*
X100575148Y-81040000D01*
X100353463Y-81084096D01*
X100102071Y-81252071D01*
X100059671Y-81315527D01*
X99727405Y-81647793D01*
X99500000Y-81602560D01*
X99000000Y-81602560D01*
X98752235Y-81651843D01*
X98542191Y-81792191D01*
X98500000Y-81855334D01*
X98457809Y-81792191D01*
X98247765Y-81651843D01*
X98000000Y-81602560D01*
X97500000Y-81602560D01*
X97252235Y-81651843D01*
X97042191Y-81792191D01*
X96901843Y-82002235D01*
X96852560Y-82250000D01*
X96852560Y-83150000D01*
X96901843Y-83397765D01*
X96990000Y-83529701D01*
X96990001Y-84076836D01*
X96892191Y-84142191D01*
X96751843Y-84352235D01*
X96702560Y-84600000D01*
X96702560Y-85400000D01*
X96751843Y-85647765D01*
X96892191Y-85857809D01*
X97102235Y-85998157D01*
X97350000Y-86047440D01*
X98150000Y-86047440D01*
X98397765Y-85998157D01*
X98500000Y-85929845D01*
X98602235Y-85998157D01*
X98850000Y-86047440D01*
X99650000Y-86047440D01*
X99897765Y-85998157D01*
X100107809Y-85857809D01*
X100207540Y-85708552D01*
X100447929Y-85547929D01*
X100490331Y-85484470D01*
X101826111Y-84148690D01*
X123065000Y-84148690D01*
X123065000Y-84714250D01*
X123223750Y-84873000D01*
X124073000Y-84873000D01*
X124073000Y-83798750D01*
X123914250Y-83640000D01*
X123573691Y-83640000D01*
X123340302Y-83736673D01*
X123161673Y-83915301D01*
X123065000Y-84148690D01*
X101826111Y-84148690D01*
X102814802Y-83160000D01*
X124373000Y-83160000D01*
X124373000Y-83752750D01*
X124327000Y-83798750D01*
X124327000Y-84873000D01*
X124347000Y-84873000D01*
X124347000Y-85127000D01*
X124327000Y-85127000D01*
X124327000Y-85147000D01*
X124073000Y-85147000D01*
X124073000Y-85127000D01*
X123223750Y-85127000D01*
X123065000Y-85285750D01*
X123065000Y-85851310D01*
X123161673Y-86084699D01*
X123216974Y-86140000D01*
X94764802Y-86140000D01*
X93140331Y-84515530D01*
X93097929Y-84452071D01*
X92947440Y-84351517D01*
X92947440Y-84275000D01*
X92898157Y-84027235D01*
X92757809Y-83817191D01*
X92547765Y-83676843D01*
X92300000Y-83627560D01*
X91300000Y-83627560D01*
X91052235Y-83676843D01*
X90999816Y-83711869D01*
X90826309Y-83640000D01*
X90485750Y-83640000D01*
X90327000Y-83798750D01*
X90073000Y-83798750D01*
X89914250Y-83640000D01*
X89573691Y-83640000D01*
X89340302Y-83736673D01*
X89161673Y-83915301D01*
X89065000Y-84148690D01*
X82735000Y-84148690D01*
X82735000Y-80735000D01*
X219265000Y-80735000D01*
X219265001Y-89265000D01*
X219265001Y-89265000D01*
G37*
X219265001Y-89265000D02*
X171072388Y-89265000D01*
X171000000Y-89250601D01*
X170927612Y-89265000D01*
X170713217Y-89307646D01*
X170470095Y-89470095D01*
X170429091Y-89531463D01*
X168185538Y-91775016D01*
X168175405Y-91773000D01*
X167159435Y-91773000D01*
X166894741Y-91133974D01*
X166266026Y-90505259D01*
X165444569Y-90165000D01*
X164555431Y-90165000D01*
X163733974Y-90505259D01*
X163105259Y-91133974D01*
X162765000Y-91955431D01*
X162765000Y-92844569D01*
X162778491Y-92877139D01*
X162778578Y-92888204D01*
X162898042Y-93228388D01*
X162882667Y-93251399D01*
X162873000Y-93300000D01*
X162873000Y-94265000D01*
X139127000Y-94265000D01*
X139127000Y-93324595D01*
X139117333Y-93275994D01*
X139112784Y-93269186D01*
X139133422Y-93230938D01*
X139172695Y-92994985D01*
X139235000Y-92844569D01*
X139235000Y-92620663D01*
X139255000Y-92500504D01*
X139254722Y-92465084D01*
X139235000Y-92357097D01*
X139235000Y-91955431D01*
X138894741Y-91133974D01*
X138266026Y-90505259D01*
X137444569Y-90165000D01*
X136555431Y-90165000D01*
X135733974Y-90505259D01*
X135105259Y-91133974D01*
X134799144Y-91873000D01*
X133912447Y-91873000D01*
X131570911Y-89531465D01*
X131529905Y-89470095D01*
X131286783Y-89307646D01*
X131072388Y-89265000D01*
X131072384Y-89265000D01*
X131000000Y-89250602D01*
X130927616Y-89265000D01*
X82735000Y-89265000D01*
X82735000Y-85285750D01*
X89065000Y-85285750D01*
X89065000Y-85851310D01*
X89161673Y-86084699D01*
X89340302Y-86263327D01*
X89573691Y-86360000D01*
X89914250Y-86360000D01*
X90073000Y-86201250D01*
X90073000Y-85127000D01*
X89223750Y-85127000D01*
X89065000Y-85285750D01*
X82735000Y-85285750D01*
X82735000Y-84148690D01*
X89065000Y-84148690D01*
X89065000Y-84714250D01*
X89223750Y-84873000D01*
X90073000Y-84873000D01*
X90073000Y-83798750D01*
X90327000Y-83798750D01*
X90327000Y-84873000D01*
X90347000Y-84873000D01*
X90347000Y-85127000D01*
X90327000Y-85127000D01*
X90327000Y-86201250D01*
X90485750Y-86360000D01*
X90826309Y-86360000D01*
X90999816Y-86288131D01*
X91052235Y-86323157D01*
X91300000Y-86372440D01*
X92300000Y-86372440D01*
X92547765Y-86323157D01*
X92697983Y-86222784D01*
X93859670Y-87384472D01*
X93902071Y-87447929D01*
X93965527Y-87490329D01*
X94153462Y-87615904D01*
X94169711Y-87619136D01*
X94375148Y-87660000D01*
X94375152Y-87660000D01*
X94450000Y-87674888D01*
X94524848Y-87660000D01*
X131652237Y-87660000D01*
X131652348Y-87660022D01*
X131652352Y-87660022D01*
X131727199Y-87674910D01*
X131802046Y-87660022D01*
X133197953Y-87660022D01*
X133272800Y-87674910D01*
X133347647Y-87660022D01*
X133347652Y-87660022D01*
X133347763Y-87660000D01*
X135165000Y-87660000D01*
X135165000Y-87905874D01*
X135322569Y-88286280D01*
X135613720Y-88577431D01*
X135994126Y-88735000D01*
X136405874Y-88735000D01*
X136786280Y-88577431D01*
X136903711Y-88460000D01*
X144873000Y-88460000D01*
X144873000Y-89920572D01*
X144851843Y-89952235D01*
X144802560Y-90200000D01*
X144802560Y-91500000D01*
X144851843Y-91747765D01*
X144992191Y-91957809D01*
X145202235Y-92098157D01*
X145450000Y-92147440D01*
X147450000Y-92147440D01*
X147697765Y-92098157D01*
X147907809Y-91957809D01*
X148048157Y-91747765D01*
X148097440Y-91500000D01*
X148097440Y-90962468D01*
X148109849Y-90960000D01*
X149496289Y-90960000D01*
X149613720Y-91077431D01*
X149994126Y-91235000D01*
X150405874Y-91235000D01*
X150786280Y-91077431D01*
X150903711Y-90960000D01*
X152625153Y-90960000D01*
X152700000Y-90974888D01*
X152774847Y-90960000D01*
X153890151Y-90960000D01*
X153902560Y-90962468D01*
X153902560Y-91500000D01*
X153951843Y-91747765D01*
X154092191Y-91957809D01*
X154302235Y-92098157D01*
X154550000Y-92147440D01*
X156550000Y-92147440D01*
X156797765Y-92098157D01*
X157007809Y-91957809D01*
X157148157Y-91747765D01*
X157197440Y-91500000D01*
X157197440Y-90200000D01*
X157148157Y-89952235D01*
X157145720Y-89948587D01*
X157131660Y-88860010D01*
X157505874Y-88860010D01*
X157886280Y-88702441D01*
X158177431Y-88411290D01*
X158335000Y-88030884D01*
X158335000Y-87860000D01*
X207275153Y-87860000D01*
X207350000Y-87874888D01*
X207424847Y-87860000D01*
X207424852Y-87860000D01*
X207646537Y-87815904D01*
X207897929Y-87647929D01*
X207940331Y-87584470D01*
X209302018Y-86222784D01*
X209452235Y-86323157D01*
X209700000Y-86372440D01*
X210700000Y-86372440D01*
X210947765Y-86323157D01*
X211000184Y-86288131D01*
X211173691Y-86360000D01*
X211514250Y-86360000D01*
X211673000Y-86201250D01*
X211673000Y-85127000D01*
X211927000Y-85127000D01*
X211927000Y-86201250D01*
X212085750Y-86360000D01*
X212426309Y-86360000D01*
X212659698Y-86263327D01*
X212838327Y-86084699D01*
X212935000Y-85851310D01*
X212935000Y-85285750D01*
X212776250Y-85127000D01*
X211927000Y-85127000D01*
X211673000Y-85127000D01*
X211653000Y-85127000D01*
X211653000Y-84873000D01*
X211673000Y-84873000D01*
X211673000Y-83798750D01*
X211927000Y-83798750D01*
X211927000Y-84873000D01*
X212776250Y-84873000D01*
X212935000Y-84714250D01*
X212935000Y-84148690D01*
X212838327Y-83915301D01*
X212659698Y-83736673D01*
X212426309Y-83640000D01*
X212085750Y-83640000D01*
X211927000Y-83798750D01*
X211673000Y-83798750D01*
X211514250Y-83640000D01*
X211173691Y-83640000D01*
X211000184Y-83711869D01*
X210947765Y-83676843D01*
X210700000Y-83627560D01*
X209700000Y-83627560D01*
X209452235Y-83676843D01*
X209242191Y-83817191D01*
X209101843Y-84027235D01*
X209052560Y-84275000D01*
X209052560Y-84351517D01*
X208965526Y-84409671D01*
X208965524Y-84409673D01*
X208902071Y-84452071D01*
X208859673Y-84515524D01*
X207035199Y-86340000D01*
X178474593Y-86340000D01*
X178659698Y-86263327D01*
X178838327Y-86084699D01*
X178935000Y-85851310D01*
X178935000Y-85285750D01*
X178776250Y-85127000D01*
X177927000Y-85127000D01*
X177927000Y-85147000D01*
X177673000Y-85147000D01*
X177673000Y-85127000D01*
X177653000Y-85127000D01*
X177653000Y-84873000D01*
X177673000Y-84873000D01*
X177673000Y-83798750D01*
X177927000Y-83798750D01*
X177927000Y-84873000D01*
X178776250Y-84873000D01*
X178935000Y-84714250D01*
X178935000Y-84148690D01*
X178838327Y-83915301D01*
X178659698Y-83736673D01*
X178426309Y-83640000D01*
X178085750Y-83640000D01*
X177927000Y-83798750D01*
X177673000Y-83798750D01*
X177627000Y-83752750D01*
X177627000Y-83010011D01*
X199035210Y-83010011D01*
X201509670Y-85484472D01*
X201552071Y-85547929D01*
X201615527Y-85590329D01*
X201792461Y-85708553D01*
X201892191Y-85857809D01*
X202102235Y-85998157D01*
X202350000Y-86047440D01*
X203150000Y-86047440D01*
X203397765Y-85998157D01*
X203500000Y-85929845D01*
X203602235Y-85998157D01*
X203850000Y-86047440D01*
X204650000Y-86047440D01*
X204897765Y-85998157D01*
X205107809Y-85857809D01*
X205248157Y-85647765D01*
X205297440Y-85400000D01*
X205297440Y-84600000D01*
X205248157Y-84352235D01*
X205107809Y-84142191D01*
X205010000Y-84076837D01*
X205010000Y-83529700D01*
X205098157Y-83397765D01*
X205147440Y-83150000D01*
X205147440Y-82250000D01*
X205098157Y-82002235D01*
X204957809Y-81792191D01*
X204747765Y-81651843D01*
X204500000Y-81602560D01*
X204000000Y-81602560D01*
X203752235Y-81651843D01*
X203542191Y-81792191D01*
X203500000Y-81855334D01*
X203457809Y-81792191D01*
X203247765Y-81651843D01*
X203000000Y-81602560D01*
X202500000Y-81602560D01*
X202272595Y-81647793D01*
X201940331Y-81315530D01*
X201897929Y-81252071D01*
X201646537Y-81084096D01*
X201424852Y-81040000D01*
X201424847Y-81040000D01*
X201350000Y-81025112D01*
X201275153Y-81040000D01*
X168874848Y-81040000D01*
X168800000Y-81025112D01*
X168725152Y-81040000D01*
X154074852Y-81040000D01*
X154000000Y-81025111D01*
X153925148Y-81040000D01*
X150274847Y-81040000D01*
X150200000Y-81025112D01*
X150125153Y-81040000D01*
X147874852Y-81040000D01*
X147800000Y-81025111D01*
X147725148Y-81040000D01*
X133374848Y-81040000D01*
X133300000Y-81025112D01*
X133225152Y-81040000D01*
X100724846Y-81040000D01*
X100649999Y-81025112D01*
X100575152Y-81040000D01*
X100575148Y-81040000D01*
X100353463Y-81084096D01*
X100102071Y-81252071D01*
X100059671Y-81315527D01*
X99727405Y-81647793D01*
X99500000Y-81602560D01*
X99000000Y-81602560D01*
X98752235Y-81651843D01*
X98542191Y-81792191D01*
X98500000Y-81855334D01*
X98457809Y-81792191D01*
X98247765Y-81651843D01*
X98000000Y-81602560D01*
X97500000Y-81602560D01*
X97252235Y-81651843D01*
X97042191Y-81792191D01*
X96901843Y-82002235D01*
X96852560Y-82250000D01*
X96852560Y-83150000D01*
X96901843Y-83397765D01*
X96990000Y-83529701D01*
X96990001Y-84076836D01*
X96892191Y-84142191D01*
X96751843Y-84352235D01*
X96702560Y-84600000D01*
X96702560Y-85400000D01*
X96751843Y-85647765D01*
X96892191Y-85857809D01*
X97102235Y-85998157D01*
X97350000Y-86047440D01*
X98150000Y-86047440D01*
X98397765Y-85998157D01*
X98500000Y-85929845D01*
X98602235Y-85998157D01*
X98850000Y-86047440D01*
X99650000Y-86047440D01*
X99897765Y-85998157D01*
X100107809Y-85857809D01*
X100207540Y-85708552D01*
X100447929Y-85547929D01*
X100490331Y-85484470D01*
X101826111Y-84148690D01*
X123065000Y-84148690D01*
X123065000Y-84714250D01*
X123223750Y-84873000D01*
X124073000Y-84873000D01*
X124073000Y-83798750D01*
X123914250Y-83640000D01*
X123573691Y-83640000D01*
X123340302Y-83736673D01*
X123161673Y-83915301D01*
X123065000Y-84148690D01*
X101826111Y-84148690D01*
X102814802Y-83160000D01*
X124373000Y-83160000D01*
X124373000Y-83752750D01*
X124327000Y-83798750D01*
X124327000Y-84873000D01*
X124347000Y-84873000D01*
X124347000Y-85127000D01*
X124327000Y-85127000D01*
X124327000Y-85147000D01*
X124073000Y-85147000D01*
X124073000Y-85127000D01*
X123223750Y-85127000D01*
X123065000Y-85285750D01*
X123065000Y-85851310D01*
X123161673Y-86084699D01*
X123216974Y-86140000D01*
X94764802Y-86140000D01*
X93140331Y-84515530D01*
X93097929Y-84452071D01*
X92947440Y-84351517D01*
X92947440Y-84275000D01*
X92898157Y-84027235D01*
X92757809Y-83817191D01*
X92547765Y-83676843D01*
X92300000Y-83627560D01*
X91300000Y-83627560D01*
X91052235Y-83676843D01*
X90999816Y-83711869D01*
X90826309Y-83640000D01*
X90485750Y-83640000D01*
X90327000Y-83798750D01*
X90073000Y-83798750D01*
X89914250Y-83640000D01*
X89573691Y-83640000D01*
X89340302Y-83736673D01*
X89161673Y-83915301D01*
X89065000Y-84148690D01*
X82735000Y-84148690D01*
X82735000Y-80735000D01*
X219265000Y-80735000D01*
X219265001Y-89265000D01*
G36*
X167509670Y-85484472D02*
X167552071Y-85547929D01*
X167792460Y-85708552D01*
X167813473Y-85740000D01*
X163935000Y-85740000D01*
X163935000Y-85285750D01*
X163776250Y-85127000D01*
X162927000Y-85127000D01*
X162927000Y-85147000D01*
X162673000Y-85147000D01*
X162673000Y-85127000D01*
X162653000Y-85127000D01*
X162653000Y-84873000D01*
X162673000Y-84873000D01*
X162673000Y-83798750D01*
X162927000Y-83798750D01*
X162927000Y-84873000D01*
X163776250Y-84873000D01*
X163935000Y-84714250D01*
X163935000Y-84148690D01*
X163838327Y-83915301D01*
X163659698Y-83736673D01*
X163426309Y-83640000D01*
X163085750Y-83640000D01*
X162927000Y-83798750D01*
X162673000Y-83798750D01*
X162514250Y-83640000D01*
X162173691Y-83640000D01*
X162000184Y-83711869D01*
X161947765Y-83676843D01*
X161700000Y-83627560D01*
X160700000Y-83627560D01*
X160452235Y-83676843D01*
X160242191Y-83817191D01*
X160101843Y-84027235D01*
X160052560Y-84275000D01*
X160052560Y-84351517D01*
X159902071Y-84452071D01*
X159859671Y-84515527D01*
X159485232Y-84889967D01*
X158300168Y-84889967D01*
X158335000Y-84805874D01*
X158335000Y-84639801D01*
X159814802Y-83160000D01*
X165185199Y-83160000D01*
X167509670Y-85484472D01*
X167509670Y-85484472D01*
G37*
X167509670Y-85484472D02*
X167552071Y-85547929D01*
X167792460Y-85708552D01*
X167813473Y-85740000D01*
X163935000Y-85740000D01*
X163935000Y-85285750D01*
X163776250Y-85127000D01*
X162927000Y-85127000D01*
X162927000Y-85147000D01*
X162673000Y-85147000D01*
X162673000Y-85127000D01*
X162653000Y-85127000D01*
X162653000Y-84873000D01*
X162673000Y-84873000D01*
X162673000Y-83798750D01*
X162927000Y-83798750D01*
X162927000Y-84873000D01*
X163776250Y-84873000D01*
X163935000Y-84714250D01*
X163935000Y-84148690D01*
X163838327Y-83915301D01*
X163659698Y-83736673D01*
X163426309Y-83640000D01*
X163085750Y-83640000D01*
X162927000Y-83798750D01*
X162673000Y-83798750D01*
X162514250Y-83640000D01*
X162173691Y-83640000D01*
X162000184Y-83711869D01*
X161947765Y-83676843D01*
X161700000Y-83627560D01*
X160700000Y-83627560D01*
X160452235Y-83676843D01*
X160242191Y-83817191D01*
X160101843Y-84027235D01*
X160052560Y-84275000D01*
X160052560Y-84351517D01*
X159902071Y-84452071D01*
X159859671Y-84515527D01*
X159485232Y-84889967D01*
X158300168Y-84889967D01*
X158335000Y-84805874D01*
X158335000Y-84639801D01*
X159814802Y-83160000D01*
X165185199Y-83160000D01*
X167509670Y-85484472D01*
G36*
X146702560Y-83000000D02*
X146751843Y-83247765D01*
X146892191Y-83457809D01*
X146955334Y-83500000D01*
X146892191Y-83542191D01*
X146751843Y-83752235D01*
X146702560Y-84000000D01*
X146702560Y-84321627D01*
X146682667Y-84351399D01*
X146673000Y-84400000D01*
X146673000Y-85140000D01*
X142764802Y-85140000D01*
X142140331Y-84515530D01*
X142097929Y-84452071D01*
X141947440Y-84351517D01*
X141947440Y-84275000D01*
X141898157Y-84027235D01*
X141757809Y-83817191D01*
X141547765Y-83676843D01*
X141300000Y-83627560D01*
X140300000Y-83627560D01*
X140052235Y-83676843D01*
X139999816Y-83711869D01*
X139826309Y-83640000D01*
X139485750Y-83640000D01*
X139327000Y-83798750D01*
X139327000Y-84873000D01*
X139347000Y-84873000D01*
X139347000Y-85127000D01*
X139327000Y-85127000D01*
X139327000Y-85147000D01*
X139073000Y-85147000D01*
X139073000Y-85127000D01*
X138223750Y-85127000D01*
X138065000Y-85285750D01*
X138065000Y-85689989D01*
X136973722Y-85689989D01*
X137077431Y-85586280D01*
X137235000Y-85205874D01*
X137235000Y-84794126D01*
X137077431Y-84413720D01*
X136812401Y-84148690D01*
X138065000Y-84148690D01*
X138065000Y-84714250D01*
X138223750Y-84873000D01*
X139073000Y-84873000D01*
X139073000Y-83798750D01*
X138914250Y-83640000D01*
X138573691Y-83640000D01*
X138340302Y-83736673D01*
X138161673Y-83915301D01*
X138065000Y-84148690D01*
X136812401Y-84148690D01*
X136786280Y-84122569D01*
X136405874Y-83965000D01*
X135994126Y-83965000D01*
X135613720Y-84122569D01*
X135496289Y-84240000D01*
X134173163Y-84240000D01*
X134127000Y-84170912D01*
X134127000Y-83252760D01*
X134147440Y-83150000D01*
X134147440Y-82560000D01*
X146702560Y-82560000D01*
X146702560Y-83000000D01*
X146702560Y-83000000D01*
G37*
X146702560Y-83000000D02*
X146751843Y-83247765D01*
X146892191Y-83457809D01*
X146955334Y-83500000D01*
X146892191Y-83542191D01*
X146751843Y-83752235D01*
X146702560Y-84000000D01*
X146702560Y-84321627D01*
X146682667Y-84351399D01*
X146673000Y-84400000D01*
X146673000Y-85140000D01*
X142764802Y-85140000D01*
X142140331Y-84515530D01*
X142097929Y-84452071D01*
X141947440Y-84351517D01*
X141947440Y-84275000D01*
X141898157Y-84027235D01*
X141757809Y-83817191D01*
X141547765Y-83676843D01*
X141300000Y-83627560D01*
X140300000Y-83627560D01*
X140052235Y-83676843D01*
X139999816Y-83711869D01*
X139826309Y-83640000D01*
X139485750Y-83640000D01*
X139327000Y-83798750D01*
X139327000Y-84873000D01*
X139347000Y-84873000D01*
X139347000Y-85127000D01*
X139327000Y-85127000D01*
X139327000Y-85147000D01*
X139073000Y-85147000D01*
X139073000Y-85127000D01*
X138223750Y-85127000D01*
X138065000Y-85285750D01*
X138065000Y-85689989D01*
X136973722Y-85689989D01*
X137077431Y-85586280D01*
X137235000Y-85205874D01*
X137235000Y-84794126D01*
X137077431Y-84413720D01*
X136812401Y-84148690D01*
X138065000Y-84148690D01*
X138065000Y-84714250D01*
X138223750Y-84873000D01*
X139073000Y-84873000D01*
X139073000Y-83798750D01*
X138914250Y-83640000D01*
X138573691Y-83640000D01*
X138340302Y-83736673D01*
X138161673Y-83915301D01*
X138065000Y-84148690D01*
X136812401Y-84148690D01*
X136786280Y-84122569D01*
X136405874Y-83965000D01*
X135994126Y-83965000D01*
X135613720Y-84122569D01*
X135496289Y-84240000D01*
X134173163Y-84240000D01*
X134127000Y-84170912D01*
X134127000Y-83252760D01*
X134147440Y-83150000D01*
X134147440Y-82560000D01*
X146702560Y-82560000D01*
X146702560Y-83000000D01*
G36*
X152902560Y-82900000D02*
X152951843Y-83147765D01*
X153092191Y-83357809D01*
X153155334Y-83400000D01*
X153092191Y-83442191D01*
X152951843Y-83652235D01*
X152902560Y-83900000D01*
X152902560Y-84400000D01*
X152951843Y-84647765D01*
X153092191Y-84857809D01*
X153140318Y-84889967D01*
X152785000Y-84889967D01*
X152785000Y-84772998D01*
X152626252Y-84772998D01*
X152785000Y-84614250D01*
X152785000Y-84398690D01*
X152688327Y-84165301D01*
X152509698Y-83986673D01*
X152276309Y-83890000D01*
X152035750Y-83890000D01*
X151877000Y-84048750D01*
X151877000Y-84773000D01*
X151897000Y-84773000D01*
X151897000Y-84878385D01*
X151838774Y-84889967D01*
X151838770Y-84889967D01*
X151617085Y-84934063D01*
X151603000Y-84943474D01*
X151603000Y-84773000D01*
X151623000Y-84773000D01*
X151623000Y-84048750D01*
X151464250Y-83890000D01*
X151223691Y-83890000D01*
X151010000Y-83978514D01*
X151010000Y-82560000D01*
X152902560Y-82560000D01*
X152902560Y-82900000D01*
X152902560Y-82900000D01*
G37*
X152902560Y-82900000D02*
X152951843Y-83147765D01*
X153092191Y-83357809D01*
X153155334Y-83400000D01*
X153092191Y-83442191D01*
X152951843Y-83652235D01*
X152902560Y-83900000D01*
X152902560Y-84400000D01*
X152951843Y-84647765D01*
X153092191Y-84857809D01*
X153140318Y-84889967D01*
X152785000Y-84889967D01*
X152785000Y-84772998D01*
X152626252Y-84772998D01*
X152785000Y-84614250D01*
X152785000Y-84398690D01*
X152688327Y-84165301D01*
X152509698Y-83986673D01*
X152276309Y-83890000D01*
X152035750Y-83890000D01*
X151877000Y-84048750D01*
X151877000Y-84773000D01*
X151897000Y-84773000D01*
X151897000Y-84878385D01*
X151838774Y-84889967D01*
X151838770Y-84889967D01*
X151617085Y-84934063D01*
X151603000Y-84943474D01*
X151603000Y-84773000D01*
X151623000Y-84773000D01*
X151623000Y-84048750D01*
X151464250Y-83890000D01*
X151223691Y-83890000D01*
X151010000Y-83978514D01*
X151010000Y-82560000D01*
X152902560Y-82560000D01*
X152902560Y-82900000D01*
G36*
X219265001Y-106265000D02*
X171072388Y-106265000D01*
X171000000Y-106250601D01*
X170927612Y-106265000D01*
X170713217Y-106307646D01*
X170470095Y-106470095D01*
X170429091Y-106531463D01*
X168185538Y-108775016D01*
X168175405Y-108773000D01*
X167159435Y-108773000D01*
X166894741Y-108133974D01*
X166266026Y-107505259D01*
X165444569Y-107165000D01*
X164555431Y-107165000D01*
X163733974Y-107505259D01*
X163105259Y-108133974D01*
X162765000Y-108955431D01*
X162765000Y-109844569D01*
X162778491Y-109877139D01*
X162778578Y-109888204D01*
X162898042Y-110228388D01*
X162882667Y-110251399D01*
X162873000Y-110300000D01*
X162873000Y-111265000D01*
X139127000Y-111265000D01*
X139127000Y-110324595D01*
X139117333Y-110275994D01*
X139112784Y-110269186D01*
X139133422Y-110230938D01*
X139172695Y-109994985D01*
X139235000Y-109844569D01*
X139235000Y-109620663D01*
X139255000Y-109500504D01*
X139254722Y-109465084D01*
X139235000Y-109357097D01*
X139235000Y-108955431D01*
X138894741Y-108133974D01*
X138266026Y-107505259D01*
X137444569Y-107165000D01*
X136555431Y-107165000D01*
X135733974Y-107505259D01*
X135105259Y-108133974D01*
X134799144Y-108873000D01*
X133912447Y-108873000D01*
X131570911Y-106531465D01*
X131529905Y-106470095D01*
X131286783Y-106307646D01*
X131072388Y-106265000D01*
X131072384Y-106265000D01*
X131000000Y-106250602D01*
X130927616Y-106265000D01*
X82735000Y-106265000D01*
X82735000Y-102285750D01*
X89065000Y-102285750D01*
X89065000Y-102851310D01*
X89161673Y-103084699D01*
X89340302Y-103263327D01*
X89573691Y-103360000D01*
X89914250Y-103360000D01*
X90073000Y-103201250D01*
X90073000Y-102127000D01*
X89223750Y-102127000D01*
X89065000Y-102285750D01*
X82735000Y-102285750D01*
X82735000Y-101148690D01*
X89065000Y-101148690D01*
X89065000Y-101714250D01*
X89223750Y-101873000D01*
X90073000Y-101873000D01*
X90073000Y-100798750D01*
X90327000Y-100798750D01*
X90327000Y-101873000D01*
X90347000Y-101873000D01*
X90347000Y-102127000D01*
X90327000Y-102127000D01*
X90327000Y-103201250D01*
X90485750Y-103360000D01*
X90826309Y-103360000D01*
X90999816Y-103288131D01*
X91052235Y-103323157D01*
X91300000Y-103372440D01*
X92300000Y-103372440D01*
X92547765Y-103323157D01*
X92697983Y-103222784D01*
X93859670Y-104384472D01*
X93902071Y-104447929D01*
X93965527Y-104490329D01*
X94153462Y-104615904D01*
X94169711Y-104619136D01*
X94375148Y-104660000D01*
X94375152Y-104660000D01*
X94450000Y-104674888D01*
X94524848Y-104660000D01*
X131652237Y-104660000D01*
X131652348Y-104660022D01*
X131652352Y-104660022D01*
X131727199Y-104674910D01*
X131802046Y-104660022D01*
X133197953Y-104660022D01*
X133272800Y-104674910D01*
X133347647Y-104660022D01*
X133347652Y-104660022D01*
X133347763Y-104660000D01*
X135165000Y-104660000D01*
X135165000Y-104905874D01*
X135322569Y-105286280D01*
X135613720Y-105577431D01*
X135994126Y-105735000D01*
X136405874Y-105735000D01*
X136786280Y-105577431D01*
X136903711Y-105460000D01*
X144873000Y-105460000D01*
X144873000Y-106920572D01*
X144851843Y-106952235D01*
X144802560Y-107200000D01*
X144802560Y-108500000D01*
X144851843Y-108747765D01*
X144992191Y-108957809D01*
X145202235Y-109098157D01*
X145450000Y-109147440D01*
X147450000Y-109147440D01*
X147697765Y-109098157D01*
X147907809Y-108957809D01*
X148048157Y-108747765D01*
X148097440Y-108500000D01*
X148097440Y-107962468D01*
X148109849Y-107960000D01*
X149496289Y-107960000D01*
X149613720Y-108077431D01*
X149994126Y-108235000D01*
X150405874Y-108235000D01*
X150786280Y-108077431D01*
X150903711Y-107960000D01*
X152625153Y-107960000D01*
X152700000Y-107974888D01*
X152774847Y-107960000D01*
X153890151Y-107960000D01*
X153902560Y-107962468D01*
X153902560Y-108500000D01*
X153951843Y-108747765D01*
X154092191Y-108957809D01*
X154302235Y-109098157D01*
X154550000Y-109147440D01*
X156550000Y-109147440D01*
X156797765Y-109098157D01*
X157007809Y-108957809D01*
X157148157Y-108747765D01*
X157197440Y-108500000D01*
X157197440Y-107200000D01*
X157148157Y-106952235D01*
X157145720Y-106948587D01*
X157131660Y-105860010D01*
X157505874Y-105860010D01*
X157886280Y-105702441D01*
X158177431Y-105411290D01*
X158335000Y-105030884D01*
X158335000Y-104860000D01*
X207275153Y-104860000D01*
X207350000Y-104874888D01*
X207424847Y-104860000D01*
X207424852Y-104860000D01*
X207646537Y-104815904D01*
X207897929Y-104647929D01*
X207940331Y-104584470D01*
X209302018Y-103222784D01*
X209452235Y-103323157D01*
X209700000Y-103372440D01*
X210700000Y-103372440D01*
X210947765Y-103323157D01*
X211000184Y-103288131D01*
X211173691Y-103360000D01*
X211514250Y-103360000D01*
X211673000Y-103201250D01*
X211673000Y-102127000D01*
X211927000Y-102127000D01*
X211927000Y-103201250D01*
X212085750Y-103360000D01*
X212426309Y-103360000D01*
X212659698Y-103263327D01*
X212838327Y-103084699D01*
X212935000Y-102851310D01*
X212935000Y-102285750D01*
X212776250Y-102127000D01*
X211927000Y-102127000D01*
X211673000Y-102127000D01*
X211653000Y-102127000D01*
X211653000Y-101873000D01*
X211673000Y-101873000D01*
X211673000Y-100798750D01*
X211927000Y-100798750D01*
X211927000Y-101873000D01*
X212776250Y-101873000D01*
X212935000Y-101714250D01*
X212935000Y-101148690D01*
X212838327Y-100915301D01*
X212659698Y-100736673D01*
X212426309Y-100640000D01*
X212085750Y-100640000D01*
X211927000Y-100798750D01*
X211673000Y-100798750D01*
X211514250Y-100640000D01*
X211173691Y-100640000D01*
X211000184Y-100711869D01*
X210947765Y-100676843D01*
X210700000Y-100627560D01*
X209700000Y-100627560D01*
X209452235Y-100676843D01*
X209242191Y-100817191D01*
X209101843Y-101027235D01*
X209052560Y-101275000D01*
X209052560Y-101351517D01*
X208965526Y-101409671D01*
X208965524Y-101409673D01*
X208902071Y-101452071D01*
X208859673Y-101515524D01*
X207035199Y-103340000D01*
X178474593Y-103340000D01*
X178659698Y-103263327D01*
X178838327Y-103084699D01*
X178935000Y-102851310D01*
X178935000Y-102285750D01*
X178776250Y-102127000D01*
X177927000Y-102127000D01*
X177927000Y-102147000D01*
X177673000Y-102147000D01*
X177673000Y-102127000D01*
X177653000Y-102127000D01*
X177653000Y-101873000D01*
X177673000Y-101873000D01*
X177673000Y-100798750D01*
X177927000Y-100798750D01*
X177927000Y-101873000D01*
X178776250Y-101873000D01*
X178935000Y-101714250D01*
X178935000Y-101148690D01*
X178838327Y-100915301D01*
X178659698Y-100736673D01*
X178426309Y-100640000D01*
X178085750Y-100640000D01*
X177927000Y-100798750D01*
X177673000Y-100798750D01*
X177627000Y-100752750D01*
X177627000Y-100010011D01*
X199035210Y-100010011D01*
X201509670Y-102484472D01*
X201552071Y-102547929D01*
X201615527Y-102590329D01*
X201792461Y-102708553D01*
X201892191Y-102857809D01*
X202102235Y-102998157D01*
X202350000Y-103047440D01*
X203150000Y-103047440D01*
X203397765Y-102998157D01*
X203500000Y-102929845D01*
X203602235Y-102998157D01*
X203850000Y-103047440D01*
X204650000Y-103047440D01*
X204897765Y-102998157D01*
X205107809Y-102857809D01*
X205248157Y-102647765D01*
X205297440Y-102400000D01*
X205297440Y-101600000D01*
X205248157Y-101352235D01*
X205107809Y-101142191D01*
X205010000Y-101076837D01*
X205010000Y-100529700D01*
X205098157Y-100397765D01*
X205147440Y-100150000D01*
X205147440Y-99250000D01*
X205098157Y-99002235D01*
X204957809Y-98792191D01*
X204747765Y-98651843D01*
X204500000Y-98602560D01*
X204000000Y-98602560D01*
X203752235Y-98651843D01*
X203542191Y-98792191D01*
X203500000Y-98855334D01*
X203457809Y-98792191D01*
X203247765Y-98651843D01*
X203000000Y-98602560D01*
X202500000Y-98602560D01*
X202272595Y-98647793D01*
X201940331Y-98315530D01*
X201897929Y-98252071D01*
X201646537Y-98084096D01*
X201424852Y-98040000D01*
X201424847Y-98040000D01*
X201350000Y-98025112D01*
X201275153Y-98040000D01*
X168874848Y-98040000D01*
X168800000Y-98025112D01*
X168725152Y-98040000D01*
X154074852Y-98040000D01*
X154000000Y-98025111D01*
X153925148Y-98040000D01*
X150274847Y-98040000D01*
X150200000Y-98025112D01*
X150125153Y-98040000D01*
X147874852Y-98040000D01*
X147800000Y-98025111D01*
X147725148Y-98040000D01*
X133374848Y-98040000D01*
X133300000Y-98025112D01*
X133225152Y-98040000D01*
X100724846Y-98040000D01*
X100649999Y-98025112D01*
X100575152Y-98040000D01*
X100575148Y-98040000D01*
X100353463Y-98084096D01*
X100102071Y-98252071D01*
X100059671Y-98315527D01*
X99727405Y-98647793D01*
X99500000Y-98602560D01*
X99000000Y-98602560D01*
X98752235Y-98651843D01*
X98542191Y-98792191D01*
X98500000Y-98855334D01*
X98457809Y-98792191D01*
X98247765Y-98651843D01*
X98000000Y-98602560D01*
X97500000Y-98602560D01*
X97252235Y-98651843D01*
X97042191Y-98792191D01*
X96901843Y-99002235D01*
X96852560Y-99250000D01*
X96852560Y-100150000D01*
X96901843Y-100397765D01*
X96990000Y-100529701D01*
X96990001Y-101076836D01*
X96892191Y-101142191D01*
X96751843Y-101352235D01*
X96702560Y-101600000D01*
X96702560Y-102400000D01*
X96751843Y-102647765D01*
X96892191Y-102857809D01*
X97102235Y-102998157D01*
X97350000Y-103047440D01*
X98150000Y-103047440D01*
X98397765Y-102998157D01*
X98500000Y-102929845D01*
X98602235Y-102998157D01*
X98850000Y-103047440D01*
X99650000Y-103047440D01*
X99897765Y-102998157D01*
X100107809Y-102857809D01*
X100207540Y-102708552D01*
X100447929Y-102547929D01*
X100490331Y-102484470D01*
X101826111Y-101148690D01*
X123065000Y-101148690D01*
X123065000Y-101714250D01*
X123223750Y-101873000D01*
X124073000Y-101873000D01*
X124073000Y-100798750D01*
X123914250Y-100640000D01*
X123573691Y-100640000D01*
X123340302Y-100736673D01*
X123161673Y-100915301D01*
X123065000Y-101148690D01*
X101826111Y-101148690D01*
X102814802Y-100160000D01*
X124373000Y-100160000D01*
X124373000Y-100752750D01*
X124327000Y-100798750D01*
X124327000Y-101873000D01*
X124347000Y-101873000D01*
X124347000Y-102127000D01*
X124327000Y-102127000D01*
X124327000Y-102147000D01*
X124073000Y-102147000D01*
X124073000Y-102127000D01*
X123223750Y-102127000D01*
X123065000Y-102285750D01*
X123065000Y-102851310D01*
X123161673Y-103084699D01*
X123216974Y-103140000D01*
X94764802Y-103140000D01*
X93140331Y-101515530D01*
X93097929Y-101452071D01*
X92947440Y-101351517D01*
X92947440Y-101275000D01*
X92898157Y-101027235D01*
X92757809Y-100817191D01*
X92547765Y-100676843D01*
X92300000Y-100627560D01*
X91300000Y-100627560D01*
X91052235Y-100676843D01*
X90999816Y-100711869D01*
X90826309Y-100640000D01*
X90485750Y-100640000D01*
X90327000Y-100798750D01*
X90073000Y-100798750D01*
X89914250Y-100640000D01*
X89573691Y-100640000D01*
X89340302Y-100736673D01*
X89161673Y-100915301D01*
X89065000Y-101148690D01*
X82735000Y-101148690D01*
X82735000Y-97735000D01*
X219265000Y-97735000D01*
X219265001Y-106265000D01*
X219265001Y-106265000D01*
G37*
X219265001Y-106265000D02*
X171072388Y-106265000D01*
X171000000Y-106250601D01*
X170927612Y-106265000D01*
X170713217Y-106307646D01*
X170470095Y-106470095D01*
X170429091Y-106531463D01*
X168185538Y-108775016D01*
X168175405Y-108773000D01*
X167159435Y-108773000D01*
X166894741Y-108133974D01*
X166266026Y-107505259D01*
X165444569Y-107165000D01*
X164555431Y-107165000D01*
X163733974Y-107505259D01*
X163105259Y-108133974D01*
X162765000Y-108955431D01*
X162765000Y-109844569D01*
X162778491Y-109877139D01*
X162778578Y-109888204D01*
X162898042Y-110228388D01*
X162882667Y-110251399D01*
X162873000Y-110300000D01*
X162873000Y-111265000D01*
X139127000Y-111265000D01*
X139127000Y-110324595D01*
X139117333Y-110275994D01*
X139112784Y-110269186D01*
X139133422Y-110230938D01*
X139172695Y-109994985D01*
X139235000Y-109844569D01*
X139235000Y-109620663D01*
X139255000Y-109500504D01*
X139254722Y-109465084D01*
X139235000Y-109357097D01*
X139235000Y-108955431D01*
X138894741Y-108133974D01*
X138266026Y-107505259D01*
X137444569Y-107165000D01*
X136555431Y-107165000D01*
X135733974Y-107505259D01*
X135105259Y-108133974D01*
X134799144Y-108873000D01*
X133912447Y-108873000D01*
X131570911Y-106531465D01*
X131529905Y-106470095D01*
X131286783Y-106307646D01*
X131072388Y-106265000D01*
X131072384Y-106265000D01*
X131000000Y-106250602D01*
X130927616Y-106265000D01*
X82735000Y-106265000D01*
X82735000Y-102285750D01*
X89065000Y-102285750D01*
X89065000Y-102851310D01*
X89161673Y-103084699D01*
X89340302Y-103263327D01*
X89573691Y-103360000D01*
X89914250Y-103360000D01*
X90073000Y-103201250D01*
X90073000Y-102127000D01*
X89223750Y-102127000D01*
X89065000Y-102285750D01*
X82735000Y-102285750D01*
X82735000Y-101148690D01*
X89065000Y-101148690D01*
X89065000Y-101714250D01*
X89223750Y-101873000D01*
X90073000Y-101873000D01*
X90073000Y-100798750D01*
X90327000Y-100798750D01*
X90327000Y-101873000D01*
X90347000Y-101873000D01*
X90347000Y-102127000D01*
X90327000Y-102127000D01*
X90327000Y-103201250D01*
X90485750Y-103360000D01*
X90826309Y-103360000D01*
X90999816Y-103288131D01*
X91052235Y-103323157D01*
X91300000Y-103372440D01*
X92300000Y-103372440D01*
X92547765Y-103323157D01*
X92697983Y-103222784D01*
X93859670Y-104384472D01*
X93902071Y-104447929D01*
X93965527Y-104490329D01*
X94153462Y-104615904D01*
X94169711Y-104619136D01*
X94375148Y-104660000D01*
X94375152Y-104660000D01*
X94450000Y-104674888D01*
X94524848Y-104660000D01*
X131652237Y-104660000D01*
X131652348Y-104660022D01*
X131652352Y-104660022D01*
X131727199Y-104674910D01*
X131802046Y-104660022D01*
X133197953Y-104660022D01*
X133272800Y-104674910D01*
X133347647Y-104660022D01*
X133347652Y-104660022D01*
X133347763Y-104660000D01*
X135165000Y-104660000D01*
X135165000Y-104905874D01*
X135322569Y-105286280D01*
X135613720Y-105577431D01*
X135994126Y-105735000D01*
X136405874Y-105735000D01*
X136786280Y-105577431D01*
X136903711Y-105460000D01*
X144873000Y-105460000D01*
X144873000Y-106920572D01*
X144851843Y-106952235D01*
X144802560Y-107200000D01*
X144802560Y-108500000D01*
X144851843Y-108747765D01*
X144992191Y-108957809D01*
X145202235Y-109098157D01*
X145450000Y-109147440D01*
X147450000Y-109147440D01*
X147697765Y-109098157D01*
X147907809Y-108957809D01*
X148048157Y-108747765D01*
X148097440Y-108500000D01*
X148097440Y-107962468D01*
X148109849Y-107960000D01*
X149496289Y-107960000D01*
X149613720Y-108077431D01*
X149994126Y-108235000D01*
X150405874Y-108235000D01*
X150786280Y-108077431D01*
X150903711Y-107960000D01*
X152625153Y-107960000D01*
X152700000Y-107974888D01*
X152774847Y-107960000D01*
X153890151Y-107960000D01*
X153902560Y-107962468D01*
X153902560Y-108500000D01*
X153951843Y-108747765D01*
X154092191Y-108957809D01*
X154302235Y-109098157D01*
X154550000Y-109147440D01*
X156550000Y-109147440D01*
X156797765Y-109098157D01*
X157007809Y-108957809D01*
X157148157Y-108747765D01*
X157197440Y-108500000D01*
X157197440Y-107200000D01*
X157148157Y-106952235D01*
X157145720Y-106948587D01*
X157131660Y-105860010D01*
X157505874Y-105860010D01*
X157886280Y-105702441D01*
X158177431Y-105411290D01*
X158335000Y-105030884D01*
X158335000Y-104860000D01*
X207275153Y-104860000D01*
X207350000Y-104874888D01*
X207424847Y-104860000D01*
X207424852Y-104860000D01*
X207646537Y-104815904D01*
X207897929Y-104647929D01*
X207940331Y-104584470D01*
X209302018Y-103222784D01*
X209452235Y-103323157D01*
X209700000Y-103372440D01*
X210700000Y-103372440D01*
X210947765Y-103323157D01*
X211000184Y-103288131D01*
X211173691Y-103360000D01*
X211514250Y-103360000D01*
X211673000Y-103201250D01*
X211673000Y-102127000D01*
X211927000Y-102127000D01*
X211927000Y-103201250D01*
X212085750Y-103360000D01*
X212426309Y-103360000D01*
X212659698Y-103263327D01*
X212838327Y-103084699D01*
X212935000Y-102851310D01*
X212935000Y-102285750D01*
X212776250Y-102127000D01*
X211927000Y-102127000D01*
X211673000Y-102127000D01*
X211653000Y-102127000D01*
X211653000Y-101873000D01*
X211673000Y-101873000D01*
X211673000Y-100798750D01*
X211927000Y-100798750D01*
X211927000Y-101873000D01*
X212776250Y-101873000D01*
X212935000Y-101714250D01*
X212935000Y-101148690D01*
X212838327Y-100915301D01*
X212659698Y-100736673D01*
X212426309Y-100640000D01*
X212085750Y-100640000D01*
X211927000Y-100798750D01*
X211673000Y-100798750D01*
X211514250Y-100640000D01*
X211173691Y-100640000D01*
X211000184Y-100711869D01*
X210947765Y-100676843D01*
X210700000Y-100627560D01*
X209700000Y-100627560D01*
X209452235Y-100676843D01*
X209242191Y-100817191D01*
X209101843Y-101027235D01*
X209052560Y-101275000D01*
X209052560Y-101351517D01*
X208965526Y-101409671D01*
X208965524Y-101409673D01*
X208902071Y-101452071D01*
X208859673Y-101515524D01*
X207035199Y-103340000D01*
X178474593Y-103340000D01*
X178659698Y-103263327D01*
X178838327Y-103084699D01*
X178935000Y-102851310D01*
X178935000Y-102285750D01*
X178776250Y-102127000D01*
X177927000Y-102127000D01*
X177927000Y-102147000D01*
X177673000Y-102147000D01*
X177673000Y-102127000D01*
X177653000Y-102127000D01*
X177653000Y-101873000D01*
X177673000Y-101873000D01*
X177673000Y-100798750D01*
X177927000Y-100798750D01*
X177927000Y-101873000D01*
X178776250Y-101873000D01*
X178935000Y-101714250D01*
X178935000Y-101148690D01*
X178838327Y-100915301D01*
X178659698Y-100736673D01*
X178426309Y-100640000D01*
X178085750Y-100640000D01*
X177927000Y-100798750D01*
X177673000Y-100798750D01*
X177627000Y-100752750D01*
X177627000Y-100010011D01*
X199035210Y-100010011D01*
X201509670Y-102484472D01*
X201552071Y-102547929D01*
X201615527Y-102590329D01*
X201792461Y-102708553D01*
X201892191Y-102857809D01*
X202102235Y-102998157D01*
X202350000Y-103047440D01*
X203150000Y-103047440D01*
X203397765Y-102998157D01*
X203500000Y-102929845D01*
X203602235Y-102998157D01*
X203850000Y-103047440D01*
X204650000Y-103047440D01*
X204897765Y-102998157D01*
X205107809Y-102857809D01*
X205248157Y-102647765D01*
X205297440Y-102400000D01*
X205297440Y-101600000D01*
X205248157Y-101352235D01*
X205107809Y-101142191D01*
X205010000Y-101076837D01*
X205010000Y-100529700D01*
X205098157Y-100397765D01*
X205147440Y-100150000D01*
X205147440Y-99250000D01*
X205098157Y-99002235D01*
X204957809Y-98792191D01*
X204747765Y-98651843D01*
X204500000Y-98602560D01*
X204000000Y-98602560D01*
X203752235Y-98651843D01*
X203542191Y-98792191D01*
X203500000Y-98855334D01*
X203457809Y-98792191D01*
X203247765Y-98651843D01*
X203000000Y-98602560D01*
X202500000Y-98602560D01*
X202272595Y-98647793D01*
X201940331Y-98315530D01*
X201897929Y-98252071D01*
X201646537Y-98084096D01*
X201424852Y-98040000D01*
X201424847Y-98040000D01*
X201350000Y-98025112D01*
X201275153Y-98040000D01*
X168874848Y-98040000D01*
X168800000Y-98025112D01*
X168725152Y-98040000D01*
X154074852Y-98040000D01*
X154000000Y-98025111D01*
X153925148Y-98040000D01*
X150274847Y-98040000D01*
X150200000Y-98025112D01*
X150125153Y-98040000D01*
X147874852Y-98040000D01*
X147800000Y-98025111D01*
X147725148Y-98040000D01*
X133374848Y-98040000D01*
X133300000Y-98025112D01*
X133225152Y-98040000D01*
X100724846Y-98040000D01*
X100649999Y-98025112D01*
X100575152Y-98040000D01*
X100575148Y-98040000D01*
X100353463Y-98084096D01*
X100102071Y-98252071D01*
X100059671Y-98315527D01*
X99727405Y-98647793D01*
X99500000Y-98602560D01*
X99000000Y-98602560D01*
X98752235Y-98651843D01*
X98542191Y-98792191D01*
X98500000Y-98855334D01*
X98457809Y-98792191D01*
X98247765Y-98651843D01*
X98000000Y-98602560D01*
X97500000Y-98602560D01*
X97252235Y-98651843D01*
X97042191Y-98792191D01*
X96901843Y-99002235D01*
X96852560Y-99250000D01*
X96852560Y-100150000D01*
X96901843Y-100397765D01*
X96990000Y-100529701D01*
X96990001Y-101076836D01*
X96892191Y-101142191D01*
X96751843Y-101352235D01*
X96702560Y-101600000D01*
X96702560Y-102400000D01*
X96751843Y-102647765D01*
X96892191Y-102857809D01*
X97102235Y-102998157D01*
X97350000Y-103047440D01*
X98150000Y-103047440D01*
X98397765Y-102998157D01*
X98500000Y-102929845D01*
X98602235Y-102998157D01*
X98850000Y-103047440D01*
X99650000Y-103047440D01*
X99897765Y-102998157D01*
X100107809Y-102857809D01*
X100207540Y-102708552D01*
X100447929Y-102547929D01*
X100490331Y-102484470D01*
X101826111Y-101148690D01*
X123065000Y-101148690D01*
X123065000Y-101714250D01*
X123223750Y-101873000D01*
X124073000Y-101873000D01*
X124073000Y-100798750D01*
X123914250Y-100640000D01*
X123573691Y-100640000D01*
X123340302Y-100736673D01*
X123161673Y-100915301D01*
X123065000Y-101148690D01*
X101826111Y-101148690D01*
X102814802Y-100160000D01*
X124373000Y-100160000D01*
X124373000Y-100752750D01*
X124327000Y-100798750D01*
X124327000Y-101873000D01*
X124347000Y-101873000D01*
X124347000Y-102127000D01*
X124327000Y-102127000D01*
X124327000Y-102147000D01*
X124073000Y-102147000D01*
X124073000Y-102127000D01*
X123223750Y-102127000D01*
X123065000Y-102285750D01*
X123065000Y-102851310D01*
X123161673Y-103084699D01*
X123216974Y-103140000D01*
X94764802Y-103140000D01*
X93140331Y-101515530D01*
X93097929Y-101452071D01*
X92947440Y-101351517D01*
X92947440Y-101275000D01*
X92898157Y-101027235D01*
X92757809Y-100817191D01*
X92547765Y-100676843D01*
X92300000Y-100627560D01*
X91300000Y-100627560D01*
X91052235Y-100676843D01*
X90999816Y-100711869D01*
X90826309Y-100640000D01*
X90485750Y-100640000D01*
X90327000Y-100798750D01*
X90073000Y-100798750D01*
X89914250Y-100640000D01*
X89573691Y-100640000D01*
X89340302Y-100736673D01*
X89161673Y-100915301D01*
X89065000Y-101148690D01*
X82735000Y-101148690D01*
X82735000Y-97735000D01*
X219265000Y-97735000D01*
X219265001Y-106265000D01*
G36*
X167509670Y-102484472D02*
X167552071Y-102547929D01*
X167792460Y-102708552D01*
X167813473Y-102740000D01*
X163935000Y-102740000D01*
X163935000Y-102285750D01*
X163776250Y-102127000D01*
X162927000Y-102127000D01*
X162927000Y-102147000D01*
X162673000Y-102147000D01*
X162673000Y-102127000D01*
X162653000Y-102127000D01*
X162653000Y-101873000D01*
X162673000Y-101873000D01*
X162673000Y-100798750D01*
X162927000Y-100798750D01*
X162927000Y-101873000D01*
X163776250Y-101873000D01*
X163935000Y-101714250D01*
X163935000Y-101148690D01*
X163838327Y-100915301D01*
X163659698Y-100736673D01*
X163426309Y-100640000D01*
X163085750Y-100640000D01*
X162927000Y-100798750D01*
X162673000Y-100798750D01*
X162514250Y-100640000D01*
X162173691Y-100640000D01*
X162000184Y-100711869D01*
X161947765Y-100676843D01*
X161700000Y-100627560D01*
X160700000Y-100627560D01*
X160452235Y-100676843D01*
X160242191Y-100817191D01*
X160101843Y-101027235D01*
X160052560Y-101275000D01*
X160052560Y-101351517D01*
X159902071Y-101452071D01*
X159859671Y-101515527D01*
X159485232Y-101889967D01*
X158300168Y-101889967D01*
X158335000Y-101805874D01*
X158335000Y-101639801D01*
X159814802Y-100160000D01*
X165185199Y-100160000D01*
X167509670Y-102484472D01*
X167509670Y-102484472D01*
G37*
X167509670Y-102484472D02*
X167552071Y-102547929D01*
X167792460Y-102708552D01*
X167813473Y-102740000D01*
X163935000Y-102740000D01*
X163935000Y-102285750D01*
X163776250Y-102127000D01*
X162927000Y-102127000D01*
X162927000Y-102147000D01*
X162673000Y-102147000D01*
X162673000Y-102127000D01*
X162653000Y-102127000D01*
X162653000Y-101873000D01*
X162673000Y-101873000D01*
X162673000Y-100798750D01*
X162927000Y-100798750D01*
X162927000Y-101873000D01*
X163776250Y-101873000D01*
X163935000Y-101714250D01*
X163935000Y-101148690D01*
X163838327Y-100915301D01*
X163659698Y-100736673D01*
X163426309Y-100640000D01*
X163085750Y-100640000D01*
X162927000Y-100798750D01*
X162673000Y-100798750D01*
X162514250Y-100640000D01*
X162173691Y-100640000D01*
X162000184Y-100711869D01*
X161947765Y-100676843D01*
X161700000Y-100627560D01*
X160700000Y-100627560D01*
X160452235Y-100676843D01*
X160242191Y-100817191D01*
X160101843Y-101027235D01*
X160052560Y-101275000D01*
X160052560Y-101351517D01*
X159902071Y-101452071D01*
X159859671Y-101515527D01*
X159485232Y-101889967D01*
X158300168Y-101889967D01*
X158335000Y-101805874D01*
X158335000Y-101639801D01*
X159814802Y-100160000D01*
X165185199Y-100160000D01*
X167509670Y-102484472D01*
G36*
X146702560Y-100000000D02*
X146751843Y-100247765D01*
X146892191Y-100457809D01*
X146955334Y-100500000D01*
X146892191Y-100542191D01*
X146751843Y-100752235D01*
X146702560Y-101000000D01*
X146702560Y-101321627D01*
X146682667Y-101351399D01*
X146673000Y-101400000D01*
X146673000Y-102140000D01*
X142764802Y-102140000D01*
X142140331Y-101515530D01*
X142097929Y-101452071D01*
X141947440Y-101351517D01*
X141947440Y-101275000D01*
X141898157Y-101027235D01*
X141757809Y-100817191D01*
X141547765Y-100676843D01*
X141300000Y-100627560D01*
X140300000Y-100627560D01*
X140052235Y-100676843D01*
X139999816Y-100711869D01*
X139826309Y-100640000D01*
X139485750Y-100640000D01*
X139327000Y-100798750D01*
X139327000Y-101873000D01*
X139347000Y-101873000D01*
X139347000Y-102127000D01*
X139327000Y-102127000D01*
X139327000Y-102147000D01*
X139073000Y-102147000D01*
X139073000Y-102127000D01*
X138223750Y-102127000D01*
X138065000Y-102285750D01*
X138065000Y-102689989D01*
X136973722Y-102689989D01*
X137077431Y-102586280D01*
X137235000Y-102205874D01*
X137235000Y-101794126D01*
X137077431Y-101413720D01*
X136812401Y-101148690D01*
X138065000Y-101148690D01*
X138065000Y-101714250D01*
X138223750Y-101873000D01*
X139073000Y-101873000D01*
X139073000Y-100798750D01*
X138914250Y-100640000D01*
X138573691Y-100640000D01*
X138340302Y-100736673D01*
X138161673Y-100915301D01*
X138065000Y-101148690D01*
X136812401Y-101148690D01*
X136786280Y-101122569D01*
X136405874Y-100965000D01*
X135994126Y-100965000D01*
X135613720Y-101122569D01*
X135496289Y-101240000D01*
X134173163Y-101240000D01*
X134127000Y-101170912D01*
X134127000Y-100252760D01*
X134147440Y-100150000D01*
X134147440Y-99560000D01*
X146702560Y-99560000D01*
X146702560Y-100000000D01*
X146702560Y-100000000D01*
G37*
X146702560Y-100000000D02*
X146751843Y-100247765D01*
X146892191Y-100457809D01*
X146955334Y-100500000D01*
X146892191Y-100542191D01*
X146751843Y-100752235D01*
X146702560Y-101000000D01*
X146702560Y-101321627D01*
X146682667Y-101351399D01*
X146673000Y-101400000D01*
X146673000Y-102140000D01*
X142764802Y-102140000D01*
X142140331Y-101515530D01*
X142097929Y-101452071D01*
X141947440Y-101351517D01*
X141947440Y-101275000D01*
X141898157Y-101027235D01*
X141757809Y-100817191D01*
X141547765Y-100676843D01*
X141300000Y-100627560D01*
X140300000Y-100627560D01*
X140052235Y-100676843D01*
X139999816Y-100711869D01*
X139826309Y-100640000D01*
X139485750Y-100640000D01*
X139327000Y-100798750D01*
X139327000Y-101873000D01*
X139347000Y-101873000D01*
X139347000Y-102127000D01*
X139327000Y-102127000D01*
X139327000Y-102147000D01*
X139073000Y-102147000D01*
X139073000Y-102127000D01*
X138223750Y-102127000D01*
X138065000Y-102285750D01*
X138065000Y-102689989D01*
X136973722Y-102689989D01*
X137077431Y-102586280D01*
X137235000Y-102205874D01*
X137235000Y-101794126D01*
X137077431Y-101413720D01*
X136812401Y-101148690D01*
X138065000Y-101148690D01*
X138065000Y-101714250D01*
X138223750Y-101873000D01*
X139073000Y-101873000D01*
X139073000Y-100798750D01*
X138914250Y-100640000D01*
X138573691Y-100640000D01*
X138340302Y-100736673D01*
X138161673Y-100915301D01*
X138065000Y-101148690D01*
X136812401Y-101148690D01*
X136786280Y-101122569D01*
X136405874Y-100965000D01*
X135994126Y-100965000D01*
X135613720Y-101122569D01*
X135496289Y-101240000D01*
X134173163Y-101240000D01*
X134127000Y-101170912D01*
X134127000Y-100252760D01*
X134147440Y-100150000D01*
X134147440Y-99560000D01*
X146702560Y-99560000D01*
X146702560Y-100000000D01*
G36*
X152902560Y-99900000D02*
X152951843Y-100147765D01*
X153092191Y-100357809D01*
X153155334Y-100400000D01*
X153092191Y-100442191D01*
X152951843Y-100652235D01*
X152902560Y-100900000D01*
X152902560Y-101400000D01*
X152951843Y-101647765D01*
X153092191Y-101857809D01*
X153140318Y-101889967D01*
X152785000Y-101889967D01*
X152785000Y-101772998D01*
X152626252Y-101772998D01*
X152785000Y-101614250D01*
X152785000Y-101398690D01*
X152688327Y-101165301D01*
X152509698Y-100986673D01*
X152276309Y-100890000D01*
X152035750Y-100890000D01*
X151877000Y-101048750D01*
X151877000Y-101773000D01*
X151897000Y-101773000D01*
X151897000Y-101878385D01*
X151838774Y-101889967D01*
X151838770Y-101889967D01*
X151617085Y-101934063D01*
X151603000Y-101943474D01*
X151603000Y-101773000D01*
X151623000Y-101773000D01*
X151623000Y-101048750D01*
X151464250Y-100890000D01*
X151223691Y-100890000D01*
X151010000Y-100978514D01*
X151010000Y-99560000D01*
X152902560Y-99560000D01*
X152902560Y-99900000D01*
X152902560Y-99900000D01*
G37*
X152902560Y-99900000D02*
X152951843Y-100147765D01*
X153092191Y-100357809D01*
X153155334Y-100400000D01*
X153092191Y-100442191D01*
X152951843Y-100652235D01*
X152902560Y-100900000D01*
X152902560Y-101400000D01*
X152951843Y-101647765D01*
X153092191Y-101857809D01*
X153140318Y-101889967D01*
X152785000Y-101889967D01*
X152785000Y-101772998D01*
X152626252Y-101772998D01*
X152785000Y-101614250D01*
X152785000Y-101398690D01*
X152688327Y-101165301D01*
X152509698Y-100986673D01*
X152276309Y-100890000D01*
X152035750Y-100890000D01*
X151877000Y-101048750D01*
X151877000Y-101773000D01*
X151897000Y-101773000D01*
X151897000Y-101878385D01*
X151838774Y-101889967D01*
X151838770Y-101889967D01*
X151617085Y-101934063D01*
X151603000Y-101943474D01*
X151603000Y-101773000D01*
X151623000Y-101773000D01*
X151623000Y-101048750D01*
X151464250Y-100890000D01*
X151223691Y-100890000D01*
X151010000Y-100978514D01*
X151010000Y-99560000D01*
X152902560Y-99560000D01*
X152902560Y-99900000D01*
G36*
X219265001Y-123265000D02*
X171072388Y-123265000D01*
X171000000Y-123250601D01*
X170927612Y-123265000D01*
X170713217Y-123307646D01*
X170470095Y-123470095D01*
X170429091Y-123531463D01*
X168185538Y-125775016D01*
X168175405Y-125773000D01*
X167159435Y-125773000D01*
X166894741Y-125133974D01*
X166266026Y-124505259D01*
X165444569Y-124165000D01*
X164555431Y-124165000D01*
X163733974Y-124505259D01*
X163105259Y-125133974D01*
X162765000Y-125955431D01*
X162765000Y-126844569D01*
X162778491Y-126877139D01*
X162778578Y-126888204D01*
X162898042Y-127228388D01*
X162882667Y-127251399D01*
X162873000Y-127300000D01*
X162873000Y-128265000D01*
X139127000Y-128265000D01*
X139127000Y-127324595D01*
X139117333Y-127275994D01*
X139112784Y-127269186D01*
X139133422Y-127230938D01*
X139172695Y-126994985D01*
X139235000Y-126844569D01*
X139235000Y-126620663D01*
X139255000Y-126500504D01*
X139254722Y-126465084D01*
X139235000Y-126357097D01*
X139235000Y-125955431D01*
X138894741Y-125133974D01*
X138266026Y-124505259D01*
X137444569Y-124165000D01*
X136555431Y-124165000D01*
X135733974Y-124505259D01*
X135105259Y-125133974D01*
X134799144Y-125873000D01*
X133912447Y-125873000D01*
X131570911Y-123531465D01*
X131529905Y-123470095D01*
X131286783Y-123307646D01*
X131072388Y-123265000D01*
X131072384Y-123265000D01*
X131000000Y-123250602D01*
X130927616Y-123265000D01*
X82735000Y-123265000D01*
X82735000Y-119285750D01*
X89065000Y-119285750D01*
X89065000Y-119851310D01*
X89161673Y-120084699D01*
X89340302Y-120263327D01*
X89573691Y-120360000D01*
X89914250Y-120360000D01*
X90073000Y-120201250D01*
X90073000Y-119127000D01*
X89223750Y-119127000D01*
X89065000Y-119285750D01*
X82735000Y-119285750D01*
X82735000Y-118148690D01*
X89065000Y-118148690D01*
X89065000Y-118714250D01*
X89223750Y-118873000D01*
X90073000Y-118873000D01*
X90073000Y-117798750D01*
X90327000Y-117798750D01*
X90327000Y-118873000D01*
X90347000Y-118873000D01*
X90347000Y-119127000D01*
X90327000Y-119127000D01*
X90327000Y-120201250D01*
X90485750Y-120360000D01*
X90826309Y-120360000D01*
X90999816Y-120288131D01*
X91052235Y-120323157D01*
X91300000Y-120372440D01*
X92300000Y-120372440D01*
X92547765Y-120323157D01*
X92697983Y-120222784D01*
X93859670Y-121384472D01*
X93902071Y-121447929D01*
X93965527Y-121490329D01*
X94153462Y-121615904D01*
X94169711Y-121619136D01*
X94375148Y-121660000D01*
X94375152Y-121660000D01*
X94450000Y-121674888D01*
X94524848Y-121660000D01*
X131652237Y-121660000D01*
X131652348Y-121660022D01*
X131652352Y-121660022D01*
X131727199Y-121674910D01*
X131802046Y-121660022D01*
X133197953Y-121660022D01*
X133272800Y-121674910D01*
X133347647Y-121660022D01*
X133347652Y-121660022D01*
X133347763Y-121660000D01*
X135165000Y-121660000D01*
X135165000Y-121905874D01*
X135322569Y-122286280D01*
X135613720Y-122577431D01*
X135994126Y-122735000D01*
X136405874Y-122735000D01*
X136786280Y-122577431D01*
X136903711Y-122460000D01*
X144873000Y-122460000D01*
X144873000Y-123920572D01*
X144851843Y-123952235D01*
X144802560Y-124200000D01*
X144802560Y-125500000D01*
X144851843Y-125747765D01*
X144992191Y-125957809D01*
X145202235Y-126098157D01*
X145450000Y-126147440D01*
X147450000Y-126147440D01*
X147697765Y-126098157D01*
X147907809Y-125957809D01*
X148048157Y-125747765D01*
X148097440Y-125500000D01*
X148097440Y-124962468D01*
X148109849Y-124960000D01*
X149496289Y-124960000D01*
X149613720Y-125077431D01*
X149994126Y-125235000D01*
X150405874Y-125235000D01*
X150786280Y-125077431D01*
X150903711Y-124960000D01*
X152625153Y-124960000D01*
X152700000Y-124974888D01*
X152774847Y-124960000D01*
X153890151Y-124960000D01*
X153902560Y-124962468D01*
X153902560Y-125500000D01*
X153951843Y-125747765D01*
X154092191Y-125957809D01*
X154302235Y-126098157D01*
X154550000Y-126147440D01*
X156550000Y-126147440D01*
X156797765Y-126098157D01*
X157007809Y-125957809D01*
X157148157Y-125747765D01*
X157197440Y-125500000D01*
X157197440Y-124200000D01*
X157148157Y-123952235D01*
X157145720Y-123948587D01*
X157131660Y-122860010D01*
X157505874Y-122860010D01*
X157886280Y-122702441D01*
X158177431Y-122411290D01*
X158335000Y-122030884D01*
X158335000Y-121860000D01*
X207275153Y-121860000D01*
X207350000Y-121874888D01*
X207424847Y-121860000D01*
X207424852Y-121860000D01*
X207646537Y-121815904D01*
X207897929Y-121647929D01*
X207940331Y-121584470D01*
X209302018Y-120222784D01*
X209452235Y-120323157D01*
X209700000Y-120372440D01*
X210700000Y-120372440D01*
X210947765Y-120323157D01*
X211000184Y-120288131D01*
X211173691Y-120360000D01*
X211514250Y-120360000D01*
X211673000Y-120201250D01*
X211673000Y-119127000D01*
X211927000Y-119127000D01*
X211927000Y-120201250D01*
X212085750Y-120360000D01*
X212426309Y-120360000D01*
X212659698Y-120263327D01*
X212838327Y-120084699D01*
X212935000Y-119851310D01*
X212935000Y-119285750D01*
X212776250Y-119127000D01*
X211927000Y-119127000D01*
X211673000Y-119127000D01*
X211653000Y-119127000D01*
X211653000Y-118873000D01*
X211673000Y-118873000D01*
X211673000Y-117798750D01*
X211927000Y-117798750D01*
X211927000Y-118873000D01*
X212776250Y-118873000D01*
X212935000Y-118714250D01*
X212935000Y-118148690D01*
X212838327Y-117915301D01*
X212659698Y-117736673D01*
X212426309Y-117640000D01*
X212085750Y-117640000D01*
X211927000Y-117798750D01*
X211673000Y-117798750D01*
X211514250Y-117640000D01*
X211173691Y-117640000D01*
X211000184Y-117711869D01*
X210947765Y-117676843D01*
X210700000Y-117627560D01*
X209700000Y-117627560D01*
X209452235Y-117676843D01*
X209242191Y-117817191D01*
X209101843Y-118027235D01*
X209052560Y-118275000D01*
X209052560Y-118351517D01*
X208965526Y-118409671D01*
X208965524Y-118409673D01*
X208902071Y-118452071D01*
X208859673Y-118515524D01*
X207035199Y-120340000D01*
X178474593Y-120340000D01*
X178659698Y-120263327D01*
X178838327Y-120084699D01*
X178935000Y-119851310D01*
X178935000Y-119285750D01*
X178776250Y-119127000D01*
X177927000Y-119127000D01*
X177927000Y-119147000D01*
X177673000Y-119147000D01*
X177673000Y-119127000D01*
X177653000Y-119127000D01*
X177653000Y-118873000D01*
X177673000Y-118873000D01*
X177673000Y-117798750D01*
X177927000Y-117798750D01*
X177927000Y-118873000D01*
X178776250Y-118873000D01*
X178935000Y-118714250D01*
X178935000Y-118148690D01*
X178838327Y-117915301D01*
X178659698Y-117736673D01*
X178426309Y-117640000D01*
X178085750Y-117640000D01*
X177927000Y-117798750D01*
X177673000Y-117798750D01*
X177627000Y-117752750D01*
X177627000Y-117010011D01*
X199035210Y-117010011D01*
X201509670Y-119484472D01*
X201552071Y-119547929D01*
X201615527Y-119590329D01*
X201792461Y-119708553D01*
X201892191Y-119857809D01*
X202102235Y-119998157D01*
X202350000Y-120047440D01*
X203150000Y-120047440D01*
X203397765Y-119998157D01*
X203500000Y-119929845D01*
X203602235Y-119998157D01*
X203850000Y-120047440D01*
X204650000Y-120047440D01*
X204897765Y-119998157D01*
X205107809Y-119857809D01*
X205248157Y-119647765D01*
X205297440Y-119400000D01*
X205297440Y-118600000D01*
X205248157Y-118352235D01*
X205107809Y-118142191D01*
X205010000Y-118076837D01*
X205010000Y-117529700D01*
X205098157Y-117397765D01*
X205147440Y-117150000D01*
X205147440Y-116250000D01*
X205098157Y-116002235D01*
X204957809Y-115792191D01*
X204747765Y-115651843D01*
X204500000Y-115602560D01*
X204000000Y-115602560D01*
X203752235Y-115651843D01*
X203542191Y-115792191D01*
X203500000Y-115855334D01*
X203457809Y-115792191D01*
X203247765Y-115651843D01*
X203000000Y-115602560D01*
X202500000Y-115602560D01*
X202272595Y-115647793D01*
X201940331Y-115315530D01*
X201897929Y-115252071D01*
X201646537Y-115084096D01*
X201424852Y-115040000D01*
X201424847Y-115040000D01*
X201350000Y-115025112D01*
X201275153Y-115040000D01*
X168874848Y-115040000D01*
X168800000Y-115025112D01*
X168725152Y-115040000D01*
X154074852Y-115040000D01*
X154000000Y-115025111D01*
X153925148Y-115040000D01*
X150274847Y-115040000D01*
X150200000Y-115025112D01*
X150125153Y-115040000D01*
X147874852Y-115040000D01*
X147800000Y-115025111D01*
X147725148Y-115040000D01*
X133374848Y-115040000D01*
X133300000Y-115025112D01*
X133225152Y-115040000D01*
X100724846Y-115040000D01*
X100649999Y-115025112D01*
X100575152Y-115040000D01*
X100575148Y-115040000D01*
X100353463Y-115084096D01*
X100102071Y-115252071D01*
X100059671Y-115315527D01*
X99727405Y-115647793D01*
X99500000Y-115602560D01*
X99000000Y-115602560D01*
X98752235Y-115651843D01*
X98542191Y-115792191D01*
X98500000Y-115855334D01*
X98457809Y-115792191D01*
X98247765Y-115651843D01*
X98000000Y-115602560D01*
X97500000Y-115602560D01*
X97252235Y-115651843D01*
X97042191Y-115792191D01*
X96901843Y-116002235D01*
X96852560Y-116250000D01*
X96852560Y-117150000D01*
X96901843Y-117397765D01*
X96990000Y-117529701D01*
X96990001Y-118076836D01*
X96892191Y-118142191D01*
X96751843Y-118352235D01*
X96702560Y-118600000D01*
X96702560Y-119400000D01*
X96751843Y-119647765D01*
X96892191Y-119857809D01*
X97102235Y-119998157D01*
X97350000Y-120047440D01*
X98150000Y-120047440D01*
X98397765Y-119998157D01*
X98500000Y-119929845D01*
X98602235Y-119998157D01*
X98850000Y-120047440D01*
X99650000Y-120047440D01*
X99897765Y-119998157D01*
X100107809Y-119857809D01*
X100207540Y-119708552D01*
X100447929Y-119547929D01*
X100490331Y-119484470D01*
X101826111Y-118148690D01*
X123065000Y-118148690D01*
X123065000Y-118714250D01*
X123223750Y-118873000D01*
X124073000Y-118873000D01*
X124073000Y-117798750D01*
X123914250Y-117640000D01*
X123573691Y-117640000D01*
X123340302Y-117736673D01*
X123161673Y-117915301D01*
X123065000Y-118148690D01*
X101826111Y-118148690D01*
X102814802Y-117160000D01*
X124373000Y-117160000D01*
X124373000Y-117752750D01*
X124327000Y-117798750D01*
X124327000Y-118873000D01*
X124347000Y-118873000D01*
X124347000Y-119127000D01*
X124327000Y-119127000D01*
X124327000Y-119147000D01*
X124073000Y-119147000D01*
X124073000Y-119127000D01*
X123223750Y-119127000D01*
X123065000Y-119285750D01*
X123065000Y-119851310D01*
X123161673Y-120084699D01*
X123216974Y-120140000D01*
X94764802Y-120140000D01*
X93140331Y-118515530D01*
X93097929Y-118452071D01*
X92947440Y-118351517D01*
X92947440Y-118275000D01*
X92898157Y-118027235D01*
X92757809Y-117817191D01*
X92547765Y-117676843D01*
X92300000Y-117627560D01*
X91300000Y-117627560D01*
X91052235Y-117676843D01*
X90999816Y-117711869D01*
X90826309Y-117640000D01*
X90485750Y-117640000D01*
X90327000Y-117798750D01*
X90073000Y-117798750D01*
X89914250Y-117640000D01*
X89573691Y-117640000D01*
X89340302Y-117736673D01*
X89161673Y-117915301D01*
X89065000Y-118148690D01*
X82735000Y-118148690D01*
X82735000Y-114735000D01*
X219265000Y-114735000D01*
X219265001Y-123265000D01*
X219265001Y-123265000D01*
G37*
X219265001Y-123265000D02*
X171072388Y-123265000D01*
X171000000Y-123250601D01*
X170927612Y-123265000D01*
X170713217Y-123307646D01*
X170470095Y-123470095D01*
X170429091Y-123531463D01*
X168185538Y-125775016D01*
X168175405Y-125773000D01*
X167159435Y-125773000D01*
X166894741Y-125133974D01*
X166266026Y-124505259D01*
X165444569Y-124165000D01*
X164555431Y-124165000D01*
X163733974Y-124505259D01*
X163105259Y-125133974D01*
X162765000Y-125955431D01*
X162765000Y-126844569D01*
X162778491Y-126877139D01*
X162778578Y-126888204D01*
X162898042Y-127228388D01*
X162882667Y-127251399D01*
X162873000Y-127300000D01*
X162873000Y-128265000D01*
X139127000Y-128265000D01*
X139127000Y-127324595D01*
X139117333Y-127275994D01*
X139112784Y-127269186D01*
X139133422Y-127230938D01*
X139172695Y-126994985D01*
X139235000Y-126844569D01*
X139235000Y-126620663D01*
X139255000Y-126500504D01*
X139254722Y-126465084D01*
X139235000Y-126357097D01*
X139235000Y-125955431D01*
X138894741Y-125133974D01*
X138266026Y-124505259D01*
X137444569Y-124165000D01*
X136555431Y-124165000D01*
X135733974Y-124505259D01*
X135105259Y-125133974D01*
X134799144Y-125873000D01*
X133912447Y-125873000D01*
X131570911Y-123531465D01*
X131529905Y-123470095D01*
X131286783Y-123307646D01*
X131072388Y-123265000D01*
X131072384Y-123265000D01*
X131000000Y-123250602D01*
X130927616Y-123265000D01*
X82735000Y-123265000D01*
X82735000Y-119285750D01*
X89065000Y-119285750D01*
X89065000Y-119851310D01*
X89161673Y-120084699D01*
X89340302Y-120263327D01*
X89573691Y-120360000D01*
X89914250Y-120360000D01*
X90073000Y-120201250D01*
X90073000Y-119127000D01*
X89223750Y-119127000D01*
X89065000Y-119285750D01*
X82735000Y-119285750D01*
X82735000Y-118148690D01*
X89065000Y-118148690D01*
X89065000Y-118714250D01*
X89223750Y-118873000D01*
X90073000Y-118873000D01*
X90073000Y-117798750D01*
X90327000Y-117798750D01*
X90327000Y-118873000D01*
X90347000Y-118873000D01*
X90347000Y-119127000D01*
X90327000Y-119127000D01*
X90327000Y-120201250D01*
X90485750Y-120360000D01*
X90826309Y-120360000D01*
X90999816Y-120288131D01*
X91052235Y-120323157D01*
X91300000Y-120372440D01*
X92300000Y-120372440D01*
X92547765Y-120323157D01*
X92697983Y-120222784D01*
X93859670Y-121384472D01*
X93902071Y-121447929D01*
X93965527Y-121490329D01*
X94153462Y-121615904D01*
X94169711Y-121619136D01*
X94375148Y-121660000D01*
X94375152Y-121660000D01*
X94450000Y-121674888D01*
X94524848Y-121660000D01*
X131652237Y-121660000D01*
X131652348Y-121660022D01*
X131652352Y-121660022D01*
X131727199Y-121674910D01*
X131802046Y-121660022D01*
X133197953Y-121660022D01*
X133272800Y-121674910D01*
X133347647Y-121660022D01*
X133347652Y-121660022D01*
X133347763Y-121660000D01*
X135165000Y-121660000D01*
X135165000Y-121905874D01*
X135322569Y-122286280D01*
X135613720Y-122577431D01*
X135994126Y-122735000D01*
X136405874Y-122735000D01*
X136786280Y-122577431D01*
X136903711Y-122460000D01*
X144873000Y-122460000D01*
X144873000Y-123920572D01*
X144851843Y-123952235D01*
X144802560Y-124200000D01*
X144802560Y-125500000D01*
X144851843Y-125747765D01*
X144992191Y-125957809D01*
X145202235Y-126098157D01*
X145450000Y-126147440D01*
X147450000Y-126147440D01*
X147697765Y-126098157D01*
X147907809Y-125957809D01*
X148048157Y-125747765D01*
X148097440Y-125500000D01*
X148097440Y-124962468D01*
X148109849Y-124960000D01*
X149496289Y-124960000D01*
X149613720Y-125077431D01*
X149994126Y-125235000D01*
X150405874Y-125235000D01*
X150786280Y-125077431D01*
X150903711Y-124960000D01*
X152625153Y-124960000D01*
X152700000Y-124974888D01*
X152774847Y-124960000D01*
X153890151Y-124960000D01*
X153902560Y-124962468D01*
X153902560Y-125500000D01*
X153951843Y-125747765D01*
X154092191Y-125957809D01*
X154302235Y-126098157D01*
X154550000Y-126147440D01*
X156550000Y-126147440D01*
X156797765Y-126098157D01*
X157007809Y-125957809D01*
X157148157Y-125747765D01*
X157197440Y-125500000D01*
X157197440Y-124200000D01*
X157148157Y-123952235D01*
X157145720Y-123948587D01*
X157131660Y-122860010D01*
X157505874Y-122860010D01*
X157886280Y-122702441D01*
X158177431Y-122411290D01*
X158335000Y-122030884D01*
X158335000Y-121860000D01*
X207275153Y-121860000D01*
X207350000Y-121874888D01*
X207424847Y-121860000D01*
X207424852Y-121860000D01*
X207646537Y-121815904D01*
X207897929Y-121647929D01*
X207940331Y-121584470D01*
X209302018Y-120222784D01*
X209452235Y-120323157D01*
X209700000Y-120372440D01*
X210700000Y-120372440D01*
X210947765Y-120323157D01*
X211000184Y-120288131D01*
X211173691Y-120360000D01*
X211514250Y-120360000D01*
X211673000Y-120201250D01*
X211673000Y-119127000D01*
X211927000Y-119127000D01*
X211927000Y-120201250D01*
X212085750Y-120360000D01*
X212426309Y-120360000D01*
X212659698Y-120263327D01*
X212838327Y-120084699D01*
X212935000Y-119851310D01*
X212935000Y-119285750D01*
X212776250Y-119127000D01*
X211927000Y-119127000D01*
X211673000Y-119127000D01*
X211653000Y-119127000D01*
X211653000Y-118873000D01*
X211673000Y-118873000D01*
X211673000Y-117798750D01*
X211927000Y-117798750D01*
X211927000Y-118873000D01*
X212776250Y-118873000D01*
X212935000Y-118714250D01*
X212935000Y-118148690D01*
X212838327Y-117915301D01*
X212659698Y-117736673D01*
X212426309Y-117640000D01*
X212085750Y-117640000D01*
X211927000Y-117798750D01*
X211673000Y-117798750D01*
X211514250Y-117640000D01*
X211173691Y-117640000D01*
X211000184Y-117711869D01*
X210947765Y-117676843D01*
X210700000Y-117627560D01*
X209700000Y-117627560D01*
X209452235Y-117676843D01*
X209242191Y-117817191D01*
X209101843Y-118027235D01*
X209052560Y-118275000D01*
X209052560Y-118351517D01*
X208965526Y-118409671D01*
X208965524Y-118409673D01*
X208902071Y-118452071D01*
X208859673Y-118515524D01*
X207035199Y-120340000D01*
X178474593Y-120340000D01*
X178659698Y-120263327D01*
X178838327Y-120084699D01*
X178935000Y-119851310D01*
X178935000Y-119285750D01*
X178776250Y-119127000D01*
X177927000Y-119127000D01*
X177927000Y-119147000D01*
X177673000Y-119147000D01*
X177673000Y-119127000D01*
X177653000Y-119127000D01*
X177653000Y-118873000D01*
X177673000Y-118873000D01*
X177673000Y-117798750D01*
X177927000Y-117798750D01*
X177927000Y-118873000D01*
X178776250Y-118873000D01*
X178935000Y-118714250D01*
X178935000Y-118148690D01*
X178838327Y-117915301D01*
X178659698Y-117736673D01*
X178426309Y-117640000D01*
X178085750Y-117640000D01*
X177927000Y-117798750D01*
X177673000Y-117798750D01*
X177627000Y-117752750D01*
X177627000Y-117010011D01*
X199035210Y-117010011D01*
X201509670Y-119484472D01*
X201552071Y-119547929D01*
X201615527Y-119590329D01*
X201792461Y-119708553D01*
X201892191Y-119857809D01*
X202102235Y-119998157D01*
X202350000Y-120047440D01*
X203150000Y-120047440D01*
X203397765Y-119998157D01*
X203500000Y-119929845D01*
X203602235Y-119998157D01*
X203850000Y-120047440D01*
X204650000Y-120047440D01*
X204897765Y-119998157D01*
X205107809Y-119857809D01*
X205248157Y-119647765D01*
X205297440Y-119400000D01*
X205297440Y-118600000D01*
X205248157Y-118352235D01*
X205107809Y-118142191D01*
X205010000Y-118076837D01*
X205010000Y-117529700D01*
X205098157Y-117397765D01*
X205147440Y-117150000D01*
X205147440Y-116250000D01*
X205098157Y-116002235D01*
X204957809Y-115792191D01*
X204747765Y-115651843D01*
X204500000Y-115602560D01*
X204000000Y-115602560D01*
X203752235Y-115651843D01*
X203542191Y-115792191D01*
X203500000Y-115855334D01*
X203457809Y-115792191D01*
X203247765Y-115651843D01*
X203000000Y-115602560D01*
X202500000Y-115602560D01*
X202272595Y-115647793D01*
X201940331Y-115315530D01*
X201897929Y-115252071D01*
X201646537Y-115084096D01*
X201424852Y-115040000D01*
X201424847Y-115040000D01*
X201350000Y-115025112D01*
X201275153Y-115040000D01*
X168874848Y-115040000D01*
X168800000Y-115025112D01*
X168725152Y-115040000D01*
X154074852Y-115040000D01*
X154000000Y-115025111D01*
X153925148Y-115040000D01*
X150274847Y-115040000D01*
X150200000Y-115025112D01*
X150125153Y-115040000D01*
X147874852Y-115040000D01*
X147800000Y-115025111D01*
X147725148Y-115040000D01*
X133374848Y-115040000D01*
X133300000Y-115025112D01*
X133225152Y-115040000D01*
X100724846Y-115040000D01*
X100649999Y-115025112D01*
X100575152Y-115040000D01*
X100575148Y-115040000D01*
X100353463Y-115084096D01*
X100102071Y-115252071D01*
X100059671Y-115315527D01*
X99727405Y-115647793D01*
X99500000Y-115602560D01*
X99000000Y-115602560D01*
X98752235Y-115651843D01*
X98542191Y-115792191D01*
X98500000Y-115855334D01*
X98457809Y-115792191D01*
X98247765Y-115651843D01*
X98000000Y-115602560D01*
X97500000Y-115602560D01*
X97252235Y-115651843D01*
X97042191Y-115792191D01*
X96901843Y-116002235D01*
X96852560Y-116250000D01*
X96852560Y-117150000D01*
X96901843Y-117397765D01*
X96990000Y-117529701D01*
X96990001Y-118076836D01*
X96892191Y-118142191D01*
X96751843Y-118352235D01*
X96702560Y-118600000D01*
X96702560Y-119400000D01*
X96751843Y-119647765D01*
X96892191Y-119857809D01*
X97102235Y-119998157D01*
X97350000Y-120047440D01*
X98150000Y-120047440D01*
X98397765Y-119998157D01*
X98500000Y-119929845D01*
X98602235Y-119998157D01*
X98850000Y-120047440D01*
X99650000Y-120047440D01*
X99897765Y-119998157D01*
X100107809Y-119857809D01*
X100207540Y-119708552D01*
X100447929Y-119547929D01*
X100490331Y-119484470D01*
X101826111Y-118148690D01*
X123065000Y-118148690D01*
X123065000Y-118714250D01*
X123223750Y-118873000D01*
X124073000Y-118873000D01*
X124073000Y-117798750D01*
X123914250Y-117640000D01*
X123573691Y-117640000D01*
X123340302Y-117736673D01*
X123161673Y-117915301D01*
X123065000Y-118148690D01*
X101826111Y-118148690D01*
X102814802Y-117160000D01*
X124373000Y-117160000D01*
X124373000Y-117752750D01*
X124327000Y-117798750D01*
X124327000Y-118873000D01*
X124347000Y-118873000D01*
X124347000Y-119127000D01*
X124327000Y-119127000D01*
X124327000Y-119147000D01*
X124073000Y-119147000D01*
X124073000Y-119127000D01*
X123223750Y-119127000D01*
X123065000Y-119285750D01*
X123065000Y-119851310D01*
X123161673Y-120084699D01*
X123216974Y-120140000D01*
X94764802Y-120140000D01*
X93140331Y-118515530D01*
X93097929Y-118452071D01*
X92947440Y-118351517D01*
X92947440Y-118275000D01*
X92898157Y-118027235D01*
X92757809Y-117817191D01*
X92547765Y-117676843D01*
X92300000Y-117627560D01*
X91300000Y-117627560D01*
X91052235Y-117676843D01*
X90999816Y-117711869D01*
X90826309Y-117640000D01*
X90485750Y-117640000D01*
X90327000Y-117798750D01*
X90073000Y-117798750D01*
X89914250Y-117640000D01*
X89573691Y-117640000D01*
X89340302Y-117736673D01*
X89161673Y-117915301D01*
X89065000Y-118148690D01*
X82735000Y-118148690D01*
X82735000Y-114735000D01*
X219265000Y-114735000D01*
X219265001Y-123265000D01*
G36*
X167509670Y-119484472D02*
X167552071Y-119547929D01*
X167792460Y-119708552D01*
X167813473Y-119740000D01*
X163935000Y-119740000D01*
X163935000Y-119285750D01*
X163776250Y-119127000D01*
X162927000Y-119127000D01*
X162927000Y-119147000D01*
X162673000Y-119147000D01*
X162673000Y-119127000D01*
X162653000Y-119127000D01*
X162653000Y-118873000D01*
X162673000Y-118873000D01*
X162673000Y-117798750D01*
X162927000Y-117798750D01*
X162927000Y-118873000D01*
X163776250Y-118873000D01*
X163935000Y-118714250D01*
X163935000Y-118148690D01*
X163838327Y-117915301D01*
X163659698Y-117736673D01*
X163426309Y-117640000D01*
X163085750Y-117640000D01*
X162927000Y-117798750D01*
X162673000Y-117798750D01*
X162514250Y-117640000D01*
X162173691Y-117640000D01*
X162000184Y-117711869D01*
X161947765Y-117676843D01*
X161700000Y-117627560D01*
X160700000Y-117627560D01*
X160452235Y-117676843D01*
X160242191Y-117817191D01*
X160101843Y-118027235D01*
X160052560Y-118275000D01*
X160052560Y-118351517D01*
X159902071Y-118452071D01*
X159859671Y-118515527D01*
X159485232Y-118889967D01*
X158300168Y-118889967D01*
X158335000Y-118805874D01*
X158335000Y-118639801D01*
X159814802Y-117160000D01*
X165185199Y-117160000D01*
X167509670Y-119484472D01*
X167509670Y-119484472D01*
G37*
X167509670Y-119484472D02*
X167552071Y-119547929D01*
X167792460Y-119708552D01*
X167813473Y-119740000D01*
X163935000Y-119740000D01*
X163935000Y-119285750D01*
X163776250Y-119127000D01*
X162927000Y-119127000D01*
X162927000Y-119147000D01*
X162673000Y-119147000D01*
X162673000Y-119127000D01*
X162653000Y-119127000D01*
X162653000Y-118873000D01*
X162673000Y-118873000D01*
X162673000Y-117798750D01*
X162927000Y-117798750D01*
X162927000Y-118873000D01*
X163776250Y-118873000D01*
X163935000Y-118714250D01*
X163935000Y-118148690D01*
X163838327Y-117915301D01*
X163659698Y-117736673D01*
X163426309Y-117640000D01*
X163085750Y-117640000D01*
X162927000Y-117798750D01*
X162673000Y-117798750D01*
X162514250Y-117640000D01*
X162173691Y-117640000D01*
X162000184Y-117711869D01*
X161947765Y-117676843D01*
X161700000Y-117627560D01*
X160700000Y-117627560D01*
X160452235Y-117676843D01*
X160242191Y-117817191D01*
X160101843Y-118027235D01*
X160052560Y-118275000D01*
X160052560Y-118351517D01*
X159902071Y-118452071D01*
X159859671Y-118515527D01*
X159485232Y-118889967D01*
X158300168Y-118889967D01*
X158335000Y-118805874D01*
X158335000Y-118639801D01*
X159814802Y-117160000D01*
X165185199Y-117160000D01*
X167509670Y-119484472D01*
G36*
X146702560Y-117000000D02*
X146751843Y-117247765D01*
X146892191Y-117457809D01*
X146955334Y-117500000D01*
X146892191Y-117542191D01*
X146751843Y-117752235D01*
X146702560Y-118000000D01*
X146702560Y-118321627D01*
X146682667Y-118351399D01*
X146673000Y-118400000D01*
X146673000Y-119140000D01*
X142764802Y-119140000D01*
X142140331Y-118515530D01*
X142097929Y-118452071D01*
X141947440Y-118351517D01*
X141947440Y-118275000D01*
X141898157Y-118027235D01*
X141757809Y-117817191D01*
X141547765Y-117676843D01*
X141300000Y-117627560D01*
X140300000Y-117627560D01*
X140052235Y-117676843D01*
X139999816Y-117711869D01*
X139826309Y-117640000D01*
X139485750Y-117640000D01*
X139327000Y-117798750D01*
X139327000Y-118873000D01*
X139347000Y-118873000D01*
X139347000Y-119127000D01*
X139327000Y-119127000D01*
X139327000Y-119147000D01*
X139073000Y-119147000D01*
X139073000Y-119127000D01*
X138223750Y-119127000D01*
X138065000Y-119285750D01*
X138065000Y-119689989D01*
X136973722Y-119689989D01*
X137077431Y-119586280D01*
X137235000Y-119205874D01*
X137235000Y-118794126D01*
X137077431Y-118413720D01*
X136812401Y-118148690D01*
X138065000Y-118148690D01*
X138065000Y-118714250D01*
X138223750Y-118873000D01*
X139073000Y-118873000D01*
X139073000Y-117798750D01*
X138914250Y-117640000D01*
X138573691Y-117640000D01*
X138340302Y-117736673D01*
X138161673Y-117915301D01*
X138065000Y-118148690D01*
X136812401Y-118148690D01*
X136786280Y-118122569D01*
X136405874Y-117965000D01*
X135994126Y-117965000D01*
X135613720Y-118122569D01*
X135496289Y-118240000D01*
X134173163Y-118240000D01*
X134127000Y-118170912D01*
X134127000Y-117252760D01*
X134147440Y-117150000D01*
X134147440Y-116560000D01*
X146702560Y-116560000D01*
X146702560Y-117000000D01*
X146702560Y-117000000D01*
G37*
X146702560Y-117000000D02*
X146751843Y-117247765D01*
X146892191Y-117457809D01*
X146955334Y-117500000D01*
X146892191Y-117542191D01*
X146751843Y-117752235D01*
X146702560Y-118000000D01*
X146702560Y-118321627D01*
X146682667Y-118351399D01*
X146673000Y-118400000D01*
X146673000Y-119140000D01*
X142764802Y-119140000D01*
X142140331Y-118515530D01*
X142097929Y-118452071D01*
X141947440Y-118351517D01*
X141947440Y-118275000D01*
X141898157Y-118027235D01*
X141757809Y-117817191D01*
X141547765Y-117676843D01*
X141300000Y-117627560D01*
X140300000Y-117627560D01*
X140052235Y-117676843D01*
X139999816Y-117711869D01*
X139826309Y-117640000D01*
X139485750Y-117640000D01*
X139327000Y-117798750D01*
X139327000Y-118873000D01*
X139347000Y-118873000D01*
X139347000Y-119127000D01*
X139327000Y-119127000D01*
X139327000Y-119147000D01*
X139073000Y-119147000D01*
X139073000Y-119127000D01*
X138223750Y-119127000D01*
X138065000Y-119285750D01*
X138065000Y-119689989D01*
X136973722Y-119689989D01*
X137077431Y-119586280D01*
X137235000Y-119205874D01*
X137235000Y-118794126D01*
X137077431Y-118413720D01*
X136812401Y-118148690D01*
X138065000Y-118148690D01*
X138065000Y-118714250D01*
X138223750Y-118873000D01*
X139073000Y-118873000D01*
X139073000Y-117798750D01*
X138914250Y-117640000D01*
X138573691Y-117640000D01*
X138340302Y-117736673D01*
X138161673Y-117915301D01*
X138065000Y-118148690D01*
X136812401Y-118148690D01*
X136786280Y-118122569D01*
X136405874Y-117965000D01*
X135994126Y-117965000D01*
X135613720Y-118122569D01*
X135496289Y-118240000D01*
X134173163Y-118240000D01*
X134127000Y-118170912D01*
X134127000Y-117252760D01*
X134147440Y-117150000D01*
X134147440Y-116560000D01*
X146702560Y-116560000D01*
X146702560Y-117000000D01*
G36*
X152902560Y-116900000D02*
X152951843Y-117147765D01*
X153092191Y-117357809D01*
X153155334Y-117400000D01*
X153092191Y-117442191D01*
X152951843Y-117652235D01*
X152902560Y-117900000D01*
X152902560Y-118400000D01*
X152951843Y-118647765D01*
X153092191Y-118857809D01*
X153140318Y-118889967D01*
X152785000Y-118889967D01*
X152785000Y-118772998D01*
X152626252Y-118772998D01*
X152785000Y-118614250D01*
X152785000Y-118398690D01*
X152688327Y-118165301D01*
X152509698Y-117986673D01*
X152276309Y-117890000D01*
X152035750Y-117890000D01*
X151877000Y-118048750D01*
X151877000Y-118773000D01*
X151897000Y-118773000D01*
X151897000Y-118878385D01*
X151838774Y-118889967D01*
X151838770Y-118889967D01*
X151617085Y-118934063D01*
X151603000Y-118943474D01*
X151603000Y-118773000D01*
X151623000Y-118773000D01*
X151623000Y-118048750D01*
X151464250Y-117890000D01*
X151223691Y-117890000D01*
X151010000Y-117978514D01*
X151010000Y-116560000D01*
X152902560Y-116560000D01*
X152902560Y-116900000D01*
X152902560Y-116900000D01*
G37*
X152902560Y-116900000D02*
X152951843Y-117147765D01*
X153092191Y-117357809D01*
X153155334Y-117400000D01*
X153092191Y-117442191D01*
X152951843Y-117652235D01*
X152902560Y-117900000D01*
X152902560Y-118400000D01*
X152951843Y-118647765D01*
X153092191Y-118857809D01*
X153140318Y-118889967D01*
X152785000Y-118889967D01*
X152785000Y-118772998D01*
X152626252Y-118772998D01*
X152785000Y-118614250D01*
X152785000Y-118398690D01*
X152688327Y-118165301D01*
X152509698Y-117986673D01*
X152276309Y-117890000D01*
X152035750Y-117890000D01*
X151877000Y-118048750D01*
X151877000Y-118773000D01*
X151897000Y-118773000D01*
X151897000Y-118878385D01*
X151838774Y-118889967D01*
X151838770Y-118889967D01*
X151617085Y-118934063D01*
X151603000Y-118943474D01*
X151603000Y-118773000D01*
X151623000Y-118773000D01*
X151623000Y-118048750D01*
X151464250Y-117890000D01*
X151223691Y-117890000D01*
X151010000Y-117978514D01*
X151010000Y-116560000D01*
X152902560Y-116560000D01*
X152902560Y-116900000D01*
M02*
