G04 #@! TF.GenerationSoftware,KiCad,Pcbnew,(5.0.0)*
G04 #@! TF.CreationDate,2020-02-01T14:37:15+09:00*
G04 #@! TF.ProjectId,m file,6D2066696C652E6B696361645F706362,rev?*
G04 #@! TF.SameCoordinates,Original*
G04 #@! TF.FileFunction,Copper,L1,Top,Signal*
G04 #@! TF.FilePolarity,Positive*
%FSLAX46Y46*%
G04 Gerber Fmt 4.6, Leading zero omitted, Abs format (unit mm)*
G04 Created by KiCad (PCBNEW (5.0.0)) date 02/01/20 14:37:15*
%MOMM*%
%LPD*%
G01*
G04 APERTURE LIST*
G04 #@! TA.AperFunction,SMDPad,CuDef*
%ADD10R,0.800000X0.800000*%
G04 #@! TD*
G04 #@! TA.AperFunction,ViaPad*
%ADD11C,0.800000*%
G04 #@! TD*
G04 #@! TA.AperFunction,Conductor*
%ADD12C,0.250000*%
G04 #@! TD*
G04 #@! TA.AperFunction,NonConductor*
%ADD13C,0.254000*%
G04 #@! TD*
G04 APERTURE END LIST*
D10*
G04 #@! TO.P,D2,2*
G04 #@! TO.N,N/C*
X151800000Y-122200000D03*
G04 #@! TO.P,D2,1*
X150200000Y-122200000D03*
G04 #@! TD*
G04 #@! TO.P,D1,1*
G04 #@! TO.N,N/C*
X151800000Y-115800000D03*
G04 #@! TO.P,D1,2*
X150200000Y-115800000D03*
G04 #@! TD*
G04 #@! TO.P,D2,2*
G04 #@! TO.N,N/C*
X151800000Y-105200000D03*
G04 #@! TO.P,D2,1*
X150200000Y-105200000D03*
G04 #@! TD*
G04 #@! TO.P,D1,1*
G04 #@! TO.N,N/C*
X151800000Y-98800000D03*
G04 #@! TO.P,D1,2*
X150200000Y-98800000D03*
G04 #@! TD*
G04 #@! TO.P,D2,2*
G04 #@! TO.N,N/C*
X151800000Y-88200000D03*
G04 #@! TO.P,D2,1*
X150200000Y-88200000D03*
G04 #@! TD*
G04 #@! TO.P,D1,1*
G04 #@! TO.N,N/C*
X151800000Y-81800000D03*
G04 #@! TO.P,D1,2*
X150200000Y-81800000D03*
G04 #@! TD*
D11*
G04 #@! TO.N,*
X149100000Y-84900000D03*
X148800000Y-89400008D03*
X124200000Y-83500000D03*
X111800000Y-84700000D03*
X158900000Y-84600000D03*
X189900000Y-84600000D03*
X177800000Y-83400000D03*
X216100000Y-84900000D03*
X152899998Y-84900000D03*
X207100000Y-83400000D03*
X211800000Y-83400000D03*
X166600000Y-85200000D03*
X134600000Y-83400000D03*
X162800000Y-83400000D03*
X85900000Y-85000000D03*
X189900000Y-88500000D03*
X146000000Y-83400000D03*
X160900000Y-90900000D03*
X154300000Y-88100000D03*
X139200000Y-83400000D03*
X90200000Y-83500000D03*
X142100000Y-91000000D03*
X151800000Y-83200000D03*
X111800000Y-88600000D03*
X149000000Y-82525010D03*
X136200000Y-85000000D03*
X136200000Y-87700000D03*
X157300000Y-84600000D03*
X157300000Y-87825010D03*
X150200000Y-90200000D03*
X155500000Y-84200000D03*
X149100000Y-101900000D03*
X148800000Y-106400008D03*
X124200000Y-100500000D03*
X111800000Y-101700000D03*
X158900000Y-101600000D03*
X189900000Y-101600000D03*
X177800000Y-100400000D03*
X216100000Y-101900000D03*
X152899998Y-101900000D03*
X207100000Y-100400000D03*
X211800000Y-100400000D03*
X166600000Y-102200000D03*
X134600000Y-100400000D03*
X162800000Y-100400000D03*
X85900000Y-102000000D03*
X189900000Y-105500000D03*
X146000000Y-100400000D03*
X160900000Y-107900000D03*
X154300000Y-105100000D03*
X139200000Y-100400000D03*
X90200000Y-100500000D03*
X142100000Y-108000000D03*
X151800000Y-100200000D03*
X111800000Y-105600000D03*
X149000000Y-99525010D03*
X136200000Y-102000000D03*
X136200000Y-104700000D03*
X157300000Y-101600000D03*
X157300000Y-104825010D03*
X150200000Y-107200000D03*
X155500000Y-101200000D03*
X149100000Y-118900000D03*
X148800000Y-123400008D03*
X124200000Y-117500000D03*
X111800000Y-118700000D03*
X158900000Y-118600000D03*
X189900000Y-118600000D03*
X177800000Y-117400000D03*
X216100000Y-118900000D03*
X152899998Y-118900000D03*
X207100000Y-117400000D03*
X211800000Y-117400000D03*
X166600000Y-119200000D03*
X134600000Y-117400000D03*
X162800000Y-117400000D03*
X85900000Y-119000000D03*
X189900000Y-122500000D03*
X146000000Y-117400000D03*
X160900000Y-124900000D03*
X154300000Y-122100000D03*
X139200000Y-117400000D03*
X90200000Y-117500000D03*
X142100000Y-125000000D03*
X151800000Y-117200000D03*
X111800000Y-122600000D03*
X149000000Y-116525010D03*
X136200000Y-119000000D03*
X136200000Y-121700000D03*
X157300000Y-118600000D03*
X157300000Y-121825010D03*
X150200000Y-124200000D03*
X155500000Y-118200000D03*
G04 #@! TD*
D12*
G04 #@! TO.N,*
X149100000Y-84900000D02*
X149100000Y-89100008D01*
X149100000Y-89100008D02*
X148800000Y-89400008D01*
X162800000Y-83400000D02*
X177800000Y-83400000D01*
X153900001Y-87700001D02*
X154300000Y-88100000D01*
X152899998Y-86699998D02*
X153900001Y-87700001D01*
X146000000Y-83400000D02*
X139200000Y-83400000D01*
X151800000Y-83400000D02*
X146000000Y-83400000D01*
X152899998Y-84900000D02*
X152899998Y-86699998D01*
X177800000Y-83400000D02*
X207100000Y-83400000D01*
X154399998Y-83400000D02*
X162800000Y-83400000D01*
X139200000Y-83400000D02*
X134600000Y-83400000D01*
X152899998Y-84900000D02*
X152899998Y-83400000D01*
X151800000Y-82450000D02*
X151800000Y-83200000D01*
X151800000Y-81800000D02*
X151800000Y-82450000D01*
X152899998Y-83400000D02*
X154399998Y-83400000D01*
X154399998Y-83400000D02*
X151800000Y-83400000D01*
X151800000Y-83200000D02*
X151800000Y-83400000D01*
X134600000Y-83400000D02*
X124300000Y-83400000D01*
X124300000Y-83400000D02*
X124200000Y-83500000D01*
X207100000Y-83400000D02*
X211800000Y-83400000D01*
X124200000Y-83500000D02*
X90200000Y-83500000D01*
X149550000Y-81800000D02*
X149000000Y-82350000D01*
X150200000Y-81800000D02*
X149550000Y-81800000D01*
X149000000Y-82350000D02*
X149000000Y-82525010D01*
X157300000Y-84600000D02*
X157300000Y-87825010D01*
X136200000Y-87700000D02*
X136200000Y-85000000D01*
X150200000Y-88200000D02*
X150200000Y-90200000D01*
X153800000Y-90300000D02*
X155500000Y-88600000D01*
X151800000Y-88200000D02*
X151800000Y-89600000D01*
X153600000Y-90300000D02*
X153800000Y-90300000D01*
X155500000Y-88600000D02*
X155500000Y-84200000D01*
X151800000Y-89600000D02*
X152500000Y-90300000D01*
X152500000Y-90300000D02*
X153600000Y-90300000D01*
X149100000Y-101900000D02*
X149100000Y-106100008D01*
X149100000Y-106100008D02*
X148800000Y-106400008D01*
X162800000Y-100400000D02*
X177800000Y-100400000D01*
X153900001Y-104700001D02*
X154300000Y-105100000D01*
X152899998Y-103699998D02*
X153900001Y-104700001D01*
X146000000Y-100400000D02*
X139200000Y-100400000D01*
X151800000Y-100400000D02*
X146000000Y-100400000D01*
X152899998Y-101900000D02*
X152899998Y-103699998D01*
X177800000Y-100400000D02*
X207100000Y-100400000D01*
X154399998Y-100400000D02*
X162800000Y-100400000D01*
X139200000Y-100400000D02*
X134600000Y-100400000D01*
X152899998Y-101900000D02*
X152899998Y-100400000D01*
X151800000Y-99450000D02*
X151800000Y-100200000D01*
X151800000Y-98800000D02*
X151800000Y-99450000D01*
X152899998Y-100400000D02*
X154399998Y-100400000D01*
X154399998Y-100400000D02*
X151800000Y-100400000D01*
X151800000Y-100200000D02*
X151800000Y-100400000D01*
X134600000Y-100400000D02*
X124300000Y-100400000D01*
X124300000Y-100400000D02*
X124200000Y-100500000D01*
X207100000Y-100400000D02*
X211800000Y-100400000D01*
X124200000Y-100500000D02*
X90200000Y-100500000D01*
X149550000Y-98800000D02*
X149000000Y-99350000D01*
X150200000Y-98800000D02*
X149550000Y-98800000D01*
X149000000Y-99350000D02*
X149000000Y-99525010D01*
X157300000Y-101600000D02*
X157300000Y-104825010D01*
X136200000Y-104700000D02*
X136200000Y-102000000D01*
X150200000Y-105200000D02*
X150200000Y-107200000D01*
X153800000Y-107300000D02*
X155500000Y-105600000D01*
X151800000Y-105200000D02*
X151800000Y-106600000D01*
X153600000Y-107300000D02*
X153800000Y-107300000D01*
X155500000Y-105600000D02*
X155500000Y-101200000D01*
X151800000Y-106600000D02*
X152500000Y-107300000D01*
X152500000Y-107300000D02*
X153600000Y-107300000D01*
X149100000Y-118900000D02*
X149100000Y-123100008D01*
X149100000Y-123100008D02*
X148800000Y-123400008D01*
X162800000Y-117400000D02*
X177800000Y-117400000D01*
X153900001Y-121700001D02*
X154300000Y-122100000D01*
X152899998Y-120699998D02*
X153900001Y-121700001D01*
X146000000Y-117400000D02*
X139200000Y-117400000D01*
X151800000Y-117400000D02*
X146000000Y-117400000D01*
X152899998Y-118900000D02*
X152899998Y-120699998D01*
X177800000Y-117400000D02*
X207100000Y-117400000D01*
X154399998Y-117400000D02*
X162800000Y-117400000D01*
X139200000Y-117400000D02*
X134600000Y-117400000D01*
X152899998Y-118900000D02*
X152899998Y-117400000D01*
X151800000Y-116450000D02*
X151800000Y-117200000D01*
X151800000Y-115800000D02*
X151800000Y-116450000D01*
X152899998Y-117400000D02*
X154399998Y-117400000D01*
X154399998Y-117400000D02*
X151800000Y-117400000D01*
X151800000Y-117200000D02*
X151800000Y-117400000D01*
X134600000Y-117400000D02*
X124300000Y-117400000D01*
X124300000Y-117400000D02*
X124200000Y-117500000D01*
X207100000Y-117400000D02*
X211800000Y-117400000D01*
X124200000Y-117500000D02*
X90200000Y-117500000D01*
X149550000Y-115800000D02*
X149000000Y-116350000D01*
X150200000Y-115800000D02*
X149550000Y-115800000D01*
X149000000Y-116350000D02*
X149000000Y-116525010D01*
X157300000Y-118600000D02*
X157300000Y-121825010D01*
X136200000Y-121700000D02*
X136200000Y-119000000D01*
X150200000Y-122200000D02*
X150200000Y-124200000D01*
X153800000Y-124300000D02*
X155500000Y-122600000D01*
X151800000Y-122200000D02*
X151800000Y-123600000D01*
X153600000Y-124300000D02*
X153800000Y-124300000D01*
X155500000Y-122600000D02*
X155500000Y-118200000D01*
X151800000Y-123600000D02*
X152500000Y-124300000D01*
X152500000Y-124300000D02*
X153600000Y-124300000D01*
G04 #@! TD*
D13*
G36*
X219265001Y-89265000D02*
X171072388Y-89265000D01*
X171000000Y-89250601D01*
X170927612Y-89265000D01*
X170713217Y-89307646D01*
X170470095Y-89470095D01*
X170429091Y-89531463D01*
X168185538Y-91775016D01*
X168175405Y-91773000D01*
X167159435Y-91773000D01*
X166894741Y-91133974D01*
X166266026Y-90505259D01*
X165444569Y-90165000D01*
X164555431Y-90165000D01*
X163733974Y-90505259D01*
X163105259Y-91133974D01*
X162765000Y-91955431D01*
X162765000Y-92844569D01*
X162778491Y-92877139D01*
X162778578Y-92888204D01*
X162898042Y-93228388D01*
X162882667Y-93251399D01*
X162873000Y-93300000D01*
X162873000Y-94265000D01*
X139127000Y-94265000D01*
X139127000Y-93324595D01*
X139117333Y-93275994D01*
X139112784Y-93269186D01*
X139133422Y-93230938D01*
X139172695Y-92994985D01*
X139235000Y-92844569D01*
X139235000Y-92620663D01*
X139255000Y-92500504D01*
X139254722Y-92465084D01*
X139235000Y-92357097D01*
X139235000Y-91955431D01*
X138894741Y-91133974D01*
X138266026Y-90505259D01*
X137444569Y-90165000D01*
X136555431Y-90165000D01*
X135733974Y-90505259D01*
X135105259Y-91133974D01*
X134799144Y-91873000D01*
X133912447Y-91873000D01*
X131570911Y-89531465D01*
X131529905Y-89470095D01*
X131286783Y-89307646D01*
X131072388Y-89265000D01*
X131072384Y-89265000D01*
X131000000Y-89250602D01*
X130927616Y-89265000D01*
X82735000Y-89265000D01*
X82735000Y-89194134D01*
X147765000Y-89194134D01*
X147765000Y-89605882D01*
X147922569Y-89986288D01*
X148213720Y-90277439D01*
X148594126Y-90435008D01*
X149005874Y-90435008D01*
X149165000Y-90369096D01*
X149165000Y-90405874D01*
X149322569Y-90786280D01*
X149613720Y-91077431D01*
X149994126Y-91235000D01*
X150405874Y-91235000D01*
X150786280Y-91077431D01*
X150948389Y-90915322D01*
X150951399Y-90917333D01*
X151000000Y-90927000D01*
X152070408Y-90927000D01*
X152140902Y-90974102D01*
X152203463Y-91015904D01*
X152425148Y-91060000D01*
X152425152Y-91060000D01*
X152499999Y-91074888D01*
X152574846Y-91060000D01*
X153725153Y-91060000D01*
X153800000Y-91074888D01*
X153874847Y-91060000D01*
X153874852Y-91060000D01*
X154096537Y-91015904D01*
X154347929Y-90847929D01*
X154390331Y-90784470D01*
X155984473Y-89190329D01*
X156047929Y-89147929D01*
X156215904Y-88896537D01*
X156260000Y-88674852D01*
X156260000Y-88674848D01*
X156269518Y-88627000D01*
X156638279Y-88627000D01*
X156713720Y-88702441D01*
X157094126Y-88860010D01*
X157505874Y-88860010D01*
X157886280Y-88702441D01*
X158177431Y-88411290D01*
X158335000Y-88030884D01*
X158335000Y-87619136D01*
X158177431Y-87238730D01*
X158060000Y-87121299D01*
X158060000Y-85303711D01*
X158177431Y-85186280D01*
X158335000Y-84805874D01*
X158335000Y-84394126D01*
X158177431Y-84013720D01*
X157886280Y-83722569D01*
X157505874Y-83565000D01*
X157320038Y-83565000D01*
X157317333Y-83551399D01*
X157289803Y-83510197D01*
X157248601Y-83482667D01*
X157200000Y-83473000D01*
X156236711Y-83473000D01*
X156086280Y-83322569D01*
X155705874Y-83165000D01*
X155294126Y-83165000D01*
X154913720Y-83322569D01*
X154622569Y-83613720D01*
X154465000Y-83994126D01*
X154465000Y-84405874D01*
X154622569Y-84786280D01*
X154740001Y-84903712D01*
X154740000Y-88285198D01*
X153485199Y-89540000D01*
X152814802Y-89540000D01*
X152560000Y-89285198D01*
X152560000Y-89123163D01*
X152657809Y-89057809D01*
X152798157Y-88847765D01*
X152847440Y-88600000D01*
X152847440Y-87800000D01*
X152798157Y-87552235D01*
X152657809Y-87342191D01*
X152447765Y-87201843D01*
X152200000Y-87152560D01*
X151400000Y-87152560D01*
X151152235Y-87201843D01*
X151000000Y-87303564D01*
X150847765Y-87201843D01*
X150600000Y-87152560D01*
X149860000Y-87152560D01*
X149860000Y-85603711D01*
X149977431Y-85486280D01*
X150135000Y-85105874D01*
X150135000Y-84694126D01*
X149977431Y-84313720D01*
X149686280Y-84022569D01*
X149305874Y-83865000D01*
X148894126Y-83865000D01*
X148513720Y-84022569D01*
X148222569Y-84313720D01*
X148065000Y-84694126D01*
X148065000Y-85105874D01*
X148222569Y-85486280D01*
X148340000Y-85603711D01*
X148340001Y-88470270D01*
X148213720Y-88522577D01*
X147922569Y-88813728D01*
X147765000Y-89194134D01*
X82735000Y-89194134D01*
X82735000Y-84794126D01*
X135165000Y-84794126D01*
X135165000Y-85205874D01*
X135322569Y-85586280D01*
X135440001Y-85703712D01*
X135440000Y-86996289D01*
X135322569Y-87113720D01*
X135165000Y-87494126D01*
X135165000Y-87905874D01*
X135322569Y-88286280D01*
X135613720Y-88577431D01*
X135994126Y-88735000D01*
X136405874Y-88735000D01*
X136786280Y-88577431D01*
X137077431Y-88286280D01*
X137235000Y-87905874D01*
X137235000Y-87494126D01*
X137077431Y-87113720D01*
X136960000Y-86996289D01*
X136960000Y-85703711D01*
X137077431Y-85586280D01*
X137235000Y-85205874D01*
X137235000Y-84794126D01*
X137077431Y-84413720D01*
X136786280Y-84122569D01*
X136405874Y-83965000D01*
X135994126Y-83965000D01*
X135613720Y-84122569D01*
X135322569Y-84413720D01*
X135165000Y-84794126D01*
X82735000Y-84794126D01*
X82735000Y-82319136D01*
X147965000Y-82319136D01*
X147965000Y-82730884D01*
X148122569Y-83111290D01*
X148413720Y-83402441D01*
X148794126Y-83560010D01*
X149205874Y-83560010D01*
X149586280Y-83402441D01*
X149877431Y-83111290D01*
X149986721Y-82847440D01*
X150600000Y-82847440D01*
X150847765Y-82798157D01*
X150999047Y-82697073D01*
X151040302Y-82738327D01*
X151273691Y-82835000D01*
X151514250Y-82835000D01*
X151673000Y-82676250D01*
X151673000Y-81927000D01*
X151927000Y-81927000D01*
X151927000Y-82676250D01*
X152085750Y-82835000D01*
X152326309Y-82835000D01*
X152559698Y-82738327D01*
X152738327Y-82559699D01*
X152835000Y-82326310D01*
X152835000Y-82085750D01*
X152676250Y-81927000D01*
X151927000Y-81927000D01*
X151673000Y-81927000D01*
X151653000Y-81927000D01*
X151653000Y-81673000D01*
X151673000Y-81673000D01*
X151673000Y-80923750D01*
X151927000Y-80923750D01*
X151927000Y-81673000D01*
X152676250Y-81673000D01*
X152835000Y-81514250D01*
X152835000Y-81273690D01*
X152738327Y-81040301D01*
X152559698Y-80861673D01*
X152326309Y-80765000D01*
X152085750Y-80765000D01*
X151927000Y-80923750D01*
X151673000Y-80923750D01*
X151514250Y-80765000D01*
X151273691Y-80765000D01*
X151040302Y-80861673D01*
X150999047Y-80902927D01*
X150847765Y-80801843D01*
X150600000Y-80752560D01*
X149800000Y-80752560D01*
X149552235Y-80801843D01*
X149342191Y-80942191D01*
X149242459Y-81091449D01*
X149065526Y-81209671D01*
X149065524Y-81209673D01*
X149002071Y-81252071D01*
X148959672Y-81315525D01*
X148778868Y-81496330D01*
X148413720Y-81647579D01*
X148122569Y-81938730D01*
X147965000Y-82319136D01*
X82735000Y-82319136D01*
X82735000Y-80735000D01*
X219265000Y-80735000D01*
X219265001Y-89265000D01*
X219265001Y-89265000D01*
G37*
X219265001Y-89265000D02*
X171072388Y-89265000D01*
X171000000Y-89250601D01*
X170927612Y-89265000D01*
X170713217Y-89307646D01*
X170470095Y-89470095D01*
X170429091Y-89531463D01*
X168185538Y-91775016D01*
X168175405Y-91773000D01*
X167159435Y-91773000D01*
X166894741Y-91133974D01*
X166266026Y-90505259D01*
X165444569Y-90165000D01*
X164555431Y-90165000D01*
X163733974Y-90505259D01*
X163105259Y-91133974D01*
X162765000Y-91955431D01*
X162765000Y-92844569D01*
X162778491Y-92877139D01*
X162778578Y-92888204D01*
X162898042Y-93228388D01*
X162882667Y-93251399D01*
X162873000Y-93300000D01*
X162873000Y-94265000D01*
X139127000Y-94265000D01*
X139127000Y-93324595D01*
X139117333Y-93275994D01*
X139112784Y-93269186D01*
X139133422Y-93230938D01*
X139172695Y-92994985D01*
X139235000Y-92844569D01*
X139235000Y-92620663D01*
X139255000Y-92500504D01*
X139254722Y-92465084D01*
X139235000Y-92357097D01*
X139235000Y-91955431D01*
X138894741Y-91133974D01*
X138266026Y-90505259D01*
X137444569Y-90165000D01*
X136555431Y-90165000D01*
X135733974Y-90505259D01*
X135105259Y-91133974D01*
X134799144Y-91873000D01*
X133912447Y-91873000D01*
X131570911Y-89531465D01*
X131529905Y-89470095D01*
X131286783Y-89307646D01*
X131072388Y-89265000D01*
X131072384Y-89265000D01*
X131000000Y-89250602D01*
X130927616Y-89265000D01*
X82735000Y-89265000D01*
X82735000Y-89194134D01*
X147765000Y-89194134D01*
X147765000Y-89605882D01*
X147922569Y-89986288D01*
X148213720Y-90277439D01*
X148594126Y-90435008D01*
X149005874Y-90435008D01*
X149165000Y-90369096D01*
X149165000Y-90405874D01*
X149322569Y-90786280D01*
X149613720Y-91077431D01*
X149994126Y-91235000D01*
X150405874Y-91235000D01*
X150786280Y-91077431D01*
X150948389Y-90915322D01*
X150951399Y-90917333D01*
X151000000Y-90927000D01*
X152070408Y-90927000D01*
X152140902Y-90974102D01*
X152203463Y-91015904D01*
X152425148Y-91060000D01*
X152425152Y-91060000D01*
X152499999Y-91074888D01*
X152574846Y-91060000D01*
X153725153Y-91060000D01*
X153800000Y-91074888D01*
X153874847Y-91060000D01*
X153874852Y-91060000D01*
X154096537Y-91015904D01*
X154347929Y-90847929D01*
X154390331Y-90784470D01*
X155984473Y-89190329D01*
X156047929Y-89147929D01*
X156215904Y-88896537D01*
X156260000Y-88674852D01*
X156260000Y-88674848D01*
X156269518Y-88627000D01*
X156638279Y-88627000D01*
X156713720Y-88702441D01*
X157094126Y-88860010D01*
X157505874Y-88860010D01*
X157886280Y-88702441D01*
X158177431Y-88411290D01*
X158335000Y-88030884D01*
X158335000Y-87619136D01*
X158177431Y-87238730D01*
X158060000Y-87121299D01*
X158060000Y-85303711D01*
X158177431Y-85186280D01*
X158335000Y-84805874D01*
X158335000Y-84394126D01*
X158177431Y-84013720D01*
X157886280Y-83722569D01*
X157505874Y-83565000D01*
X157320038Y-83565000D01*
X157317333Y-83551399D01*
X157289803Y-83510197D01*
X157248601Y-83482667D01*
X157200000Y-83473000D01*
X156236711Y-83473000D01*
X156086280Y-83322569D01*
X155705874Y-83165000D01*
X155294126Y-83165000D01*
X154913720Y-83322569D01*
X154622569Y-83613720D01*
X154465000Y-83994126D01*
X154465000Y-84405874D01*
X154622569Y-84786280D01*
X154740001Y-84903712D01*
X154740000Y-88285198D01*
X153485199Y-89540000D01*
X152814802Y-89540000D01*
X152560000Y-89285198D01*
X152560000Y-89123163D01*
X152657809Y-89057809D01*
X152798157Y-88847765D01*
X152847440Y-88600000D01*
X152847440Y-87800000D01*
X152798157Y-87552235D01*
X152657809Y-87342191D01*
X152447765Y-87201843D01*
X152200000Y-87152560D01*
X151400000Y-87152560D01*
X151152235Y-87201843D01*
X151000000Y-87303564D01*
X150847765Y-87201843D01*
X150600000Y-87152560D01*
X149860000Y-87152560D01*
X149860000Y-85603711D01*
X149977431Y-85486280D01*
X150135000Y-85105874D01*
X150135000Y-84694126D01*
X149977431Y-84313720D01*
X149686280Y-84022569D01*
X149305874Y-83865000D01*
X148894126Y-83865000D01*
X148513720Y-84022569D01*
X148222569Y-84313720D01*
X148065000Y-84694126D01*
X148065000Y-85105874D01*
X148222569Y-85486280D01*
X148340000Y-85603711D01*
X148340001Y-88470270D01*
X148213720Y-88522577D01*
X147922569Y-88813728D01*
X147765000Y-89194134D01*
X82735000Y-89194134D01*
X82735000Y-84794126D01*
X135165000Y-84794126D01*
X135165000Y-85205874D01*
X135322569Y-85586280D01*
X135440001Y-85703712D01*
X135440000Y-86996289D01*
X135322569Y-87113720D01*
X135165000Y-87494126D01*
X135165000Y-87905874D01*
X135322569Y-88286280D01*
X135613720Y-88577431D01*
X135994126Y-88735000D01*
X136405874Y-88735000D01*
X136786280Y-88577431D01*
X137077431Y-88286280D01*
X137235000Y-87905874D01*
X137235000Y-87494126D01*
X137077431Y-87113720D01*
X136960000Y-86996289D01*
X136960000Y-85703711D01*
X137077431Y-85586280D01*
X137235000Y-85205874D01*
X137235000Y-84794126D01*
X137077431Y-84413720D01*
X136786280Y-84122569D01*
X136405874Y-83965000D01*
X135994126Y-83965000D01*
X135613720Y-84122569D01*
X135322569Y-84413720D01*
X135165000Y-84794126D01*
X82735000Y-84794126D01*
X82735000Y-82319136D01*
X147965000Y-82319136D01*
X147965000Y-82730884D01*
X148122569Y-83111290D01*
X148413720Y-83402441D01*
X148794126Y-83560010D01*
X149205874Y-83560010D01*
X149586280Y-83402441D01*
X149877431Y-83111290D01*
X149986721Y-82847440D01*
X150600000Y-82847440D01*
X150847765Y-82798157D01*
X150999047Y-82697073D01*
X151040302Y-82738327D01*
X151273691Y-82835000D01*
X151514250Y-82835000D01*
X151673000Y-82676250D01*
X151673000Y-81927000D01*
X151927000Y-81927000D01*
X151927000Y-82676250D01*
X152085750Y-82835000D01*
X152326309Y-82835000D01*
X152559698Y-82738327D01*
X152738327Y-82559699D01*
X152835000Y-82326310D01*
X152835000Y-82085750D01*
X152676250Y-81927000D01*
X151927000Y-81927000D01*
X151673000Y-81927000D01*
X151653000Y-81927000D01*
X151653000Y-81673000D01*
X151673000Y-81673000D01*
X151673000Y-80923750D01*
X151927000Y-80923750D01*
X151927000Y-81673000D01*
X152676250Y-81673000D01*
X152835000Y-81514250D01*
X152835000Y-81273690D01*
X152738327Y-81040301D01*
X152559698Y-80861673D01*
X152326309Y-80765000D01*
X152085750Y-80765000D01*
X151927000Y-80923750D01*
X151673000Y-80923750D01*
X151514250Y-80765000D01*
X151273691Y-80765000D01*
X151040302Y-80861673D01*
X150999047Y-80902927D01*
X150847765Y-80801843D01*
X150600000Y-80752560D01*
X149800000Y-80752560D01*
X149552235Y-80801843D01*
X149342191Y-80942191D01*
X149242459Y-81091449D01*
X149065526Y-81209671D01*
X149065524Y-81209673D01*
X149002071Y-81252071D01*
X148959672Y-81315525D01*
X148778868Y-81496330D01*
X148413720Y-81647579D01*
X148122569Y-81938730D01*
X147965000Y-82319136D01*
X82735000Y-82319136D01*
X82735000Y-80735000D01*
X219265000Y-80735000D01*
X219265001Y-89265000D01*
G36*
X219265001Y-106265000D02*
X171072388Y-106265000D01*
X171000000Y-106250601D01*
X170927612Y-106265000D01*
X170713217Y-106307646D01*
X170470095Y-106470095D01*
X170429091Y-106531463D01*
X168185538Y-108775016D01*
X168175405Y-108773000D01*
X167159435Y-108773000D01*
X166894741Y-108133974D01*
X166266026Y-107505259D01*
X165444569Y-107165000D01*
X164555431Y-107165000D01*
X163733974Y-107505259D01*
X163105259Y-108133974D01*
X162765000Y-108955431D01*
X162765000Y-109844569D01*
X162778491Y-109877139D01*
X162778578Y-109888204D01*
X162898042Y-110228388D01*
X162882667Y-110251399D01*
X162873000Y-110300000D01*
X162873000Y-111265000D01*
X139127000Y-111265000D01*
X139127000Y-110324595D01*
X139117333Y-110275994D01*
X139112784Y-110269186D01*
X139133422Y-110230938D01*
X139172695Y-109994985D01*
X139235000Y-109844569D01*
X139235000Y-109620663D01*
X139255000Y-109500504D01*
X139254722Y-109465084D01*
X139235000Y-109357097D01*
X139235000Y-108955431D01*
X138894741Y-108133974D01*
X138266026Y-107505259D01*
X137444569Y-107165000D01*
X136555431Y-107165000D01*
X135733974Y-107505259D01*
X135105259Y-108133974D01*
X134799144Y-108873000D01*
X133912447Y-108873000D01*
X131570911Y-106531465D01*
X131529905Y-106470095D01*
X131286783Y-106307646D01*
X131072388Y-106265000D01*
X131072384Y-106265000D01*
X131000000Y-106250602D01*
X130927616Y-106265000D01*
X82735000Y-106265000D01*
X82735000Y-106194134D01*
X147765000Y-106194134D01*
X147765000Y-106605882D01*
X147922569Y-106986288D01*
X148213720Y-107277439D01*
X148594126Y-107435008D01*
X149005874Y-107435008D01*
X149165000Y-107369096D01*
X149165000Y-107405874D01*
X149322569Y-107786280D01*
X149613720Y-108077431D01*
X149994126Y-108235000D01*
X150405874Y-108235000D01*
X150786280Y-108077431D01*
X150948389Y-107915322D01*
X150951399Y-107917333D01*
X151000000Y-107927000D01*
X152070408Y-107927000D01*
X152140902Y-107974102D01*
X152203463Y-108015904D01*
X152425148Y-108060000D01*
X152425152Y-108060000D01*
X152499999Y-108074888D01*
X152574846Y-108060000D01*
X153725153Y-108060000D01*
X153800000Y-108074888D01*
X153874847Y-108060000D01*
X153874852Y-108060000D01*
X154096537Y-108015904D01*
X154347929Y-107847929D01*
X154390331Y-107784470D01*
X155984473Y-106190329D01*
X156047929Y-106147929D01*
X156215904Y-105896537D01*
X156260000Y-105674852D01*
X156260000Y-105674848D01*
X156269518Y-105627000D01*
X156638279Y-105627000D01*
X156713720Y-105702441D01*
X157094126Y-105860010D01*
X157505874Y-105860010D01*
X157886280Y-105702441D01*
X158177431Y-105411290D01*
X158335000Y-105030884D01*
X158335000Y-104619136D01*
X158177431Y-104238730D01*
X158060000Y-104121299D01*
X158060000Y-102303711D01*
X158177431Y-102186280D01*
X158335000Y-101805874D01*
X158335000Y-101394126D01*
X158177431Y-101013720D01*
X157886280Y-100722569D01*
X157505874Y-100565000D01*
X157320038Y-100565000D01*
X157317333Y-100551399D01*
X157289803Y-100510197D01*
X157248601Y-100482667D01*
X157200000Y-100473000D01*
X156236711Y-100473000D01*
X156086280Y-100322569D01*
X155705874Y-100165000D01*
X155294126Y-100165000D01*
X154913720Y-100322569D01*
X154622569Y-100613720D01*
X154465000Y-100994126D01*
X154465000Y-101405874D01*
X154622569Y-101786280D01*
X154740001Y-101903712D01*
X154740000Y-105285198D01*
X153485199Y-106540000D01*
X152814802Y-106540000D01*
X152560000Y-106285198D01*
X152560000Y-106123163D01*
X152657809Y-106057809D01*
X152798157Y-105847765D01*
X152847440Y-105600000D01*
X152847440Y-104800000D01*
X152798157Y-104552235D01*
X152657809Y-104342191D01*
X152447765Y-104201843D01*
X152200000Y-104152560D01*
X151400000Y-104152560D01*
X151152235Y-104201843D01*
X151000000Y-104303564D01*
X150847765Y-104201843D01*
X150600000Y-104152560D01*
X149860000Y-104152560D01*
X149860000Y-102603711D01*
X149977431Y-102486280D01*
X150135000Y-102105874D01*
X150135000Y-101694126D01*
X149977431Y-101313720D01*
X149686280Y-101022569D01*
X149305874Y-100865000D01*
X148894126Y-100865000D01*
X148513720Y-101022569D01*
X148222569Y-101313720D01*
X148065000Y-101694126D01*
X148065000Y-102105874D01*
X148222569Y-102486280D01*
X148340000Y-102603711D01*
X148340001Y-105470270D01*
X148213720Y-105522577D01*
X147922569Y-105813728D01*
X147765000Y-106194134D01*
X82735000Y-106194134D01*
X82735000Y-101794126D01*
X135165000Y-101794126D01*
X135165000Y-102205874D01*
X135322569Y-102586280D01*
X135440001Y-102703712D01*
X135440000Y-103996289D01*
X135322569Y-104113720D01*
X135165000Y-104494126D01*
X135165000Y-104905874D01*
X135322569Y-105286280D01*
X135613720Y-105577431D01*
X135994126Y-105735000D01*
X136405874Y-105735000D01*
X136786280Y-105577431D01*
X137077431Y-105286280D01*
X137235000Y-104905874D01*
X137235000Y-104494126D01*
X137077431Y-104113720D01*
X136960000Y-103996289D01*
X136960000Y-102703711D01*
X137077431Y-102586280D01*
X137235000Y-102205874D01*
X137235000Y-101794126D01*
X137077431Y-101413720D01*
X136786280Y-101122569D01*
X136405874Y-100965000D01*
X135994126Y-100965000D01*
X135613720Y-101122569D01*
X135322569Y-101413720D01*
X135165000Y-101794126D01*
X82735000Y-101794126D01*
X82735000Y-99319136D01*
X147965000Y-99319136D01*
X147965000Y-99730884D01*
X148122569Y-100111290D01*
X148413720Y-100402441D01*
X148794126Y-100560010D01*
X149205874Y-100560010D01*
X149586280Y-100402441D01*
X149877431Y-100111290D01*
X149986721Y-99847440D01*
X150600000Y-99847440D01*
X150847765Y-99798157D01*
X150999047Y-99697073D01*
X151040302Y-99738327D01*
X151273691Y-99835000D01*
X151514250Y-99835000D01*
X151673000Y-99676250D01*
X151673000Y-98927000D01*
X151927000Y-98927000D01*
X151927000Y-99676250D01*
X152085750Y-99835000D01*
X152326309Y-99835000D01*
X152559698Y-99738327D01*
X152738327Y-99559699D01*
X152835000Y-99326310D01*
X152835000Y-99085750D01*
X152676250Y-98927000D01*
X151927000Y-98927000D01*
X151673000Y-98927000D01*
X151653000Y-98927000D01*
X151653000Y-98673000D01*
X151673000Y-98673000D01*
X151673000Y-97923750D01*
X151927000Y-97923750D01*
X151927000Y-98673000D01*
X152676250Y-98673000D01*
X152835000Y-98514250D01*
X152835000Y-98273690D01*
X152738327Y-98040301D01*
X152559698Y-97861673D01*
X152326309Y-97765000D01*
X152085750Y-97765000D01*
X151927000Y-97923750D01*
X151673000Y-97923750D01*
X151514250Y-97765000D01*
X151273691Y-97765000D01*
X151040302Y-97861673D01*
X150999047Y-97902927D01*
X150847765Y-97801843D01*
X150600000Y-97752560D01*
X149800000Y-97752560D01*
X149552235Y-97801843D01*
X149342191Y-97942191D01*
X149242459Y-98091449D01*
X149065526Y-98209671D01*
X149065524Y-98209673D01*
X149002071Y-98252071D01*
X148959672Y-98315525D01*
X148778868Y-98496330D01*
X148413720Y-98647579D01*
X148122569Y-98938730D01*
X147965000Y-99319136D01*
X82735000Y-99319136D01*
X82735000Y-97735000D01*
X219265000Y-97735000D01*
X219265001Y-106265000D01*
X219265001Y-106265000D01*
G37*
X219265001Y-106265000D02*
X171072388Y-106265000D01*
X171000000Y-106250601D01*
X170927612Y-106265000D01*
X170713217Y-106307646D01*
X170470095Y-106470095D01*
X170429091Y-106531463D01*
X168185538Y-108775016D01*
X168175405Y-108773000D01*
X167159435Y-108773000D01*
X166894741Y-108133974D01*
X166266026Y-107505259D01*
X165444569Y-107165000D01*
X164555431Y-107165000D01*
X163733974Y-107505259D01*
X163105259Y-108133974D01*
X162765000Y-108955431D01*
X162765000Y-109844569D01*
X162778491Y-109877139D01*
X162778578Y-109888204D01*
X162898042Y-110228388D01*
X162882667Y-110251399D01*
X162873000Y-110300000D01*
X162873000Y-111265000D01*
X139127000Y-111265000D01*
X139127000Y-110324595D01*
X139117333Y-110275994D01*
X139112784Y-110269186D01*
X139133422Y-110230938D01*
X139172695Y-109994985D01*
X139235000Y-109844569D01*
X139235000Y-109620663D01*
X139255000Y-109500504D01*
X139254722Y-109465084D01*
X139235000Y-109357097D01*
X139235000Y-108955431D01*
X138894741Y-108133974D01*
X138266026Y-107505259D01*
X137444569Y-107165000D01*
X136555431Y-107165000D01*
X135733974Y-107505259D01*
X135105259Y-108133974D01*
X134799144Y-108873000D01*
X133912447Y-108873000D01*
X131570911Y-106531465D01*
X131529905Y-106470095D01*
X131286783Y-106307646D01*
X131072388Y-106265000D01*
X131072384Y-106265000D01*
X131000000Y-106250602D01*
X130927616Y-106265000D01*
X82735000Y-106265000D01*
X82735000Y-106194134D01*
X147765000Y-106194134D01*
X147765000Y-106605882D01*
X147922569Y-106986288D01*
X148213720Y-107277439D01*
X148594126Y-107435008D01*
X149005874Y-107435008D01*
X149165000Y-107369096D01*
X149165000Y-107405874D01*
X149322569Y-107786280D01*
X149613720Y-108077431D01*
X149994126Y-108235000D01*
X150405874Y-108235000D01*
X150786280Y-108077431D01*
X150948389Y-107915322D01*
X150951399Y-107917333D01*
X151000000Y-107927000D01*
X152070408Y-107927000D01*
X152140902Y-107974102D01*
X152203463Y-108015904D01*
X152425148Y-108060000D01*
X152425152Y-108060000D01*
X152499999Y-108074888D01*
X152574846Y-108060000D01*
X153725153Y-108060000D01*
X153800000Y-108074888D01*
X153874847Y-108060000D01*
X153874852Y-108060000D01*
X154096537Y-108015904D01*
X154347929Y-107847929D01*
X154390331Y-107784470D01*
X155984473Y-106190329D01*
X156047929Y-106147929D01*
X156215904Y-105896537D01*
X156260000Y-105674852D01*
X156260000Y-105674848D01*
X156269518Y-105627000D01*
X156638279Y-105627000D01*
X156713720Y-105702441D01*
X157094126Y-105860010D01*
X157505874Y-105860010D01*
X157886280Y-105702441D01*
X158177431Y-105411290D01*
X158335000Y-105030884D01*
X158335000Y-104619136D01*
X158177431Y-104238730D01*
X158060000Y-104121299D01*
X158060000Y-102303711D01*
X158177431Y-102186280D01*
X158335000Y-101805874D01*
X158335000Y-101394126D01*
X158177431Y-101013720D01*
X157886280Y-100722569D01*
X157505874Y-100565000D01*
X157320038Y-100565000D01*
X157317333Y-100551399D01*
X157289803Y-100510197D01*
X157248601Y-100482667D01*
X157200000Y-100473000D01*
X156236711Y-100473000D01*
X156086280Y-100322569D01*
X155705874Y-100165000D01*
X155294126Y-100165000D01*
X154913720Y-100322569D01*
X154622569Y-100613720D01*
X154465000Y-100994126D01*
X154465000Y-101405874D01*
X154622569Y-101786280D01*
X154740001Y-101903712D01*
X154740000Y-105285198D01*
X153485199Y-106540000D01*
X152814802Y-106540000D01*
X152560000Y-106285198D01*
X152560000Y-106123163D01*
X152657809Y-106057809D01*
X152798157Y-105847765D01*
X152847440Y-105600000D01*
X152847440Y-104800000D01*
X152798157Y-104552235D01*
X152657809Y-104342191D01*
X152447765Y-104201843D01*
X152200000Y-104152560D01*
X151400000Y-104152560D01*
X151152235Y-104201843D01*
X151000000Y-104303564D01*
X150847765Y-104201843D01*
X150600000Y-104152560D01*
X149860000Y-104152560D01*
X149860000Y-102603711D01*
X149977431Y-102486280D01*
X150135000Y-102105874D01*
X150135000Y-101694126D01*
X149977431Y-101313720D01*
X149686280Y-101022569D01*
X149305874Y-100865000D01*
X148894126Y-100865000D01*
X148513720Y-101022569D01*
X148222569Y-101313720D01*
X148065000Y-101694126D01*
X148065000Y-102105874D01*
X148222569Y-102486280D01*
X148340000Y-102603711D01*
X148340001Y-105470270D01*
X148213720Y-105522577D01*
X147922569Y-105813728D01*
X147765000Y-106194134D01*
X82735000Y-106194134D01*
X82735000Y-101794126D01*
X135165000Y-101794126D01*
X135165000Y-102205874D01*
X135322569Y-102586280D01*
X135440001Y-102703712D01*
X135440000Y-103996289D01*
X135322569Y-104113720D01*
X135165000Y-104494126D01*
X135165000Y-104905874D01*
X135322569Y-105286280D01*
X135613720Y-105577431D01*
X135994126Y-105735000D01*
X136405874Y-105735000D01*
X136786280Y-105577431D01*
X137077431Y-105286280D01*
X137235000Y-104905874D01*
X137235000Y-104494126D01*
X137077431Y-104113720D01*
X136960000Y-103996289D01*
X136960000Y-102703711D01*
X137077431Y-102586280D01*
X137235000Y-102205874D01*
X137235000Y-101794126D01*
X137077431Y-101413720D01*
X136786280Y-101122569D01*
X136405874Y-100965000D01*
X135994126Y-100965000D01*
X135613720Y-101122569D01*
X135322569Y-101413720D01*
X135165000Y-101794126D01*
X82735000Y-101794126D01*
X82735000Y-99319136D01*
X147965000Y-99319136D01*
X147965000Y-99730884D01*
X148122569Y-100111290D01*
X148413720Y-100402441D01*
X148794126Y-100560010D01*
X149205874Y-100560010D01*
X149586280Y-100402441D01*
X149877431Y-100111290D01*
X149986721Y-99847440D01*
X150600000Y-99847440D01*
X150847765Y-99798157D01*
X150999047Y-99697073D01*
X151040302Y-99738327D01*
X151273691Y-99835000D01*
X151514250Y-99835000D01*
X151673000Y-99676250D01*
X151673000Y-98927000D01*
X151927000Y-98927000D01*
X151927000Y-99676250D01*
X152085750Y-99835000D01*
X152326309Y-99835000D01*
X152559698Y-99738327D01*
X152738327Y-99559699D01*
X152835000Y-99326310D01*
X152835000Y-99085750D01*
X152676250Y-98927000D01*
X151927000Y-98927000D01*
X151673000Y-98927000D01*
X151653000Y-98927000D01*
X151653000Y-98673000D01*
X151673000Y-98673000D01*
X151673000Y-97923750D01*
X151927000Y-97923750D01*
X151927000Y-98673000D01*
X152676250Y-98673000D01*
X152835000Y-98514250D01*
X152835000Y-98273690D01*
X152738327Y-98040301D01*
X152559698Y-97861673D01*
X152326309Y-97765000D01*
X152085750Y-97765000D01*
X151927000Y-97923750D01*
X151673000Y-97923750D01*
X151514250Y-97765000D01*
X151273691Y-97765000D01*
X151040302Y-97861673D01*
X150999047Y-97902927D01*
X150847765Y-97801843D01*
X150600000Y-97752560D01*
X149800000Y-97752560D01*
X149552235Y-97801843D01*
X149342191Y-97942191D01*
X149242459Y-98091449D01*
X149065526Y-98209671D01*
X149065524Y-98209673D01*
X149002071Y-98252071D01*
X148959672Y-98315525D01*
X148778868Y-98496330D01*
X148413720Y-98647579D01*
X148122569Y-98938730D01*
X147965000Y-99319136D01*
X82735000Y-99319136D01*
X82735000Y-97735000D01*
X219265000Y-97735000D01*
X219265001Y-106265000D01*
G36*
X219265001Y-123265000D02*
X171072388Y-123265000D01*
X171000000Y-123250601D01*
X170927612Y-123265000D01*
X170713217Y-123307646D01*
X170470095Y-123470095D01*
X170429091Y-123531463D01*
X168185538Y-125775016D01*
X168175405Y-125773000D01*
X167159435Y-125773000D01*
X166894741Y-125133974D01*
X166266026Y-124505259D01*
X165444569Y-124165000D01*
X164555431Y-124165000D01*
X163733974Y-124505259D01*
X163105259Y-125133974D01*
X162765000Y-125955431D01*
X162765000Y-126844569D01*
X162778491Y-126877139D01*
X162778578Y-126888204D01*
X162898042Y-127228388D01*
X162882667Y-127251399D01*
X162873000Y-127300000D01*
X162873000Y-128265000D01*
X139127000Y-128265000D01*
X139127000Y-127324595D01*
X139117333Y-127275994D01*
X139112784Y-127269186D01*
X139133422Y-127230938D01*
X139172695Y-126994985D01*
X139235000Y-126844569D01*
X139235000Y-126620663D01*
X139255000Y-126500504D01*
X139254722Y-126465084D01*
X139235000Y-126357097D01*
X139235000Y-125955431D01*
X138894741Y-125133974D01*
X138266026Y-124505259D01*
X137444569Y-124165000D01*
X136555431Y-124165000D01*
X135733974Y-124505259D01*
X135105259Y-125133974D01*
X134799144Y-125873000D01*
X133912447Y-125873000D01*
X131570911Y-123531465D01*
X131529905Y-123470095D01*
X131286783Y-123307646D01*
X131072388Y-123265000D01*
X131072384Y-123265000D01*
X131000000Y-123250602D01*
X130927616Y-123265000D01*
X82735000Y-123265000D01*
X82735000Y-123194134D01*
X147765000Y-123194134D01*
X147765000Y-123605882D01*
X147922569Y-123986288D01*
X148213720Y-124277439D01*
X148594126Y-124435008D01*
X149005874Y-124435008D01*
X149165000Y-124369096D01*
X149165000Y-124405874D01*
X149322569Y-124786280D01*
X149613720Y-125077431D01*
X149994126Y-125235000D01*
X150405874Y-125235000D01*
X150786280Y-125077431D01*
X150948389Y-124915322D01*
X150951399Y-124917333D01*
X151000000Y-124927000D01*
X152070408Y-124927000D01*
X152140902Y-124974102D01*
X152203463Y-125015904D01*
X152425148Y-125060000D01*
X152425152Y-125060000D01*
X152499999Y-125074888D01*
X152574846Y-125060000D01*
X153725153Y-125060000D01*
X153800000Y-125074888D01*
X153874847Y-125060000D01*
X153874852Y-125060000D01*
X154096537Y-125015904D01*
X154347929Y-124847929D01*
X154390331Y-124784470D01*
X155984473Y-123190329D01*
X156047929Y-123147929D01*
X156215904Y-122896537D01*
X156260000Y-122674852D01*
X156260000Y-122674848D01*
X156269518Y-122627000D01*
X156638279Y-122627000D01*
X156713720Y-122702441D01*
X157094126Y-122860010D01*
X157505874Y-122860010D01*
X157886280Y-122702441D01*
X158177431Y-122411290D01*
X158335000Y-122030884D01*
X158335000Y-121619136D01*
X158177431Y-121238730D01*
X158060000Y-121121299D01*
X158060000Y-119303711D01*
X158177431Y-119186280D01*
X158335000Y-118805874D01*
X158335000Y-118394126D01*
X158177431Y-118013720D01*
X157886280Y-117722569D01*
X157505874Y-117565000D01*
X157320038Y-117565000D01*
X157317333Y-117551399D01*
X157289803Y-117510197D01*
X157248601Y-117482667D01*
X157200000Y-117473000D01*
X156236711Y-117473000D01*
X156086280Y-117322569D01*
X155705874Y-117165000D01*
X155294126Y-117165000D01*
X154913720Y-117322569D01*
X154622569Y-117613720D01*
X154465000Y-117994126D01*
X154465000Y-118405874D01*
X154622569Y-118786280D01*
X154740001Y-118903712D01*
X154740000Y-122285198D01*
X153485199Y-123540000D01*
X152814802Y-123540000D01*
X152560000Y-123285198D01*
X152560000Y-123123163D01*
X152657809Y-123057809D01*
X152798157Y-122847765D01*
X152847440Y-122600000D01*
X152847440Y-121800000D01*
X152798157Y-121552235D01*
X152657809Y-121342191D01*
X152447765Y-121201843D01*
X152200000Y-121152560D01*
X151400000Y-121152560D01*
X151152235Y-121201843D01*
X151000000Y-121303564D01*
X150847765Y-121201843D01*
X150600000Y-121152560D01*
X149860000Y-121152560D01*
X149860000Y-119603711D01*
X149977431Y-119486280D01*
X150135000Y-119105874D01*
X150135000Y-118694126D01*
X149977431Y-118313720D01*
X149686280Y-118022569D01*
X149305874Y-117865000D01*
X148894126Y-117865000D01*
X148513720Y-118022569D01*
X148222569Y-118313720D01*
X148065000Y-118694126D01*
X148065000Y-119105874D01*
X148222569Y-119486280D01*
X148340000Y-119603711D01*
X148340001Y-122470270D01*
X148213720Y-122522577D01*
X147922569Y-122813728D01*
X147765000Y-123194134D01*
X82735000Y-123194134D01*
X82735000Y-118794126D01*
X135165000Y-118794126D01*
X135165000Y-119205874D01*
X135322569Y-119586280D01*
X135440001Y-119703712D01*
X135440000Y-120996289D01*
X135322569Y-121113720D01*
X135165000Y-121494126D01*
X135165000Y-121905874D01*
X135322569Y-122286280D01*
X135613720Y-122577431D01*
X135994126Y-122735000D01*
X136405874Y-122735000D01*
X136786280Y-122577431D01*
X137077431Y-122286280D01*
X137235000Y-121905874D01*
X137235000Y-121494126D01*
X137077431Y-121113720D01*
X136960000Y-120996289D01*
X136960000Y-119703711D01*
X137077431Y-119586280D01*
X137235000Y-119205874D01*
X137235000Y-118794126D01*
X137077431Y-118413720D01*
X136786280Y-118122569D01*
X136405874Y-117965000D01*
X135994126Y-117965000D01*
X135613720Y-118122569D01*
X135322569Y-118413720D01*
X135165000Y-118794126D01*
X82735000Y-118794126D01*
X82735000Y-116319136D01*
X147965000Y-116319136D01*
X147965000Y-116730884D01*
X148122569Y-117111290D01*
X148413720Y-117402441D01*
X148794126Y-117560010D01*
X149205874Y-117560010D01*
X149586280Y-117402441D01*
X149877431Y-117111290D01*
X149986721Y-116847440D01*
X150600000Y-116847440D01*
X150847765Y-116798157D01*
X150999047Y-116697073D01*
X151040302Y-116738327D01*
X151273691Y-116835000D01*
X151514250Y-116835000D01*
X151673000Y-116676250D01*
X151673000Y-115927000D01*
X151927000Y-115927000D01*
X151927000Y-116676250D01*
X152085750Y-116835000D01*
X152326309Y-116835000D01*
X152559698Y-116738327D01*
X152738327Y-116559699D01*
X152835000Y-116326310D01*
X152835000Y-116085750D01*
X152676250Y-115927000D01*
X151927000Y-115927000D01*
X151673000Y-115927000D01*
X151653000Y-115927000D01*
X151653000Y-115673000D01*
X151673000Y-115673000D01*
X151673000Y-114923750D01*
X151927000Y-114923750D01*
X151927000Y-115673000D01*
X152676250Y-115673000D01*
X152835000Y-115514250D01*
X152835000Y-115273690D01*
X152738327Y-115040301D01*
X152559698Y-114861673D01*
X152326309Y-114765000D01*
X152085750Y-114765000D01*
X151927000Y-114923750D01*
X151673000Y-114923750D01*
X151514250Y-114765000D01*
X151273691Y-114765000D01*
X151040302Y-114861673D01*
X150999047Y-114902927D01*
X150847765Y-114801843D01*
X150600000Y-114752560D01*
X149800000Y-114752560D01*
X149552235Y-114801843D01*
X149342191Y-114942191D01*
X149242459Y-115091449D01*
X149065526Y-115209671D01*
X149065524Y-115209673D01*
X149002071Y-115252071D01*
X148959672Y-115315525D01*
X148778868Y-115496330D01*
X148413720Y-115647579D01*
X148122569Y-115938730D01*
X147965000Y-116319136D01*
X82735000Y-116319136D01*
X82735000Y-114735000D01*
X219265000Y-114735000D01*
X219265001Y-123265000D01*
X219265001Y-123265000D01*
G37*
X219265001Y-123265000D02*
X171072388Y-123265000D01*
X171000000Y-123250601D01*
X170927612Y-123265000D01*
X170713217Y-123307646D01*
X170470095Y-123470095D01*
X170429091Y-123531463D01*
X168185538Y-125775016D01*
X168175405Y-125773000D01*
X167159435Y-125773000D01*
X166894741Y-125133974D01*
X166266026Y-124505259D01*
X165444569Y-124165000D01*
X164555431Y-124165000D01*
X163733974Y-124505259D01*
X163105259Y-125133974D01*
X162765000Y-125955431D01*
X162765000Y-126844569D01*
X162778491Y-126877139D01*
X162778578Y-126888204D01*
X162898042Y-127228388D01*
X162882667Y-127251399D01*
X162873000Y-127300000D01*
X162873000Y-128265000D01*
X139127000Y-128265000D01*
X139127000Y-127324595D01*
X139117333Y-127275994D01*
X139112784Y-127269186D01*
X139133422Y-127230938D01*
X139172695Y-126994985D01*
X139235000Y-126844569D01*
X139235000Y-126620663D01*
X139255000Y-126500504D01*
X139254722Y-126465084D01*
X139235000Y-126357097D01*
X139235000Y-125955431D01*
X138894741Y-125133974D01*
X138266026Y-124505259D01*
X137444569Y-124165000D01*
X136555431Y-124165000D01*
X135733974Y-124505259D01*
X135105259Y-125133974D01*
X134799144Y-125873000D01*
X133912447Y-125873000D01*
X131570911Y-123531465D01*
X131529905Y-123470095D01*
X131286783Y-123307646D01*
X131072388Y-123265000D01*
X131072384Y-123265000D01*
X131000000Y-123250602D01*
X130927616Y-123265000D01*
X82735000Y-123265000D01*
X82735000Y-123194134D01*
X147765000Y-123194134D01*
X147765000Y-123605882D01*
X147922569Y-123986288D01*
X148213720Y-124277439D01*
X148594126Y-124435008D01*
X149005874Y-124435008D01*
X149165000Y-124369096D01*
X149165000Y-124405874D01*
X149322569Y-124786280D01*
X149613720Y-125077431D01*
X149994126Y-125235000D01*
X150405874Y-125235000D01*
X150786280Y-125077431D01*
X150948389Y-124915322D01*
X150951399Y-124917333D01*
X151000000Y-124927000D01*
X152070408Y-124927000D01*
X152140902Y-124974102D01*
X152203463Y-125015904D01*
X152425148Y-125060000D01*
X152425152Y-125060000D01*
X152499999Y-125074888D01*
X152574846Y-125060000D01*
X153725153Y-125060000D01*
X153800000Y-125074888D01*
X153874847Y-125060000D01*
X153874852Y-125060000D01*
X154096537Y-125015904D01*
X154347929Y-124847929D01*
X154390331Y-124784470D01*
X155984473Y-123190329D01*
X156047929Y-123147929D01*
X156215904Y-122896537D01*
X156260000Y-122674852D01*
X156260000Y-122674848D01*
X156269518Y-122627000D01*
X156638279Y-122627000D01*
X156713720Y-122702441D01*
X157094126Y-122860010D01*
X157505874Y-122860010D01*
X157886280Y-122702441D01*
X158177431Y-122411290D01*
X158335000Y-122030884D01*
X158335000Y-121619136D01*
X158177431Y-121238730D01*
X158060000Y-121121299D01*
X158060000Y-119303711D01*
X158177431Y-119186280D01*
X158335000Y-118805874D01*
X158335000Y-118394126D01*
X158177431Y-118013720D01*
X157886280Y-117722569D01*
X157505874Y-117565000D01*
X157320038Y-117565000D01*
X157317333Y-117551399D01*
X157289803Y-117510197D01*
X157248601Y-117482667D01*
X157200000Y-117473000D01*
X156236711Y-117473000D01*
X156086280Y-117322569D01*
X155705874Y-117165000D01*
X155294126Y-117165000D01*
X154913720Y-117322569D01*
X154622569Y-117613720D01*
X154465000Y-117994126D01*
X154465000Y-118405874D01*
X154622569Y-118786280D01*
X154740001Y-118903712D01*
X154740000Y-122285198D01*
X153485199Y-123540000D01*
X152814802Y-123540000D01*
X152560000Y-123285198D01*
X152560000Y-123123163D01*
X152657809Y-123057809D01*
X152798157Y-122847765D01*
X152847440Y-122600000D01*
X152847440Y-121800000D01*
X152798157Y-121552235D01*
X152657809Y-121342191D01*
X152447765Y-121201843D01*
X152200000Y-121152560D01*
X151400000Y-121152560D01*
X151152235Y-121201843D01*
X151000000Y-121303564D01*
X150847765Y-121201843D01*
X150600000Y-121152560D01*
X149860000Y-121152560D01*
X149860000Y-119603711D01*
X149977431Y-119486280D01*
X150135000Y-119105874D01*
X150135000Y-118694126D01*
X149977431Y-118313720D01*
X149686280Y-118022569D01*
X149305874Y-117865000D01*
X148894126Y-117865000D01*
X148513720Y-118022569D01*
X148222569Y-118313720D01*
X148065000Y-118694126D01*
X148065000Y-119105874D01*
X148222569Y-119486280D01*
X148340000Y-119603711D01*
X148340001Y-122470270D01*
X148213720Y-122522577D01*
X147922569Y-122813728D01*
X147765000Y-123194134D01*
X82735000Y-123194134D01*
X82735000Y-118794126D01*
X135165000Y-118794126D01*
X135165000Y-119205874D01*
X135322569Y-119586280D01*
X135440001Y-119703712D01*
X135440000Y-120996289D01*
X135322569Y-121113720D01*
X135165000Y-121494126D01*
X135165000Y-121905874D01*
X135322569Y-122286280D01*
X135613720Y-122577431D01*
X135994126Y-122735000D01*
X136405874Y-122735000D01*
X136786280Y-122577431D01*
X137077431Y-122286280D01*
X137235000Y-121905874D01*
X137235000Y-121494126D01*
X137077431Y-121113720D01*
X136960000Y-120996289D01*
X136960000Y-119703711D01*
X137077431Y-119586280D01*
X137235000Y-119205874D01*
X137235000Y-118794126D01*
X137077431Y-118413720D01*
X136786280Y-118122569D01*
X136405874Y-117965000D01*
X135994126Y-117965000D01*
X135613720Y-118122569D01*
X135322569Y-118413720D01*
X135165000Y-118794126D01*
X82735000Y-118794126D01*
X82735000Y-116319136D01*
X147965000Y-116319136D01*
X147965000Y-116730884D01*
X148122569Y-117111290D01*
X148413720Y-117402441D01*
X148794126Y-117560010D01*
X149205874Y-117560010D01*
X149586280Y-117402441D01*
X149877431Y-117111290D01*
X149986721Y-116847440D01*
X150600000Y-116847440D01*
X150847765Y-116798157D01*
X150999047Y-116697073D01*
X151040302Y-116738327D01*
X151273691Y-116835000D01*
X151514250Y-116835000D01*
X151673000Y-116676250D01*
X151673000Y-115927000D01*
X151927000Y-115927000D01*
X151927000Y-116676250D01*
X152085750Y-116835000D01*
X152326309Y-116835000D01*
X152559698Y-116738327D01*
X152738327Y-116559699D01*
X152835000Y-116326310D01*
X152835000Y-116085750D01*
X152676250Y-115927000D01*
X151927000Y-115927000D01*
X151673000Y-115927000D01*
X151653000Y-115927000D01*
X151653000Y-115673000D01*
X151673000Y-115673000D01*
X151673000Y-114923750D01*
X151927000Y-114923750D01*
X151927000Y-115673000D01*
X152676250Y-115673000D01*
X152835000Y-115514250D01*
X152835000Y-115273690D01*
X152738327Y-115040301D01*
X152559698Y-114861673D01*
X152326309Y-114765000D01*
X152085750Y-114765000D01*
X151927000Y-114923750D01*
X151673000Y-114923750D01*
X151514250Y-114765000D01*
X151273691Y-114765000D01*
X151040302Y-114861673D01*
X150999047Y-114902927D01*
X150847765Y-114801843D01*
X150600000Y-114752560D01*
X149800000Y-114752560D01*
X149552235Y-114801843D01*
X149342191Y-114942191D01*
X149242459Y-115091449D01*
X149065526Y-115209671D01*
X149065524Y-115209673D01*
X149002071Y-115252071D01*
X148959672Y-115315525D01*
X148778868Y-115496330D01*
X148413720Y-115647579D01*
X148122569Y-115938730D01*
X147965000Y-116319136D01*
X82735000Y-116319136D01*
X82735000Y-114735000D01*
X219265000Y-114735000D01*
X219265001Y-123265000D01*
M02*
