M48
;DRILL file {KiCad (5.0.0)} date 02/01/20 14:37:19
;FORMAT={-:-/ absolute / metric / decimal}
FMAT,2
METRIC,TZ
T1C0.400
T2C3.200
%
G90
G05
M71
T1
X85.9Y-85.
X85.9Y-102.
X85.9Y-119.
X90.2Y-83.5
X90.2Y-100.5
X90.2Y-117.5
X111.8Y-84.7
X111.8Y-88.6
X111.8Y-101.7
X111.8Y-105.6
X111.8Y-118.7
X111.8Y-122.6
X124.2Y-83.5
X124.2Y-100.5
X124.2Y-117.5
X134.6Y-83.4
X134.6Y-100.4
X134.6Y-117.4
X136.2Y-85.
X136.2Y-87.7
X136.2Y-102.
X136.2Y-104.7
X136.2Y-119.
X136.2Y-121.7
X139.2Y-83.4
X139.2Y-100.4
X139.2Y-117.4
X142.1Y-91.
X142.1Y-108.
X142.1Y-125.
X146.Y-83.4
X146.Y-100.4
X146.Y-117.4
X148.8Y-89.4
X148.8Y-106.4
X148.8Y-123.4
X149.Y-82.525
X149.Y-99.525
X149.Y-116.525
X149.1Y-84.9
X149.1Y-101.9
X149.1Y-118.9
X150.2Y-90.2
X150.2Y-107.2
X150.2Y-124.2
X151.8Y-83.2
X151.8Y-100.2
X151.8Y-117.2
X152.9Y-84.9
X152.9Y-101.9
X152.9Y-118.9
X154.3Y-88.1
X154.3Y-105.1
X154.3Y-122.1
X155.5Y-84.2
X155.5Y-101.2
X155.5Y-118.2
X157.3Y-84.6
X157.3Y-87.825
X157.3Y-101.6
X157.3Y-104.825
X157.3Y-118.6
X157.3Y-121.825
X158.9Y-84.6
X158.9Y-101.6
X158.9Y-118.6
X160.9Y-90.9
X160.9Y-107.9
X160.9Y-124.9
X162.8Y-83.4
X162.8Y-100.4
X162.8Y-117.4
X166.6Y-85.2
X166.6Y-102.2
X166.6Y-119.2
X177.8Y-83.4
X177.8Y-100.4
X177.8Y-117.4
X189.9Y-84.6
X189.9Y-88.5
X189.9Y-101.6
X189.9Y-105.5
X189.9Y-118.6
X189.9Y-122.5
X207.1Y-83.4
X207.1Y-100.4
X207.1Y-117.4
X211.8Y-83.4
X211.8Y-100.4
X211.8Y-117.4
X216.1Y-84.9
X216.1Y-101.9
X216.1Y-118.9
T2
X165.Y-109.5
X137.Y-126.5
X165.Y-92.5
X137.Y-92.5
X137.Y-109.5
X165.Y-126.5
T0
M30
