G04 #@! TF.GenerationSoftware,KiCad,Pcbnew,(5.0.0)*
G04 #@! TF.CreationDate,2020-02-01T14:37:15+09:00*
G04 #@! TF.ProjectId,m file,6D2066696C652E6B696361645F706362,rev?*
G04 #@! TF.SameCoordinates,Original*
G04 #@! TF.FileFunction,Soldermask,Bot*
G04 #@! TF.FilePolarity,Negative*
%FSLAX46Y46*%
G04 Gerber Fmt 4.6, Leading zero omitted, Abs format (unit mm)*
G04 Created by KiCad (PCBNEW (5.0.0)) date 02/01/20 14:37:15*
%MOMM*%
%LPD*%
G01*
G04 APERTURE LIST*
%ADD10R,1.200000X1.200000*%
%ADD11R,1.200000X1.150000*%
%ADD12R,0.900000X1.300000*%
%ADD13C,3.600000*%
%ADD14R,1.300000X0.900000*%
%ADD15R,2.400000X1.700000*%
%ADD16R,0.700000X1.400000*%
%ADD17R,1.400000X1.850000*%
G04 APERTURE END LIST*
D10*
G04 #@! TO.C,D5*
X133250000Y-119000000D03*
X131750000Y-119000000D03*
G04 #@! TD*
D11*
G04 #@! TO.C,C1*
X151750000Y-118900000D03*
X150250000Y-118900000D03*
G04 #@! TD*
D10*
G04 #@! TO.C,D4*
X168750000Y-119000000D03*
X170250000Y-119000000D03*
G04 #@! TD*
D12*
G04 #@! TO.C,R4*
X170250000Y-116700000D03*
X168750000Y-116700000D03*
G04 #@! TD*
G04 #@! TO.C,R3*
X204250000Y-116700000D03*
X202750000Y-116700000D03*
G04 #@! TD*
D13*
G04 #@! TO.C,REF\002A\002A*
X165000000Y-126500000D03*
G04 #@! TD*
D14*
G04 #@! TO.C,R1*
X147800000Y-118250000D03*
X147800000Y-116750000D03*
G04 #@! TD*
D10*
G04 #@! TO.C,D6*
X97750000Y-119000000D03*
X99250000Y-119000000D03*
G04 #@! TD*
G04 #@! TO.C,D3*
X202750000Y-119000000D03*
X204250000Y-119000000D03*
G04 #@! TD*
D12*
G04 #@! TO.C,R6*
X97750000Y-116700000D03*
X99250000Y-116700000D03*
G04 #@! TD*
D15*
G04 #@! TO.C,J1*
X155550000Y-124850000D03*
X146450000Y-124850000D03*
D16*
X153250000Y-122150000D03*
X152750000Y-122150000D03*
X152250000Y-122150000D03*
X151750000Y-122150000D03*
X151250000Y-122150000D03*
X150750000Y-122150000D03*
X150250000Y-122150000D03*
X149750000Y-122150000D03*
X149250000Y-122150000D03*
X148750000Y-122150000D03*
G04 #@! TD*
D12*
G04 #@! TO.C,R5*
X131750000Y-116700000D03*
X133250000Y-116700000D03*
G04 #@! TD*
D14*
G04 #@! TO.C,R2*
X154000000Y-116650000D03*
X154000000Y-118150000D03*
G04 #@! TD*
D17*
G04 #@! TO.C,Q2*
X177800000Y-119000000D03*
X176200000Y-119000000D03*
G04 #@! TD*
G04 #@! TO.C,Q6*
X91800000Y-119000000D03*
X90200000Y-119000000D03*
G04 #@! TD*
G04 #@! TO.C,Q1*
X210200000Y-119000000D03*
X211800000Y-119000000D03*
G04 #@! TD*
G04 #@! TO.C,Q4*
X140800000Y-119000000D03*
X139200000Y-119000000D03*
G04 #@! TD*
D13*
G04 #@! TO.C,REF\002A\002A*
X137000000Y-126500000D03*
G04 #@! TD*
D17*
G04 #@! TO.C,Q5*
X124200000Y-119000000D03*
X125800000Y-119000000D03*
G04 #@! TD*
G04 #@! TO.C,Q3*
X162800000Y-119000000D03*
X161200000Y-119000000D03*
G04 #@! TD*
D10*
G04 #@! TO.C,D5*
X133250000Y-102000000D03*
X131750000Y-102000000D03*
G04 #@! TD*
D11*
G04 #@! TO.C,C1*
X151750000Y-101900000D03*
X150250000Y-101900000D03*
G04 #@! TD*
D10*
G04 #@! TO.C,D4*
X168750000Y-102000000D03*
X170250000Y-102000000D03*
G04 #@! TD*
D12*
G04 #@! TO.C,R4*
X170250000Y-99700000D03*
X168750000Y-99700000D03*
G04 #@! TD*
G04 #@! TO.C,R3*
X204250000Y-99700000D03*
X202750000Y-99700000D03*
G04 #@! TD*
D13*
G04 #@! TO.C,REF\002A\002A*
X165000000Y-109500000D03*
G04 #@! TD*
D14*
G04 #@! TO.C,R1*
X147800000Y-101250000D03*
X147800000Y-99750000D03*
G04 #@! TD*
D10*
G04 #@! TO.C,D6*
X97750000Y-102000000D03*
X99250000Y-102000000D03*
G04 #@! TD*
G04 #@! TO.C,D3*
X202750000Y-102000000D03*
X204250000Y-102000000D03*
G04 #@! TD*
D12*
G04 #@! TO.C,R6*
X97750000Y-99700000D03*
X99250000Y-99700000D03*
G04 #@! TD*
D15*
G04 #@! TO.C,J1*
X155550000Y-107850000D03*
X146450000Y-107850000D03*
D16*
X153250000Y-105150000D03*
X152750000Y-105150000D03*
X152250000Y-105150000D03*
X151750000Y-105150000D03*
X151250000Y-105150000D03*
X150750000Y-105150000D03*
X150250000Y-105150000D03*
X149750000Y-105150000D03*
X149250000Y-105150000D03*
X148750000Y-105150000D03*
G04 #@! TD*
D12*
G04 #@! TO.C,R5*
X131750000Y-99700000D03*
X133250000Y-99700000D03*
G04 #@! TD*
D14*
G04 #@! TO.C,R2*
X154000000Y-99650000D03*
X154000000Y-101150000D03*
G04 #@! TD*
D17*
G04 #@! TO.C,Q2*
X177800000Y-102000000D03*
X176200000Y-102000000D03*
G04 #@! TD*
G04 #@! TO.C,Q6*
X91800000Y-102000000D03*
X90200000Y-102000000D03*
G04 #@! TD*
G04 #@! TO.C,Q1*
X210200000Y-102000000D03*
X211800000Y-102000000D03*
G04 #@! TD*
G04 #@! TO.C,Q4*
X140800000Y-102000000D03*
X139200000Y-102000000D03*
G04 #@! TD*
D13*
G04 #@! TO.C,REF\002A\002A*
X137000000Y-109500000D03*
G04 #@! TD*
D17*
G04 #@! TO.C,Q5*
X124200000Y-102000000D03*
X125800000Y-102000000D03*
G04 #@! TD*
G04 #@! TO.C,Q3*
X162800000Y-102000000D03*
X161200000Y-102000000D03*
G04 #@! TD*
D10*
G04 #@! TO.C,D5*
X133250000Y-85000000D03*
X131750000Y-85000000D03*
G04 #@! TD*
D11*
G04 #@! TO.C,C1*
X151750000Y-84900000D03*
X150250000Y-84900000D03*
G04 #@! TD*
D10*
G04 #@! TO.C,D4*
X168750000Y-85000000D03*
X170250000Y-85000000D03*
G04 #@! TD*
D12*
G04 #@! TO.C,R4*
X170250000Y-82700000D03*
X168750000Y-82700000D03*
G04 #@! TD*
G04 #@! TO.C,R3*
X204250000Y-82700000D03*
X202750000Y-82700000D03*
G04 #@! TD*
D13*
G04 #@! TO.C,REF\002A\002A*
X165000000Y-92500000D03*
G04 #@! TD*
D14*
G04 #@! TO.C,R1*
X147800000Y-84250000D03*
X147800000Y-82750000D03*
G04 #@! TD*
D10*
G04 #@! TO.C,D6*
X97750000Y-85000000D03*
X99250000Y-85000000D03*
G04 #@! TD*
G04 #@! TO.C,D3*
X202750000Y-85000000D03*
X204250000Y-85000000D03*
G04 #@! TD*
D12*
G04 #@! TO.C,R6*
X97750000Y-82700000D03*
X99250000Y-82700000D03*
G04 #@! TD*
D15*
G04 #@! TO.C,J1*
X155550000Y-90850000D03*
X146450000Y-90850000D03*
D16*
X153250000Y-88150000D03*
X152750000Y-88150000D03*
X152250000Y-88150000D03*
X151750000Y-88150000D03*
X151250000Y-88150000D03*
X150750000Y-88150000D03*
X150250000Y-88150000D03*
X149750000Y-88150000D03*
X149250000Y-88150000D03*
X148750000Y-88150000D03*
G04 #@! TD*
D12*
G04 #@! TO.C,R5*
X131750000Y-82700000D03*
X133250000Y-82700000D03*
G04 #@! TD*
D14*
G04 #@! TO.C,R2*
X154000000Y-82650000D03*
X154000000Y-84150000D03*
G04 #@! TD*
D17*
G04 #@! TO.C,Q2*
X177800000Y-85000000D03*
X176200000Y-85000000D03*
G04 #@! TD*
G04 #@! TO.C,Q6*
X91800000Y-85000000D03*
X90200000Y-85000000D03*
G04 #@! TD*
G04 #@! TO.C,Q1*
X210200000Y-85000000D03*
X211800000Y-85000000D03*
G04 #@! TD*
G04 #@! TO.C,Q4*
X140800000Y-85000000D03*
X139200000Y-85000000D03*
G04 #@! TD*
D13*
G04 #@! TO.C,REF\002A\002A*
X137000000Y-92500000D03*
G04 #@! TD*
D17*
G04 #@! TO.C,Q5*
X124200000Y-85000000D03*
X125800000Y-85000000D03*
G04 #@! TD*
G04 #@! TO.C,Q3*
X162800000Y-85000000D03*
X161200000Y-85000000D03*
G04 #@! TD*
M02*
