G04 #@! TF.GenerationSoftware,KiCad,Pcbnew,(5.0.0)*
G04 #@! TF.CreationDate,2020-01-25T17:25:25+09:00*
G04 #@! TF.ProjectId,General_purpose_lancer_board,47656E6572616C5F707572706F73655F,rev?*
G04 #@! TF.SameCoordinates,PX69618a0PY822d320*
G04 #@! TF.FileFunction,Legend,Top*
G04 #@! TF.FilePolarity,Positive*
%FSLAX46Y46*%
G04 Gerber Fmt 4.6, Leading zero omitted, Abs format (unit mm)*
G04 Created by KiCad (PCBNEW (5.0.0)) date 01/25/20 17:25:25*
%MOMM*%
%LPD*%
G01*
G04 APERTURE LIST*
%ADD10C,0.200000*%
%ADD11C,0.150000*%
%ADD12C,0.120000*%
G04 APERTURE END LIST*
D10*
X53600000Y12300000D02*
X57800000Y12300000D01*
X55800000Y14400000D02*
X53600000Y12300000D01*
X57800000Y12300000D02*
X55800000Y14400000D01*
X40200000Y9000000D02*
X40200000Y13200000D01*
X38100000Y11200000D02*
X40200000Y9000000D01*
X40200000Y13200000D02*
X38100000Y11200000D01*
D11*
G04 #@! TO.C,J4*
X79850000Y69000000D02*
X79850000Y61000000D01*
X79850000Y61000000D02*
X70850000Y61000000D01*
X70850000Y61000000D02*
X70850000Y69000000D01*
X70850000Y69000000D02*
X79850000Y69000000D01*
G04 #@! TO.C,J17*
X45150000Y79800000D02*
X29450000Y79800000D01*
X45150000Y74500000D02*
X45150000Y79800000D01*
X29450000Y74500000D02*
X45150000Y74500000D01*
X29450000Y74500000D02*
X29450000Y79800000D01*
G04 #@! TO.C,LED1*
X28919258Y54950000D02*
G75*
G03X28919258Y54950000I-269258J0D01*
G01*
X27500000Y53900000D02*
X27500000Y55400000D01*
X29100000Y53900000D02*
X27500000Y53900000D01*
X29100000Y55400000D02*
X29100000Y53900000D01*
X27500000Y55400000D02*
X29100000Y55400000D01*
G04 #@! TO.C,U9*
X31500000Y69400000D02*
X31500000Y66400000D01*
X28500000Y69400000D02*
X31500000Y69400000D01*
X28500000Y66400000D02*
X28500000Y69400000D01*
X31500000Y66400000D02*
X28500000Y66400000D01*
X28410000Y66260000D02*
X28810000Y66260000D01*
X31610000Y69460000D02*
X31210000Y69460000D01*
X28410000Y69460000D02*
X28810000Y69460000D01*
X28410000Y66260000D02*
X28410000Y66660000D01*
X28410000Y69460000D02*
X28410000Y69060000D01*
X31610000Y69460000D02*
X31610000Y69060000D01*
X31610000Y66260000D02*
X31210000Y66260000D01*
G04 #@! TO.C,U10*
X72400000Y10900000D02*
X62600000Y10900000D01*
X72400000Y1100000D02*
X72400000Y10900000D01*
X62600000Y1100000D02*
X72400000Y1100000D01*
X62600000Y10900000D02*
X62600000Y1100000D01*
D12*
G04 #@! TO.C,R96*
X78120000Y10000000D02*
X78120000Y11000000D01*
X79480000Y11000000D02*
X79480000Y10000000D01*
G04 #@! TO.C,R92*
X76520000Y10000000D02*
X76520000Y11000000D01*
X77880000Y11000000D02*
X77880000Y10000000D01*
G04 #@! TO.C,C79*
X77400000Y7250000D02*
X77400000Y7950000D01*
X78600000Y7950000D02*
X78600000Y7250000D01*
G04 #@! TO.C,C12*
X44450000Y43500000D02*
X45150000Y43500000D01*
X45150000Y42300000D02*
X44450000Y42300000D01*
G04 #@! TO.C,R19*
X32020000Y35600000D02*
X32020000Y36600000D01*
X33380000Y36600000D02*
X33380000Y35600000D01*
D11*
G04 #@! TO.C,J5*
X150000Y44500000D02*
X150000Y52500000D01*
X150000Y52500000D02*
X9150000Y52500000D01*
X9150000Y52500000D02*
X9150000Y44500000D01*
X9150000Y44500000D02*
X150000Y44500000D01*
G04 #@! TO.C,J6*
X79850000Y41000000D02*
X79850000Y33000000D01*
X79850000Y33000000D02*
X70850000Y33000000D01*
X70850000Y33000000D02*
X70850000Y41000000D01*
X70850000Y41000000D02*
X79850000Y41000000D01*
G04 #@! TO.C,J7*
X150000Y56700000D02*
X150000Y64700000D01*
X150000Y64700000D02*
X9150000Y64700000D01*
X9150000Y64700000D02*
X9150000Y56700000D01*
X9150000Y56700000D02*
X150000Y56700000D01*
G04 #@! TO.C,J8*
X150000Y30500000D02*
X150000Y38500000D01*
X150000Y38500000D02*
X9150000Y38500000D01*
X9150000Y38500000D02*
X9150000Y30500000D01*
X9150000Y30500000D02*
X150000Y30500000D01*
G04 #@! TO.C,J9*
X79850000Y55000000D02*
X79850000Y47000000D01*
X79850000Y47000000D02*
X70850000Y47000000D01*
X70850000Y47000000D02*
X70850000Y55000000D01*
X70850000Y55000000D02*
X79850000Y55000000D01*
G04 #@! TO.C,J3*
X16900000Y20300000D02*
G75*
G02X16900000Y16100000I0J-2100000D01*
G01*
X16900000Y15300000D02*
G75*
G02X16900000Y11100000I0J-2100000D01*
G01*
X16900000Y20300000D02*
X11900000Y20300000D01*
X16900000Y16100000D02*
X11900000Y16100000D01*
X16900000Y15300000D02*
X11900000Y15300000D01*
X16900000Y11100000D02*
X11900000Y11100000D01*
X11900000Y8700000D02*
X11900000Y22700000D01*
X3900000Y8700000D02*
X3900000Y22700000D01*
X3900000Y8700000D02*
X11900000Y8700000D01*
X3900000Y22700000D02*
X11900000Y22700000D01*
G04 #@! TO.C,RV1*
X29500000Y17900000D02*
X27100000Y17900000D01*
X27100000Y17900000D02*
X27100000Y20700000D01*
X27100000Y20700000D02*
X29500000Y20700000D01*
X29500000Y20700000D02*
X29500000Y17900000D01*
X29000000Y19300000D02*
G75*
G03X29000000Y19300000I-700000J0D01*
G01*
D12*
G04 #@! TO.C,U2*
X30720000Y12940000D02*
X32480000Y12940000D01*
X32480000Y16010000D02*
X30050000Y16010000D01*
D11*
G04 #@! TO.C,L2*
X43500000Y20450000D02*
X43500000Y15250000D01*
X38300000Y20450000D02*
X43500000Y20450000D01*
X38300000Y15250000D02*
X38300000Y20450000D01*
X43500000Y15250000D02*
X38300000Y15250000D01*
G04 #@! TO.C,SW2*
X21400000Y11500000D02*
X21400000Y20000000D01*
X21400000Y20000000D02*
X24900000Y20000000D01*
X24900000Y20000000D02*
X24900000Y11500000D01*
X24900000Y11500000D02*
X21400000Y11500000D01*
D12*
G04 #@! TO.C,C2*
X46950000Y63400000D02*
X46250000Y63400000D01*
X46250000Y64600000D02*
X46950000Y64600000D01*
G04 #@! TO.C,C6*
X33150000Y64400000D02*
X33850000Y64400000D01*
X33850000Y63200000D02*
X33150000Y63200000D01*
G04 #@! TO.C,C7*
X30900000Y46850000D02*
X30900000Y46150000D01*
X29700000Y46150000D02*
X29700000Y46850000D01*
G04 #@! TO.C,C8*
X12810000Y10490000D02*
X12810000Y7860000D01*
X12810000Y2110000D02*
X12810000Y4740000D01*
X21190000Y2870000D02*
X21190000Y4740000D01*
X21190000Y9730000D02*
X21190000Y7860000D01*
X12810000Y10490000D02*
X20430000Y10490000D01*
X20430000Y10490000D02*
X21190000Y9730000D01*
X21190000Y2870000D02*
X20430000Y2110000D01*
X20430000Y2110000D02*
X12810000Y2110000D01*
G04 #@! TO.C,C9*
X25680000Y3500000D02*
X25680000Y5500000D01*
X22720000Y5500000D02*
X22720000Y3500000D01*
G04 #@! TO.C,C10*
X44400000Y44900000D02*
X45100000Y44900000D01*
X45100000Y43700000D02*
X44400000Y43700000D01*
G04 #@! TO.C,C11*
X34200000Y11780000D02*
X32200000Y11780000D01*
X32200000Y8820000D02*
X34200000Y8820000D01*
G04 #@! TO.C,C14*
X50700000Y61250000D02*
X50700000Y61950000D01*
X51900000Y61950000D02*
X51900000Y61250000D01*
G04 #@! TO.C,C15*
X50400000Y61950000D02*
X50400000Y61250000D01*
X49200000Y61250000D02*
X49200000Y61950000D01*
G04 #@! TO.C,C16*
X34300000Y15900000D02*
X34300000Y16600000D01*
X35500000Y16600000D02*
X35500000Y15900000D01*
G04 #@! TO.C,C17*
X31450000Y18900000D02*
X32150000Y18900000D01*
X32150000Y17700000D02*
X31450000Y17700000D01*
G04 #@! TO.C,C18*
X46030000Y10430000D02*
X47580000Y10430000D01*
X51370000Y10430000D02*
X49820000Y10430000D01*
X46790000Y15770000D02*
X47580000Y15770000D01*
X50610000Y15770000D02*
X49820000Y15770000D01*
X51370000Y10430000D02*
X51370000Y15010000D01*
X51370000Y15010000D02*
X50610000Y15770000D01*
X46790000Y15770000D02*
X46030000Y15010000D01*
X46030000Y15010000D02*
X46030000Y10430000D01*
G04 #@! TO.C,C19*
X46880000Y18800000D02*
X46880000Y20800000D01*
X43920000Y20800000D02*
X43920000Y18800000D01*
G04 #@! TO.C,C20*
X51850000Y13550000D02*
X51850000Y14250000D01*
X53050000Y14250000D02*
X53050000Y13550000D01*
G04 #@! TO.C,C21*
X55950000Y18500000D02*
X55950000Y19200000D01*
X57150000Y19200000D02*
X57150000Y18500000D01*
G04 #@! TO.C,C22*
X48930000Y22770000D02*
X48930000Y21220000D01*
X48930000Y17430000D02*
X48930000Y18980000D01*
X54270000Y22010000D02*
X54270000Y21220000D01*
X54270000Y18190000D02*
X54270000Y18980000D01*
X48930000Y17430000D02*
X53510000Y17430000D01*
X53510000Y17430000D02*
X54270000Y18190000D01*
X54270000Y22010000D02*
X53510000Y22770000D01*
X53510000Y22770000D02*
X48930000Y22770000D01*
G04 #@! TO.C,C23*
X42650000Y31000000D02*
X43350000Y31000000D01*
X43350000Y29800000D02*
X42650000Y29800000D01*
G04 #@! TO.C,C25*
X42550000Y39500000D02*
X43250000Y39500000D01*
X43250000Y38300000D02*
X42550000Y38300000D01*
G04 #@! TO.C,C27*
X42500000Y23900000D02*
X43200000Y23900000D01*
X43200000Y22700000D02*
X42500000Y22700000D01*
G04 #@! TO.C,C28*
X29600000Y33800000D02*
X30300000Y33800000D01*
X30300000Y32600000D02*
X29600000Y32600000D01*
G04 #@! TO.C,C29*
X42650000Y33500000D02*
X43350000Y33500000D01*
X43350000Y32300000D02*
X42650000Y32300000D01*
G04 #@! TO.C,C43*
X68850000Y63100000D02*
X69550000Y63100000D01*
X69550000Y61900000D02*
X68850000Y61900000D01*
G04 #@! TO.C,C46*
X11150000Y50400000D02*
X10450000Y50400000D01*
X10450000Y51600000D02*
X11150000Y51600000D01*
G04 #@! TO.C,C49*
X68750000Y35000000D02*
X69450000Y35000000D01*
X69450000Y33800000D02*
X68750000Y33800000D01*
G04 #@! TO.C,C53*
X11150000Y65000000D02*
X10450000Y65000000D01*
X10450000Y66200000D02*
X11150000Y66200000D01*
G04 #@! TO.C,C55*
X70680000Y58400000D02*
X70680000Y60400000D01*
X67720000Y60400000D02*
X67720000Y58400000D01*
G04 #@! TO.C,C56*
X9320000Y55100000D02*
X9320000Y53100000D01*
X12280000Y53100000D02*
X12280000Y55100000D01*
G04 #@! TO.C,C57*
X70680000Y30400000D02*
X70680000Y32400000D01*
X67720000Y32400000D02*
X67720000Y30400000D01*
G04 #@! TO.C,C58*
X9920000Y69700000D02*
X9920000Y67700000D01*
X12880000Y67700000D02*
X12880000Y69700000D01*
G04 #@! TO.C,C63*
X1350000Y73400000D02*
X2050000Y73400000D01*
X2050000Y72200000D02*
X1350000Y72200000D01*
G04 #@! TO.C,C64*
X4950000Y72200000D02*
X4250000Y72200000D01*
X4250000Y73400000D02*
X4950000Y73400000D01*
G04 #@! TO.C,C68*
X11150000Y36400000D02*
X10450000Y36400000D01*
X10450000Y37600000D02*
X11150000Y37600000D01*
G04 #@! TO.C,C71*
X68850000Y49100000D02*
X69550000Y49100000D01*
X69550000Y47900000D02*
X68850000Y47900000D01*
G04 #@! TO.C,C73*
X9320000Y41100000D02*
X9320000Y39100000D01*
X12280000Y39100000D02*
X12280000Y41100000D01*
G04 #@! TO.C,C74*
X70680000Y44400000D02*
X70680000Y46400000D01*
X67720000Y46400000D02*
X67720000Y44400000D01*
G04 #@! TO.C,C75*
X64500000Y13350000D02*
X64500000Y14050000D01*
X65700000Y14050000D02*
X65700000Y13350000D01*
G04 #@! TO.C,C76*
X26200000Y67250000D02*
X26200000Y67950000D01*
X27400000Y67950000D02*
X27400000Y67250000D01*
G04 #@! TO.C,C77*
X28450000Y70500000D02*
X27750000Y70500000D01*
X27750000Y71700000D02*
X28450000Y71700000D01*
G04 #@! TO.C,C78*
X31750000Y71700000D02*
X32450000Y71700000D01*
X32450000Y70500000D02*
X31750000Y70500000D01*
G04 #@! TO.C,C80*
X69500000Y13350000D02*
X69500000Y14050000D01*
X70700000Y14050000D02*
X70700000Y13350000D01*
G04 #@! TO.C,C81*
X74400000Y13350000D02*
X74400000Y14050000D01*
X75600000Y14050000D02*
X75600000Y13350000D01*
G04 #@! TO.C,C82*
X74000000Y7250000D02*
X74000000Y7950000D01*
X75200000Y7950000D02*
X75200000Y7250000D01*
G04 #@! TO.C,C85*
X15590000Y71310000D02*
X15590000Y73940000D01*
X15590000Y79690000D02*
X15590000Y77060000D01*
X7210000Y78930000D02*
X7210000Y77060000D01*
X7210000Y72070000D02*
X7210000Y73940000D01*
X15590000Y71310000D02*
X7970000Y71310000D01*
X7970000Y71310000D02*
X7210000Y72070000D01*
X7210000Y78930000D02*
X7970000Y79690000D01*
X7970000Y79690000D02*
X15590000Y79690000D01*
G04 #@! TO.C,C86*
X64310000Y79390000D02*
X64310000Y76760000D01*
X64310000Y71010000D02*
X64310000Y73640000D01*
X72690000Y71770000D02*
X72690000Y73640000D01*
X72690000Y78630000D02*
X72690000Y76760000D01*
X64310000Y79390000D02*
X71930000Y79390000D01*
X71930000Y79390000D02*
X72690000Y78630000D01*
X72690000Y71770000D02*
X71930000Y71010000D01*
X71930000Y71010000D02*
X64310000Y71010000D01*
G04 #@! TO.C,D1*
X27000000Y11700000D02*
X28000000Y11700000D01*
X28000000Y11700000D02*
X28000000Y13800000D01*
X27000000Y11700000D02*
X27000000Y13800000D01*
G04 #@! TO.C,D2*
X29700000Y9300000D02*
X29700000Y11300000D01*
X29700000Y11300000D02*
X25850000Y11300000D01*
X29700000Y9300000D02*
X25850000Y9300000D01*
G04 #@! TO.C,D3*
X36150000Y13250000D02*
X36150000Y8950000D01*
X36150000Y8950000D02*
X41850000Y8950000D01*
X36150000Y13250000D02*
X41850000Y13250000D01*
D11*
G04 #@! TO.C,D4*
X36500000Y16300000D02*
X36500000Y13800000D01*
X37200000Y14900000D02*
X36500000Y15800000D01*
X35800000Y14900000D02*
X37200000Y14900000D01*
X36500000Y15800000D02*
X35800000Y14900000D01*
X35800000Y15800000D02*
X37200000Y15800000D01*
X35800000Y13800000D02*
X35800000Y16300000D01*
X37200000Y13800000D02*
X35800000Y13800000D01*
X37200000Y16300000D02*
X37200000Y13800000D01*
X35800000Y16300000D02*
X37200000Y16300000D01*
D12*
G04 #@! TO.C,D5*
X33450000Y20200000D02*
X33450000Y18200000D01*
X33450000Y18200000D02*
X37350000Y18200000D01*
X33450000Y20200000D02*
X37350000Y20200000D01*
G04 #@! TO.C,D6*
X57850000Y16300000D02*
X53550000Y16300000D01*
X53550000Y16300000D02*
X53550000Y10600000D01*
X57850000Y16300000D02*
X57850000Y10600000D01*
G04 #@! TO.C,D7*
X44600000Y10900000D02*
X45600000Y10900000D01*
X45600000Y10900000D02*
X45600000Y13000000D01*
X44600000Y10900000D02*
X44600000Y13000000D01*
G04 #@! TO.C,D8*
X57600000Y16800000D02*
X58600000Y16800000D01*
X58600000Y16800000D02*
X58600000Y18900000D01*
X57600000Y16800000D02*
X57600000Y18900000D01*
D11*
G04 #@! TO.C,FET1*
X61200000Y59600000D02*
X61200000Y64600000D01*
X65200000Y59600000D02*
X61200000Y59600000D01*
X65200000Y64600000D02*
X65200000Y59600000D01*
X61200000Y64600000D02*
X65200000Y64600000D01*
G04 #@! TO.C,FET2*
X61200000Y64800000D02*
X61200000Y69800000D01*
X65200000Y64800000D02*
X61200000Y64800000D01*
X65200000Y69800000D02*
X65200000Y64800000D01*
X61200000Y69800000D02*
X65200000Y69800000D01*
G04 #@! TO.C,FET3*
X18800000Y53900000D02*
X18800000Y48900000D01*
X14800000Y53900000D02*
X18800000Y53900000D01*
X14800000Y48900000D02*
X14800000Y53900000D01*
X18800000Y48900000D02*
X14800000Y48900000D01*
G04 #@! TO.C,FET4*
X18800000Y48700000D02*
X18800000Y43700000D01*
X14800000Y48700000D02*
X18800000Y48700000D01*
X14800000Y43700000D02*
X14800000Y48700000D01*
X18800000Y43700000D02*
X14800000Y43700000D01*
G04 #@! TO.C,FET5*
X61200000Y31600000D02*
X61200000Y36600000D01*
X65200000Y31600000D02*
X61200000Y31600000D01*
X65200000Y36600000D02*
X65200000Y31600000D01*
X61200000Y36600000D02*
X65200000Y36600000D01*
G04 #@! TO.C,FET6*
X61200000Y36800000D02*
X61200000Y41800000D01*
X65200000Y36800000D02*
X61200000Y36800000D01*
X65200000Y41800000D02*
X65200000Y36800000D01*
X61200000Y41800000D02*
X65200000Y41800000D01*
G04 #@! TO.C,FET7*
X18800000Y68500000D02*
X18800000Y63500000D01*
X14800000Y68500000D02*
X18800000Y68500000D01*
X14800000Y63500000D02*
X14800000Y68500000D01*
X18800000Y63500000D02*
X14800000Y63500000D01*
G04 #@! TO.C,FET8*
X18800000Y63300000D02*
X18800000Y58300000D01*
X14800000Y63300000D02*
X18800000Y63300000D01*
X14800000Y58300000D02*
X14800000Y63300000D01*
X18800000Y58300000D02*
X14800000Y58300000D01*
G04 #@! TO.C,FET9*
X18800000Y39900000D02*
X18800000Y34900000D01*
X14800000Y39900000D02*
X18800000Y39900000D01*
X14800000Y34900000D02*
X14800000Y39900000D01*
X18800000Y34900000D02*
X14800000Y34900000D01*
G04 #@! TO.C,FET10*
X18800000Y34700000D02*
X18800000Y29700000D01*
X14800000Y34700000D02*
X18800000Y34700000D01*
X14800000Y29700000D02*
X14800000Y34700000D01*
X18800000Y29700000D02*
X14800000Y29700000D01*
G04 #@! TO.C,FET11*
X61200000Y45600000D02*
X61200000Y50600000D01*
X65200000Y45600000D02*
X61200000Y45600000D01*
X65200000Y50600000D02*
X65200000Y45600000D01*
X61200000Y50600000D02*
X65200000Y50600000D01*
G04 #@! TO.C,FET12*
X61200000Y50800000D02*
X61200000Y55800000D01*
X65200000Y50800000D02*
X61200000Y50800000D01*
X65200000Y55800000D02*
X65200000Y50800000D01*
X61200000Y55800000D02*
X65200000Y55800000D01*
D12*
G04 #@! TO.C,J1*
X53362500Y78400000D02*
G75*
G03X53362500Y78400000I-250000J0D01*
G01*
X56662500Y77800000D02*
X56662500Y72000000D01*
X54762500Y78900000D02*
X53762500Y78900000D01*
X53762500Y78900000D02*
X53762500Y78000000D01*
X53762500Y78400000D02*
X54762500Y78400000D01*
X54762500Y78400000D02*
X54762500Y78400000D01*
X54762500Y78400000D02*
X53762500Y78400000D01*
X53762500Y78400000D02*
X53762500Y78400000D01*
X54362500Y78400000D02*
X54362500Y78400000D01*
X54362500Y78400000D02*
X54362500Y78900000D01*
X54362500Y78900000D02*
X54362500Y78900000D01*
X54362500Y78900000D02*
X54362500Y78400000D01*
X54762500Y70900000D02*
X53762500Y70900000D01*
X53762500Y70900000D02*
X53762500Y71800000D01*
X53762500Y71400000D02*
X54762500Y71400000D01*
X54762500Y71400000D02*
X54762500Y71400000D01*
X54762500Y71400000D02*
X53762500Y71400000D01*
X53762500Y71400000D02*
X53762500Y71400000D01*
X54362500Y71400000D02*
X54362500Y71400000D01*
X54362500Y71400000D02*
X54362500Y70900000D01*
X54362500Y70900000D02*
X54362500Y70900000D01*
X54362500Y70900000D02*
X54362500Y71400000D01*
X55762500Y77800000D02*
X56262500Y77800000D01*
X56262500Y77800000D02*
X56262500Y72000000D01*
X56262500Y72000000D02*
X55762500Y72000000D01*
X55162500Y77800000D02*
X54512500Y77800000D01*
X54512500Y77800000D02*
X54512500Y72000000D01*
X54512500Y72000000D02*
X55162500Y72000000D01*
X55762500Y77400000D02*
X55562500Y77400000D01*
X55762500Y76400000D02*
X55562500Y76400000D01*
X55762500Y75400000D02*
X55562500Y75400000D01*
X55762500Y74400000D02*
X55562500Y74400000D01*
X55762500Y73400000D02*
X55562500Y73400000D01*
X55762500Y72400000D02*
X55562500Y72400000D01*
G04 #@! TO.C,J2*
X59025000Y78300000D02*
G75*
G03X59025000Y78300000I-250000J0D01*
G01*
X62325000Y77700000D02*
X62325000Y73900000D01*
X60425000Y78800000D02*
X59425000Y78800000D01*
X59425000Y78800000D02*
X59425000Y77900000D01*
X59425000Y78300000D02*
X60425000Y78300000D01*
X60425000Y78300000D02*
X60425000Y78300000D01*
X60425000Y78300000D02*
X59425000Y78300000D01*
X59425000Y78300000D02*
X59425000Y78300000D01*
X60025000Y78300000D02*
X60025000Y78300000D01*
X60025000Y78300000D02*
X60025000Y78800000D01*
X60025000Y78800000D02*
X60025000Y78800000D01*
X60025000Y78800000D02*
X60025000Y78300000D01*
X60425000Y72800000D02*
X59425000Y72800000D01*
X59425000Y72800000D02*
X59425000Y73700000D01*
X59425000Y73300000D02*
X60425000Y73300000D01*
X60425000Y73300000D02*
X60425000Y73300000D01*
X60425000Y73300000D02*
X59425000Y73300000D01*
X59425000Y73300000D02*
X59425000Y73300000D01*
X60025000Y73300000D02*
X60025000Y73300000D01*
X60025000Y73300000D02*
X60025000Y72800000D01*
X60025000Y72800000D02*
X60025000Y72800000D01*
X60025000Y72800000D02*
X60025000Y73300000D01*
X61425000Y77700000D02*
X61925000Y77700000D01*
X61925000Y77700000D02*
X61925000Y73900000D01*
X61925000Y73900000D02*
X61425000Y73900000D01*
X60825000Y77700000D02*
X60175000Y77700000D01*
X60175000Y77700000D02*
X60175000Y73900000D01*
X60175000Y73900000D02*
X60825000Y73900000D01*
X61425000Y77300000D02*
X61225000Y77300000D01*
X61425000Y76300000D02*
X61225000Y76300000D01*
X61425000Y75300000D02*
X61225000Y75300000D01*
X61425000Y74300000D02*
X61225000Y74300000D01*
G04 #@! TO.C,J10*
X8850000Y23812500D02*
G75*
G03X8850000Y23812500I-250000J0D01*
G01*
X9200000Y27362500D02*
X13000000Y27362500D01*
X8100000Y25462500D02*
X8100000Y24462500D01*
X8100000Y24462500D02*
X9000000Y24462500D01*
X8600000Y24462500D02*
X8600000Y25462500D01*
X8600000Y25462500D02*
X8600000Y25462500D01*
X8600000Y25462500D02*
X8600000Y24462500D01*
X8600000Y24462500D02*
X8600000Y24462500D01*
X8600000Y25062500D02*
X8600000Y25062500D01*
X8600000Y25062500D02*
X8100000Y25062500D01*
X8100000Y25062500D02*
X8100000Y25062500D01*
X8100000Y25062500D02*
X8600000Y25062500D01*
X14100000Y25462500D02*
X14100000Y24462500D01*
X14100000Y24462500D02*
X13200000Y24462500D01*
X13600000Y24462500D02*
X13600000Y25462500D01*
X13600000Y25462500D02*
X13600000Y25462500D01*
X13600000Y25462500D02*
X13600000Y24462500D01*
X13600000Y24462500D02*
X13600000Y24462500D01*
X13600000Y25062500D02*
X13600000Y25062500D01*
X13600000Y25062500D02*
X14100000Y25062500D01*
X14100000Y25062500D02*
X14100000Y25062500D01*
X14100000Y25062500D02*
X13600000Y25062500D01*
X9200000Y26462500D02*
X9200000Y26962500D01*
X9200000Y26962500D02*
X13000000Y26962500D01*
X13000000Y26962500D02*
X13000000Y26462500D01*
X9200000Y25862500D02*
X9200000Y25212500D01*
X9200000Y25212500D02*
X13000000Y25212500D01*
X13000000Y25212500D02*
X13000000Y25862500D01*
X9600000Y26462500D02*
X9600000Y26262500D01*
X10600000Y26462500D02*
X10600000Y26262500D01*
X11600000Y26462500D02*
X11600000Y26262500D01*
X12600000Y26462500D02*
X12600000Y26262500D01*
G04 #@! TO.C,J11*
X1850000Y23812500D02*
G75*
G03X1850000Y23812500I-250000J0D01*
G01*
X2200000Y27362500D02*
X5000000Y27362500D01*
X1100000Y25462500D02*
X1100000Y24462500D01*
X1100000Y24462500D02*
X2000000Y24462500D01*
X1600000Y24462500D02*
X1600000Y25462500D01*
X1600000Y25462500D02*
X1600000Y25462500D01*
X1600000Y25462500D02*
X1600000Y24462500D01*
X1600000Y24462500D02*
X1600000Y24462500D01*
X1600000Y25062500D02*
X1600000Y25062500D01*
X1600000Y25062500D02*
X1100000Y25062500D01*
X1100000Y25062500D02*
X1100000Y25062500D01*
X1100000Y25062500D02*
X1600000Y25062500D01*
X6100000Y25462500D02*
X6100000Y24462500D01*
X6100000Y24462500D02*
X5200000Y24462500D01*
X5600000Y24462500D02*
X5600000Y25462500D01*
X5600000Y25462500D02*
X5600000Y25462500D01*
X5600000Y25462500D02*
X5600000Y24462500D01*
X5600000Y24462500D02*
X5600000Y24462500D01*
X5600000Y25062500D02*
X5600000Y25062500D01*
X5600000Y25062500D02*
X6100000Y25062500D01*
X6100000Y25062500D02*
X6100000Y25062500D01*
X6100000Y25062500D02*
X5600000Y25062500D01*
X2200000Y26462500D02*
X2200000Y26962500D01*
X2200000Y26962500D02*
X5000000Y26962500D01*
X5000000Y26962500D02*
X5000000Y26462500D01*
X2200000Y25862500D02*
X2200000Y25212500D01*
X2200000Y25212500D02*
X5000000Y25212500D01*
X5000000Y25212500D02*
X5000000Y25862500D01*
X2600000Y26462500D02*
X2600000Y26262500D01*
X3600000Y26462500D02*
X3600000Y26262500D01*
X4600000Y26462500D02*
X4600000Y26262500D01*
G04 #@! TO.C,J12*
X67062500Y22500000D02*
G75*
G03X67062500Y22500000I-250000J0D01*
G01*
X70362500Y21900000D02*
X70362500Y19100000D01*
X68462500Y23000000D02*
X67462500Y23000000D01*
X67462500Y23000000D02*
X67462500Y22100000D01*
X67462500Y22500000D02*
X68462500Y22500000D01*
X68462500Y22500000D02*
X68462500Y22500000D01*
X68462500Y22500000D02*
X67462500Y22500000D01*
X67462500Y22500000D02*
X67462500Y22500000D01*
X68062500Y22500000D02*
X68062500Y22500000D01*
X68062500Y22500000D02*
X68062500Y23000000D01*
X68062500Y23000000D02*
X68062500Y23000000D01*
X68062500Y23000000D02*
X68062500Y22500000D01*
X68462500Y18000000D02*
X67462500Y18000000D01*
X67462500Y18000000D02*
X67462500Y18900000D01*
X67462500Y18500000D02*
X68462500Y18500000D01*
X68462500Y18500000D02*
X68462500Y18500000D01*
X68462500Y18500000D02*
X67462500Y18500000D01*
X67462500Y18500000D02*
X67462500Y18500000D01*
X68062500Y18500000D02*
X68062500Y18500000D01*
X68062500Y18500000D02*
X68062500Y18000000D01*
X68062500Y18000000D02*
X68062500Y18000000D01*
X68062500Y18000000D02*
X68062500Y18500000D01*
X69462500Y21900000D02*
X69962500Y21900000D01*
X69962500Y21900000D02*
X69962500Y19100000D01*
X69962500Y19100000D02*
X69462500Y19100000D01*
X68862500Y21900000D02*
X68212500Y21900000D01*
X68212500Y21900000D02*
X68212500Y19100000D01*
X68212500Y19100000D02*
X68862500Y19100000D01*
X69462500Y21500000D02*
X69262500Y21500000D01*
X69462500Y20500000D02*
X69262500Y20500000D01*
X69462500Y19500000D02*
X69262500Y19500000D01*
G04 #@! TO.C,J14*
X72462500Y22500000D02*
G75*
G03X72462500Y22500000I-250000J0D01*
G01*
X75762500Y21900000D02*
X75762500Y19100000D01*
X73862500Y23000000D02*
X72862500Y23000000D01*
X72862500Y23000000D02*
X72862500Y22100000D01*
X72862500Y22500000D02*
X73862500Y22500000D01*
X73862500Y22500000D02*
X73862500Y22500000D01*
X73862500Y22500000D02*
X72862500Y22500000D01*
X72862500Y22500000D02*
X72862500Y22500000D01*
X73462500Y22500000D02*
X73462500Y22500000D01*
X73462500Y22500000D02*
X73462500Y23000000D01*
X73462500Y23000000D02*
X73462500Y23000000D01*
X73462500Y23000000D02*
X73462500Y22500000D01*
X73862500Y18000000D02*
X72862500Y18000000D01*
X72862500Y18000000D02*
X72862500Y18900000D01*
X72862500Y18500000D02*
X73862500Y18500000D01*
X73862500Y18500000D02*
X73862500Y18500000D01*
X73862500Y18500000D02*
X72862500Y18500000D01*
X72862500Y18500000D02*
X72862500Y18500000D01*
X73462500Y18500000D02*
X73462500Y18500000D01*
X73462500Y18500000D02*
X73462500Y18000000D01*
X73462500Y18000000D02*
X73462500Y18000000D01*
X73462500Y18000000D02*
X73462500Y18500000D01*
X74862500Y21900000D02*
X75362500Y21900000D01*
X75362500Y21900000D02*
X75362500Y19100000D01*
X75362500Y19100000D02*
X74862500Y19100000D01*
X74262500Y21900000D02*
X73612500Y21900000D01*
X73612500Y21900000D02*
X73612500Y19100000D01*
X73612500Y19100000D02*
X74262500Y19100000D01*
X74862500Y21500000D02*
X74662500Y21500000D01*
X74862500Y20500000D02*
X74662500Y20500000D01*
X74862500Y19500000D02*
X74662500Y19500000D01*
G04 #@! TO.C,J15*
X47462500Y78400000D02*
G75*
G03X47462500Y78400000I-250000J0D01*
G01*
X50762500Y77800000D02*
X50762500Y73000000D01*
X48862500Y78900000D02*
X47862500Y78900000D01*
X47862500Y78900000D02*
X47862500Y78000000D01*
X47862500Y78400000D02*
X48862500Y78400000D01*
X48862500Y78400000D02*
X48862500Y78400000D01*
X48862500Y78400000D02*
X47862500Y78400000D01*
X47862500Y78400000D02*
X47862500Y78400000D01*
X48462500Y78400000D02*
X48462500Y78400000D01*
X48462500Y78400000D02*
X48462500Y78900000D01*
X48462500Y78900000D02*
X48462500Y78900000D01*
X48462500Y78900000D02*
X48462500Y78400000D01*
X48862500Y71900000D02*
X47862500Y71900000D01*
X47862500Y71900000D02*
X47862500Y72800000D01*
X47862500Y72400000D02*
X48862500Y72400000D01*
X48862500Y72400000D02*
X48862500Y72400000D01*
X48862500Y72400000D02*
X47862500Y72400000D01*
X47862500Y72400000D02*
X47862500Y72400000D01*
X48462500Y72400000D02*
X48462500Y72400000D01*
X48462500Y72400000D02*
X48462500Y71900000D01*
X48462500Y71900000D02*
X48462500Y71900000D01*
X48462500Y71900000D02*
X48462500Y72400000D01*
X49862500Y77800000D02*
X50362500Y77800000D01*
X50362500Y77800000D02*
X50362500Y73000000D01*
X50362500Y73000000D02*
X49862500Y73000000D01*
X49262500Y77800000D02*
X48612500Y77800000D01*
X48612500Y77800000D02*
X48612500Y73000000D01*
X48612500Y73000000D02*
X49262500Y73000000D01*
X49862500Y77400000D02*
X49662500Y77400000D01*
X49862500Y76400000D02*
X49662500Y76400000D01*
X49862500Y75400000D02*
X49662500Y75400000D01*
X49862500Y74400000D02*
X49662500Y74400000D01*
X49862500Y73400000D02*
X49662500Y73400000D01*
D11*
G04 #@! TO.C,J16*
X27450000Y79750000D02*
X27450000Y74450000D01*
X17750000Y79750000D02*
X27450000Y79750000D01*
X17750000Y74450000D02*
X17750000Y79750000D01*
X27450000Y74450000D02*
X17750000Y74450000D01*
D12*
G04 #@! TO.C,R1*
X50400000Y68220000D02*
X49400000Y68220000D01*
X49400000Y69580000D02*
X50400000Y69580000D01*
G04 #@! TO.C,R3*
X36750000Y63120000D02*
X35750000Y63120000D01*
X35750000Y64480000D02*
X36750000Y64480000D01*
G04 #@! TO.C,R4*
X26820000Y15500000D02*
X26820000Y16500000D01*
X28180000Y16500000D02*
X28180000Y15500000D01*
G04 #@! TO.C,R6*
X31300000Y21280000D02*
X32300000Y21280000D01*
X32300000Y19920000D02*
X31300000Y19920000D01*
G04 #@! TO.C,R7*
X25320000Y19950000D02*
X25320000Y20950000D01*
X26680000Y20950000D02*
X26680000Y19950000D01*
G04 #@! TO.C,R8*
X44420000Y14950000D02*
X44420000Y15950000D01*
X45780000Y15950000D02*
X45780000Y14950000D01*
G04 #@! TO.C,R9*
X57420000Y20900000D02*
X57420000Y21900000D01*
X58780000Y21900000D02*
X58780000Y20900000D01*
G04 #@! TO.C,R10*
X41520000Y25500000D02*
X41520000Y26500000D01*
X42880000Y26500000D02*
X42880000Y25500000D01*
G04 #@! TO.C,R11*
X28520000Y35600000D02*
X28520000Y36600000D01*
X29880000Y36600000D02*
X29880000Y35600000D01*
G04 #@! TO.C,R12*
X41520000Y35400000D02*
X41520000Y36400000D01*
X42880000Y36400000D02*
X42880000Y35400000D01*
G04 #@! TO.C,R13*
X28420000Y25450000D02*
X28420000Y26450000D01*
X29780000Y26450000D02*
X29780000Y25450000D01*
G04 #@! TO.C,R14*
X43320000Y25500000D02*
X43320000Y26500000D01*
X44680000Y26500000D02*
X44680000Y25500000D01*
G04 #@! TO.C,R15*
X30220000Y35600000D02*
X30220000Y36600000D01*
X31580000Y36600000D02*
X31580000Y35600000D01*
G04 #@! TO.C,R16*
X43320000Y35400000D02*
X43320000Y36400000D01*
X44680000Y36400000D02*
X44680000Y35400000D01*
G04 #@! TO.C,R17*
X30220000Y25450000D02*
X30220000Y26450000D01*
X31580000Y26450000D02*
X31580000Y25450000D01*
G04 #@! TO.C,R18*
X45120000Y25500000D02*
X45120000Y26500000D01*
X46480000Y26500000D02*
X46480000Y25500000D01*
G04 #@! TO.C,R20*
X45120000Y35400000D02*
X45120000Y36400000D01*
X46480000Y36400000D02*
X46480000Y35400000D01*
G04 #@! TO.C,R21*
X32020000Y25500000D02*
X32020000Y26500000D01*
X33380000Y26500000D02*
X33380000Y25500000D01*
G04 #@! TO.C,R22*
X47020000Y25500000D02*
X47020000Y26500000D01*
X48380000Y26500000D02*
X48380000Y25500000D01*
G04 #@! TO.C,R23*
X33820000Y35600000D02*
X33820000Y36600000D01*
X35180000Y36600000D02*
X35180000Y35600000D01*
G04 #@! TO.C,R24*
X46920000Y35400000D02*
X46920000Y36400000D01*
X48280000Y36400000D02*
X48280000Y35400000D01*
G04 #@! TO.C,R25*
X33820000Y25500000D02*
X33820000Y26500000D01*
X35180000Y26500000D02*
X35180000Y25500000D01*
G04 #@! TO.C,R26*
X48820000Y25500000D02*
X48820000Y26500000D01*
X50180000Y26500000D02*
X50180000Y25500000D01*
G04 #@! TO.C,R27*
X35520000Y35650000D02*
X35520000Y36650000D01*
X36880000Y36650000D02*
X36880000Y35650000D01*
G04 #@! TO.C,R28*
X48720000Y35400000D02*
X48720000Y36400000D01*
X50080000Y36400000D02*
X50080000Y35400000D01*
G04 #@! TO.C,R29*
X35620000Y25500000D02*
X35620000Y26500000D01*
X36980000Y26500000D02*
X36980000Y25500000D01*
G04 #@! TO.C,R30*
X50620000Y25500000D02*
X50620000Y26500000D01*
X51980000Y26500000D02*
X51980000Y25500000D01*
G04 #@! TO.C,R31*
X37220000Y35650000D02*
X37220000Y36650000D01*
X38580000Y36650000D02*
X38580000Y35650000D01*
G04 #@! TO.C,R32*
X50520000Y35400000D02*
X50520000Y36400000D01*
X51880000Y36400000D02*
X51880000Y35400000D01*
G04 #@! TO.C,R33*
X37420000Y25500000D02*
X37420000Y26500000D01*
X38780000Y26500000D02*
X38780000Y25500000D01*
G04 #@! TO.C,R84*
X27600000Y50180000D02*
X28600000Y50180000D01*
X28600000Y48820000D02*
X27600000Y48820000D01*
G04 #@! TO.C,R85*
X27600000Y51780000D02*
X28600000Y51780000D01*
X28600000Y50420000D02*
X27600000Y50420000D01*
G04 #@! TO.C,R86*
X27600000Y53380000D02*
X28600000Y53380000D01*
X28600000Y52020000D02*
X27600000Y52020000D01*
G04 #@! TO.C,R87*
X62780000Y14300000D02*
X62780000Y13300000D01*
X61420000Y13300000D02*
X61420000Y14300000D01*
G04 #@! TO.C,R88*
X62920000Y13300000D02*
X62920000Y14300000D01*
X64280000Y14300000D02*
X64280000Y13300000D01*
G04 #@! TO.C,R89*
X67920000Y13200000D02*
X67920000Y14200000D01*
X69280000Y14200000D02*
X69280000Y13200000D01*
G04 #@! TO.C,R90*
X72820000Y13200000D02*
X72820000Y14200000D01*
X74180000Y14200000D02*
X74180000Y13200000D01*
G04 #@! TO.C,R91*
X73120000Y10000000D02*
X73120000Y11000000D01*
X74480000Y11000000D02*
X74480000Y10000000D01*
G04 #@! TO.C,R93*
X74720000Y10000000D02*
X74720000Y11000000D01*
X76080000Y11000000D02*
X76080000Y10000000D01*
G04 #@! TO.C,R94*
X71320000Y13200000D02*
X71320000Y14200000D01*
X72680000Y14200000D02*
X72680000Y13200000D01*
G04 #@! TO.C,R95*
X66420000Y13200000D02*
X66420000Y14200000D01*
X67780000Y14200000D02*
X67780000Y13200000D01*
D11*
G04 #@! TO.C,SW1*
X49288061Y66400000D02*
G75*
G03X49288061Y66400000I-1044031J0D01*
G01*
X50500000Y68000000D02*
X50500000Y64800000D01*
X45900000Y68000000D02*
X50500000Y68000000D01*
X45900000Y64800000D02*
X45900000Y68000000D01*
X50500000Y64800000D02*
X45900000Y64800000D01*
G04 #@! TO.C,U1*
X32875000Y61125000D02*
X32875000Y60475000D01*
X47125000Y61125000D02*
X47125000Y60365000D01*
X47125000Y46875000D02*
X47125000Y47635000D01*
X32875000Y46875000D02*
X32875000Y47635000D01*
X32875000Y61125000D02*
X33635000Y61125000D01*
X32875000Y46875000D02*
X33635000Y46875000D01*
X47125000Y46875000D02*
X46365000Y46875000D01*
X47125000Y61125000D02*
X46365000Y61125000D01*
X32875000Y60475000D02*
X31350000Y60475000D01*
D12*
G04 #@! TO.C,U3*
X61550000Y22200000D02*
X64150000Y22200000D01*
X65450000Y17400000D02*
X61550000Y17400000D01*
D11*
G04 #@! TO.C,U8*
X6500000Y70925000D02*
X2100000Y70925000D01*
X8075000Y65400000D02*
X2100000Y65400000D01*
D12*
G04 #@! TO.C,RN7*
X28300000Y62780000D02*
X29300000Y62780000D01*
X28300000Y59420000D02*
X29300000Y59420000D01*
G04 #@! TO.C,J4*
D11*
X78252380Y59366667D02*
X78966666Y59366667D01*
X79109523Y59319048D01*
X79204761Y59223810D01*
X79252380Y59080953D01*
X79252380Y58985715D01*
X78585714Y60271429D02*
X79252380Y60271429D01*
X78204761Y60033334D02*
X78919047Y59795239D01*
X78919047Y60414286D01*
G04 #@! TO.C,J17*
X37190476Y72947620D02*
X37190476Y72233334D01*
X37142857Y72090477D01*
X37047619Y71995239D01*
X36904761Y71947620D01*
X36809523Y71947620D01*
X38190476Y71947620D02*
X37619047Y71947620D01*
X37904761Y71947620D02*
X37904761Y72947620D01*
X37809523Y72804762D01*
X37714285Y72709524D01*
X37619047Y72661905D01*
X38523809Y72947620D02*
X39190476Y72947620D01*
X38761904Y71947620D01*
G04 #@! TO.C,LED1*
X23780952Y54147620D02*
X23304761Y54147620D01*
X23304761Y55147620D01*
X24114285Y54671429D02*
X24447619Y54671429D01*
X24590476Y54147620D02*
X24114285Y54147620D01*
X24114285Y55147620D01*
X24590476Y55147620D01*
X25019047Y54147620D02*
X25019047Y55147620D01*
X25257142Y55147620D01*
X25400000Y55100000D01*
X25495238Y55004762D01*
X25542857Y54909524D01*
X25590476Y54719048D01*
X25590476Y54576191D01*
X25542857Y54385715D01*
X25495238Y54290477D01*
X25400000Y54195239D01*
X25257142Y54147620D01*
X25019047Y54147620D01*
X26542857Y54147620D02*
X25971428Y54147620D01*
X26257142Y54147620D02*
X26257142Y55147620D01*
X26161904Y55004762D01*
X26066666Y54909524D01*
X25971428Y54861905D01*
G04 #@! TO.C,U9*
X29268095Y65347620D02*
X29268095Y64538096D01*
X29315714Y64442858D01*
X29363333Y64395239D01*
X29458571Y64347620D01*
X29649047Y64347620D01*
X29744285Y64395239D01*
X29791904Y64442858D01*
X29839523Y64538096D01*
X29839523Y65347620D01*
X30363333Y64347620D02*
X30553809Y64347620D01*
X30649047Y64395239D01*
X30696666Y64442858D01*
X30791904Y64585715D01*
X30839523Y64776191D01*
X30839523Y65157143D01*
X30791904Y65252381D01*
X30744285Y65300000D01*
X30649047Y65347620D01*
X30458571Y65347620D01*
X30363333Y65300000D01*
X30315714Y65252381D01*
X30268095Y65157143D01*
X30268095Y64919048D01*
X30315714Y64823810D01*
X30363333Y64776191D01*
X30458571Y64728572D01*
X30649047Y64728572D01*
X30744285Y64776191D01*
X30791904Y64823810D01*
X30839523Y64919048D01*
G04 #@! TO.C,U10*
X59461904Y3447620D02*
X59461904Y2638096D01*
X59509523Y2542858D01*
X59557142Y2495239D01*
X59652380Y2447620D01*
X59842857Y2447620D01*
X59938095Y2495239D01*
X59985714Y2542858D01*
X60033333Y2638096D01*
X60033333Y3447620D01*
X61033333Y2447620D02*
X60461904Y2447620D01*
X60747619Y2447620D02*
X60747619Y3447620D01*
X60652380Y3304762D01*
X60557142Y3209524D01*
X60461904Y3161905D01*
X61652380Y3447620D02*
X61747619Y3447620D01*
X61842857Y3400000D01*
X61890476Y3352381D01*
X61938095Y3257143D01*
X61985714Y3066667D01*
X61985714Y2828572D01*
X61938095Y2638096D01*
X61890476Y2542858D01*
X61842857Y2495239D01*
X61747619Y2447620D01*
X61652380Y2447620D01*
X61557142Y2495239D01*
X61509523Y2542858D01*
X61461904Y2638096D01*
X61414285Y2828572D01*
X61414285Y3066667D01*
X61461904Y3257143D01*
X61509523Y3352381D01*
X61557142Y3400000D01*
X61652380Y3447620D01*
G04 #@! TO.C,R96*
X79952380Y12457143D02*
X79476190Y12123810D01*
X79952380Y11885715D02*
X78952380Y11885715D01*
X78952380Y12266667D01*
X79000000Y12361905D01*
X79047619Y12409524D01*
X79142857Y12457143D01*
X79285714Y12457143D01*
X79380952Y12409524D01*
X79428571Y12361905D01*
X79476190Y12266667D01*
X79476190Y11885715D01*
X79952380Y12933334D02*
X79952380Y13123810D01*
X79904761Y13219048D01*
X79857142Y13266667D01*
X79714285Y13361905D01*
X79523809Y13409524D01*
X79142857Y13409524D01*
X79047619Y13361905D01*
X79000000Y13314286D01*
X78952380Y13219048D01*
X78952380Y13028572D01*
X79000000Y12933334D01*
X79047619Y12885715D01*
X79142857Y12838096D01*
X79380952Y12838096D01*
X79476190Y12885715D01*
X79523809Y12933334D01*
X79571428Y13028572D01*
X79571428Y13219048D01*
X79523809Y13314286D01*
X79476190Y13361905D01*
X79380952Y13409524D01*
X78952380Y14266667D02*
X78952380Y14076191D01*
X79000000Y13980953D01*
X79047619Y13933334D01*
X79190476Y13838096D01*
X79380952Y13790477D01*
X79761904Y13790477D01*
X79857142Y13838096D01*
X79904761Y13885715D01*
X79952380Y13980953D01*
X79952380Y14171429D01*
X79904761Y14266667D01*
X79857142Y14314286D01*
X79761904Y14361905D01*
X79523809Y14361905D01*
X79428571Y14314286D01*
X79380952Y14266667D01*
X79333333Y14171429D01*
X79333333Y13980953D01*
X79380952Y13885715D01*
X79428571Y13838096D01*
X79523809Y13790477D01*
G04 #@! TO.C,R92*
X78852380Y12457143D02*
X78376190Y12123810D01*
X78852380Y11885715D02*
X77852380Y11885715D01*
X77852380Y12266667D01*
X77900000Y12361905D01*
X77947619Y12409524D01*
X78042857Y12457143D01*
X78185714Y12457143D01*
X78280952Y12409524D01*
X78328571Y12361905D01*
X78376190Y12266667D01*
X78376190Y11885715D01*
X78852380Y12933334D02*
X78852380Y13123810D01*
X78804761Y13219048D01*
X78757142Y13266667D01*
X78614285Y13361905D01*
X78423809Y13409524D01*
X78042857Y13409524D01*
X77947619Y13361905D01*
X77900000Y13314286D01*
X77852380Y13219048D01*
X77852380Y13028572D01*
X77900000Y12933334D01*
X77947619Y12885715D01*
X78042857Y12838096D01*
X78280952Y12838096D01*
X78376190Y12885715D01*
X78423809Y12933334D01*
X78471428Y13028572D01*
X78471428Y13219048D01*
X78423809Y13314286D01*
X78376190Y13361905D01*
X78280952Y13409524D01*
X77947619Y13790477D02*
X77900000Y13838096D01*
X77852380Y13933334D01*
X77852380Y14171429D01*
X77900000Y14266667D01*
X77947619Y14314286D01*
X78042857Y14361905D01*
X78138095Y14361905D01*
X78280952Y14314286D01*
X78852380Y13742858D01*
X78852380Y14361905D01*
G04 #@! TO.C,C79*
X79857142Y6957143D02*
X79904761Y6909524D01*
X79952380Y6766667D01*
X79952380Y6671429D01*
X79904761Y6528572D01*
X79809523Y6433334D01*
X79714285Y6385715D01*
X79523809Y6338096D01*
X79380952Y6338096D01*
X79190476Y6385715D01*
X79095238Y6433334D01*
X79000000Y6528572D01*
X78952380Y6671429D01*
X78952380Y6766667D01*
X79000000Y6909524D01*
X79047619Y6957143D01*
X78952380Y7290477D02*
X78952380Y7957143D01*
X79952380Y7528572D01*
X79952380Y8385715D02*
X79952380Y8576191D01*
X79904761Y8671429D01*
X79857142Y8719048D01*
X79714285Y8814286D01*
X79523809Y8861905D01*
X79142857Y8861905D01*
X79047619Y8814286D01*
X79000000Y8766667D01*
X78952380Y8671429D01*
X78952380Y8480953D01*
X79000000Y8385715D01*
X79047619Y8338096D01*
X79142857Y8290477D01*
X79380952Y8290477D01*
X79476190Y8338096D01*
X79523809Y8385715D01*
X79571428Y8480953D01*
X79571428Y8671429D01*
X79523809Y8766667D01*
X79476190Y8814286D01*
X79380952Y8861905D01*
G04 #@! TO.C,C12*
X47157142Y42542858D02*
X47109523Y42495239D01*
X46966666Y42447620D01*
X46871428Y42447620D01*
X46728571Y42495239D01*
X46633333Y42590477D01*
X46585714Y42685715D01*
X46538095Y42876191D01*
X46538095Y43019048D01*
X46585714Y43209524D01*
X46633333Y43304762D01*
X46728571Y43400000D01*
X46871428Y43447620D01*
X46966666Y43447620D01*
X47109523Y43400000D01*
X47157142Y43352381D01*
X48109523Y42447620D02*
X47538095Y42447620D01*
X47823809Y42447620D02*
X47823809Y43447620D01*
X47728571Y43304762D01*
X47633333Y43209524D01*
X47538095Y43161905D01*
X48490476Y43352381D02*
X48538095Y43400000D01*
X48633333Y43447620D01*
X48871428Y43447620D01*
X48966666Y43400000D01*
X49014285Y43352381D01*
X49061904Y43257143D01*
X49061904Y43161905D01*
X49014285Y43019048D01*
X48442857Y42447620D01*
X49061904Y42447620D01*
G04 #@! TO.C,R19*
X33252380Y38257143D02*
X32776190Y37923810D01*
X33252380Y37685715D02*
X32252380Y37685715D01*
X32252380Y38066667D01*
X32300000Y38161905D01*
X32347619Y38209524D01*
X32442857Y38257143D01*
X32585714Y38257143D01*
X32680952Y38209524D01*
X32728571Y38161905D01*
X32776190Y38066667D01*
X32776190Y37685715D01*
X33252380Y39209524D02*
X33252380Y38638096D01*
X33252380Y38923810D02*
X32252380Y38923810D01*
X32395238Y38828572D01*
X32490476Y38733334D01*
X32538095Y38638096D01*
X33252380Y39685715D02*
X33252380Y39876191D01*
X33204761Y39971429D01*
X33157142Y40019048D01*
X33014285Y40114286D01*
X32823809Y40161905D01*
X32442857Y40161905D01*
X32347619Y40114286D01*
X32300000Y40066667D01*
X32252380Y39971429D01*
X32252380Y39780953D01*
X32300000Y39685715D01*
X32347619Y39638096D01*
X32442857Y39590477D01*
X32680952Y39590477D01*
X32776190Y39638096D01*
X32823809Y39685715D01*
X32871428Y39780953D01*
X32871428Y39971429D01*
X32823809Y40066667D01*
X32776190Y40114286D01*
X32680952Y40161905D01*
G04 #@! TO.C,J5*
X752380Y42866667D02*
X1466666Y42866667D01*
X1609523Y42819048D01*
X1704761Y42723810D01*
X1752380Y42580953D01*
X1752380Y42485715D01*
X752380Y43819048D02*
X752380Y43342858D01*
X1228571Y43295239D01*
X1180952Y43342858D01*
X1133333Y43438096D01*
X1133333Y43676191D01*
X1180952Y43771429D01*
X1228571Y43819048D01*
X1323809Y43866667D01*
X1561904Y43866667D01*
X1657142Y43819048D01*
X1704761Y43771429D01*
X1752380Y43676191D01*
X1752380Y43438096D01*
X1704761Y43342858D01*
X1657142Y43295239D01*
G04 #@! TO.C,J6*
X77852380Y30766667D02*
X78566666Y30766667D01*
X78709523Y30719048D01*
X78804761Y30623810D01*
X78852380Y30480953D01*
X78852380Y30385715D01*
X77852380Y31671429D02*
X77852380Y31480953D01*
X77900000Y31385715D01*
X77947619Y31338096D01*
X78090476Y31242858D01*
X78280952Y31195239D01*
X78661904Y31195239D01*
X78757142Y31242858D01*
X78804761Y31290477D01*
X78852380Y31385715D01*
X78852380Y31576191D01*
X78804761Y31671429D01*
X78757142Y31719048D01*
X78661904Y31766667D01*
X78423809Y31766667D01*
X78328571Y31719048D01*
X78280952Y31671429D01*
X78233333Y31576191D01*
X78233333Y31385715D01*
X78280952Y31290477D01*
X78328571Y31242858D01*
X78423809Y31195239D01*
G04 #@! TO.C,J7*
X952380Y54966667D02*
X1666666Y54966667D01*
X1809523Y54919048D01*
X1904761Y54823810D01*
X1952380Y54680953D01*
X1952380Y54585715D01*
X952380Y55347620D02*
X952380Y56014286D01*
X1952380Y55585715D01*
G04 #@! TO.C,J8*
X352380Y29066667D02*
X1066666Y29066667D01*
X1209523Y29019048D01*
X1304761Y28923810D01*
X1352380Y28780953D01*
X1352380Y28685715D01*
X780952Y29685715D02*
X733333Y29590477D01*
X685714Y29542858D01*
X590476Y29495239D01*
X542857Y29495239D01*
X447619Y29542858D01*
X400000Y29590477D01*
X352380Y29685715D01*
X352380Y29876191D01*
X400000Y29971429D01*
X447619Y30019048D01*
X542857Y30066667D01*
X590476Y30066667D01*
X685714Y30019048D01*
X733333Y29971429D01*
X780952Y29876191D01*
X780952Y29685715D01*
X828571Y29590477D01*
X876190Y29542858D01*
X971428Y29495239D01*
X1161904Y29495239D01*
X1257142Y29542858D01*
X1304761Y29590477D01*
X1352380Y29685715D01*
X1352380Y29876191D01*
X1304761Y29971429D01*
X1257142Y30019048D01*
X1161904Y30066667D01*
X971428Y30066667D01*
X876190Y30019048D01*
X828571Y29971429D01*
X780952Y29876191D01*
G04 #@! TO.C,J9*
X78252380Y45266667D02*
X78966666Y45266667D01*
X79109523Y45219048D01*
X79204761Y45123810D01*
X79252380Y44980953D01*
X79252380Y44885715D01*
X79252380Y45790477D02*
X79252380Y45980953D01*
X79204761Y46076191D01*
X79157142Y46123810D01*
X79014285Y46219048D01*
X78823809Y46266667D01*
X78442857Y46266667D01*
X78347619Y46219048D01*
X78300000Y46171429D01*
X78252380Y46076191D01*
X78252380Y45885715D01*
X78300000Y45790477D01*
X78347619Y45742858D01*
X78442857Y45695239D01*
X78680952Y45695239D01*
X78776190Y45742858D01*
X78823809Y45790477D01*
X78871428Y45885715D01*
X78871428Y46076191D01*
X78823809Y46171429D01*
X78776190Y46219048D01*
X78680952Y46266667D01*
G04 #@! TO.C,J3*
X1952380Y14966667D02*
X2666666Y14966667D01*
X2809523Y14919048D01*
X2904761Y14823810D01*
X2952380Y14680953D01*
X2952380Y14585715D01*
X1952380Y15347620D02*
X1952380Y15966667D01*
X2333333Y15633334D01*
X2333333Y15776191D01*
X2380952Y15871429D01*
X2428571Y15919048D01*
X2523809Y15966667D01*
X2761904Y15966667D01*
X2857142Y15919048D01*
X2904761Y15871429D01*
X2952380Y15776191D01*
X2952380Y15490477D01*
X2904761Y15395239D01*
X2857142Y15347620D01*
G04 #@! TO.C,REF\002A\002A*
X-6033334Y-4552380D02*
X-6366667Y-4076190D01*
X-6604762Y-4552380D02*
X-6604762Y-3552380D01*
X-6223810Y-3552380D01*
X-6128572Y-3600000D01*
X-6080953Y-3647619D01*
X-6033334Y-3742857D01*
X-6033334Y-3885714D01*
X-6080953Y-3980952D01*
X-6128572Y-4028571D01*
X-6223810Y-4076190D01*
X-6604762Y-4076190D01*
X-5604762Y-4028571D02*
X-5271429Y-4028571D01*
X-5128572Y-4552380D02*
X-5604762Y-4552380D01*
X-5604762Y-3552380D01*
X-5128572Y-3552380D01*
X-4366667Y-4028571D02*
X-4700000Y-4028571D01*
X-4700000Y-4552380D02*
X-4700000Y-3552380D01*
X-4223810Y-3552380D01*
X-3700000Y-3552380D02*
X-3700000Y-3790476D01*
X-3938096Y-3695238D02*
X-3700000Y-3790476D01*
X-3461905Y-3695238D01*
X-3842858Y-3980952D02*
X-3700000Y-3790476D01*
X-3557143Y-3980952D01*
X-2938096Y-3552380D02*
X-2938096Y-3790476D01*
X-3176191Y-3695238D02*
X-2938096Y-3790476D01*
X-2700000Y-3695238D01*
X-3080953Y-3980952D02*
X-2938096Y-3790476D01*
X-2795239Y-3980952D01*
X83366666Y7247620D02*
X83033333Y7723810D01*
X82795238Y7247620D02*
X82795238Y8247620D01*
X83176190Y8247620D01*
X83271428Y8200000D01*
X83319047Y8152381D01*
X83366666Y8057143D01*
X83366666Y7914286D01*
X83319047Y7819048D01*
X83271428Y7771429D01*
X83176190Y7723810D01*
X82795238Y7723810D01*
X83795238Y7771429D02*
X84128571Y7771429D01*
X84271428Y7247620D02*
X83795238Y7247620D01*
X83795238Y8247620D01*
X84271428Y8247620D01*
X85033333Y7771429D02*
X84700000Y7771429D01*
X84700000Y7247620D02*
X84700000Y8247620D01*
X85176190Y8247620D01*
X85700000Y8247620D02*
X85700000Y8009524D01*
X85461904Y8104762D02*
X85700000Y8009524D01*
X85938095Y8104762D01*
X85557142Y7819048D02*
X85700000Y8009524D01*
X85842857Y7819048D01*
X86461904Y8247620D02*
X86461904Y8009524D01*
X86223809Y8104762D02*
X86461904Y8009524D01*
X86700000Y8104762D01*
X86319047Y7819048D02*
X86461904Y8009524D01*
X86604761Y7819048D01*
G04 #@! TO.C,RV1*
X27704761Y21547620D02*
X27371428Y22023810D01*
X27133333Y21547620D02*
X27133333Y22547620D01*
X27514285Y22547620D01*
X27609523Y22500000D01*
X27657142Y22452381D01*
X27704761Y22357143D01*
X27704761Y22214286D01*
X27657142Y22119048D01*
X27609523Y22071429D01*
X27514285Y22023810D01*
X27133333Y22023810D01*
X27990476Y22547620D02*
X28323809Y21547620D01*
X28657142Y22547620D01*
X29514285Y21547620D02*
X28942857Y21547620D01*
X29228571Y21547620D02*
X29228571Y22547620D01*
X29133333Y22404762D01*
X29038095Y22309524D01*
X28942857Y22261905D01*
G04 #@! TO.C,U2*
X30838095Y17497620D02*
X30838095Y16688096D01*
X30885714Y16592858D01*
X30933333Y16545239D01*
X31028571Y16497620D01*
X31219047Y16497620D01*
X31314285Y16545239D01*
X31361904Y16592858D01*
X31409523Y16688096D01*
X31409523Y17497620D01*
X31838095Y17402381D02*
X31885714Y17450000D01*
X31980952Y17497620D01*
X32219047Y17497620D01*
X32314285Y17450000D01*
X32361904Y17402381D01*
X32409523Y17307143D01*
X32409523Y17211905D01*
X32361904Y17069048D01*
X31790476Y16497620D01*
X32409523Y16497620D01*
G04 #@! TO.C,L2*
X38733333Y22647620D02*
X38257142Y22647620D01*
X38257142Y23647620D01*
X39019047Y23552381D02*
X39066666Y23600000D01*
X39161904Y23647620D01*
X39400000Y23647620D01*
X39495238Y23600000D01*
X39542857Y23552381D01*
X39590476Y23457143D01*
X39590476Y23361905D01*
X39542857Y23219048D01*
X38971428Y22647620D01*
X39590476Y22647620D01*
G04 #@! TO.C,SW2*
X21866666Y20595239D02*
X22009523Y20547620D01*
X22247619Y20547620D01*
X22342857Y20595239D01*
X22390476Y20642858D01*
X22438095Y20738096D01*
X22438095Y20833334D01*
X22390476Y20928572D01*
X22342857Y20976191D01*
X22247619Y21023810D01*
X22057142Y21071429D01*
X21961904Y21119048D01*
X21914285Y21166667D01*
X21866666Y21261905D01*
X21866666Y21357143D01*
X21914285Y21452381D01*
X21961904Y21500000D01*
X22057142Y21547620D01*
X22295238Y21547620D01*
X22438095Y21500000D01*
X22771428Y21547620D02*
X23009523Y20547620D01*
X23200000Y21261905D01*
X23390476Y20547620D01*
X23628571Y21547620D01*
X23961904Y21452381D02*
X24009523Y21500000D01*
X24104761Y21547620D01*
X24342857Y21547620D01*
X24438095Y21500000D01*
X24485714Y21452381D01*
X24533333Y21357143D01*
X24533333Y21261905D01*
X24485714Y21119048D01*
X23914285Y20547620D01*
X24533333Y20547620D01*
G04 #@! TO.C,C2*
X49033333Y63542858D02*
X48985714Y63495239D01*
X48842857Y63447620D01*
X48747619Y63447620D01*
X48604761Y63495239D01*
X48509523Y63590477D01*
X48461904Y63685715D01*
X48414285Y63876191D01*
X48414285Y64019048D01*
X48461904Y64209524D01*
X48509523Y64304762D01*
X48604761Y64400000D01*
X48747619Y64447620D01*
X48842857Y64447620D01*
X48985714Y64400000D01*
X49033333Y64352381D01*
X49414285Y64352381D02*
X49461904Y64400000D01*
X49557142Y64447620D01*
X49795238Y64447620D01*
X49890476Y64400000D01*
X49938095Y64352381D01*
X49985714Y64257143D01*
X49985714Y64161905D01*
X49938095Y64019048D01*
X49366666Y63447620D01*
X49985714Y63447620D01*
G04 #@! TO.C,C6*
X33233333Y64842858D02*
X33185714Y64795239D01*
X33042857Y64747620D01*
X32947619Y64747620D01*
X32804761Y64795239D01*
X32709523Y64890477D01*
X32661904Y64985715D01*
X32614285Y65176191D01*
X32614285Y65319048D01*
X32661904Y65509524D01*
X32709523Y65604762D01*
X32804761Y65700000D01*
X32947619Y65747620D01*
X33042857Y65747620D01*
X33185714Y65700000D01*
X33233333Y65652381D01*
X34090476Y65747620D02*
X33900000Y65747620D01*
X33804761Y65700000D01*
X33757142Y65652381D01*
X33661904Y65509524D01*
X33614285Y65319048D01*
X33614285Y64938096D01*
X33661904Y64842858D01*
X33709523Y64795239D01*
X33804761Y64747620D01*
X33995238Y64747620D01*
X34090476Y64795239D01*
X34138095Y64842858D01*
X34185714Y64938096D01*
X34185714Y65176191D01*
X34138095Y65271429D01*
X34090476Y65319048D01*
X33995238Y65366667D01*
X33804761Y65366667D01*
X33709523Y65319048D01*
X33661904Y65271429D01*
X33614285Y65176191D01*
G04 #@! TO.C,C7*
X29157142Y46333334D02*
X29204761Y46285715D01*
X29252380Y46142858D01*
X29252380Y46047620D01*
X29204761Y45904762D01*
X29109523Y45809524D01*
X29014285Y45761905D01*
X28823809Y45714286D01*
X28680952Y45714286D01*
X28490476Y45761905D01*
X28395238Y45809524D01*
X28300000Y45904762D01*
X28252380Y46047620D01*
X28252380Y46142858D01*
X28300000Y46285715D01*
X28347619Y46333334D01*
X28252380Y46666667D02*
X28252380Y47333334D01*
X29252380Y46904762D01*
G04 #@! TO.C,C8*
X16833333Y542858D02*
X16785714Y495239D01*
X16642857Y447620D01*
X16547619Y447620D01*
X16404761Y495239D01*
X16309523Y590477D01*
X16261904Y685715D01*
X16214285Y876191D01*
X16214285Y1019048D01*
X16261904Y1209524D01*
X16309523Y1304762D01*
X16404761Y1400000D01*
X16547619Y1447620D01*
X16642857Y1447620D01*
X16785714Y1400000D01*
X16833333Y1352381D01*
X17404761Y1019048D02*
X17309523Y1066667D01*
X17261904Y1114286D01*
X17214285Y1209524D01*
X17214285Y1257143D01*
X17261904Y1352381D01*
X17309523Y1400000D01*
X17404761Y1447620D01*
X17595238Y1447620D01*
X17690476Y1400000D01*
X17738095Y1352381D01*
X17785714Y1257143D01*
X17785714Y1209524D01*
X17738095Y1114286D01*
X17690476Y1066667D01*
X17595238Y1019048D01*
X17404761Y1019048D01*
X17309523Y971429D01*
X17261904Y923810D01*
X17214285Y828572D01*
X17214285Y638096D01*
X17261904Y542858D01*
X17309523Y495239D01*
X17404761Y447620D01*
X17595238Y447620D01*
X17690476Y495239D01*
X17738095Y542858D01*
X17785714Y638096D01*
X17785714Y828572D01*
X17738095Y923810D01*
X17690476Y971429D01*
X17595238Y1019048D01*
X21399047Y10138572D02*
X22160952Y10138572D01*
X21780000Y9757620D02*
X21780000Y10519524D01*
G04 #@! TO.C,C9*
X27157142Y4333334D02*
X27204761Y4285715D01*
X27252380Y4142858D01*
X27252380Y4047620D01*
X27204761Y3904762D01*
X27109523Y3809524D01*
X27014285Y3761905D01*
X26823809Y3714286D01*
X26680952Y3714286D01*
X26490476Y3761905D01*
X26395238Y3809524D01*
X26300000Y3904762D01*
X26252380Y4047620D01*
X26252380Y4142858D01*
X26300000Y4285715D01*
X26347619Y4333334D01*
X27252380Y4809524D02*
X27252380Y5000000D01*
X27204761Y5095239D01*
X27157142Y5142858D01*
X27014285Y5238096D01*
X26823809Y5285715D01*
X26442857Y5285715D01*
X26347619Y5238096D01*
X26300000Y5190477D01*
X26252380Y5095239D01*
X26252380Y4904762D01*
X26300000Y4809524D01*
X26347619Y4761905D01*
X26442857Y4714286D01*
X26680952Y4714286D01*
X26776190Y4761905D01*
X26823809Y4809524D01*
X26871428Y4904762D01*
X26871428Y5095239D01*
X26823809Y5190477D01*
X26776190Y5238096D01*
X26680952Y5285715D01*
G04 #@! TO.C,C10*
X47157142Y43942858D02*
X47109523Y43895239D01*
X46966666Y43847620D01*
X46871428Y43847620D01*
X46728571Y43895239D01*
X46633333Y43990477D01*
X46585714Y44085715D01*
X46538095Y44276191D01*
X46538095Y44419048D01*
X46585714Y44609524D01*
X46633333Y44704762D01*
X46728571Y44800000D01*
X46871428Y44847620D01*
X46966666Y44847620D01*
X47109523Y44800000D01*
X47157142Y44752381D01*
X48109523Y43847620D02*
X47538095Y43847620D01*
X47823809Y43847620D02*
X47823809Y44847620D01*
X47728571Y44704762D01*
X47633333Y44609524D01*
X47538095Y44561905D01*
X48728571Y44847620D02*
X48823809Y44847620D01*
X48919047Y44800000D01*
X48966666Y44752381D01*
X49014285Y44657143D01*
X49061904Y44466667D01*
X49061904Y44228572D01*
X49014285Y44038096D01*
X48966666Y43942858D01*
X48919047Y43895239D01*
X48823809Y43847620D01*
X48728571Y43847620D01*
X48633333Y43895239D01*
X48585714Y43942858D01*
X48538095Y44038096D01*
X48490476Y44228572D01*
X48490476Y44466667D01*
X48538095Y44657143D01*
X48585714Y44752381D01*
X48633333Y44800000D01*
X48728571Y44847620D01*
G04 #@! TO.C,C11*
X32457142Y7142858D02*
X32409523Y7095239D01*
X32266666Y7047620D01*
X32171428Y7047620D01*
X32028571Y7095239D01*
X31933333Y7190477D01*
X31885714Y7285715D01*
X31838095Y7476191D01*
X31838095Y7619048D01*
X31885714Y7809524D01*
X31933333Y7904762D01*
X32028571Y8000000D01*
X32171428Y8047620D01*
X32266666Y8047620D01*
X32409523Y8000000D01*
X32457142Y7952381D01*
X33409523Y7047620D02*
X32838095Y7047620D01*
X33123809Y7047620D02*
X33123809Y8047620D01*
X33028571Y7904762D01*
X32933333Y7809524D01*
X32838095Y7761905D01*
X34361904Y7047620D02*
X33790476Y7047620D01*
X34076190Y7047620D02*
X34076190Y8047620D01*
X33980952Y7904762D01*
X33885714Y7809524D01*
X33790476Y7761905D01*
G04 #@! TO.C,C14*
X51657142Y57757143D02*
X51704761Y57709524D01*
X51752380Y57566667D01*
X51752380Y57471429D01*
X51704761Y57328572D01*
X51609523Y57233334D01*
X51514285Y57185715D01*
X51323809Y57138096D01*
X51180952Y57138096D01*
X50990476Y57185715D01*
X50895238Y57233334D01*
X50800000Y57328572D01*
X50752380Y57471429D01*
X50752380Y57566667D01*
X50800000Y57709524D01*
X50847619Y57757143D01*
X51752380Y58709524D02*
X51752380Y58138096D01*
X51752380Y58423810D02*
X50752380Y58423810D01*
X50895238Y58328572D01*
X50990476Y58233334D01*
X51038095Y58138096D01*
X51085714Y59566667D02*
X51752380Y59566667D01*
X50704761Y59328572D02*
X51419047Y59090477D01*
X51419047Y59709524D01*
G04 #@! TO.C,C15*
X50157142Y57757143D02*
X50204761Y57709524D01*
X50252380Y57566667D01*
X50252380Y57471429D01*
X50204761Y57328572D01*
X50109523Y57233334D01*
X50014285Y57185715D01*
X49823809Y57138096D01*
X49680952Y57138096D01*
X49490476Y57185715D01*
X49395238Y57233334D01*
X49300000Y57328572D01*
X49252380Y57471429D01*
X49252380Y57566667D01*
X49300000Y57709524D01*
X49347619Y57757143D01*
X50252380Y58709524D02*
X50252380Y58138096D01*
X50252380Y58423810D02*
X49252380Y58423810D01*
X49395238Y58328572D01*
X49490476Y58233334D01*
X49538095Y58138096D01*
X49252380Y59614286D02*
X49252380Y59138096D01*
X49728571Y59090477D01*
X49680952Y59138096D01*
X49633333Y59233334D01*
X49633333Y59471429D01*
X49680952Y59566667D01*
X49728571Y59614286D01*
X49823809Y59661905D01*
X50061904Y59661905D01*
X50157142Y59614286D01*
X50204761Y59566667D01*
X50252380Y59471429D01*
X50252380Y59233334D01*
X50204761Y59138096D01*
X50157142Y59090477D01*
G04 #@! TO.C,C16*
X33957142Y16357143D02*
X34004761Y16309524D01*
X34052380Y16166667D01*
X34052380Y16071429D01*
X34004761Y15928572D01*
X33909523Y15833334D01*
X33814285Y15785715D01*
X33623809Y15738096D01*
X33480952Y15738096D01*
X33290476Y15785715D01*
X33195238Y15833334D01*
X33100000Y15928572D01*
X33052380Y16071429D01*
X33052380Y16166667D01*
X33100000Y16309524D01*
X33147619Y16357143D01*
X34052380Y17309524D02*
X34052380Y16738096D01*
X34052380Y17023810D02*
X33052380Y17023810D01*
X33195238Y16928572D01*
X33290476Y16833334D01*
X33338095Y16738096D01*
X33052380Y18166667D02*
X33052380Y17976191D01*
X33100000Y17880953D01*
X33147619Y17833334D01*
X33290476Y17738096D01*
X33480952Y17690477D01*
X33861904Y17690477D01*
X33957142Y17738096D01*
X34004761Y17785715D01*
X34052380Y17880953D01*
X34052380Y18071429D01*
X34004761Y18166667D01*
X33957142Y18214286D01*
X33861904Y18261905D01*
X33623809Y18261905D01*
X33528571Y18214286D01*
X33480952Y18166667D01*
X33433333Y18071429D01*
X33433333Y17880953D01*
X33480952Y17785715D01*
X33528571Y17738096D01*
X33623809Y17690477D01*
G04 #@! TO.C,C17*
X31257142Y19142858D02*
X31209523Y19095239D01*
X31066666Y19047620D01*
X30971428Y19047620D01*
X30828571Y19095239D01*
X30733333Y19190477D01*
X30685714Y19285715D01*
X30638095Y19476191D01*
X30638095Y19619048D01*
X30685714Y19809524D01*
X30733333Y19904762D01*
X30828571Y20000000D01*
X30971428Y20047620D01*
X31066666Y20047620D01*
X31209523Y20000000D01*
X31257142Y19952381D01*
X32209523Y19047620D02*
X31638095Y19047620D01*
X31923809Y19047620D02*
X31923809Y20047620D01*
X31828571Y19904762D01*
X31733333Y19809524D01*
X31638095Y19761905D01*
X32542857Y20047620D02*
X33209523Y20047620D01*
X32780952Y19047620D01*
G04 #@! TO.C,C18*
X48057142Y7842858D02*
X48009523Y7795239D01*
X47866666Y7747620D01*
X47771428Y7747620D01*
X47628571Y7795239D01*
X47533333Y7890477D01*
X47485714Y7985715D01*
X47438095Y8176191D01*
X47438095Y8319048D01*
X47485714Y8509524D01*
X47533333Y8604762D01*
X47628571Y8700000D01*
X47771428Y8747620D01*
X47866666Y8747620D01*
X48009523Y8700000D01*
X48057142Y8652381D01*
X49009523Y7747620D02*
X48438095Y7747620D01*
X48723809Y7747620D02*
X48723809Y8747620D01*
X48628571Y8604762D01*
X48533333Y8509524D01*
X48438095Y8461905D01*
X49580952Y8319048D02*
X49485714Y8366667D01*
X49438095Y8414286D01*
X49390476Y8509524D01*
X49390476Y8557143D01*
X49438095Y8652381D01*
X49485714Y8700000D01*
X49580952Y8747620D01*
X49771428Y8747620D01*
X49866666Y8700000D01*
X49914285Y8652381D01*
X49961904Y8557143D01*
X49961904Y8509524D01*
X49914285Y8414286D01*
X49866666Y8366667D01*
X49771428Y8319048D01*
X49580952Y8319048D01*
X49485714Y8271429D01*
X49438095Y8223810D01*
X49390476Y8128572D01*
X49390476Y7938096D01*
X49438095Y7842858D01*
X49485714Y7795239D01*
X49580952Y7747620D01*
X49771428Y7747620D01*
X49866666Y7795239D01*
X49914285Y7842858D01*
X49961904Y7938096D01*
X49961904Y8128572D01*
X49914285Y8223810D01*
X49866666Y8271429D01*
X49771428Y8319048D01*
X46421428Y16099048D02*
X46421428Y16860953D01*
X46802380Y16480000D02*
X46040476Y16480000D01*
G04 #@! TO.C,C19*
X47757142Y17357143D02*
X47804761Y17309524D01*
X47852380Y17166667D01*
X47852380Y17071429D01*
X47804761Y16928572D01*
X47709523Y16833334D01*
X47614285Y16785715D01*
X47423809Y16738096D01*
X47280952Y16738096D01*
X47090476Y16785715D01*
X46995238Y16833334D01*
X46900000Y16928572D01*
X46852380Y17071429D01*
X46852380Y17166667D01*
X46900000Y17309524D01*
X46947619Y17357143D01*
X47852380Y18309524D02*
X47852380Y17738096D01*
X47852380Y18023810D02*
X46852380Y18023810D01*
X46995238Y17928572D01*
X47090476Y17833334D01*
X47138095Y17738096D01*
X47852380Y18785715D02*
X47852380Y18976191D01*
X47804761Y19071429D01*
X47757142Y19119048D01*
X47614285Y19214286D01*
X47423809Y19261905D01*
X47042857Y19261905D01*
X46947619Y19214286D01*
X46900000Y19166667D01*
X46852380Y19071429D01*
X46852380Y18880953D01*
X46900000Y18785715D01*
X46947619Y18738096D01*
X47042857Y18690477D01*
X47280952Y18690477D01*
X47376190Y18738096D01*
X47423809Y18785715D01*
X47471428Y18880953D01*
X47471428Y19071429D01*
X47423809Y19166667D01*
X47376190Y19214286D01*
X47280952Y19261905D01*
G04 #@! TO.C,C20*
X52857142Y10157143D02*
X52904761Y10109524D01*
X52952380Y9966667D01*
X52952380Y9871429D01*
X52904761Y9728572D01*
X52809523Y9633334D01*
X52714285Y9585715D01*
X52523809Y9538096D01*
X52380952Y9538096D01*
X52190476Y9585715D01*
X52095238Y9633334D01*
X52000000Y9728572D01*
X51952380Y9871429D01*
X51952380Y9966667D01*
X52000000Y10109524D01*
X52047619Y10157143D01*
X52047619Y10538096D02*
X52000000Y10585715D01*
X51952380Y10680953D01*
X51952380Y10919048D01*
X52000000Y11014286D01*
X52047619Y11061905D01*
X52142857Y11109524D01*
X52238095Y11109524D01*
X52380952Y11061905D01*
X52952380Y10490477D01*
X52952380Y11109524D01*
X51952380Y11728572D02*
X51952380Y11823810D01*
X52000000Y11919048D01*
X52047619Y11966667D01*
X52142857Y12014286D01*
X52333333Y12061905D01*
X52571428Y12061905D01*
X52761904Y12014286D01*
X52857142Y11966667D01*
X52904761Y11919048D01*
X52952380Y11823810D01*
X52952380Y11728572D01*
X52904761Y11633334D01*
X52857142Y11585715D01*
X52761904Y11538096D01*
X52571428Y11490477D01*
X52333333Y11490477D01*
X52142857Y11538096D01*
X52047619Y11585715D01*
X52000000Y11633334D01*
X51952380Y11728572D01*
G04 #@! TO.C,C21*
X56857142Y21257143D02*
X56904761Y21209524D01*
X56952380Y21066667D01*
X56952380Y20971429D01*
X56904761Y20828572D01*
X56809523Y20733334D01*
X56714285Y20685715D01*
X56523809Y20638096D01*
X56380952Y20638096D01*
X56190476Y20685715D01*
X56095238Y20733334D01*
X56000000Y20828572D01*
X55952380Y20971429D01*
X55952380Y21066667D01*
X56000000Y21209524D01*
X56047619Y21257143D01*
X56047619Y21638096D02*
X56000000Y21685715D01*
X55952380Y21780953D01*
X55952380Y22019048D01*
X56000000Y22114286D01*
X56047619Y22161905D01*
X56142857Y22209524D01*
X56238095Y22209524D01*
X56380952Y22161905D01*
X56952380Y21590477D01*
X56952380Y22209524D01*
X56952380Y23161905D02*
X56952380Y22590477D01*
X56952380Y22876191D02*
X55952380Y22876191D01*
X56095238Y22780953D01*
X56190476Y22685715D01*
X56238095Y22590477D01*
G04 #@! TO.C,C22*
X50957142Y23342858D02*
X50909523Y23295239D01*
X50766666Y23247620D01*
X50671428Y23247620D01*
X50528571Y23295239D01*
X50433333Y23390477D01*
X50385714Y23485715D01*
X50338095Y23676191D01*
X50338095Y23819048D01*
X50385714Y24009524D01*
X50433333Y24104762D01*
X50528571Y24200000D01*
X50671428Y24247620D01*
X50766666Y24247620D01*
X50909523Y24200000D01*
X50957142Y24152381D01*
X51338095Y24152381D02*
X51385714Y24200000D01*
X51480952Y24247620D01*
X51719047Y24247620D01*
X51814285Y24200000D01*
X51861904Y24152381D01*
X51909523Y24057143D01*
X51909523Y23961905D01*
X51861904Y23819048D01*
X51290476Y23247620D01*
X51909523Y23247620D01*
X52290476Y24152381D02*
X52338095Y24200000D01*
X52433333Y24247620D01*
X52671428Y24247620D01*
X52766666Y24200000D01*
X52814285Y24152381D01*
X52861904Y24057143D01*
X52861904Y23961905D01*
X52814285Y23819048D01*
X52242857Y23247620D01*
X52861904Y23247620D01*
X54599047Y22378572D02*
X55360952Y22378572D01*
X54980000Y21997620D02*
X54980000Y22759524D01*
G04 #@! TO.C,C23*
X45357142Y30042858D02*
X45309523Y29995239D01*
X45166666Y29947620D01*
X45071428Y29947620D01*
X44928571Y29995239D01*
X44833333Y30090477D01*
X44785714Y30185715D01*
X44738095Y30376191D01*
X44738095Y30519048D01*
X44785714Y30709524D01*
X44833333Y30804762D01*
X44928571Y30900000D01*
X45071428Y30947620D01*
X45166666Y30947620D01*
X45309523Y30900000D01*
X45357142Y30852381D01*
X45738095Y30852381D02*
X45785714Y30900000D01*
X45880952Y30947620D01*
X46119047Y30947620D01*
X46214285Y30900000D01*
X46261904Y30852381D01*
X46309523Y30757143D01*
X46309523Y30661905D01*
X46261904Y30519048D01*
X45690476Y29947620D01*
X46309523Y29947620D01*
X46642857Y30947620D02*
X47261904Y30947620D01*
X46928571Y30566667D01*
X47071428Y30566667D01*
X47166666Y30519048D01*
X47214285Y30471429D01*
X47261904Y30376191D01*
X47261904Y30138096D01*
X47214285Y30042858D01*
X47166666Y29995239D01*
X47071428Y29947620D01*
X46785714Y29947620D01*
X46690476Y29995239D01*
X46642857Y30042858D01*
G04 #@! TO.C,C25*
X42257142Y40142858D02*
X42209523Y40095239D01*
X42066666Y40047620D01*
X41971428Y40047620D01*
X41828571Y40095239D01*
X41733333Y40190477D01*
X41685714Y40285715D01*
X41638095Y40476191D01*
X41638095Y40619048D01*
X41685714Y40809524D01*
X41733333Y40904762D01*
X41828571Y41000000D01*
X41971428Y41047620D01*
X42066666Y41047620D01*
X42209523Y41000000D01*
X42257142Y40952381D01*
X42638095Y40952381D02*
X42685714Y41000000D01*
X42780952Y41047620D01*
X43019047Y41047620D01*
X43114285Y41000000D01*
X43161904Y40952381D01*
X43209523Y40857143D01*
X43209523Y40761905D01*
X43161904Y40619048D01*
X42590476Y40047620D01*
X43209523Y40047620D01*
X44114285Y41047620D02*
X43638095Y41047620D01*
X43590476Y40571429D01*
X43638095Y40619048D01*
X43733333Y40666667D01*
X43971428Y40666667D01*
X44066666Y40619048D01*
X44114285Y40571429D01*
X44161904Y40476191D01*
X44161904Y40238096D01*
X44114285Y40142858D01*
X44066666Y40095239D01*
X43971428Y40047620D01*
X43733333Y40047620D01*
X43638095Y40095239D01*
X43590476Y40142858D01*
G04 #@! TO.C,C27*
X45057142Y22942858D02*
X45009523Y22895239D01*
X44866666Y22847620D01*
X44771428Y22847620D01*
X44628571Y22895239D01*
X44533333Y22990477D01*
X44485714Y23085715D01*
X44438095Y23276191D01*
X44438095Y23419048D01*
X44485714Y23609524D01*
X44533333Y23704762D01*
X44628571Y23800000D01*
X44771428Y23847620D01*
X44866666Y23847620D01*
X45009523Y23800000D01*
X45057142Y23752381D01*
X45438095Y23752381D02*
X45485714Y23800000D01*
X45580952Y23847620D01*
X45819047Y23847620D01*
X45914285Y23800000D01*
X45961904Y23752381D01*
X46009523Y23657143D01*
X46009523Y23561905D01*
X45961904Y23419048D01*
X45390476Y22847620D01*
X46009523Y22847620D01*
X46342857Y23847620D02*
X47009523Y23847620D01*
X46580952Y22847620D01*
G04 #@! TO.C,C28*
X32257142Y32842858D02*
X32209523Y32795239D01*
X32066666Y32747620D01*
X31971428Y32747620D01*
X31828571Y32795239D01*
X31733333Y32890477D01*
X31685714Y32985715D01*
X31638095Y33176191D01*
X31638095Y33319048D01*
X31685714Y33509524D01*
X31733333Y33604762D01*
X31828571Y33700000D01*
X31971428Y33747620D01*
X32066666Y33747620D01*
X32209523Y33700000D01*
X32257142Y33652381D01*
X32638095Y33652381D02*
X32685714Y33700000D01*
X32780952Y33747620D01*
X33019047Y33747620D01*
X33114285Y33700000D01*
X33161904Y33652381D01*
X33209523Y33557143D01*
X33209523Y33461905D01*
X33161904Y33319048D01*
X32590476Y32747620D01*
X33209523Y32747620D01*
X33780952Y33319048D02*
X33685714Y33366667D01*
X33638095Y33414286D01*
X33590476Y33509524D01*
X33590476Y33557143D01*
X33638095Y33652381D01*
X33685714Y33700000D01*
X33780952Y33747620D01*
X33971428Y33747620D01*
X34066666Y33700000D01*
X34114285Y33652381D01*
X34161904Y33557143D01*
X34161904Y33509524D01*
X34114285Y33414286D01*
X34066666Y33366667D01*
X33971428Y33319048D01*
X33780952Y33319048D01*
X33685714Y33271429D01*
X33638095Y33223810D01*
X33590476Y33128572D01*
X33590476Y32938096D01*
X33638095Y32842858D01*
X33685714Y32795239D01*
X33780952Y32747620D01*
X33971428Y32747620D01*
X34066666Y32795239D01*
X34114285Y32842858D01*
X34161904Y32938096D01*
X34161904Y33128572D01*
X34114285Y33223810D01*
X34066666Y33271429D01*
X33971428Y33319048D01*
G04 #@! TO.C,C29*
X45457142Y32542858D02*
X45409523Y32495239D01*
X45266666Y32447620D01*
X45171428Y32447620D01*
X45028571Y32495239D01*
X44933333Y32590477D01*
X44885714Y32685715D01*
X44838095Y32876191D01*
X44838095Y33019048D01*
X44885714Y33209524D01*
X44933333Y33304762D01*
X45028571Y33400000D01*
X45171428Y33447620D01*
X45266666Y33447620D01*
X45409523Y33400000D01*
X45457142Y33352381D01*
X45838095Y33352381D02*
X45885714Y33400000D01*
X45980952Y33447620D01*
X46219047Y33447620D01*
X46314285Y33400000D01*
X46361904Y33352381D01*
X46409523Y33257143D01*
X46409523Y33161905D01*
X46361904Y33019048D01*
X45790476Y32447620D01*
X46409523Y32447620D01*
X46885714Y32447620D02*
X47076190Y32447620D01*
X47171428Y32495239D01*
X47219047Y32542858D01*
X47314285Y32685715D01*
X47361904Y32876191D01*
X47361904Y33257143D01*
X47314285Y33352381D01*
X47266666Y33400000D01*
X47171428Y33447620D01*
X46980952Y33447620D01*
X46885714Y33400000D01*
X46838095Y33352381D01*
X46790476Y33257143D01*
X46790476Y33019048D01*
X46838095Y32923810D01*
X46885714Y32876191D01*
X46980952Y32828572D01*
X47171428Y32828572D01*
X47266666Y32876191D01*
X47314285Y32923810D01*
X47361904Y33019048D01*
G04 #@! TO.C,C43*
X68557142Y64057143D02*
X68604761Y64009524D01*
X68652380Y63866667D01*
X68652380Y63771429D01*
X68604761Y63628572D01*
X68509523Y63533334D01*
X68414285Y63485715D01*
X68223809Y63438096D01*
X68080952Y63438096D01*
X67890476Y63485715D01*
X67795238Y63533334D01*
X67700000Y63628572D01*
X67652380Y63771429D01*
X67652380Y63866667D01*
X67700000Y64009524D01*
X67747619Y64057143D01*
X67985714Y64914286D02*
X68652380Y64914286D01*
X67604761Y64676191D02*
X68319047Y64438096D01*
X68319047Y65057143D01*
X67652380Y65342858D02*
X67652380Y65961905D01*
X68033333Y65628572D01*
X68033333Y65771429D01*
X68080952Y65866667D01*
X68128571Y65914286D01*
X68223809Y65961905D01*
X68461904Y65961905D01*
X68557142Y65914286D01*
X68604761Y65866667D01*
X68652380Y65771429D01*
X68652380Y65485715D01*
X68604761Y65390477D01*
X68557142Y65342858D01*
G04 #@! TO.C,C46*
X12357142Y48257143D02*
X12404761Y48209524D01*
X12452380Y48066667D01*
X12452380Y47971429D01*
X12404761Y47828572D01*
X12309523Y47733334D01*
X12214285Y47685715D01*
X12023809Y47638096D01*
X11880952Y47638096D01*
X11690476Y47685715D01*
X11595238Y47733334D01*
X11500000Y47828572D01*
X11452380Y47971429D01*
X11452380Y48066667D01*
X11500000Y48209524D01*
X11547619Y48257143D01*
X11785714Y49114286D02*
X12452380Y49114286D01*
X11404761Y48876191D02*
X12119047Y48638096D01*
X12119047Y49257143D01*
X11452380Y50066667D02*
X11452380Y49876191D01*
X11500000Y49780953D01*
X11547619Y49733334D01*
X11690476Y49638096D01*
X11880952Y49590477D01*
X12261904Y49590477D01*
X12357142Y49638096D01*
X12404761Y49685715D01*
X12452380Y49780953D01*
X12452380Y49971429D01*
X12404761Y50066667D01*
X12357142Y50114286D01*
X12261904Y50161905D01*
X12023809Y50161905D01*
X11928571Y50114286D01*
X11880952Y50066667D01*
X11833333Y49971429D01*
X11833333Y49780953D01*
X11880952Y49685715D01*
X11928571Y49638096D01*
X12023809Y49590477D01*
G04 #@! TO.C,C49*
X68457142Y36057143D02*
X68504761Y36009524D01*
X68552380Y35866667D01*
X68552380Y35771429D01*
X68504761Y35628572D01*
X68409523Y35533334D01*
X68314285Y35485715D01*
X68123809Y35438096D01*
X67980952Y35438096D01*
X67790476Y35485715D01*
X67695238Y35533334D01*
X67600000Y35628572D01*
X67552380Y35771429D01*
X67552380Y35866667D01*
X67600000Y36009524D01*
X67647619Y36057143D01*
X67885714Y36914286D02*
X68552380Y36914286D01*
X67504761Y36676191D02*
X68219047Y36438096D01*
X68219047Y37057143D01*
X68552380Y37485715D02*
X68552380Y37676191D01*
X68504761Y37771429D01*
X68457142Y37819048D01*
X68314285Y37914286D01*
X68123809Y37961905D01*
X67742857Y37961905D01*
X67647619Y37914286D01*
X67600000Y37866667D01*
X67552380Y37771429D01*
X67552380Y37580953D01*
X67600000Y37485715D01*
X67647619Y37438096D01*
X67742857Y37390477D01*
X67980952Y37390477D01*
X68076190Y37438096D01*
X68123809Y37485715D01*
X68171428Y37580953D01*
X68171428Y37771429D01*
X68123809Y37866667D01*
X68076190Y37914286D01*
X67980952Y37961905D01*
G04 #@! TO.C,C53*
X10157142Y63642858D02*
X10109523Y63595239D01*
X9966666Y63547620D01*
X9871428Y63547620D01*
X9728571Y63595239D01*
X9633333Y63690477D01*
X9585714Y63785715D01*
X9538095Y63976191D01*
X9538095Y64119048D01*
X9585714Y64309524D01*
X9633333Y64404762D01*
X9728571Y64500000D01*
X9871428Y64547620D01*
X9966666Y64547620D01*
X10109523Y64500000D01*
X10157142Y64452381D01*
X11061904Y64547620D02*
X10585714Y64547620D01*
X10538095Y64071429D01*
X10585714Y64119048D01*
X10680952Y64166667D01*
X10919047Y64166667D01*
X11014285Y64119048D01*
X11061904Y64071429D01*
X11109523Y63976191D01*
X11109523Y63738096D01*
X11061904Y63642858D01*
X11014285Y63595239D01*
X10919047Y63547620D01*
X10680952Y63547620D01*
X10585714Y63595239D01*
X10538095Y63642858D01*
X11442857Y64547620D02*
X12061904Y64547620D01*
X11728571Y64166667D01*
X11871428Y64166667D01*
X11966666Y64119048D01*
X12014285Y64071429D01*
X12061904Y63976191D01*
X12061904Y63738096D01*
X12014285Y63642858D01*
X11966666Y63595239D01*
X11871428Y63547620D01*
X11585714Y63547620D01*
X11490476Y63595239D01*
X11442857Y63642858D01*
G04 #@! TO.C,C55*
X71807142Y58757143D02*
X71854761Y58709524D01*
X71902380Y58566667D01*
X71902380Y58471429D01*
X71854761Y58328572D01*
X71759523Y58233334D01*
X71664285Y58185715D01*
X71473809Y58138096D01*
X71330952Y58138096D01*
X71140476Y58185715D01*
X71045238Y58233334D01*
X70950000Y58328572D01*
X70902380Y58471429D01*
X70902380Y58566667D01*
X70950000Y58709524D01*
X70997619Y58757143D01*
X70902380Y59661905D02*
X70902380Y59185715D01*
X71378571Y59138096D01*
X71330952Y59185715D01*
X71283333Y59280953D01*
X71283333Y59519048D01*
X71330952Y59614286D01*
X71378571Y59661905D01*
X71473809Y59709524D01*
X71711904Y59709524D01*
X71807142Y59661905D01*
X71854761Y59614286D01*
X71902380Y59519048D01*
X71902380Y59280953D01*
X71854761Y59185715D01*
X71807142Y59138096D01*
X70902380Y60614286D02*
X70902380Y60138096D01*
X71378571Y60090477D01*
X71330952Y60138096D01*
X71283333Y60233334D01*
X71283333Y60471429D01*
X71330952Y60566667D01*
X71378571Y60614286D01*
X71473809Y60661905D01*
X71711904Y60661905D01*
X71807142Y60614286D01*
X71854761Y60566667D01*
X71902380Y60471429D01*
X71902380Y60233334D01*
X71854761Y60138096D01*
X71807142Y60090477D01*
G04 #@! TO.C,C56*
X8907142Y53457143D02*
X8954761Y53409524D01*
X9002380Y53266667D01*
X9002380Y53171429D01*
X8954761Y53028572D01*
X8859523Y52933334D01*
X8764285Y52885715D01*
X8573809Y52838096D01*
X8430952Y52838096D01*
X8240476Y52885715D01*
X8145238Y52933334D01*
X8050000Y53028572D01*
X8002380Y53171429D01*
X8002380Y53266667D01*
X8050000Y53409524D01*
X8097619Y53457143D01*
X8002380Y54361905D02*
X8002380Y53885715D01*
X8478571Y53838096D01*
X8430952Y53885715D01*
X8383333Y53980953D01*
X8383333Y54219048D01*
X8430952Y54314286D01*
X8478571Y54361905D01*
X8573809Y54409524D01*
X8811904Y54409524D01*
X8907142Y54361905D01*
X8954761Y54314286D01*
X9002380Y54219048D01*
X9002380Y53980953D01*
X8954761Y53885715D01*
X8907142Y53838096D01*
X8002380Y55266667D02*
X8002380Y55076191D01*
X8050000Y54980953D01*
X8097619Y54933334D01*
X8240476Y54838096D01*
X8430952Y54790477D01*
X8811904Y54790477D01*
X8907142Y54838096D01*
X8954761Y54885715D01*
X9002380Y54980953D01*
X9002380Y55171429D01*
X8954761Y55266667D01*
X8907142Y55314286D01*
X8811904Y55361905D01*
X8573809Y55361905D01*
X8478571Y55314286D01*
X8430952Y55266667D01*
X8383333Y55171429D01*
X8383333Y54980953D01*
X8430952Y54885715D01*
X8478571Y54838096D01*
X8573809Y54790477D01*
G04 #@! TO.C,C57*
X71807142Y30757143D02*
X71854761Y30709524D01*
X71902380Y30566667D01*
X71902380Y30471429D01*
X71854761Y30328572D01*
X71759523Y30233334D01*
X71664285Y30185715D01*
X71473809Y30138096D01*
X71330952Y30138096D01*
X71140476Y30185715D01*
X71045238Y30233334D01*
X70950000Y30328572D01*
X70902380Y30471429D01*
X70902380Y30566667D01*
X70950000Y30709524D01*
X70997619Y30757143D01*
X70902380Y31661905D02*
X70902380Y31185715D01*
X71378571Y31138096D01*
X71330952Y31185715D01*
X71283333Y31280953D01*
X71283333Y31519048D01*
X71330952Y31614286D01*
X71378571Y31661905D01*
X71473809Y31709524D01*
X71711904Y31709524D01*
X71807142Y31661905D01*
X71854761Y31614286D01*
X71902380Y31519048D01*
X71902380Y31280953D01*
X71854761Y31185715D01*
X71807142Y31138096D01*
X70902380Y32042858D02*
X70902380Y32709524D01*
X71902380Y32280953D01*
G04 #@! TO.C,C58*
X9507142Y68057143D02*
X9554761Y68009524D01*
X9602380Y67866667D01*
X9602380Y67771429D01*
X9554761Y67628572D01*
X9459523Y67533334D01*
X9364285Y67485715D01*
X9173809Y67438096D01*
X9030952Y67438096D01*
X8840476Y67485715D01*
X8745238Y67533334D01*
X8650000Y67628572D01*
X8602380Y67771429D01*
X8602380Y67866667D01*
X8650000Y68009524D01*
X8697619Y68057143D01*
X8602380Y68961905D02*
X8602380Y68485715D01*
X9078571Y68438096D01*
X9030952Y68485715D01*
X8983333Y68580953D01*
X8983333Y68819048D01*
X9030952Y68914286D01*
X9078571Y68961905D01*
X9173809Y69009524D01*
X9411904Y69009524D01*
X9507142Y68961905D01*
X9554761Y68914286D01*
X9602380Y68819048D01*
X9602380Y68580953D01*
X9554761Y68485715D01*
X9507142Y68438096D01*
X9030952Y69580953D02*
X8983333Y69485715D01*
X8935714Y69438096D01*
X8840476Y69390477D01*
X8792857Y69390477D01*
X8697619Y69438096D01*
X8650000Y69485715D01*
X8602380Y69580953D01*
X8602380Y69771429D01*
X8650000Y69866667D01*
X8697619Y69914286D01*
X8792857Y69961905D01*
X8840476Y69961905D01*
X8935714Y69914286D01*
X8983333Y69866667D01*
X9030952Y69771429D01*
X9030952Y69580953D01*
X9078571Y69485715D01*
X9126190Y69438096D01*
X9221428Y69390477D01*
X9411904Y69390477D01*
X9507142Y69438096D01*
X9554761Y69485715D01*
X9602380Y69580953D01*
X9602380Y69771429D01*
X9554761Y69866667D01*
X9507142Y69914286D01*
X9411904Y69961905D01*
X9221428Y69961905D01*
X9126190Y69914286D01*
X9078571Y69866667D01*
X9030952Y69771429D01*
G04 #@! TO.C,C63*
X1057142Y73942858D02*
X1009523Y73895239D01*
X866666Y73847620D01*
X771428Y73847620D01*
X628571Y73895239D01*
X533333Y73990477D01*
X485714Y74085715D01*
X438095Y74276191D01*
X438095Y74419048D01*
X485714Y74609524D01*
X533333Y74704762D01*
X628571Y74800000D01*
X771428Y74847620D01*
X866666Y74847620D01*
X1009523Y74800000D01*
X1057142Y74752381D01*
X1914285Y74847620D02*
X1723809Y74847620D01*
X1628571Y74800000D01*
X1580952Y74752381D01*
X1485714Y74609524D01*
X1438095Y74419048D01*
X1438095Y74038096D01*
X1485714Y73942858D01*
X1533333Y73895239D01*
X1628571Y73847620D01*
X1819047Y73847620D01*
X1914285Y73895239D01*
X1961904Y73942858D01*
X2009523Y74038096D01*
X2009523Y74276191D01*
X1961904Y74371429D01*
X1914285Y74419048D01*
X1819047Y74466667D01*
X1628571Y74466667D01*
X1533333Y74419048D01*
X1485714Y74371429D01*
X1438095Y74276191D01*
X2342857Y74847620D02*
X2961904Y74847620D01*
X2628571Y74466667D01*
X2771428Y74466667D01*
X2866666Y74419048D01*
X2914285Y74371429D01*
X2961904Y74276191D01*
X2961904Y74038096D01*
X2914285Y73942858D01*
X2866666Y73895239D01*
X2771428Y73847620D01*
X2485714Y73847620D01*
X2390476Y73895239D01*
X2342857Y73942858D01*
G04 #@! TO.C,C64*
X3957142Y73942858D02*
X3909523Y73895239D01*
X3766666Y73847620D01*
X3671428Y73847620D01*
X3528571Y73895239D01*
X3433333Y73990477D01*
X3385714Y74085715D01*
X3338095Y74276191D01*
X3338095Y74419048D01*
X3385714Y74609524D01*
X3433333Y74704762D01*
X3528571Y74800000D01*
X3671428Y74847620D01*
X3766666Y74847620D01*
X3909523Y74800000D01*
X3957142Y74752381D01*
X4814285Y74847620D02*
X4623809Y74847620D01*
X4528571Y74800000D01*
X4480952Y74752381D01*
X4385714Y74609524D01*
X4338095Y74419048D01*
X4338095Y74038096D01*
X4385714Y73942858D01*
X4433333Y73895239D01*
X4528571Y73847620D01*
X4719047Y73847620D01*
X4814285Y73895239D01*
X4861904Y73942858D01*
X4909523Y74038096D01*
X4909523Y74276191D01*
X4861904Y74371429D01*
X4814285Y74419048D01*
X4719047Y74466667D01*
X4528571Y74466667D01*
X4433333Y74419048D01*
X4385714Y74371429D01*
X4338095Y74276191D01*
X5766666Y74514286D02*
X5766666Y73847620D01*
X5528571Y74895239D02*
X5290476Y74180953D01*
X5909523Y74180953D01*
G04 #@! TO.C,C68*
X12357142Y33957143D02*
X12404761Y33909524D01*
X12452380Y33766667D01*
X12452380Y33671429D01*
X12404761Y33528572D01*
X12309523Y33433334D01*
X12214285Y33385715D01*
X12023809Y33338096D01*
X11880952Y33338096D01*
X11690476Y33385715D01*
X11595238Y33433334D01*
X11500000Y33528572D01*
X11452380Y33671429D01*
X11452380Y33766667D01*
X11500000Y33909524D01*
X11547619Y33957143D01*
X11452380Y34814286D02*
X11452380Y34623810D01*
X11500000Y34528572D01*
X11547619Y34480953D01*
X11690476Y34385715D01*
X11880952Y34338096D01*
X12261904Y34338096D01*
X12357142Y34385715D01*
X12404761Y34433334D01*
X12452380Y34528572D01*
X12452380Y34719048D01*
X12404761Y34814286D01*
X12357142Y34861905D01*
X12261904Y34909524D01*
X12023809Y34909524D01*
X11928571Y34861905D01*
X11880952Y34814286D01*
X11833333Y34719048D01*
X11833333Y34528572D01*
X11880952Y34433334D01*
X11928571Y34385715D01*
X12023809Y34338096D01*
X11880952Y35480953D02*
X11833333Y35385715D01*
X11785714Y35338096D01*
X11690476Y35290477D01*
X11642857Y35290477D01*
X11547619Y35338096D01*
X11500000Y35385715D01*
X11452380Y35480953D01*
X11452380Y35671429D01*
X11500000Y35766667D01*
X11547619Y35814286D01*
X11642857Y35861905D01*
X11690476Y35861905D01*
X11785714Y35814286D01*
X11833333Y35766667D01*
X11880952Y35671429D01*
X11880952Y35480953D01*
X11928571Y35385715D01*
X11976190Y35338096D01*
X12071428Y35290477D01*
X12261904Y35290477D01*
X12357142Y35338096D01*
X12404761Y35385715D01*
X12452380Y35480953D01*
X12452380Y35671429D01*
X12404761Y35766667D01*
X12357142Y35814286D01*
X12261904Y35861905D01*
X12071428Y35861905D01*
X11976190Y35814286D01*
X11928571Y35766667D01*
X11880952Y35671429D01*
G04 #@! TO.C,C71*
X68657142Y49957143D02*
X68704761Y49909524D01*
X68752380Y49766667D01*
X68752380Y49671429D01*
X68704761Y49528572D01*
X68609523Y49433334D01*
X68514285Y49385715D01*
X68323809Y49338096D01*
X68180952Y49338096D01*
X67990476Y49385715D01*
X67895238Y49433334D01*
X67800000Y49528572D01*
X67752380Y49671429D01*
X67752380Y49766667D01*
X67800000Y49909524D01*
X67847619Y49957143D01*
X67752380Y50290477D02*
X67752380Y50957143D01*
X68752380Y50528572D01*
X68752380Y51861905D02*
X68752380Y51290477D01*
X68752380Y51576191D02*
X67752380Y51576191D01*
X67895238Y51480953D01*
X67990476Y51385715D01*
X68038095Y51290477D01*
G04 #@! TO.C,C73*
X8907142Y39457143D02*
X8954761Y39409524D01*
X9002380Y39266667D01*
X9002380Y39171429D01*
X8954761Y39028572D01*
X8859523Y38933334D01*
X8764285Y38885715D01*
X8573809Y38838096D01*
X8430952Y38838096D01*
X8240476Y38885715D01*
X8145238Y38933334D01*
X8050000Y39028572D01*
X8002380Y39171429D01*
X8002380Y39266667D01*
X8050000Y39409524D01*
X8097619Y39457143D01*
X8002380Y39790477D02*
X8002380Y40457143D01*
X9002380Y40028572D01*
X8002380Y40742858D02*
X8002380Y41361905D01*
X8383333Y41028572D01*
X8383333Y41171429D01*
X8430952Y41266667D01*
X8478571Y41314286D01*
X8573809Y41361905D01*
X8811904Y41361905D01*
X8907142Y41314286D01*
X8954761Y41266667D01*
X9002380Y41171429D01*
X9002380Y40885715D01*
X8954761Y40790477D01*
X8907142Y40742858D01*
G04 #@! TO.C,C74*
X71807142Y44757143D02*
X71854761Y44709524D01*
X71902380Y44566667D01*
X71902380Y44471429D01*
X71854761Y44328572D01*
X71759523Y44233334D01*
X71664285Y44185715D01*
X71473809Y44138096D01*
X71330952Y44138096D01*
X71140476Y44185715D01*
X71045238Y44233334D01*
X70950000Y44328572D01*
X70902380Y44471429D01*
X70902380Y44566667D01*
X70950000Y44709524D01*
X70997619Y44757143D01*
X70902380Y45090477D02*
X70902380Y45757143D01*
X71902380Y45328572D01*
X71235714Y46566667D02*
X71902380Y46566667D01*
X70854761Y46328572D02*
X71569047Y46090477D01*
X71569047Y46709524D01*
G04 #@! TO.C,C75*
X65557142Y15957143D02*
X65604761Y15909524D01*
X65652380Y15766667D01*
X65652380Y15671429D01*
X65604761Y15528572D01*
X65509523Y15433334D01*
X65414285Y15385715D01*
X65223809Y15338096D01*
X65080952Y15338096D01*
X64890476Y15385715D01*
X64795238Y15433334D01*
X64700000Y15528572D01*
X64652380Y15671429D01*
X64652380Y15766667D01*
X64700000Y15909524D01*
X64747619Y15957143D01*
X64652380Y16290477D02*
X64652380Y16957143D01*
X65652380Y16528572D01*
X64652380Y17814286D02*
X64652380Y17338096D01*
X65128571Y17290477D01*
X65080952Y17338096D01*
X65033333Y17433334D01*
X65033333Y17671429D01*
X65080952Y17766667D01*
X65128571Y17814286D01*
X65223809Y17861905D01*
X65461904Y17861905D01*
X65557142Y17814286D01*
X65604761Y17766667D01*
X65652380Y17671429D01*
X65652380Y17433334D01*
X65604761Y17338096D01*
X65557142Y17290477D01*
G04 #@! TO.C,C76*
X25657142Y66957143D02*
X25704761Y66909524D01*
X25752380Y66766667D01*
X25752380Y66671429D01*
X25704761Y66528572D01*
X25609523Y66433334D01*
X25514285Y66385715D01*
X25323809Y66338096D01*
X25180952Y66338096D01*
X24990476Y66385715D01*
X24895238Y66433334D01*
X24800000Y66528572D01*
X24752380Y66671429D01*
X24752380Y66766667D01*
X24800000Y66909524D01*
X24847619Y66957143D01*
X24752380Y67290477D02*
X24752380Y67957143D01*
X25752380Y67528572D01*
X24752380Y68766667D02*
X24752380Y68576191D01*
X24800000Y68480953D01*
X24847619Y68433334D01*
X24990476Y68338096D01*
X25180952Y68290477D01*
X25561904Y68290477D01*
X25657142Y68338096D01*
X25704761Y68385715D01*
X25752380Y68480953D01*
X25752380Y68671429D01*
X25704761Y68766667D01*
X25657142Y68814286D01*
X25561904Y68861905D01*
X25323809Y68861905D01*
X25228571Y68814286D01*
X25180952Y68766667D01*
X25133333Y68671429D01*
X25133333Y68480953D01*
X25180952Y68385715D01*
X25228571Y68338096D01*
X25323809Y68290477D01*
G04 #@! TO.C,C77*
X27457142Y72242858D02*
X27409523Y72195239D01*
X27266666Y72147620D01*
X27171428Y72147620D01*
X27028571Y72195239D01*
X26933333Y72290477D01*
X26885714Y72385715D01*
X26838095Y72576191D01*
X26838095Y72719048D01*
X26885714Y72909524D01*
X26933333Y73004762D01*
X27028571Y73100000D01*
X27171428Y73147620D01*
X27266666Y73147620D01*
X27409523Y73100000D01*
X27457142Y73052381D01*
X27790476Y73147620D02*
X28457142Y73147620D01*
X28028571Y72147620D01*
X28742857Y73147620D02*
X29409523Y73147620D01*
X28980952Y72147620D01*
G04 #@! TO.C,C78*
X31457142Y72242858D02*
X31409523Y72195239D01*
X31266666Y72147620D01*
X31171428Y72147620D01*
X31028571Y72195239D01*
X30933333Y72290477D01*
X30885714Y72385715D01*
X30838095Y72576191D01*
X30838095Y72719048D01*
X30885714Y72909524D01*
X30933333Y73004762D01*
X31028571Y73100000D01*
X31171428Y73147620D01*
X31266666Y73147620D01*
X31409523Y73100000D01*
X31457142Y73052381D01*
X31790476Y73147620D02*
X32457142Y73147620D01*
X32028571Y72147620D01*
X32980952Y72719048D02*
X32885714Y72766667D01*
X32838095Y72814286D01*
X32790476Y72909524D01*
X32790476Y72957143D01*
X32838095Y73052381D01*
X32885714Y73100000D01*
X32980952Y73147620D01*
X33171428Y73147620D01*
X33266666Y73100000D01*
X33314285Y73052381D01*
X33361904Y72957143D01*
X33361904Y72909524D01*
X33314285Y72814286D01*
X33266666Y72766667D01*
X33171428Y72719048D01*
X32980952Y72719048D01*
X32885714Y72671429D01*
X32838095Y72623810D01*
X32790476Y72528572D01*
X32790476Y72338096D01*
X32838095Y72242858D01*
X32885714Y72195239D01*
X32980952Y72147620D01*
X33171428Y72147620D01*
X33266666Y72195239D01*
X33314285Y72242858D01*
X33361904Y72338096D01*
X33361904Y72528572D01*
X33314285Y72623810D01*
X33266666Y72671429D01*
X33171428Y72719048D01*
G04 #@! TO.C,C80*
X70457142Y15757143D02*
X70504761Y15709524D01*
X70552380Y15566667D01*
X70552380Y15471429D01*
X70504761Y15328572D01*
X70409523Y15233334D01*
X70314285Y15185715D01*
X70123809Y15138096D01*
X69980952Y15138096D01*
X69790476Y15185715D01*
X69695238Y15233334D01*
X69600000Y15328572D01*
X69552380Y15471429D01*
X69552380Y15566667D01*
X69600000Y15709524D01*
X69647619Y15757143D01*
X69980952Y16328572D02*
X69933333Y16233334D01*
X69885714Y16185715D01*
X69790476Y16138096D01*
X69742857Y16138096D01*
X69647619Y16185715D01*
X69600000Y16233334D01*
X69552380Y16328572D01*
X69552380Y16519048D01*
X69600000Y16614286D01*
X69647619Y16661905D01*
X69742857Y16709524D01*
X69790476Y16709524D01*
X69885714Y16661905D01*
X69933333Y16614286D01*
X69980952Y16519048D01*
X69980952Y16328572D01*
X70028571Y16233334D01*
X70076190Y16185715D01*
X70171428Y16138096D01*
X70361904Y16138096D01*
X70457142Y16185715D01*
X70504761Y16233334D01*
X70552380Y16328572D01*
X70552380Y16519048D01*
X70504761Y16614286D01*
X70457142Y16661905D01*
X70361904Y16709524D01*
X70171428Y16709524D01*
X70076190Y16661905D01*
X70028571Y16614286D01*
X69980952Y16519048D01*
X69552380Y17328572D02*
X69552380Y17423810D01*
X69600000Y17519048D01*
X69647619Y17566667D01*
X69742857Y17614286D01*
X69933333Y17661905D01*
X70171428Y17661905D01*
X70361904Y17614286D01*
X70457142Y17566667D01*
X70504761Y17519048D01*
X70552380Y17423810D01*
X70552380Y17328572D01*
X70504761Y17233334D01*
X70457142Y17185715D01*
X70361904Y17138096D01*
X70171428Y17090477D01*
X69933333Y17090477D01*
X69742857Y17138096D01*
X69647619Y17185715D01*
X69600000Y17233334D01*
X69552380Y17328572D01*
G04 #@! TO.C,C81*
X75357142Y15757143D02*
X75404761Y15709524D01*
X75452380Y15566667D01*
X75452380Y15471429D01*
X75404761Y15328572D01*
X75309523Y15233334D01*
X75214285Y15185715D01*
X75023809Y15138096D01*
X74880952Y15138096D01*
X74690476Y15185715D01*
X74595238Y15233334D01*
X74500000Y15328572D01*
X74452380Y15471429D01*
X74452380Y15566667D01*
X74500000Y15709524D01*
X74547619Y15757143D01*
X74880952Y16328572D02*
X74833333Y16233334D01*
X74785714Y16185715D01*
X74690476Y16138096D01*
X74642857Y16138096D01*
X74547619Y16185715D01*
X74500000Y16233334D01*
X74452380Y16328572D01*
X74452380Y16519048D01*
X74500000Y16614286D01*
X74547619Y16661905D01*
X74642857Y16709524D01*
X74690476Y16709524D01*
X74785714Y16661905D01*
X74833333Y16614286D01*
X74880952Y16519048D01*
X74880952Y16328572D01*
X74928571Y16233334D01*
X74976190Y16185715D01*
X75071428Y16138096D01*
X75261904Y16138096D01*
X75357142Y16185715D01*
X75404761Y16233334D01*
X75452380Y16328572D01*
X75452380Y16519048D01*
X75404761Y16614286D01*
X75357142Y16661905D01*
X75261904Y16709524D01*
X75071428Y16709524D01*
X74976190Y16661905D01*
X74928571Y16614286D01*
X74880952Y16519048D01*
X75452380Y17661905D02*
X75452380Y17090477D01*
X75452380Y17376191D02*
X74452380Y17376191D01*
X74595238Y17280953D01*
X74690476Y17185715D01*
X74738095Y17090477D01*
G04 #@! TO.C,C82*
X76457142Y6957143D02*
X76504761Y6909524D01*
X76552380Y6766667D01*
X76552380Y6671429D01*
X76504761Y6528572D01*
X76409523Y6433334D01*
X76314285Y6385715D01*
X76123809Y6338096D01*
X75980952Y6338096D01*
X75790476Y6385715D01*
X75695238Y6433334D01*
X75600000Y6528572D01*
X75552380Y6671429D01*
X75552380Y6766667D01*
X75600000Y6909524D01*
X75647619Y6957143D01*
X75980952Y7528572D02*
X75933333Y7433334D01*
X75885714Y7385715D01*
X75790476Y7338096D01*
X75742857Y7338096D01*
X75647619Y7385715D01*
X75600000Y7433334D01*
X75552380Y7528572D01*
X75552380Y7719048D01*
X75600000Y7814286D01*
X75647619Y7861905D01*
X75742857Y7909524D01*
X75790476Y7909524D01*
X75885714Y7861905D01*
X75933333Y7814286D01*
X75980952Y7719048D01*
X75980952Y7528572D01*
X76028571Y7433334D01*
X76076190Y7385715D01*
X76171428Y7338096D01*
X76361904Y7338096D01*
X76457142Y7385715D01*
X76504761Y7433334D01*
X76552380Y7528572D01*
X76552380Y7719048D01*
X76504761Y7814286D01*
X76457142Y7861905D01*
X76361904Y7909524D01*
X76171428Y7909524D01*
X76076190Y7861905D01*
X76028571Y7814286D01*
X75980952Y7719048D01*
X75647619Y8290477D02*
X75600000Y8338096D01*
X75552380Y8433334D01*
X75552380Y8671429D01*
X75600000Y8766667D01*
X75647619Y8814286D01*
X75742857Y8861905D01*
X75838095Y8861905D01*
X75980952Y8814286D01*
X76552380Y8242858D01*
X76552380Y8861905D01*
G04 #@! TO.C,C85*
X16757142Y71442858D02*
X16709523Y71395239D01*
X16566666Y71347620D01*
X16471428Y71347620D01*
X16328571Y71395239D01*
X16233333Y71490477D01*
X16185714Y71585715D01*
X16138095Y71776191D01*
X16138095Y71919048D01*
X16185714Y72109524D01*
X16233333Y72204762D01*
X16328571Y72300000D01*
X16471428Y72347620D01*
X16566666Y72347620D01*
X16709523Y72300000D01*
X16757142Y72252381D01*
X17328571Y71919048D02*
X17233333Y71966667D01*
X17185714Y72014286D01*
X17138095Y72109524D01*
X17138095Y72157143D01*
X17185714Y72252381D01*
X17233333Y72300000D01*
X17328571Y72347620D01*
X17519047Y72347620D01*
X17614285Y72300000D01*
X17661904Y72252381D01*
X17709523Y72157143D01*
X17709523Y72109524D01*
X17661904Y72014286D01*
X17614285Y71966667D01*
X17519047Y71919048D01*
X17328571Y71919048D01*
X17233333Y71871429D01*
X17185714Y71823810D01*
X17138095Y71728572D01*
X17138095Y71538096D01*
X17185714Y71442858D01*
X17233333Y71395239D01*
X17328571Y71347620D01*
X17519047Y71347620D01*
X17614285Y71395239D01*
X17661904Y71442858D01*
X17709523Y71538096D01*
X17709523Y71728572D01*
X17661904Y71823810D01*
X17614285Y71871429D01*
X17519047Y71919048D01*
X18614285Y72347620D02*
X18138095Y72347620D01*
X18090476Y71871429D01*
X18138095Y71919048D01*
X18233333Y71966667D01*
X18471428Y71966667D01*
X18566666Y71919048D01*
X18614285Y71871429D01*
X18661904Y71776191D01*
X18661904Y71538096D01*
X18614285Y71442858D01*
X18566666Y71395239D01*
X18471428Y71347620D01*
X18233333Y71347620D01*
X18138095Y71395239D01*
X18090476Y71442858D01*
X6239047Y71518572D02*
X7000952Y71518572D01*
X6620000Y71137620D02*
X6620000Y71899524D01*
G04 #@! TO.C,C86*
X74757142Y71142858D02*
X74709523Y71095239D01*
X74566666Y71047620D01*
X74471428Y71047620D01*
X74328571Y71095239D01*
X74233333Y71190477D01*
X74185714Y71285715D01*
X74138095Y71476191D01*
X74138095Y71619048D01*
X74185714Y71809524D01*
X74233333Y71904762D01*
X74328571Y72000000D01*
X74471428Y72047620D01*
X74566666Y72047620D01*
X74709523Y72000000D01*
X74757142Y71952381D01*
X75328571Y71619048D02*
X75233333Y71666667D01*
X75185714Y71714286D01*
X75138095Y71809524D01*
X75138095Y71857143D01*
X75185714Y71952381D01*
X75233333Y72000000D01*
X75328571Y72047620D01*
X75519047Y72047620D01*
X75614285Y72000000D01*
X75661904Y71952381D01*
X75709523Y71857143D01*
X75709523Y71809524D01*
X75661904Y71714286D01*
X75614285Y71666667D01*
X75519047Y71619048D01*
X75328571Y71619048D01*
X75233333Y71571429D01*
X75185714Y71523810D01*
X75138095Y71428572D01*
X75138095Y71238096D01*
X75185714Y71142858D01*
X75233333Y71095239D01*
X75328571Y71047620D01*
X75519047Y71047620D01*
X75614285Y71095239D01*
X75661904Y71142858D01*
X75709523Y71238096D01*
X75709523Y71428572D01*
X75661904Y71523810D01*
X75614285Y71571429D01*
X75519047Y71619048D01*
X76566666Y72047620D02*
X76376190Y72047620D01*
X76280952Y72000000D01*
X76233333Y71952381D01*
X76138095Y71809524D01*
X76090476Y71619048D01*
X76090476Y71238096D01*
X76138095Y71142858D01*
X76185714Y71095239D01*
X76280952Y71047620D01*
X76471428Y71047620D01*
X76566666Y71095239D01*
X76614285Y71142858D01*
X76661904Y71238096D01*
X76661904Y71476191D01*
X76614285Y71571429D01*
X76566666Y71619048D01*
X76471428Y71666667D01*
X76280952Y71666667D01*
X76185714Y71619048D01*
X76138095Y71571429D01*
X76090476Y71476191D01*
X72899047Y79038572D02*
X73660952Y79038572D01*
X73280000Y78657620D02*
X73280000Y79419524D01*
G04 #@! TO.C,D1*
X29352380Y12361905D02*
X28352380Y12361905D01*
X28352380Y12600000D01*
X28400000Y12742858D01*
X28495238Y12838096D01*
X28590476Y12885715D01*
X28780952Y12933334D01*
X28923809Y12933334D01*
X29114285Y12885715D01*
X29209523Y12838096D01*
X29304761Y12742858D01*
X29352380Y12600000D01*
X29352380Y12361905D01*
X29352380Y13885715D02*
X29352380Y13314286D01*
X29352380Y13600000D02*
X28352380Y13600000D01*
X28495238Y13504762D01*
X28590476Y13409524D01*
X28638095Y13314286D01*
G04 #@! TO.C,D2*
X26888904Y7942620D02*
X26888904Y8942620D01*
X27127000Y8942620D01*
X27269857Y8895000D01*
X27365095Y8799762D01*
X27412714Y8704524D01*
X27460333Y8514048D01*
X27460333Y8371191D01*
X27412714Y8180715D01*
X27365095Y8085477D01*
X27269857Y7990239D01*
X27127000Y7942620D01*
X26888904Y7942620D01*
X27841285Y8847381D02*
X27888904Y8895000D01*
X27984142Y8942620D01*
X28222238Y8942620D01*
X28317476Y8895000D01*
X28365095Y8847381D01*
X28412714Y8752143D01*
X28412714Y8656905D01*
X28365095Y8514048D01*
X27793666Y7942620D01*
X28412714Y7942620D01*
G04 #@! TO.C,D3*
X38961904Y7547620D02*
X38961904Y8547620D01*
X39200000Y8547620D01*
X39342857Y8500000D01*
X39438095Y8404762D01*
X39485714Y8309524D01*
X39533333Y8119048D01*
X39533333Y7976191D01*
X39485714Y7785715D01*
X39438095Y7690477D01*
X39342857Y7595239D01*
X39200000Y7547620D01*
X38961904Y7547620D01*
X39866666Y8547620D02*
X40485714Y8547620D01*
X40152380Y8166667D01*
X40295238Y8166667D01*
X40390476Y8119048D01*
X40438095Y8071429D01*
X40485714Y7976191D01*
X40485714Y7738096D01*
X40438095Y7642858D01*
X40390476Y7595239D01*
X40295238Y7547620D01*
X40009523Y7547620D01*
X39914285Y7595239D01*
X39866666Y7642858D01*
G04 #@! TO.C,D4*
X35352380Y13061905D02*
X34352380Y13061905D01*
X34352380Y13300000D01*
X34400000Y13442858D01*
X34495238Y13538096D01*
X34590476Y13585715D01*
X34780952Y13633334D01*
X34923809Y13633334D01*
X35114285Y13585715D01*
X35209523Y13538096D01*
X35304761Y13442858D01*
X35352380Y13300000D01*
X35352380Y13061905D01*
X34685714Y14490477D02*
X35352380Y14490477D01*
X34304761Y14252381D02*
X35019047Y14014286D01*
X35019047Y14633334D01*
G04 #@! TO.C,D5*
X34961904Y20747620D02*
X34961904Y21747620D01*
X35200000Y21747620D01*
X35342857Y21700000D01*
X35438095Y21604762D01*
X35485714Y21509524D01*
X35533333Y21319048D01*
X35533333Y21176191D01*
X35485714Y20985715D01*
X35438095Y20890477D01*
X35342857Y20795239D01*
X35200000Y20747620D01*
X34961904Y20747620D01*
X36438095Y21747620D02*
X35961904Y21747620D01*
X35914285Y21271429D01*
X35961904Y21319048D01*
X36057142Y21366667D01*
X36295238Y21366667D01*
X36390476Y21319048D01*
X36438095Y21271429D01*
X36485714Y21176191D01*
X36485714Y20938096D01*
X36438095Y20842858D01*
X36390476Y20795239D01*
X36295238Y20747620D01*
X36057142Y20747620D01*
X35961904Y20795239D01*
X35914285Y20842858D01*
G04 #@! TO.C,D6*
X59152380Y12011905D02*
X58152380Y12011905D01*
X58152380Y12250000D01*
X58200000Y12392858D01*
X58295238Y12488096D01*
X58390476Y12535715D01*
X58580952Y12583334D01*
X58723809Y12583334D01*
X58914285Y12535715D01*
X59009523Y12488096D01*
X59104761Y12392858D01*
X59152380Y12250000D01*
X59152380Y12011905D01*
X58152380Y13440477D02*
X58152380Y13250000D01*
X58200000Y13154762D01*
X58247619Y13107143D01*
X58390476Y13011905D01*
X58580952Y12964286D01*
X58961904Y12964286D01*
X59057142Y13011905D01*
X59104761Y13059524D01*
X59152380Y13154762D01*
X59152380Y13345239D01*
X59104761Y13440477D01*
X59057142Y13488096D01*
X58961904Y13535715D01*
X58723809Y13535715D01*
X58628571Y13488096D01*
X58580952Y13440477D01*
X58533333Y13345239D01*
X58533333Y13154762D01*
X58580952Y13059524D01*
X58628571Y13011905D01*
X58723809Y12964286D01*
G04 #@! TO.C,D7*
X45552380Y6861905D02*
X44552380Y6861905D01*
X44552380Y7100000D01*
X44600000Y7242858D01*
X44695238Y7338096D01*
X44790476Y7385715D01*
X44980952Y7433334D01*
X45123809Y7433334D01*
X45314285Y7385715D01*
X45409523Y7338096D01*
X45504761Y7242858D01*
X45552380Y7100000D01*
X45552380Y6861905D01*
X44552380Y7766667D02*
X44552380Y8433334D01*
X45552380Y8004762D01*
G04 #@! TO.C,D8*
X59952380Y17361905D02*
X58952380Y17361905D01*
X58952380Y17600000D01*
X59000000Y17742858D01*
X59095238Y17838096D01*
X59190476Y17885715D01*
X59380952Y17933334D01*
X59523809Y17933334D01*
X59714285Y17885715D01*
X59809523Y17838096D01*
X59904761Y17742858D01*
X59952380Y17600000D01*
X59952380Y17361905D01*
X59380952Y18504762D02*
X59333333Y18409524D01*
X59285714Y18361905D01*
X59190476Y18314286D01*
X59142857Y18314286D01*
X59047619Y18361905D01*
X59000000Y18409524D01*
X58952380Y18504762D01*
X58952380Y18695239D01*
X59000000Y18790477D01*
X59047619Y18838096D01*
X59142857Y18885715D01*
X59190476Y18885715D01*
X59285714Y18838096D01*
X59333333Y18790477D01*
X59380952Y18695239D01*
X59380952Y18504762D01*
X59428571Y18409524D01*
X59476190Y18361905D01*
X59571428Y18314286D01*
X59761904Y18314286D01*
X59857142Y18361905D01*
X59904761Y18409524D01*
X59952380Y18504762D01*
X59952380Y18695239D01*
X59904761Y18790477D01*
X59857142Y18838096D01*
X59761904Y18885715D01*
X59571428Y18885715D01*
X59476190Y18838096D01*
X59428571Y18790477D01*
X59380952Y18695239D01*
G04 #@! TO.C,FET1*
X62133333Y58771429D02*
X61800000Y58771429D01*
X61800000Y58247620D02*
X61800000Y59247620D01*
X62276190Y59247620D01*
X62657142Y58771429D02*
X62990476Y58771429D01*
X63133333Y58247620D02*
X62657142Y58247620D01*
X62657142Y59247620D01*
X63133333Y59247620D01*
X63419047Y59247620D02*
X63990476Y59247620D01*
X63704761Y58247620D02*
X63704761Y59247620D01*
X64847619Y58247620D02*
X64276190Y58247620D01*
X64561904Y58247620D02*
X64561904Y59247620D01*
X64466666Y59104762D01*
X64371428Y59009524D01*
X64276190Y58961905D01*
G04 #@! TO.C,FET2*
X61233333Y70771429D02*
X60900000Y70771429D01*
X60900000Y70247620D02*
X60900000Y71247620D01*
X61376190Y71247620D01*
X61757142Y70771429D02*
X62090476Y70771429D01*
X62233333Y70247620D02*
X61757142Y70247620D01*
X61757142Y71247620D01*
X62233333Y71247620D01*
X62519047Y71247620D02*
X63090476Y71247620D01*
X62804761Y70247620D02*
X62804761Y71247620D01*
X63376190Y71152381D02*
X63423809Y71200000D01*
X63519047Y71247620D01*
X63757142Y71247620D01*
X63852380Y71200000D01*
X63900000Y71152381D01*
X63947619Y71057143D01*
X63947619Y70961905D01*
X63900000Y70819048D01*
X63328571Y70247620D01*
X63947619Y70247620D01*
G04 #@! TO.C,FET3*
X15533333Y54771429D02*
X15200000Y54771429D01*
X15200000Y54247620D02*
X15200000Y55247620D01*
X15676190Y55247620D01*
X16057142Y54771429D02*
X16390476Y54771429D01*
X16533333Y54247620D02*
X16057142Y54247620D01*
X16057142Y55247620D01*
X16533333Y55247620D01*
X16819047Y55247620D02*
X17390476Y55247620D01*
X17104761Y54247620D02*
X17104761Y55247620D01*
X17628571Y55247620D02*
X18247619Y55247620D01*
X17914285Y54866667D01*
X18057142Y54866667D01*
X18152380Y54819048D01*
X18200000Y54771429D01*
X18247619Y54676191D01*
X18247619Y54438096D01*
X18200000Y54342858D01*
X18152380Y54295239D01*
X18057142Y54247620D01*
X17771428Y54247620D01*
X17676190Y54295239D01*
X17628571Y54342858D01*
G04 #@! TO.C,FET4*
X15633333Y42871429D02*
X15300000Y42871429D01*
X15300000Y42347620D02*
X15300000Y43347620D01*
X15776190Y43347620D01*
X16157142Y42871429D02*
X16490476Y42871429D01*
X16633333Y42347620D02*
X16157142Y42347620D01*
X16157142Y43347620D01*
X16633333Y43347620D01*
X16919047Y43347620D02*
X17490476Y43347620D01*
X17204761Y42347620D02*
X17204761Y43347620D01*
X18252380Y43014286D02*
X18252380Y42347620D01*
X18014285Y43395239D02*
X17776190Y42680953D01*
X18395238Y42680953D01*
G04 #@! TO.C,FET5*
X62333333Y29871429D02*
X62000000Y29871429D01*
X62000000Y29347620D02*
X62000000Y30347620D01*
X62476190Y30347620D01*
X62857142Y29871429D02*
X63190476Y29871429D01*
X63333333Y29347620D02*
X62857142Y29347620D01*
X62857142Y30347620D01*
X63333333Y30347620D01*
X63619047Y30347620D02*
X64190476Y30347620D01*
X63904761Y29347620D02*
X63904761Y30347620D01*
X65000000Y30347620D02*
X64523809Y30347620D01*
X64476190Y29871429D01*
X64523809Y29919048D01*
X64619047Y29966667D01*
X64857142Y29966667D01*
X64952380Y29919048D01*
X65000000Y29871429D01*
X65047619Y29776191D01*
X65047619Y29538096D01*
X65000000Y29442858D01*
X64952380Y29395239D01*
X64857142Y29347620D01*
X64619047Y29347620D01*
X64523809Y29395239D01*
X64476190Y29442858D01*
G04 #@! TO.C,FET6*
X62133333Y42571429D02*
X61800000Y42571429D01*
X61800000Y42047620D02*
X61800000Y43047620D01*
X62276190Y43047620D01*
X62657142Y42571429D02*
X62990476Y42571429D01*
X63133333Y42047620D02*
X62657142Y42047620D01*
X62657142Y43047620D01*
X63133333Y43047620D01*
X63419047Y43047620D02*
X63990476Y43047620D01*
X63704761Y42047620D02*
X63704761Y43047620D01*
X64752380Y43047620D02*
X64561904Y43047620D01*
X64466666Y43000000D01*
X64419047Y42952381D01*
X64323809Y42809524D01*
X64276190Y42619048D01*
X64276190Y42238096D01*
X64323809Y42142858D01*
X64371428Y42095239D01*
X64466666Y42047620D01*
X64657142Y42047620D01*
X64752380Y42095239D01*
X64800000Y42142858D01*
X64847619Y42238096D01*
X64847619Y42476191D01*
X64800000Y42571429D01*
X64752380Y42619048D01*
X64657142Y42666667D01*
X64466666Y42666667D01*
X64371428Y42619048D01*
X64323809Y42571429D01*
X64276190Y42476191D01*
G04 #@! TO.C,FET7*
X15533333Y69471429D02*
X15200000Y69471429D01*
X15200000Y68947620D02*
X15200000Y69947620D01*
X15676190Y69947620D01*
X16057142Y69471429D02*
X16390476Y69471429D01*
X16533333Y68947620D02*
X16057142Y68947620D01*
X16057142Y69947620D01*
X16533333Y69947620D01*
X16819047Y69947620D02*
X17390476Y69947620D01*
X17104761Y68947620D02*
X17104761Y69947620D01*
X17628571Y69947620D02*
X18295238Y69947620D01*
X17866666Y68947620D01*
G04 #@! TO.C,FET8*
X15633333Y57471429D02*
X15300000Y57471429D01*
X15300000Y56947620D02*
X15300000Y57947620D01*
X15776190Y57947620D01*
X16157142Y57471429D02*
X16490476Y57471429D01*
X16633333Y56947620D02*
X16157142Y56947620D01*
X16157142Y57947620D01*
X16633333Y57947620D01*
X16919047Y57947620D02*
X17490476Y57947620D01*
X17204761Y56947620D02*
X17204761Y57947620D01*
X17966666Y57519048D02*
X17871428Y57566667D01*
X17823809Y57614286D01*
X17776190Y57709524D01*
X17776190Y57757143D01*
X17823809Y57852381D01*
X17871428Y57900000D01*
X17966666Y57947620D01*
X18157142Y57947620D01*
X18252380Y57900000D01*
X18300000Y57852381D01*
X18347619Y57757143D01*
X18347619Y57709524D01*
X18300000Y57614286D01*
X18252380Y57566667D01*
X18157142Y57519048D01*
X17966666Y57519048D01*
X17871428Y57471429D01*
X17823809Y57423810D01*
X17776190Y57328572D01*
X17776190Y57138096D01*
X17823809Y57042858D01*
X17871428Y56995239D01*
X17966666Y56947620D01*
X18157142Y56947620D01*
X18252380Y56995239D01*
X18300000Y57042858D01*
X18347619Y57138096D01*
X18347619Y57328572D01*
X18300000Y57423810D01*
X18252380Y57471429D01*
X18157142Y57519048D01*
G04 #@! TO.C,FET9*
X15633333Y40871429D02*
X15300000Y40871429D01*
X15300000Y40347620D02*
X15300000Y41347620D01*
X15776190Y41347620D01*
X16157142Y40871429D02*
X16490476Y40871429D01*
X16633333Y40347620D02*
X16157142Y40347620D01*
X16157142Y41347620D01*
X16633333Y41347620D01*
X16919047Y41347620D02*
X17490476Y41347620D01*
X17204761Y40347620D02*
X17204761Y41347620D01*
X17871428Y40347620D02*
X18061904Y40347620D01*
X18157142Y40395239D01*
X18204761Y40442858D01*
X18300000Y40585715D01*
X18347619Y40776191D01*
X18347619Y41157143D01*
X18300000Y41252381D01*
X18252380Y41300000D01*
X18157142Y41347620D01*
X17966666Y41347620D01*
X17871428Y41300000D01*
X17823809Y41252381D01*
X17776190Y41157143D01*
X17776190Y40919048D01*
X17823809Y40823810D01*
X17871428Y40776191D01*
X17966666Y40728572D01*
X18157142Y40728572D01*
X18252380Y40776191D01*
X18300000Y40823810D01*
X18347619Y40919048D01*
G04 #@! TO.C,FET10*
X15157142Y28871429D02*
X14823809Y28871429D01*
X14823809Y28347620D02*
X14823809Y29347620D01*
X15300000Y29347620D01*
X15680952Y28871429D02*
X16014285Y28871429D01*
X16157142Y28347620D02*
X15680952Y28347620D01*
X15680952Y29347620D01*
X16157142Y29347620D01*
X16442857Y29347620D02*
X17014285Y29347620D01*
X16728571Y28347620D02*
X16728571Y29347620D01*
X17871428Y28347620D02*
X17300000Y28347620D01*
X17585714Y28347620D02*
X17585714Y29347620D01*
X17490476Y29204762D01*
X17395238Y29109524D01*
X17300000Y29061905D01*
X18490476Y29347620D02*
X18585714Y29347620D01*
X18680952Y29300000D01*
X18728571Y29252381D01*
X18776190Y29157143D01*
X18823809Y28966667D01*
X18823809Y28728572D01*
X18776190Y28538096D01*
X18728571Y28442858D01*
X18680952Y28395239D01*
X18585714Y28347620D01*
X18490476Y28347620D01*
X18395238Y28395239D01*
X18347619Y28442858D01*
X18300000Y28538096D01*
X18252380Y28728572D01*
X18252380Y28966667D01*
X18300000Y29157143D01*
X18347619Y29252381D01*
X18395238Y29300000D01*
X18490476Y29347620D01*
G04 #@! TO.C,FET11*
X61857142Y44671429D02*
X61523809Y44671429D01*
X61523809Y44147620D02*
X61523809Y45147620D01*
X62000000Y45147620D01*
X62380952Y44671429D02*
X62714285Y44671429D01*
X62857142Y44147620D02*
X62380952Y44147620D01*
X62380952Y45147620D01*
X62857142Y45147620D01*
X63142857Y45147620D02*
X63714285Y45147620D01*
X63428571Y44147620D02*
X63428571Y45147620D01*
X64571428Y44147620D02*
X64000000Y44147620D01*
X64285714Y44147620D02*
X64285714Y45147620D01*
X64190476Y45004762D01*
X64095238Y44909524D01*
X64000000Y44861905D01*
X65523809Y44147620D02*
X64952380Y44147620D01*
X65238095Y44147620D02*
X65238095Y45147620D01*
X65142857Y45004762D01*
X65047619Y44909524D01*
X64952380Y44861905D01*
G04 #@! TO.C,FET12*
X61557142Y56671429D02*
X61223809Y56671429D01*
X61223809Y56147620D02*
X61223809Y57147620D01*
X61700000Y57147620D01*
X62080952Y56671429D02*
X62414285Y56671429D01*
X62557142Y56147620D02*
X62080952Y56147620D01*
X62080952Y57147620D01*
X62557142Y57147620D01*
X62842857Y57147620D02*
X63414285Y57147620D01*
X63128571Y56147620D02*
X63128571Y57147620D01*
X64271428Y56147620D02*
X63700000Y56147620D01*
X63985714Y56147620D02*
X63985714Y57147620D01*
X63890476Y57004762D01*
X63795238Y56909524D01*
X63700000Y56861905D01*
X64652380Y57052381D02*
X64700000Y57100000D01*
X64795238Y57147620D01*
X65033333Y57147620D01*
X65128571Y57100000D01*
X65176190Y57052381D01*
X65223809Y56957143D01*
X65223809Y56861905D01*
X65176190Y56719048D01*
X64604761Y56147620D01*
X65223809Y56147620D01*
G04 #@! TO.C,J1*
X52552380Y70566667D02*
X53266666Y70566667D01*
X53409523Y70519048D01*
X53504761Y70423810D01*
X53552380Y70280953D01*
X53552380Y70185715D01*
X53552380Y71566667D02*
X53552380Y70995239D01*
X53552380Y71280953D02*
X52552380Y71280953D01*
X52695238Y71185715D01*
X52790476Y71090477D01*
X52838095Y70995239D01*
G04 #@! TO.C,J2*
X58052380Y72166667D02*
X58766666Y72166667D01*
X58909523Y72119048D01*
X59004761Y72023810D01*
X59052380Y71880953D01*
X59052380Y71785715D01*
X58147619Y72595239D02*
X58100000Y72642858D01*
X58052380Y72738096D01*
X58052380Y72976191D01*
X58100000Y73071429D01*
X58147619Y73119048D01*
X58242857Y73166667D01*
X58338095Y73166667D01*
X58480952Y73119048D01*
X59052380Y72547620D01*
X59052380Y73166667D01*
G04 #@! TO.C,J10*
X10290476Y28947620D02*
X10290476Y28233334D01*
X10242857Y28090477D01*
X10147619Y27995239D01*
X10004761Y27947620D01*
X9909523Y27947620D01*
X11290476Y27947620D02*
X10719047Y27947620D01*
X11004761Y27947620D02*
X11004761Y28947620D01*
X10909523Y28804762D01*
X10814285Y28709524D01*
X10719047Y28661905D01*
X11909523Y28947620D02*
X12004761Y28947620D01*
X12100000Y28900000D01*
X12147619Y28852381D01*
X12195238Y28757143D01*
X12242857Y28566667D01*
X12242857Y28328572D01*
X12195238Y28138096D01*
X12147619Y28042858D01*
X12100000Y27995239D01*
X12004761Y27947620D01*
X11909523Y27947620D01*
X11814285Y27995239D01*
X11766666Y28042858D01*
X11719047Y28138096D01*
X11671428Y28328572D01*
X11671428Y28566667D01*
X11719047Y28757143D01*
X11766666Y28852381D01*
X11814285Y28900000D01*
X11909523Y28947620D01*
G04 #@! TO.C,J11*
X2790476Y29147620D02*
X2790476Y28433334D01*
X2742857Y28290477D01*
X2647619Y28195239D01*
X2504761Y28147620D01*
X2409523Y28147620D01*
X3790476Y28147620D02*
X3219047Y28147620D01*
X3504761Y28147620D02*
X3504761Y29147620D01*
X3409523Y29004762D01*
X3314285Y28909524D01*
X3219047Y28861905D01*
X4742857Y28147620D02*
X4171428Y28147620D01*
X4457142Y28147620D02*
X4457142Y29147620D01*
X4361904Y29004762D01*
X4266666Y28909524D01*
X4171428Y28861905D01*
G04 #@! TO.C,J12*
X67590476Y25547620D02*
X67590476Y24833334D01*
X67542857Y24690477D01*
X67447619Y24595239D01*
X67304761Y24547620D01*
X67209523Y24547620D01*
X68590476Y24547620D02*
X68019047Y24547620D01*
X68304761Y24547620D02*
X68304761Y25547620D01*
X68209523Y25404762D01*
X68114285Y25309524D01*
X68019047Y25261905D01*
X68971428Y25452381D02*
X69019047Y25500000D01*
X69114285Y25547620D01*
X69352380Y25547620D01*
X69447619Y25500000D01*
X69495238Y25452381D01*
X69542857Y25357143D01*
X69542857Y25261905D01*
X69495238Y25119048D01*
X68923809Y24547620D01*
X69542857Y24547620D01*
G04 #@! TO.C,J14*
X72990476Y25547620D02*
X72990476Y24833334D01*
X72942857Y24690477D01*
X72847619Y24595239D01*
X72704761Y24547620D01*
X72609523Y24547620D01*
X73990476Y24547620D02*
X73419047Y24547620D01*
X73704761Y24547620D02*
X73704761Y25547620D01*
X73609523Y25404762D01*
X73514285Y25309524D01*
X73419047Y25261905D01*
X74847619Y25214286D02*
X74847619Y24547620D01*
X74609523Y25595239D02*
X74371428Y24880953D01*
X74990476Y24880953D01*
G04 #@! TO.C,J15*
X46552380Y70690477D02*
X47266666Y70690477D01*
X47409523Y70642858D01*
X47504761Y70547620D01*
X47552380Y70404762D01*
X47552380Y70309524D01*
X47552380Y71690477D02*
X47552380Y71119048D01*
X47552380Y71404762D02*
X46552380Y71404762D01*
X46695238Y71309524D01*
X46790476Y71214286D01*
X46838095Y71119048D01*
X46552380Y72595239D02*
X46552380Y72119048D01*
X47028571Y72071429D01*
X46980952Y72119048D01*
X46933333Y72214286D01*
X46933333Y72452381D01*
X46980952Y72547620D01*
X47028571Y72595239D01*
X47123809Y72642858D01*
X47361904Y72642858D01*
X47457142Y72595239D01*
X47504761Y72547620D01*
X47552380Y72452381D01*
X47552380Y72214286D01*
X47504761Y72119048D01*
X47457142Y72071429D01*
G04 #@! TO.C,J16*
X21690476Y72747620D02*
X21690476Y72033334D01*
X21642857Y71890477D01*
X21547619Y71795239D01*
X21404761Y71747620D01*
X21309523Y71747620D01*
X22690476Y71747620D02*
X22119047Y71747620D01*
X22404761Y71747620D02*
X22404761Y72747620D01*
X22309523Y72604762D01*
X22214285Y72509524D01*
X22119047Y72461905D01*
X23547619Y72747620D02*
X23357142Y72747620D01*
X23261904Y72700000D01*
X23214285Y72652381D01*
X23119047Y72509524D01*
X23071428Y72319048D01*
X23071428Y71938096D01*
X23119047Y71842858D01*
X23166666Y71795239D01*
X23261904Y71747620D01*
X23452380Y71747620D01*
X23547619Y71795239D01*
X23595238Y71842858D01*
X23642857Y71938096D01*
X23642857Y72176191D01*
X23595238Y72271429D01*
X23547619Y72319048D01*
X23452380Y72366667D01*
X23261904Y72366667D01*
X23166666Y72319048D01*
X23119047Y72271429D01*
X23071428Y72176191D01*
G04 #@! TO.C,R1*
X52333333Y68547620D02*
X52000000Y69023810D01*
X51761904Y68547620D02*
X51761904Y69547620D01*
X52142857Y69547620D01*
X52238095Y69500000D01*
X52285714Y69452381D01*
X52333333Y69357143D01*
X52333333Y69214286D01*
X52285714Y69119048D01*
X52238095Y69071429D01*
X52142857Y69023810D01*
X51761904Y69023810D01*
X53285714Y68547620D02*
X52714285Y68547620D01*
X53000000Y68547620D02*
X53000000Y69547620D01*
X52904761Y69404762D01*
X52809523Y69309524D01*
X52714285Y69261905D01*
G04 #@! TO.C,R3*
X36083333Y64797620D02*
X35750000Y65273810D01*
X35511904Y64797620D02*
X35511904Y65797620D01*
X35892857Y65797620D01*
X35988095Y65750000D01*
X36035714Y65702381D01*
X36083333Y65607143D01*
X36083333Y65464286D01*
X36035714Y65369048D01*
X35988095Y65321429D01*
X35892857Y65273810D01*
X35511904Y65273810D01*
X36416666Y65797620D02*
X37035714Y65797620D01*
X36702380Y65416667D01*
X36845238Y65416667D01*
X36940476Y65369048D01*
X36988095Y65321429D01*
X37035714Y65226191D01*
X37035714Y64988096D01*
X36988095Y64892858D01*
X36940476Y64845239D01*
X36845238Y64797620D01*
X36559523Y64797620D01*
X36464285Y64845239D01*
X36416666Y64892858D01*
G04 #@! TO.C,R4*
X29402380Y15833334D02*
X28926190Y15500000D01*
X29402380Y15261905D02*
X28402380Y15261905D01*
X28402380Y15642858D01*
X28450000Y15738096D01*
X28497619Y15785715D01*
X28592857Y15833334D01*
X28735714Y15833334D01*
X28830952Y15785715D01*
X28878571Y15738096D01*
X28926190Y15642858D01*
X28926190Y15261905D01*
X28735714Y16690477D02*
X29402380Y16690477D01*
X28354761Y16452381D02*
X29069047Y16214286D01*
X29069047Y16833334D01*
G04 #@! TO.C,R6*
X31633333Y21547620D02*
X31300000Y22023810D01*
X31061904Y21547620D02*
X31061904Y22547620D01*
X31442857Y22547620D01*
X31538095Y22500000D01*
X31585714Y22452381D01*
X31633333Y22357143D01*
X31633333Y22214286D01*
X31585714Y22119048D01*
X31538095Y22071429D01*
X31442857Y22023810D01*
X31061904Y22023810D01*
X32490476Y22547620D02*
X32300000Y22547620D01*
X32204761Y22500000D01*
X32157142Y22452381D01*
X32061904Y22309524D01*
X32014285Y22119048D01*
X32014285Y21738096D01*
X32061904Y21642858D01*
X32109523Y21595239D01*
X32204761Y21547620D01*
X32395238Y21547620D01*
X32490476Y21595239D01*
X32538095Y21642858D01*
X32585714Y21738096D01*
X32585714Y21976191D01*
X32538095Y22071429D01*
X32490476Y22119048D01*
X32395238Y22166667D01*
X32204761Y22166667D01*
X32109523Y22119048D01*
X32061904Y22071429D01*
X32014285Y21976191D01*
G04 #@! TO.C,R7*
X26452380Y22733334D02*
X25976190Y22400000D01*
X26452380Y22161905D02*
X25452380Y22161905D01*
X25452380Y22542858D01*
X25500000Y22638096D01*
X25547619Y22685715D01*
X25642857Y22733334D01*
X25785714Y22733334D01*
X25880952Y22685715D01*
X25928571Y22638096D01*
X25976190Y22542858D01*
X25976190Y22161905D01*
X25452380Y23066667D02*
X25452380Y23733334D01*
X26452380Y23304762D01*
G04 #@! TO.C,R8*
X45552380Y9533334D02*
X45076190Y9200000D01*
X45552380Y8961905D02*
X44552380Y8961905D01*
X44552380Y9342858D01*
X44600000Y9438096D01*
X44647619Y9485715D01*
X44742857Y9533334D01*
X44885714Y9533334D01*
X44980952Y9485715D01*
X45028571Y9438096D01*
X45076190Y9342858D01*
X45076190Y8961905D01*
X44980952Y10104762D02*
X44933333Y10009524D01*
X44885714Y9961905D01*
X44790476Y9914286D01*
X44742857Y9914286D01*
X44647619Y9961905D01*
X44600000Y10009524D01*
X44552380Y10104762D01*
X44552380Y10295239D01*
X44600000Y10390477D01*
X44647619Y10438096D01*
X44742857Y10485715D01*
X44790476Y10485715D01*
X44885714Y10438096D01*
X44933333Y10390477D01*
X44980952Y10295239D01*
X44980952Y10104762D01*
X45028571Y10009524D01*
X45076190Y9961905D01*
X45171428Y9914286D01*
X45361904Y9914286D01*
X45457142Y9961905D01*
X45504761Y10009524D01*
X45552380Y10104762D01*
X45552380Y10295239D01*
X45504761Y10390477D01*
X45457142Y10438096D01*
X45361904Y10485715D01*
X45171428Y10485715D01*
X45076190Y10438096D01*
X45028571Y10390477D01*
X44980952Y10295239D01*
G04 #@! TO.C,R9*
X60002380Y21233334D02*
X59526190Y20900000D01*
X60002380Y20661905D02*
X59002380Y20661905D01*
X59002380Y21042858D01*
X59050000Y21138096D01*
X59097619Y21185715D01*
X59192857Y21233334D01*
X59335714Y21233334D01*
X59430952Y21185715D01*
X59478571Y21138096D01*
X59526190Y21042858D01*
X59526190Y20661905D01*
X60002380Y21709524D02*
X60002380Y21900000D01*
X59954761Y21995239D01*
X59907142Y22042858D01*
X59764285Y22138096D01*
X59573809Y22185715D01*
X59192857Y22185715D01*
X59097619Y22138096D01*
X59050000Y22090477D01*
X59002380Y21995239D01*
X59002380Y21804762D01*
X59050000Y21709524D01*
X59097619Y21661905D01*
X59192857Y21614286D01*
X59430952Y21614286D01*
X59526190Y21661905D01*
X59573809Y21709524D01*
X59621428Y21804762D01*
X59621428Y21995239D01*
X59573809Y22090477D01*
X59526190Y22138096D01*
X59430952Y22185715D01*
G04 #@! TO.C,R10*
X42652380Y27857143D02*
X42176190Y27523810D01*
X42652380Y27285715D02*
X41652380Y27285715D01*
X41652380Y27666667D01*
X41700000Y27761905D01*
X41747619Y27809524D01*
X41842857Y27857143D01*
X41985714Y27857143D01*
X42080952Y27809524D01*
X42128571Y27761905D01*
X42176190Y27666667D01*
X42176190Y27285715D01*
X42652380Y28809524D02*
X42652380Y28238096D01*
X42652380Y28523810D02*
X41652380Y28523810D01*
X41795238Y28428572D01*
X41890476Y28333334D01*
X41938095Y28238096D01*
X41652380Y29428572D02*
X41652380Y29523810D01*
X41700000Y29619048D01*
X41747619Y29666667D01*
X41842857Y29714286D01*
X42033333Y29761905D01*
X42271428Y29761905D01*
X42461904Y29714286D01*
X42557142Y29666667D01*
X42604761Y29619048D01*
X42652380Y29523810D01*
X42652380Y29428572D01*
X42604761Y29333334D01*
X42557142Y29285715D01*
X42461904Y29238096D01*
X42271428Y29190477D01*
X42033333Y29190477D01*
X41842857Y29238096D01*
X41747619Y29285715D01*
X41700000Y29333334D01*
X41652380Y29428572D01*
G04 #@! TO.C,R11*
X29652380Y38257143D02*
X29176190Y37923810D01*
X29652380Y37685715D02*
X28652380Y37685715D01*
X28652380Y38066667D01*
X28700000Y38161905D01*
X28747619Y38209524D01*
X28842857Y38257143D01*
X28985714Y38257143D01*
X29080952Y38209524D01*
X29128571Y38161905D01*
X29176190Y38066667D01*
X29176190Y37685715D01*
X29652380Y39209524D02*
X29652380Y38638096D01*
X29652380Y38923810D02*
X28652380Y38923810D01*
X28795238Y38828572D01*
X28890476Y38733334D01*
X28938095Y38638096D01*
X29652380Y40161905D02*
X29652380Y39590477D01*
X29652380Y39876191D02*
X28652380Y39876191D01*
X28795238Y39780953D01*
X28890476Y39685715D01*
X28938095Y39590477D01*
G04 #@! TO.C,R12*
X45652380Y38357143D02*
X45176190Y38023810D01*
X45652380Y37785715D02*
X44652380Y37785715D01*
X44652380Y38166667D01*
X44700000Y38261905D01*
X44747619Y38309524D01*
X44842857Y38357143D01*
X44985714Y38357143D01*
X45080952Y38309524D01*
X45128571Y38261905D01*
X45176190Y38166667D01*
X45176190Y37785715D01*
X45652380Y39309524D02*
X45652380Y38738096D01*
X45652380Y39023810D02*
X44652380Y39023810D01*
X44795238Y38928572D01*
X44890476Y38833334D01*
X44938095Y38738096D01*
X44747619Y39690477D02*
X44700000Y39738096D01*
X44652380Y39833334D01*
X44652380Y40071429D01*
X44700000Y40166667D01*
X44747619Y40214286D01*
X44842857Y40261905D01*
X44938095Y40261905D01*
X45080952Y40214286D01*
X45652380Y39642858D01*
X45652380Y40261905D01*
G04 #@! TO.C,R13*
X29552380Y28157143D02*
X29076190Y27823810D01*
X29552380Y27585715D02*
X28552380Y27585715D01*
X28552380Y27966667D01*
X28600000Y28061905D01*
X28647619Y28109524D01*
X28742857Y28157143D01*
X28885714Y28157143D01*
X28980952Y28109524D01*
X29028571Y28061905D01*
X29076190Y27966667D01*
X29076190Y27585715D01*
X29552380Y29109524D02*
X29552380Y28538096D01*
X29552380Y28823810D02*
X28552380Y28823810D01*
X28695238Y28728572D01*
X28790476Y28633334D01*
X28838095Y28538096D01*
X28552380Y29442858D02*
X28552380Y30061905D01*
X28933333Y29728572D01*
X28933333Y29871429D01*
X28980952Y29966667D01*
X29028571Y30014286D01*
X29123809Y30061905D01*
X29361904Y30061905D01*
X29457142Y30014286D01*
X29504761Y29966667D01*
X29552380Y29871429D01*
X29552380Y29585715D01*
X29504761Y29490477D01*
X29457142Y29442858D01*
G04 #@! TO.C,R14*
X44452380Y27857143D02*
X43976190Y27523810D01*
X44452380Y27285715D02*
X43452380Y27285715D01*
X43452380Y27666667D01*
X43500000Y27761905D01*
X43547619Y27809524D01*
X43642857Y27857143D01*
X43785714Y27857143D01*
X43880952Y27809524D01*
X43928571Y27761905D01*
X43976190Y27666667D01*
X43976190Y27285715D01*
X44452380Y28809524D02*
X44452380Y28238096D01*
X44452380Y28523810D02*
X43452380Y28523810D01*
X43595238Y28428572D01*
X43690476Y28333334D01*
X43738095Y28238096D01*
X43785714Y29666667D02*
X44452380Y29666667D01*
X43404761Y29428572D02*
X44119047Y29190477D01*
X44119047Y29809524D01*
G04 #@! TO.C,R15*
X31452380Y38257143D02*
X30976190Y37923810D01*
X31452380Y37685715D02*
X30452380Y37685715D01*
X30452380Y38066667D01*
X30500000Y38161905D01*
X30547619Y38209524D01*
X30642857Y38257143D01*
X30785714Y38257143D01*
X30880952Y38209524D01*
X30928571Y38161905D01*
X30976190Y38066667D01*
X30976190Y37685715D01*
X31452380Y39209524D02*
X31452380Y38638096D01*
X31452380Y38923810D02*
X30452380Y38923810D01*
X30595238Y38828572D01*
X30690476Y38733334D01*
X30738095Y38638096D01*
X30452380Y40114286D02*
X30452380Y39638096D01*
X30928571Y39590477D01*
X30880952Y39638096D01*
X30833333Y39733334D01*
X30833333Y39971429D01*
X30880952Y40066667D01*
X30928571Y40114286D01*
X31023809Y40161905D01*
X31261904Y40161905D01*
X31357142Y40114286D01*
X31404761Y40066667D01*
X31452380Y39971429D01*
X31452380Y39733334D01*
X31404761Y39638096D01*
X31357142Y39590477D01*
G04 #@! TO.C,R16*
X47152380Y38357143D02*
X46676190Y38023810D01*
X47152380Y37785715D02*
X46152380Y37785715D01*
X46152380Y38166667D01*
X46200000Y38261905D01*
X46247619Y38309524D01*
X46342857Y38357143D01*
X46485714Y38357143D01*
X46580952Y38309524D01*
X46628571Y38261905D01*
X46676190Y38166667D01*
X46676190Y37785715D01*
X47152380Y39309524D02*
X47152380Y38738096D01*
X47152380Y39023810D02*
X46152380Y39023810D01*
X46295238Y38928572D01*
X46390476Y38833334D01*
X46438095Y38738096D01*
X46152380Y40166667D02*
X46152380Y39976191D01*
X46200000Y39880953D01*
X46247619Y39833334D01*
X46390476Y39738096D01*
X46580952Y39690477D01*
X46961904Y39690477D01*
X47057142Y39738096D01*
X47104761Y39785715D01*
X47152380Y39880953D01*
X47152380Y40071429D01*
X47104761Y40166667D01*
X47057142Y40214286D01*
X46961904Y40261905D01*
X46723809Y40261905D01*
X46628571Y40214286D01*
X46580952Y40166667D01*
X46533333Y40071429D01*
X46533333Y39880953D01*
X46580952Y39785715D01*
X46628571Y39738096D01*
X46723809Y39690477D01*
G04 #@! TO.C,R17*
X31352380Y28157143D02*
X30876190Y27823810D01*
X31352380Y27585715D02*
X30352380Y27585715D01*
X30352380Y27966667D01*
X30400000Y28061905D01*
X30447619Y28109524D01*
X30542857Y28157143D01*
X30685714Y28157143D01*
X30780952Y28109524D01*
X30828571Y28061905D01*
X30876190Y27966667D01*
X30876190Y27585715D01*
X31352380Y29109524D02*
X31352380Y28538096D01*
X31352380Y28823810D02*
X30352380Y28823810D01*
X30495238Y28728572D01*
X30590476Y28633334D01*
X30638095Y28538096D01*
X30352380Y29442858D02*
X30352380Y30109524D01*
X31352380Y29680953D01*
G04 #@! TO.C,R18*
X46252380Y27857143D02*
X45776190Y27523810D01*
X46252380Y27285715D02*
X45252380Y27285715D01*
X45252380Y27666667D01*
X45300000Y27761905D01*
X45347619Y27809524D01*
X45442857Y27857143D01*
X45585714Y27857143D01*
X45680952Y27809524D01*
X45728571Y27761905D01*
X45776190Y27666667D01*
X45776190Y27285715D01*
X46252380Y28809524D02*
X46252380Y28238096D01*
X46252380Y28523810D02*
X45252380Y28523810D01*
X45395238Y28428572D01*
X45490476Y28333334D01*
X45538095Y28238096D01*
X45680952Y29380953D02*
X45633333Y29285715D01*
X45585714Y29238096D01*
X45490476Y29190477D01*
X45442857Y29190477D01*
X45347619Y29238096D01*
X45300000Y29285715D01*
X45252380Y29380953D01*
X45252380Y29571429D01*
X45300000Y29666667D01*
X45347619Y29714286D01*
X45442857Y29761905D01*
X45490476Y29761905D01*
X45585714Y29714286D01*
X45633333Y29666667D01*
X45680952Y29571429D01*
X45680952Y29380953D01*
X45728571Y29285715D01*
X45776190Y29238096D01*
X45871428Y29190477D01*
X46061904Y29190477D01*
X46157142Y29238096D01*
X46204761Y29285715D01*
X46252380Y29380953D01*
X46252380Y29571429D01*
X46204761Y29666667D01*
X46157142Y29714286D01*
X46061904Y29761905D01*
X45871428Y29761905D01*
X45776190Y29714286D01*
X45728571Y29666667D01*
X45680952Y29571429D01*
G04 #@! TO.C,R20*
X48552380Y38357143D02*
X48076190Y38023810D01*
X48552380Y37785715D02*
X47552380Y37785715D01*
X47552380Y38166667D01*
X47600000Y38261905D01*
X47647619Y38309524D01*
X47742857Y38357143D01*
X47885714Y38357143D01*
X47980952Y38309524D01*
X48028571Y38261905D01*
X48076190Y38166667D01*
X48076190Y37785715D01*
X47647619Y38738096D02*
X47600000Y38785715D01*
X47552380Y38880953D01*
X47552380Y39119048D01*
X47600000Y39214286D01*
X47647619Y39261905D01*
X47742857Y39309524D01*
X47838095Y39309524D01*
X47980952Y39261905D01*
X48552380Y38690477D01*
X48552380Y39309524D01*
X47552380Y39928572D02*
X47552380Y40023810D01*
X47600000Y40119048D01*
X47647619Y40166667D01*
X47742857Y40214286D01*
X47933333Y40261905D01*
X48171428Y40261905D01*
X48361904Y40214286D01*
X48457142Y40166667D01*
X48504761Y40119048D01*
X48552380Y40023810D01*
X48552380Y39928572D01*
X48504761Y39833334D01*
X48457142Y39785715D01*
X48361904Y39738096D01*
X48171428Y39690477D01*
X47933333Y39690477D01*
X47742857Y39738096D01*
X47647619Y39785715D01*
X47600000Y39833334D01*
X47552380Y39928572D01*
G04 #@! TO.C,R21*
X33252380Y28157143D02*
X32776190Y27823810D01*
X33252380Y27585715D02*
X32252380Y27585715D01*
X32252380Y27966667D01*
X32300000Y28061905D01*
X32347619Y28109524D01*
X32442857Y28157143D01*
X32585714Y28157143D01*
X32680952Y28109524D01*
X32728571Y28061905D01*
X32776190Y27966667D01*
X32776190Y27585715D01*
X32347619Y28538096D02*
X32300000Y28585715D01*
X32252380Y28680953D01*
X32252380Y28919048D01*
X32300000Y29014286D01*
X32347619Y29061905D01*
X32442857Y29109524D01*
X32538095Y29109524D01*
X32680952Y29061905D01*
X33252380Y28490477D01*
X33252380Y29109524D01*
X33252380Y30061905D02*
X33252380Y29490477D01*
X33252380Y29776191D02*
X32252380Y29776191D01*
X32395238Y29680953D01*
X32490476Y29585715D01*
X32538095Y29490477D01*
G04 #@! TO.C,R22*
X48152380Y27857143D02*
X47676190Y27523810D01*
X48152380Y27285715D02*
X47152380Y27285715D01*
X47152380Y27666667D01*
X47200000Y27761905D01*
X47247619Y27809524D01*
X47342857Y27857143D01*
X47485714Y27857143D01*
X47580952Y27809524D01*
X47628571Y27761905D01*
X47676190Y27666667D01*
X47676190Y27285715D01*
X47247619Y28238096D02*
X47200000Y28285715D01*
X47152380Y28380953D01*
X47152380Y28619048D01*
X47200000Y28714286D01*
X47247619Y28761905D01*
X47342857Y28809524D01*
X47438095Y28809524D01*
X47580952Y28761905D01*
X48152380Y28190477D01*
X48152380Y28809524D01*
X47247619Y29190477D02*
X47200000Y29238096D01*
X47152380Y29333334D01*
X47152380Y29571429D01*
X47200000Y29666667D01*
X47247619Y29714286D01*
X47342857Y29761905D01*
X47438095Y29761905D01*
X47580952Y29714286D01*
X48152380Y29142858D01*
X48152380Y29761905D01*
G04 #@! TO.C,R23*
X34952380Y38257143D02*
X34476190Y37923810D01*
X34952380Y37685715D02*
X33952380Y37685715D01*
X33952380Y38066667D01*
X34000000Y38161905D01*
X34047619Y38209524D01*
X34142857Y38257143D01*
X34285714Y38257143D01*
X34380952Y38209524D01*
X34428571Y38161905D01*
X34476190Y38066667D01*
X34476190Y37685715D01*
X34047619Y38638096D02*
X34000000Y38685715D01*
X33952380Y38780953D01*
X33952380Y39019048D01*
X34000000Y39114286D01*
X34047619Y39161905D01*
X34142857Y39209524D01*
X34238095Y39209524D01*
X34380952Y39161905D01*
X34952380Y38590477D01*
X34952380Y39209524D01*
X33952380Y39542858D02*
X33952380Y40161905D01*
X34333333Y39828572D01*
X34333333Y39971429D01*
X34380952Y40066667D01*
X34428571Y40114286D01*
X34523809Y40161905D01*
X34761904Y40161905D01*
X34857142Y40114286D01*
X34904761Y40066667D01*
X34952380Y39971429D01*
X34952380Y39685715D01*
X34904761Y39590477D01*
X34857142Y39542858D01*
G04 #@! TO.C,R24*
X49952380Y38357143D02*
X49476190Y38023810D01*
X49952380Y37785715D02*
X48952380Y37785715D01*
X48952380Y38166667D01*
X49000000Y38261905D01*
X49047619Y38309524D01*
X49142857Y38357143D01*
X49285714Y38357143D01*
X49380952Y38309524D01*
X49428571Y38261905D01*
X49476190Y38166667D01*
X49476190Y37785715D01*
X49047619Y38738096D02*
X49000000Y38785715D01*
X48952380Y38880953D01*
X48952380Y39119048D01*
X49000000Y39214286D01*
X49047619Y39261905D01*
X49142857Y39309524D01*
X49238095Y39309524D01*
X49380952Y39261905D01*
X49952380Y38690477D01*
X49952380Y39309524D01*
X49285714Y40166667D02*
X49952380Y40166667D01*
X48904761Y39928572D02*
X49619047Y39690477D01*
X49619047Y40309524D01*
G04 #@! TO.C,R25*
X34952380Y28157143D02*
X34476190Y27823810D01*
X34952380Y27585715D02*
X33952380Y27585715D01*
X33952380Y27966667D01*
X34000000Y28061905D01*
X34047619Y28109524D01*
X34142857Y28157143D01*
X34285714Y28157143D01*
X34380952Y28109524D01*
X34428571Y28061905D01*
X34476190Y27966667D01*
X34476190Y27585715D01*
X34047619Y28538096D02*
X34000000Y28585715D01*
X33952380Y28680953D01*
X33952380Y28919048D01*
X34000000Y29014286D01*
X34047619Y29061905D01*
X34142857Y29109524D01*
X34238095Y29109524D01*
X34380952Y29061905D01*
X34952380Y28490477D01*
X34952380Y29109524D01*
X33952380Y30014286D02*
X33952380Y29538096D01*
X34428571Y29490477D01*
X34380952Y29538096D01*
X34333333Y29633334D01*
X34333333Y29871429D01*
X34380952Y29966667D01*
X34428571Y30014286D01*
X34523809Y30061905D01*
X34761904Y30061905D01*
X34857142Y30014286D01*
X34904761Y29966667D01*
X34952380Y29871429D01*
X34952380Y29633334D01*
X34904761Y29538096D01*
X34857142Y29490477D01*
G04 #@! TO.C,R26*
X49952380Y27857143D02*
X49476190Y27523810D01*
X49952380Y27285715D02*
X48952380Y27285715D01*
X48952380Y27666667D01*
X49000000Y27761905D01*
X49047619Y27809524D01*
X49142857Y27857143D01*
X49285714Y27857143D01*
X49380952Y27809524D01*
X49428571Y27761905D01*
X49476190Y27666667D01*
X49476190Y27285715D01*
X49047619Y28238096D02*
X49000000Y28285715D01*
X48952380Y28380953D01*
X48952380Y28619048D01*
X49000000Y28714286D01*
X49047619Y28761905D01*
X49142857Y28809524D01*
X49238095Y28809524D01*
X49380952Y28761905D01*
X49952380Y28190477D01*
X49952380Y28809524D01*
X48952380Y29666667D02*
X48952380Y29476191D01*
X49000000Y29380953D01*
X49047619Y29333334D01*
X49190476Y29238096D01*
X49380952Y29190477D01*
X49761904Y29190477D01*
X49857142Y29238096D01*
X49904761Y29285715D01*
X49952380Y29380953D01*
X49952380Y29571429D01*
X49904761Y29666667D01*
X49857142Y29714286D01*
X49761904Y29761905D01*
X49523809Y29761905D01*
X49428571Y29714286D01*
X49380952Y29666667D01*
X49333333Y29571429D01*
X49333333Y29380953D01*
X49380952Y29285715D01*
X49428571Y29238096D01*
X49523809Y29190477D01*
G04 #@! TO.C,R27*
X36652380Y38257143D02*
X36176190Y37923810D01*
X36652380Y37685715D02*
X35652380Y37685715D01*
X35652380Y38066667D01*
X35700000Y38161905D01*
X35747619Y38209524D01*
X35842857Y38257143D01*
X35985714Y38257143D01*
X36080952Y38209524D01*
X36128571Y38161905D01*
X36176190Y38066667D01*
X36176190Y37685715D01*
X35747619Y38638096D02*
X35700000Y38685715D01*
X35652380Y38780953D01*
X35652380Y39019048D01*
X35700000Y39114286D01*
X35747619Y39161905D01*
X35842857Y39209524D01*
X35938095Y39209524D01*
X36080952Y39161905D01*
X36652380Y38590477D01*
X36652380Y39209524D01*
X35652380Y39542858D02*
X35652380Y40209524D01*
X36652380Y39780953D01*
G04 #@! TO.C,R28*
X51552380Y38357143D02*
X51076190Y38023810D01*
X51552380Y37785715D02*
X50552380Y37785715D01*
X50552380Y38166667D01*
X50600000Y38261905D01*
X50647619Y38309524D01*
X50742857Y38357143D01*
X50885714Y38357143D01*
X50980952Y38309524D01*
X51028571Y38261905D01*
X51076190Y38166667D01*
X51076190Y37785715D01*
X50647619Y38738096D02*
X50600000Y38785715D01*
X50552380Y38880953D01*
X50552380Y39119048D01*
X50600000Y39214286D01*
X50647619Y39261905D01*
X50742857Y39309524D01*
X50838095Y39309524D01*
X50980952Y39261905D01*
X51552380Y38690477D01*
X51552380Y39309524D01*
X50980952Y39880953D02*
X50933333Y39785715D01*
X50885714Y39738096D01*
X50790476Y39690477D01*
X50742857Y39690477D01*
X50647619Y39738096D01*
X50600000Y39785715D01*
X50552380Y39880953D01*
X50552380Y40071429D01*
X50600000Y40166667D01*
X50647619Y40214286D01*
X50742857Y40261905D01*
X50790476Y40261905D01*
X50885714Y40214286D01*
X50933333Y40166667D01*
X50980952Y40071429D01*
X50980952Y39880953D01*
X51028571Y39785715D01*
X51076190Y39738096D01*
X51171428Y39690477D01*
X51361904Y39690477D01*
X51457142Y39738096D01*
X51504761Y39785715D01*
X51552380Y39880953D01*
X51552380Y40071429D01*
X51504761Y40166667D01*
X51457142Y40214286D01*
X51361904Y40261905D01*
X51171428Y40261905D01*
X51076190Y40214286D01*
X51028571Y40166667D01*
X50980952Y40071429D01*
G04 #@! TO.C,R29*
X36752380Y28157143D02*
X36276190Y27823810D01*
X36752380Y27585715D02*
X35752380Y27585715D01*
X35752380Y27966667D01*
X35800000Y28061905D01*
X35847619Y28109524D01*
X35942857Y28157143D01*
X36085714Y28157143D01*
X36180952Y28109524D01*
X36228571Y28061905D01*
X36276190Y27966667D01*
X36276190Y27585715D01*
X35847619Y28538096D02*
X35800000Y28585715D01*
X35752380Y28680953D01*
X35752380Y28919048D01*
X35800000Y29014286D01*
X35847619Y29061905D01*
X35942857Y29109524D01*
X36038095Y29109524D01*
X36180952Y29061905D01*
X36752380Y28490477D01*
X36752380Y29109524D01*
X36752380Y29585715D02*
X36752380Y29776191D01*
X36704761Y29871429D01*
X36657142Y29919048D01*
X36514285Y30014286D01*
X36323809Y30061905D01*
X35942857Y30061905D01*
X35847619Y30014286D01*
X35800000Y29966667D01*
X35752380Y29871429D01*
X35752380Y29680953D01*
X35800000Y29585715D01*
X35847619Y29538096D01*
X35942857Y29490477D01*
X36180952Y29490477D01*
X36276190Y29538096D01*
X36323809Y29585715D01*
X36371428Y29680953D01*
X36371428Y29871429D01*
X36323809Y29966667D01*
X36276190Y30014286D01*
X36180952Y30061905D01*
G04 #@! TO.C,R30*
X51752380Y27857143D02*
X51276190Y27523810D01*
X51752380Y27285715D02*
X50752380Y27285715D01*
X50752380Y27666667D01*
X50800000Y27761905D01*
X50847619Y27809524D01*
X50942857Y27857143D01*
X51085714Y27857143D01*
X51180952Y27809524D01*
X51228571Y27761905D01*
X51276190Y27666667D01*
X51276190Y27285715D01*
X50752380Y28190477D02*
X50752380Y28809524D01*
X51133333Y28476191D01*
X51133333Y28619048D01*
X51180952Y28714286D01*
X51228571Y28761905D01*
X51323809Y28809524D01*
X51561904Y28809524D01*
X51657142Y28761905D01*
X51704761Y28714286D01*
X51752380Y28619048D01*
X51752380Y28333334D01*
X51704761Y28238096D01*
X51657142Y28190477D01*
X50752380Y29428572D02*
X50752380Y29523810D01*
X50800000Y29619048D01*
X50847619Y29666667D01*
X50942857Y29714286D01*
X51133333Y29761905D01*
X51371428Y29761905D01*
X51561904Y29714286D01*
X51657142Y29666667D01*
X51704761Y29619048D01*
X51752380Y29523810D01*
X51752380Y29428572D01*
X51704761Y29333334D01*
X51657142Y29285715D01*
X51561904Y29238096D01*
X51371428Y29190477D01*
X51133333Y29190477D01*
X50942857Y29238096D01*
X50847619Y29285715D01*
X50800000Y29333334D01*
X50752380Y29428572D01*
G04 #@! TO.C,R31*
X38352380Y38257143D02*
X37876190Y37923810D01*
X38352380Y37685715D02*
X37352380Y37685715D01*
X37352380Y38066667D01*
X37400000Y38161905D01*
X37447619Y38209524D01*
X37542857Y38257143D01*
X37685714Y38257143D01*
X37780952Y38209524D01*
X37828571Y38161905D01*
X37876190Y38066667D01*
X37876190Y37685715D01*
X37352380Y38590477D02*
X37352380Y39209524D01*
X37733333Y38876191D01*
X37733333Y39019048D01*
X37780952Y39114286D01*
X37828571Y39161905D01*
X37923809Y39209524D01*
X38161904Y39209524D01*
X38257142Y39161905D01*
X38304761Y39114286D01*
X38352380Y39019048D01*
X38352380Y38733334D01*
X38304761Y38638096D01*
X38257142Y38590477D01*
X38352380Y40161905D02*
X38352380Y39590477D01*
X38352380Y39876191D02*
X37352380Y39876191D01*
X37495238Y39780953D01*
X37590476Y39685715D01*
X37638095Y39590477D01*
G04 #@! TO.C,R32*
X53052380Y38357143D02*
X52576190Y38023810D01*
X53052380Y37785715D02*
X52052380Y37785715D01*
X52052380Y38166667D01*
X52100000Y38261905D01*
X52147619Y38309524D01*
X52242857Y38357143D01*
X52385714Y38357143D01*
X52480952Y38309524D01*
X52528571Y38261905D01*
X52576190Y38166667D01*
X52576190Y37785715D01*
X52052380Y38690477D02*
X52052380Y39309524D01*
X52433333Y38976191D01*
X52433333Y39119048D01*
X52480952Y39214286D01*
X52528571Y39261905D01*
X52623809Y39309524D01*
X52861904Y39309524D01*
X52957142Y39261905D01*
X53004761Y39214286D01*
X53052380Y39119048D01*
X53052380Y38833334D01*
X53004761Y38738096D01*
X52957142Y38690477D01*
X52147619Y39690477D02*
X52100000Y39738096D01*
X52052380Y39833334D01*
X52052380Y40071429D01*
X52100000Y40166667D01*
X52147619Y40214286D01*
X52242857Y40261905D01*
X52338095Y40261905D01*
X52480952Y40214286D01*
X53052380Y39642858D01*
X53052380Y40261905D01*
G04 #@! TO.C,R33*
X38552380Y28157143D02*
X38076190Y27823810D01*
X38552380Y27585715D02*
X37552380Y27585715D01*
X37552380Y27966667D01*
X37600000Y28061905D01*
X37647619Y28109524D01*
X37742857Y28157143D01*
X37885714Y28157143D01*
X37980952Y28109524D01*
X38028571Y28061905D01*
X38076190Y27966667D01*
X38076190Y27585715D01*
X37552380Y28490477D02*
X37552380Y29109524D01*
X37933333Y28776191D01*
X37933333Y28919048D01*
X37980952Y29014286D01*
X38028571Y29061905D01*
X38123809Y29109524D01*
X38361904Y29109524D01*
X38457142Y29061905D01*
X38504761Y29014286D01*
X38552380Y28919048D01*
X38552380Y28633334D01*
X38504761Y28538096D01*
X38457142Y28490477D01*
X37552380Y29442858D02*
X37552380Y30061905D01*
X37933333Y29728572D01*
X37933333Y29871429D01*
X37980952Y29966667D01*
X38028571Y30014286D01*
X38123809Y30061905D01*
X38361904Y30061905D01*
X38457142Y30014286D01*
X38504761Y29966667D01*
X38552380Y29871429D01*
X38552380Y29585715D01*
X38504761Y29490477D01*
X38457142Y29442858D01*
G04 #@! TO.C,R84*
X24757142Y49047620D02*
X24423809Y49523810D01*
X24185714Y49047620D02*
X24185714Y50047620D01*
X24566666Y50047620D01*
X24661904Y50000000D01*
X24709523Y49952381D01*
X24757142Y49857143D01*
X24757142Y49714286D01*
X24709523Y49619048D01*
X24661904Y49571429D01*
X24566666Y49523810D01*
X24185714Y49523810D01*
X25328571Y49619048D02*
X25233333Y49666667D01*
X25185714Y49714286D01*
X25138095Y49809524D01*
X25138095Y49857143D01*
X25185714Y49952381D01*
X25233333Y50000000D01*
X25328571Y50047620D01*
X25519047Y50047620D01*
X25614285Y50000000D01*
X25661904Y49952381D01*
X25709523Y49857143D01*
X25709523Y49809524D01*
X25661904Y49714286D01*
X25614285Y49666667D01*
X25519047Y49619048D01*
X25328571Y49619048D01*
X25233333Y49571429D01*
X25185714Y49523810D01*
X25138095Y49428572D01*
X25138095Y49238096D01*
X25185714Y49142858D01*
X25233333Y49095239D01*
X25328571Y49047620D01*
X25519047Y49047620D01*
X25614285Y49095239D01*
X25661904Y49142858D01*
X25709523Y49238096D01*
X25709523Y49428572D01*
X25661904Y49523810D01*
X25614285Y49571429D01*
X25519047Y49619048D01*
X26566666Y49714286D02*
X26566666Y49047620D01*
X26328571Y50095239D02*
X26090476Y49380953D01*
X26709523Y49380953D01*
G04 #@! TO.C,R85*
X24757142Y50647620D02*
X24423809Y51123810D01*
X24185714Y50647620D02*
X24185714Y51647620D01*
X24566666Y51647620D01*
X24661904Y51600000D01*
X24709523Y51552381D01*
X24757142Y51457143D01*
X24757142Y51314286D01*
X24709523Y51219048D01*
X24661904Y51171429D01*
X24566666Y51123810D01*
X24185714Y51123810D01*
X25328571Y51219048D02*
X25233333Y51266667D01*
X25185714Y51314286D01*
X25138095Y51409524D01*
X25138095Y51457143D01*
X25185714Y51552381D01*
X25233333Y51600000D01*
X25328571Y51647620D01*
X25519047Y51647620D01*
X25614285Y51600000D01*
X25661904Y51552381D01*
X25709523Y51457143D01*
X25709523Y51409524D01*
X25661904Y51314286D01*
X25614285Y51266667D01*
X25519047Y51219048D01*
X25328571Y51219048D01*
X25233333Y51171429D01*
X25185714Y51123810D01*
X25138095Y51028572D01*
X25138095Y50838096D01*
X25185714Y50742858D01*
X25233333Y50695239D01*
X25328571Y50647620D01*
X25519047Y50647620D01*
X25614285Y50695239D01*
X25661904Y50742858D01*
X25709523Y50838096D01*
X25709523Y51028572D01*
X25661904Y51123810D01*
X25614285Y51171429D01*
X25519047Y51219048D01*
X26614285Y51647620D02*
X26138095Y51647620D01*
X26090476Y51171429D01*
X26138095Y51219048D01*
X26233333Y51266667D01*
X26471428Y51266667D01*
X26566666Y51219048D01*
X26614285Y51171429D01*
X26661904Y51076191D01*
X26661904Y50838096D01*
X26614285Y50742858D01*
X26566666Y50695239D01*
X26471428Y50647620D01*
X26233333Y50647620D01*
X26138095Y50695239D01*
X26090476Y50742858D01*
G04 #@! TO.C,R86*
X24757142Y52247620D02*
X24423809Y52723810D01*
X24185714Y52247620D02*
X24185714Y53247620D01*
X24566666Y53247620D01*
X24661904Y53200000D01*
X24709523Y53152381D01*
X24757142Y53057143D01*
X24757142Y52914286D01*
X24709523Y52819048D01*
X24661904Y52771429D01*
X24566666Y52723810D01*
X24185714Y52723810D01*
X25328571Y52819048D02*
X25233333Y52866667D01*
X25185714Y52914286D01*
X25138095Y53009524D01*
X25138095Y53057143D01*
X25185714Y53152381D01*
X25233333Y53200000D01*
X25328571Y53247620D01*
X25519047Y53247620D01*
X25614285Y53200000D01*
X25661904Y53152381D01*
X25709523Y53057143D01*
X25709523Y53009524D01*
X25661904Y52914286D01*
X25614285Y52866667D01*
X25519047Y52819048D01*
X25328571Y52819048D01*
X25233333Y52771429D01*
X25185714Y52723810D01*
X25138095Y52628572D01*
X25138095Y52438096D01*
X25185714Y52342858D01*
X25233333Y52295239D01*
X25328571Y52247620D01*
X25519047Y52247620D01*
X25614285Y52295239D01*
X25661904Y52342858D01*
X25709523Y52438096D01*
X25709523Y52628572D01*
X25661904Y52723810D01*
X25614285Y52771429D01*
X25519047Y52819048D01*
X26566666Y53247620D02*
X26376190Y53247620D01*
X26280952Y53200000D01*
X26233333Y53152381D01*
X26138095Y53009524D01*
X26090476Y52819048D01*
X26090476Y52438096D01*
X26138095Y52342858D01*
X26185714Y52295239D01*
X26280952Y52247620D01*
X26471428Y52247620D01*
X26566666Y52295239D01*
X26614285Y52342858D01*
X26661904Y52438096D01*
X26661904Y52676191D01*
X26614285Y52771429D01*
X26566666Y52819048D01*
X26471428Y52866667D01*
X26280952Y52866667D01*
X26185714Y52819048D01*
X26138095Y52771429D01*
X26090476Y52676191D01*
G04 #@! TO.C,R87*
X62552380Y15957143D02*
X62076190Y15623810D01*
X62552380Y15385715D02*
X61552380Y15385715D01*
X61552380Y15766667D01*
X61600000Y15861905D01*
X61647619Y15909524D01*
X61742857Y15957143D01*
X61885714Y15957143D01*
X61980952Y15909524D01*
X62028571Y15861905D01*
X62076190Y15766667D01*
X62076190Y15385715D01*
X61980952Y16528572D02*
X61933333Y16433334D01*
X61885714Y16385715D01*
X61790476Y16338096D01*
X61742857Y16338096D01*
X61647619Y16385715D01*
X61600000Y16433334D01*
X61552380Y16528572D01*
X61552380Y16719048D01*
X61600000Y16814286D01*
X61647619Y16861905D01*
X61742857Y16909524D01*
X61790476Y16909524D01*
X61885714Y16861905D01*
X61933333Y16814286D01*
X61980952Y16719048D01*
X61980952Y16528572D01*
X62028571Y16433334D01*
X62076190Y16385715D01*
X62171428Y16338096D01*
X62361904Y16338096D01*
X62457142Y16385715D01*
X62504761Y16433334D01*
X62552380Y16528572D01*
X62552380Y16719048D01*
X62504761Y16814286D01*
X62457142Y16861905D01*
X62361904Y16909524D01*
X62171428Y16909524D01*
X62076190Y16861905D01*
X62028571Y16814286D01*
X61980952Y16719048D01*
X61552380Y17242858D02*
X61552380Y17909524D01*
X62552380Y17480953D01*
G04 #@! TO.C,R88*
X64152380Y15957143D02*
X63676190Y15623810D01*
X64152380Y15385715D02*
X63152380Y15385715D01*
X63152380Y15766667D01*
X63200000Y15861905D01*
X63247619Y15909524D01*
X63342857Y15957143D01*
X63485714Y15957143D01*
X63580952Y15909524D01*
X63628571Y15861905D01*
X63676190Y15766667D01*
X63676190Y15385715D01*
X63580952Y16528572D02*
X63533333Y16433334D01*
X63485714Y16385715D01*
X63390476Y16338096D01*
X63342857Y16338096D01*
X63247619Y16385715D01*
X63200000Y16433334D01*
X63152380Y16528572D01*
X63152380Y16719048D01*
X63200000Y16814286D01*
X63247619Y16861905D01*
X63342857Y16909524D01*
X63390476Y16909524D01*
X63485714Y16861905D01*
X63533333Y16814286D01*
X63580952Y16719048D01*
X63580952Y16528572D01*
X63628571Y16433334D01*
X63676190Y16385715D01*
X63771428Y16338096D01*
X63961904Y16338096D01*
X64057142Y16385715D01*
X64104761Y16433334D01*
X64152380Y16528572D01*
X64152380Y16719048D01*
X64104761Y16814286D01*
X64057142Y16861905D01*
X63961904Y16909524D01*
X63771428Y16909524D01*
X63676190Y16861905D01*
X63628571Y16814286D01*
X63580952Y16719048D01*
X63580952Y17480953D02*
X63533333Y17385715D01*
X63485714Y17338096D01*
X63390476Y17290477D01*
X63342857Y17290477D01*
X63247619Y17338096D01*
X63200000Y17385715D01*
X63152380Y17480953D01*
X63152380Y17671429D01*
X63200000Y17766667D01*
X63247619Y17814286D01*
X63342857Y17861905D01*
X63390476Y17861905D01*
X63485714Y17814286D01*
X63533333Y17766667D01*
X63580952Y17671429D01*
X63580952Y17480953D01*
X63628571Y17385715D01*
X63676190Y17338096D01*
X63771428Y17290477D01*
X63961904Y17290477D01*
X64057142Y17338096D01*
X64104761Y17385715D01*
X64152380Y17480953D01*
X64152380Y17671429D01*
X64104761Y17766667D01*
X64057142Y17814286D01*
X63961904Y17861905D01*
X63771428Y17861905D01*
X63676190Y17814286D01*
X63628571Y17766667D01*
X63580952Y17671429D01*
G04 #@! TO.C,R89*
X69052380Y15757143D02*
X68576190Y15423810D01*
X69052380Y15185715D02*
X68052380Y15185715D01*
X68052380Y15566667D01*
X68100000Y15661905D01*
X68147619Y15709524D01*
X68242857Y15757143D01*
X68385714Y15757143D01*
X68480952Y15709524D01*
X68528571Y15661905D01*
X68576190Y15566667D01*
X68576190Y15185715D01*
X68480952Y16328572D02*
X68433333Y16233334D01*
X68385714Y16185715D01*
X68290476Y16138096D01*
X68242857Y16138096D01*
X68147619Y16185715D01*
X68100000Y16233334D01*
X68052380Y16328572D01*
X68052380Y16519048D01*
X68100000Y16614286D01*
X68147619Y16661905D01*
X68242857Y16709524D01*
X68290476Y16709524D01*
X68385714Y16661905D01*
X68433333Y16614286D01*
X68480952Y16519048D01*
X68480952Y16328572D01*
X68528571Y16233334D01*
X68576190Y16185715D01*
X68671428Y16138096D01*
X68861904Y16138096D01*
X68957142Y16185715D01*
X69004761Y16233334D01*
X69052380Y16328572D01*
X69052380Y16519048D01*
X69004761Y16614286D01*
X68957142Y16661905D01*
X68861904Y16709524D01*
X68671428Y16709524D01*
X68576190Y16661905D01*
X68528571Y16614286D01*
X68480952Y16519048D01*
X69052380Y17185715D02*
X69052380Y17376191D01*
X69004761Y17471429D01*
X68957142Y17519048D01*
X68814285Y17614286D01*
X68623809Y17661905D01*
X68242857Y17661905D01*
X68147619Y17614286D01*
X68100000Y17566667D01*
X68052380Y17471429D01*
X68052380Y17280953D01*
X68100000Y17185715D01*
X68147619Y17138096D01*
X68242857Y17090477D01*
X68480952Y17090477D01*
X68576190Y17138096D01*
X68623809Y17185715D01*
X68671428Y17280953D01*
X68671428Y17471429D01*
X68623809Y17566667D01*
X68576190Y17614286D01*
X68480952Y17661905D01*
G04 #@! TO.C,R90*
X73952380Y15657143D02*
X73476190Y15323810D01*
X73952380Y15085715D02*
X72952380Y15085715D01*
X72952380Y15466667D01*
X73000000Y15561905D01*
X73047619Y15609524D01*
X73142857Y15657143D01*
X73285714Y15657143D01*
X73380952Y15609524D01*
X73428571Y15561905D01*
X73476190Y15466667D01*
X73476190Y15085715D01*
X73952380Y16133334D02*
X73952380Y16323810D01*
X73904761Y16419048D01*
X73857142Y16466667D01*
X73714285Y16561905D01*
X73523809Y16609524D01*
X73142857Y16609524D01*
X73047619Y16561905D01*
X73000000Y16514286D01*
X72952380Y16419048D01*
X72952380Y16228572D01*
X73000000Y16133334D01*
X73047619Y16085715D01*
X73142857Y16038096D01*
X73380952Y16038096D01*
X73476190Y16085715D01*
X73523809Y16133334D01*
X73571428Y16228572D01*
X73571428Y16419048D01*
X73523809Y16514286D01*
X73476190Y16561905D01*
X73380952Y16609524D01*
X72952380Y17228572D02*
X72952380Y17323810D01*
X73000000Y17419048D01*
X73047619Y17466667D01*
X73142857Y17514286D01*
X73333333Y17561905D01*
X73571428Y17561905D01*
X73761904Y17514286D01*
X73857142Y17466667D01*
X73904761Y17419048D01*
X73952380Y17323810D01*
X73952380Y17228572D01*
X73904761Y17133334D01*
X73857142Y17085715D01*
X73761904Y17038096D01*
X73571428Y16990477D01*
X73333333Y16990477D01*
X73142857Y17038096D01*
X73047619Y17085715D01*
X73000000Y17133334D01*
X72952380Y17228572D01*
G04 #@! TO.C,R91*
X76652380Y12457143D02*
X76176190Y12123810D01*
X76652380Y11885715D02*
X75652380Y11885715D01*
X75652380Y12266667D01*
X75700000Y12361905D01*
X75747619Y12409524D01*
X75842857Y12457143D01*
X75985714Y12457143D01*
X76080952Y12409524D01*
X76128571Y12361905D01*
X76176190Y12266667D01*
X76176190Y11885715D01*
X76652380Y12933334D02*
X76652380Y13123810D01*
X76604761Y13219048D01*
X76557142Y13266667D01*
X76414285Y13361905D01*
X76223809Y13409524D01*
X75842857Y13409524D01*
X75747619Y13361905D01*
X75700000Y13314286D01*
X75652380Y13219048D01*
X75652380Y13028572D01*
X75700000Y12933334D01*
X75747619Y12885715D01*
X75842857Y12838096D01*
X76080952Y12838096D01*
X76176190Y12885715D01*
X76223809Y12933334D01*
X76271428Y13028572D01*
X76271428Y13219048D01*
X76223809Y13314286D01*
X76176190Y13361905D01*
X76080952Y13409524D01*
X76652380Y14361905D02*
X76652380Y13790477D01*
X76652380Y14076191D02*
X75652380Y14076191D01*
X75795238Y13980953D01*
X75890476Y13885715D01*
X75938095Y13790477D01*
G04 #@! TO.C,R93*
X77752380Y12457143D02*
X77276190Y12123810D01*
X77752380Y11885715D02*
X76752380Y11885715D01*
X76752380Y12266667D01*
X76800000Y12361905D01*
X76847619Y12409524D01*
X76942857Y12457143D01*
X77085714Y12457143D01*
X77180952Y12409524D01*
X77228571Y12361905D01*
X77276190Y12266667D01*
X77276190Y11885715D01*
X77752380Y12933334D02*
X77752380Y13123810D01*
X77704761Y13219048D01*
X77657142Y13266667D01*
X77514285Y13361905D01*
X77323809Y13409524D01*
X76942857Y13409524D01*
X76847619Y13361905D01*
X76800000Y13314286D01*
X76752380Y13219048D01*
X76752380Y13028572D01*
X76800000Y12933334D01*
X76847619Y12885715D01*
X76942857Y12838096D01*
X77180952Y12838096D01*
X77276190Y12885715D01*
X77323809Y12933334D01*
X77371428Y13028572D01*
X77371428Y13219048D01*
X77323809Y13314286D01*
X77276190Y13361905D01*
X77180952Y13409524D01*
X76752380Y13742858D02*
X76752380Y14361905D01*
X77133333Y14028572D01*
X77133333Y14171429D01*
X77180952Y14266667D01*
X77228571Y14314286D01*
X77323809Y14361905D01*
X77561904Y14361905D01*
X77657142Y14314286D01*
X77704761Y14266667D01*
X77752380Y14171429D01*
X77752380Y13885715D01*
X77704761Y13790477D01*
X77657142Y13742858D01*
G04 #@! TO.C,R94*
X72452380Y15657143D02*
X71976190Y15323810D01*
X72452380Y15085715D02*
X71452380Y15085715D01*
X71452380Y15466667D01*
X71500000Y15561905D01*
X71547619Y15609524D01*
X71642857Y15657143D01*
X71785714Y15657143D01*
X71880952Y15609524D01*
X71928571Y15561905D01*
X71976190Y15466667D01*
X71976190Y15085715D01*
X72452380Y16133334D02*
X72452380Y16323810D01*
X72404761Y16419048D01*
X72357142Y16466667D01*
X72214285Y16561905D01*
X72023809Y16609524D01*
X71642857Y16609524D01*
X71547619Y16561905D01*
X71500000Y16514286D01*
X71452380Y16419048D01*
X71452380Y16228572D01*
X71500000Y16133334D01*
X71547619Y16085715D01*
X71642857Y16038096D01*
X71880952Y16038096D01*
X71976190Y16085715D01*
X72023809Y16133334D01*
X72071428Y16228572D01*
X72071428Y16419048D01*
X72023809Y16514286D01*
X71976190Y16561905D01*
X71880952Y16609524D01*
X71785714Y17466667D02*
X72452380Y17466667D01*
X71404761Y17228572D02*
X72119047Y16990477D01*
X72119047Y17609524D01*
G04 #@! TO.C,R95*
X67552380Y15757143D02*
X67076190Y15423810D01*
X67552380Y15185715D02*
X66552380Y15185715D01*
X66552380Y15566667D01*
X66600000Y15661905D01*
X66647619Y15709524D01*
X66742857Y15757143D01*
X66885714Y15757143D01*
X66980952Y15709524D01*
X67028571Y15661905D01*
X67076190Y15566667D01*
X67076190Y15185715D01*
X67552380Y16233334D02*
X67552380Y16423810D01*
X67504761Y16519048D01*
X67457142Y16566667D01*
X67314285Y16661905D01*
X67123809Y16709524D01*
X66742857Y16709524D01*
X66647619Y16661905D01*
X66600000Y16614286D01*
X66552380Y16519048D01*
X66552380Y16328572D01*
X66600000Y16233334D01*
X66647619Y16185715D01*
X66742857Y16138096D01*
X66980952Y16138096D01*
X67076190Y16185715D01*
X67123809Y16233334D01*
X67171428Y16328572D01*
X67171428Y16519048D01*
X67123809Y16614286D01*
X67076190Y16661905D01*
X66980952Y16709524D01*
X66552380Y17614286D02*
X66552380Y17138096D01*
X67028571Y17090477D01*
X66980952Y17138096D01*
X66933333Y17233334D01*
X66933333Y17471429D01*
X66980952Y17566667D01*
X67028571Y17614286D01*
X67123809Y17661905D01*
X67361904Y17661905D01*
X67457142Y17614286D01*
X67504761Y17566667D01*
X67552380Y17471429D01*
X67552380Y17233334D01*
X67504761Y17138096D01*
X67457142Y17090477D01*
G04 #@! TO.C,SW1*
X51766666Y66095239D02*
X51909523Y66047620D01*
X52147619Y66047620D01*
X52242857Y66095239D01*
X52290476Y66142858D01*
X52338095Y66238096D01*
X52338095Y66333334D01*
X52290476Y66428572D01*
X52242857Y66476191D01*
X52147619Y66523810D01*
X51957142Y66571429D01*
X51861904Y66619048D01*
X51814285Y66666667D01*
X51766666Y66761905D01*
X51766666Y66857143D01*
X51814285Y66952381D01*
X51861904Y67000000D01*
X51957142Y67047620D01*
X52195238Y67047620D01*
X52338095Y67000000D01*
X52671428Y67047620D02*
X52909523Y66047620D01*
X53100000Y66761905D01*
X53290476Y66047620D01*
X53528571Y67047620D01*
X54433333Y66047620D02*
X53861904Y66047620D01*
X54147619Y66047620D02*
X54147619Y67047620D01*
X54052380Y66904762D01*
X53957142Y66809524D01*
X53861904Y66761905D01*
G04 #@! TO.C,U1*
X39238095Y64197620D02*
X39238095Y63388096D01*
X39285714Y63292858D01*
X39333333Y63245239D01*
X39428571Y63197620D01*
X39619047Y63197620D01*
X39714285Y63245239D01*
X39761904Y63292858D01*
X39809523Y63388096D01*
X39809523Y64197620D01*
X40809523Y63197620D02*
X40238095Y63197620D01*
X40523809Y63197620D02*
X40523809Y64197620D01*
X40428571Y64054762D01*
X40333333Y63959524D01*
X40238095Y63911905D01*
G04 #@! TO.C,U3*
X62038095Y23747620D02*
X62038095Y22938096D01*
X62085714Y22842858D01*
X62133333Y22795239D01*
X62228571Y22747620D01*
X62419047Y22747620D01*
X62514285Y22795239D01*
X62561904Y22842858D01*
X62609523Y22938096D01*
X62609523Y23747620D01*
X62990476Y23747620D02*
X63609523Y23747620D01*
X63276190Y23366667D01*
X63419047Y23366667D01*
X63514285Y23319048D01*
X63561904Y23271429D01*
X63609523Y23176191D01*
X63609523Y22938096D01*
X63561904Y22842858D01*
X63514285Y22795239D01*
X63419047Y22747620D01*
X63133333Y22747620D01*
X63038095Y22795239D01*
X62990476Y22842858D01*
G04 #@! TO.C,U8*
X3538095Y72147620D02*
X3538095Y71338096D01*
X3585714Y71242858D01*
X3633333Y71195239D01*
X3728571Y71147620D01*
X3919047Y71147620D01*
X4014285Y71195239D01*
X4061904Y71242858D01*
X4109523Y71338096D01*
X4109523Y72147620D01*
X4728571Y71719048D02*
X4633333Y71766667D01*
X4585714Y71814286D01*
X4538095Y71909524D01*
X4538095Y71957143D01*
X4585714Y72052381D01*
X4633333Y72100000D01*
X4728571Y72147620D01*
X4919047Y72147620D01*
X5014285Y72100000D01*
X5061904Y72052381D01*
X5109523Y71957143D01*
X5109523Y71909524D01*
X5061904Y71814286D01*
X5014285Y71766667D01*
X4919047Y71719048D01*
X4728571Y71719048D01*
X4633333Y71671429D01*
X4585714Y71623810D01*
X4538095Y71528572D01*
X4538095Y71338096D01*
X4585714Y71242858D01*
X4633333Y71195239D01*
X4728571Y71147620D01*
X4919047Y71147620D01*
X5014285Y71195239D01*
X5061904Y71242858D01*
X5109523Y71338096D01*
X5109523Y71528572D01*
X5061904Y71623810D01*
X5014285Y71671429D01*
X4919047Y71719048D01*
G04 #@! TO.C,RN7*
X28109523Y57847620D02*
X27776190Y58323810D01*
X27538095Y57847620D02*
X27538095Y58847620D01*
X27919047Y58847620D01*
X28014285Y58800000D01*
X28061904Y58752381D01*
X28109523Y58657143D01*
X28109523Y58514286D01*
X28061904Y58419048D01*
X28014285Y58371429D01*
X27919047Y58323810D01*
X27538095Y58323810D01*
X28538095Y57847620D02*
X28538095Y58847620D01*
X29109523Y57847620D01*
X29109523Y58847620D01*
X29490476Y58847620D02*
X30157142Y58847620D01*
X29728571Y57847620D01*
G04 #@! TD*
M02*
