G04 #@! TF.GenerationSoftware,KiCad,Pcbnew,(5.0.0)*
G04 #@! TF.CreationDate,2020-01-25T17:25:25+09:00*
G04 #@! TF.ProjectId,General_purpose_lancer_board,47656E6572616C5F707572706F73655F,rev?*
G04 #@! TF.SameCoordinates,PX69618a0PY822d320*
G04 #@! TF.FileFunction,Soldermask,Top*
G04 #@! TF.FilePolarity,Negative*
%FSLAX46Y46*%
G04 Gerber Fmt 4.6, Leading zero omitted, Abs format (unit mm)*
G04 Created by KiCad (PCBNEW (5.0.0)) date 01/25/20 17:25:25*
%MOMM*%
%LPD*%
G01*
G04 APERTURE LIST*
%ADD10R,3.100000X1.400000*%
%ADD11R,4.200000X2.200000*%
%ADD12R,0.700000X1.400000*%
%ADD13R,2.400000X1.700000*%
%ADD14R,1.150000X0.900000*%
%ADD15R,0.600000X1.200000*%
%ADD16R,1.275000X1.200000*%
%ADD17R,1.200000X0.600000*%
%ADD18R,1.100000X0.600000*%
%ADD19R,0.600000X1.100000*%
%ADD20R,1.400000X1.400000*%
%ADD21R,1.300000X0.900000*%
%ADD22R,1.150000X1.200000*%
%ADD23R,1.200000X1.150000*%
%ADD24C,2.400000*%
%ADD25C,4.400000*%
%ADD26C,3.600000*%
%ADD27R,1.400000X1.200000*%
%ADD28R,1.050000X1.200000*%
%ADD29R,1.620000X1.050000*%
%ADD30R,5.550000X2.400000*%
%ADD31R,1.900000X1.600000*%
%ADD32R,4.400000X2.900000*%
%ADD33R,2.900000X1.400000*%
%ADD34R,1.400000X2.900000*%
%ADD35R,2.000000X3.400000*%
%ADD36R,3.400000X2.000000*%
%ADD37R,1.200000X1.200000*%
%ADD38R,1.500000X1.500000*%
%ADD39R,2.900000X2.700000*%
%ADD40R,1.500000X1.200000*%
%ADD41R,1.500000X2.400000*%
%ADD42R,1.300000X1.600000*%
%ADD43R,2.700000X2.900000*%
%ADD44R,2.180000X1.120000*%
%ADD45R,1.950000X1.000000*%
%ADD46R,2.200000X1.600000*%
%ADD47R,1.000000X1.950000*%
%ADD48R,1.600000X2.200000*%
%ADD49R,0.900000X1.300000*%
%ADD50R,2.000000X1.050000*%
%ADD51R,1.900000X1.050000*%
%ADD52R,1.900000X0.680000*%
%ADD53R,0.680000X1.900000*%
%ADD54C,1.150000*%
%ADD55C,0.100000*%
%ADD56R,1.900000X1.100000*%
%ADD57R,1.900000X1.400000*%
%ADD58R,1.200000X2.400000*%
%ADD59R,1.900000X0.850000*%
%ADD60R,1.200000X0.900000*%
%ADD61R,1.200000X0.800000*%
G04 APERTURE END LIST*
D10*
G04 #@! TO.C,J4*
X70700000Y66000000D03*
X70700000Y64000000D03*
D11*
X75150000Y68350000D03*
X75150000Y61650000D03*
G04 #@! TD*
D12*
G04 #@! TO.C,J17*
X42050000Y74300000D03*
X40550000Y74300000D03*
X41050000Y74300000D03*
X41550000Y74300000D03*
X40050000Y74300000D03*
X42550000Y74300000D03*
X39550000Y74300000D03*
X39050000Y74300000D03*
X38550000Y74300000D03*
X38050000Y74300000D03*
X37550000Y74300000D03*
X37050000Y74300000D03*
D13*
X44850000Y77000000D03*
D12*
X35050000Y74300000D03*
D13*
X29750000Y77000000D03*
D12*
X34550000Y74300000D03*
X33050000Y74300000D03*
X33550000Y74300000D03*
X35550000Y74300000D03*
X32050000Y74300000D03*
X36550000Y74300000D03*
X32550000Y74300000D03*
X34050000Y74300000D03*
X36050000Y74300000D03*
G04 #@! TD*
D14*
G04 #@! TO.C,LED1*
X27500000Y54100000D03*
X29050000Y54100000D03*
X29050000Y55100000D03*
X27500000Y55100000D03*
G04 #@! TD*
D15*
G04 #@! TO.C,U9*
X30610000Y66300000D03*
X30210000Y69420000D03*
D16*
X30445000Y67460000D03*
D17*
X28450000Y67660000D03*
D15*
X29410000Y69420000D03*
D18*
X28400000Y68860000D03*
X31620000Y66860000D03*
X31620000Y68860000D03*
D19*
X29010000Y69470000D03*
D17*
X31570000Y68460000D03*
D15*
X29810000Y69420000D03*
D17*
X28450000Y67260000D03*
D19*
X31010000Y66250000D03*
D17*
X31570000Y68060000D03*
D15*
X29810000Y66300000D03*
X30610000Y69420000D03*
D16*
X30445000Y68260000D03*
D17*
X31570000Y67260000D03*
D19*
X31010000Y69470000D03*
D15*
X29410000Y66300000D03*
D17*
X28450000Y68060000D03*
X28450000Y68460000D03*
D18*
X28400000Y66860000D03*
D15*
X30210000Y66300000D03*
D17*
X31570000Y67660000D03*
D19*
X29010000Y66250000D03*
D16*
X29575000Y67460000D03*
X29575000Y68260000D03*
G04 #@! TD*
D20*
G04 #@! TO.C,U10*
X72400000Y4900000D03*
X72400000Y7100000D03*
X62600000Y7100000D03*
X62600000Y4900000D03*
X69400000Y1100000D03*
X65600000Y1100000D03*
X65600000Y10900000D03*
X69400000Y10900000D03*
X67500000Y10900000D03*
X67500000Y1100000D03*
G04 #@! TD*
D21*
G04 #@! TO.C,R96*
X78800000Y11250000D03*
X78800000Y9750000D03*
G04 #@! TD*
G04 #@! TO.C,R92*
X77200000Y11250000D03*
X77200000Y9750000D03*
G04 #@! TD*
D22*
G04 #@! TO.C,C79*
X78000000Y6850000D03*
X78000000Y8350000D03*
G04 #@! TD*
D23*
G04 #@! TO.C,C12*
X44050000Y42900000D03*
X45550000Y42900000D03*
G04 #@! TD*
D21*
G04 #@! TO.C,R19*
X32700000Y36850000D03*
X32700000Y35350000D03*
G04 #@! TD*
D10*
G04 #@! TO.C,J5*
X9300000Y47500000D03*
X9300000Y49500000D03*
D11*
X4850000Y45150000D03*
X4850000Y51850000D03*
G04 #@! TD*
D10*
G04 #@! TO.C,J6*
X70700000Y38000000D03*
X70700000Y36000000D03*
D11*
X75150000Y40350000D03*
X75150000Y33650000D03*
G04 #@! TD*
D10*
G04 #@! TO.C,J7*
X9300000Y59700000D03*
X9300000Y61700000D03*
D11*
X4850000Y57350000D03*
X4850000Y64050000D03*
G04 #@! TD*
D10*
G04 #@! TO.C,J8*
X9300000Y33500000D03*
X9300000Y35500000D03*
D11*
X4850000Y31150000D03*
X4850000Y37850000D03*
G04 #@! TD*
D10*
G04 #@! TO.C,J9*
X70700000Y52000000D03*
X70700000Y50000000D03*
D11*
X75150000Y54350000D03*
X75150000Y47650000D03*
G04 #@! TD*
D24*
G04 #@! TO.C,J3*
X6900000Y21200000D03*
X6900000Y10200000D03*
D25*
X16900000Y18200000D03*
X16900000Y13200000D03*
G04 #@! TD*
D26*
G04 #@! TO.C,REF\002A\002A*
X2500000Y77500000D03*
G04 #@! TD*
G04 #@! TO.C,REF\002A\002A*
X2500000Y2500000D03*
G04 #@! TD*
G04 #@! TO.C,REF\002A\002A*
X77500000Y2500000D03*
G04 #@! TD*
G04 #@! TO.C,REF\002A\002A*
X77500000Y77500000D03*
G04 #@! TD*
D27*
G04 #@! TO.C,RV1*
X28300000Y18000000D03*
D28*
X28925000Y20600000D03*
X27675000Y20600000D03*
G04 #@! TD*
D29*
G04 #@! TO.C,U2*
X30290000Y15450000D03*
X30290000Y14500000D03*
X30290000Y13550000D03*
X32910000Y13550000D03*
X32910000Y14500000D03*
X32910000Y15450000D03*
G04 #@! TD*
D30*
G04 #@! TO.C,L2*
X40900000Y14900000D03*
X40900000Y20850000D03*
G04 #@! TD*
D31*
G04 #@! TO.C,SW2*
X25350000Y18200000D03*
X25350000Y13200000D03*
X21050000Y18200000D03*
X21050000Y13200000D03*
X21050000Y15700000D03*
X25350000Y15700000D03*
G04 #@! TD*
D23*
G04 #@! TO.C,C2*
X47350000Y64000000D03*
X45850000Y64000000D03*
G04 #@! TD*
G04 #@! TO.C,C6*
X32750000Y63800000D03*
X34250000Y63800000D03*
G04 #@! TD*
D22*
G04 #@! TO.C,C7*
X30300000Y47250000D03*
X30300000Y45750000D03*
G04 #@! TD*
D32*
G04 #@! TO.C,C8*
X20050000Y6300000D03*
X13950000Y6300000D03*
G04 #@! TD*
D33*
G04 #@! TO.C,C9*
X24200000Y6000000D03*
X24200000Y3000000D03*
G04 #@! TD*
D23*
G04 #@! TO.C,C10*
X44000000Y44300000D03*
X45500000Y44300000D03*
G04 #@! TD*
D34*
G04 #@! TO.C,C11*
X31700000Y10300000D03*
X34700000Y10300000D03*
G04 #@! TD*
D22*
G04 #@! TO.C,C14*
X51300000Y60850000D03*
X51300000Y62350000D03*
G04 #@! TD*
G04 #@! TO.C,C15*
X49800000Y62350000D03*
X49800000Y60850000D03*
G04 #@! TD*
G04 #@! TO.C,C16*
X34900000Y15500000D03*
X34900000Y17000000D03*
G04 #@! TD*
D23*
G04 #@! TO.C,C17*
X31050000Y18300000D03*
X32550000Y18300000D03*
G04 #@! TD*
D35*
G04 #@! TO.C,C18*
X48700000Y15300000D03*
X48700000Y10900000D03*
G04 #@! TD*
D33*
G04 #@! TO.C,C19*
X45400000Y21300000D03*
X45400000Y18300000D03*
G04 #@! TD*
D22*
G04 #@! TO.C,C20*
X52450000Y13150000D03*
X52450000Y14650000D03*
G04 #@! TD*
G04 #@! TO.C,C21*
X56550000Y18100000D03*
X56550000Y19600000D03*
G04 #@! TD*
D36*
G04 #@! TO.C,C22*
X53800000Y20100000D03*
X49400000Y20100000D03*
G04 #@! TD*
D23*
G04 #@! TO.C,C23*
X42250000Y30400000D03*
X43750000Y30400000D03*
G04 #@! TD*
G04 #@! TO.C,C25*
X42150000Y38900000D03*
X43650000Y38900000D03*
G04 #@! TD*
G04 #@! TO.C,C27*
X42100000Y23300000D03*
X43600000Y23300000D03*
G04 #@! TD*
G04 #@! TO.C,C28*
X29200000Y33200000D03*
X30700000Y33200000D03*
G04 #@! TD*
G04 #@! TO.C,C29*
X42250000Y32900000D03*
X43750000Y32900000D03*
G04 #@! TD*
G04 #@! TO.C,C43*
X68450000Y62500000D03*
X69950000Y62500000D03*
G04 #@! TD*
G04 #@! TO.C,C46*
X11550000Y51000000D03*
X10050000Y51000000D03*
G04 #@! TD*
G04 #@! TO.C,C49*
X68350000Y34400000D03*
X69850000Y34400000D03*
G04 #@! TD*
G04 #@! TO.C,C53*
X11550000Y65600000D03*
X10050000Y65600000D03*
G04 #@! TD*
D33*
G04 #@! TO.C,C55*
X69200000Y60900000D03*
X69200000Y57900000D03*
G04 #@! TD*
G04 #@! TO.C,C56*
X10800000Y52600000D03*
X10800000Y55600000D03*
G04 #@! TD*
G04 #@! TO.C,C57*
X69200000Y32900000D03*
X69200000Y29900000D03*
G04 #@! TD*
G04 #@! TO.C,C58*
X11400000Y67200000D03*
X11400000Y70200000D03*
G04 #@! TD*
D23*
G04 #@! TO.C,C63*
X950000Y72800000D03*
X2450000Y72800000D03*
G04 #@! TD*
G04 #@! TO.C,C64*
X5350000Y72800000D03*
X3850000Y72800000D03*
G04 #@! TD*
G04 #@! TO.C,C68*
X11550000Y37000000D03*
X10050000Y37000000D03*
G04 #@! TD*
G04 #@! TO.C,C71*
X68450000Y48500000D03*
X69950000Y48500000D03*
G04 #@! TD*
D33*
G04 #@! TO.C,C73*
X10800000Y38600000D03*
X10800000Y41600000D03*
G04 #@! TD*
G04 #@! TO.C,C74*
X69200000Y46900000D03*
X69200000Y43900000D03*
G04 #@! TD*
D22*
G04 #@! TO.C,C75*
X65100000Y12950000D03*
X65100000Y14450000D03*
G04 #@! TD*
G04 #@! TO.C,C76*
X26800000Y66850000D03*
X26800000Y68350000D03*
G04 #@! TD*
D23*
G04 #@! TO.C,C77*
X28850000Y71100000D03*
X27350000Y71100000D03*
G04 #@! TD*
G04 #@! TO.C,C78*
X31350000Y71100000D03*
X32850000Y71100000D03*
G04 #@! TD*
D22*
G04 #@! TO.C,C80*
X70100000Y12950000D03*
X70100000Y14450000D03*
G04 #@! TD*
G04 #@! TO.C,C81*
X75000000Y12950000D03*
X75000000Y14450000D03*
G04 #@! TD*
G04 #@! TO.C,C82*
X74600000Y6850000D03*
X74600000Y8350000D03*
G04 #@! TD*
D32*
G04 #@! TO.C,C85*
X8350000Y75500000D03*
X14450000Y75500000D03*
G04 #@! TD*
G04 #@! TO.C,C86*
X71550000Y75200000D03*
X65450000Y75200000D03*
G04 #@! TD*
D37*
G04 #@! TO.C,D1*
X27500000Y13800000D03*
X27500000Y12200000D03*
G04 #@! TD*
D38*
G04 #@! TO.C,D2*
X28900000Y10300000D03*
X26100000Y10300000D03*
G04 #@! TD*
D39*
G04 #@! TO.C,D3*
X37550000Y11100000D03*
X41850000Y11100000D03*
G04 #@! TD*
D40*
G04 #@! TO.C,D4*
X36500000Y13800000D03*
D41*
X36500000Y15700000D03*
G04 #@! TD*
D42*
G04 #@! TO.C,D5*
X34050000Y19200000D03*
X37350000Y19200000D03*
G04 #@! TD*
D43*
G04 #@! TO.C,D6*
X55700000Y14900000D03*
X55700000Y10600000D03*
G04 #@! TD*
D37*
G04 #@! TO.C,D7*
X45100000Y13000000D03*
X45100000Y11400000D03*
G04 #@! TD*
G04 #@! TO.C,D8*
X58100000Y18900000D03*
X58100000Y17300000D03*
G04 #@! TD*
D44*
G04 #@! TO.C,FET1*
X65580000Y62730000D03*
X65580000Y61460000D03*
X65580000Y60190000D03*
X65580000Y64000000D03*
X60900000Y60190000D03*
X60900000Y61460000D03*
X60900000Y62730000D03*
X60900000Y64000000D03*
G04 #@! TD*
G04 #@! TO.C,FET2*
X65580000Y67930000D03*
X65580000Y66660000D03*
X65580000Y65390000D03*
X65580000Y69200000D03*
X60900000Y65390000D03*
X60900000Y66660000D03*
X60900000Y67930000D03*
X60900000Y69200000D03*
G04 #@! TD*
G04 #@! TO.C,FET3*
X14420000Y50770000D03*
X14420000Y52040000D03*
X14420000Y53310000D03*
X14420000Y49500000D03*
X19100000Y53310000D03*
X19100000Y52040000D03*
X19100000Y50770000D03*
X19100000Y49500000D03*
G04 #@! TD*
G04 #@! TO.C,FET4*
X14420000Y45570000D03*
X14420000Y46840000D03*
X14420000Y48110000D03*
X14420000Y44300000D03*
X19100000Y48110000D03*
X19100000Y46840000D03*
X19100000Y45570000D03*
X19100000Y44300000D03*
G04 #@! TD*
G04 #@! TO.C,FET5*
X65580000Y34730000D03*
X65580000Y33460000D03*
X65580000Y32190000D03*
X65580000Y36000000D03*
X60900000Y32190000D03*
X60900000Y33460000D03*
X60900000Y34730000D03*
X60900000Y36000000D03*
G04 #@! TD*
G04 #@! TO.C,FET6*
X65580000Y39930000D03*
X65580000Y38660000D03*
X65580000Y37390000D03*
X65580000Y41200000D03*
X60900000Y37390000D03*
X60900000Y38660000D03*
X60900000Y39930000D03*
X60900000Y41200000D03*
G04 #@! TD*
G04 #@! TO.C,FET7*
X14420000Y65370000D03*
X14420000Y66640000D03*
X14420000Y67910000D03*
X14420000Y64100000D03*
X19100000Y67910000D03*
X19100000Y66640000D03*
X19100000Y65370000D03*
X19100000Y64100000D03*
G04 #@! TD*
G04 #@! TO.C,FET8*
X14420000Y60170000D03*
X14420000Y61440000D03*
X14420000Y62710000D03*
X14420000Y58900000D03*
X19100000Y62710000D03*
X19100000Y61440000D03*
X19100000Y60170000D03*
X19100000Y58900000D03*
G04 #@! TD*
G04 #@! TO.C,FET9*
X14420000Y36770000D03*
X14420000Y38040000D03*
X14420000Y39310000D03*
X14420000Y35500000D03*
X19100000Y39310000D03*
X19100000Y38040000D03*
X19100000Y36770000D03*
X19100000Y35500000D03*
G04 #@! TD*
G04 #@! TO.C,FET10*
X14420000Y31570000D03*
X14420000Y32840000D03*
X14420000Y34110000D03*
X14420000Y30300000D03*
X19100000Y34110000D03*
X19100000Y32840000D03*
X19100000Y31570000D03*
X19100000Y30300000D03*
G04 #@! TD*
G04 #@! TO.C,FET11*
X65580000Y48730000D03*
X65580000Y47460000D03*
X65580000Y46190000D03*
X65580000Y50000000D03*
X60900000Y46190000D03*
X60900000Y47460000D03*
X60900000Y48730000D03*
X60900000Y50000000D03*
G04 #@! TD*
G04 #@! TO.C,FET12*
X65580000Y53930000D03*
X65580000Y52660000D03*
X65580000Y51390000D03*
X65580000Y55200000D03*
X60900000Y51390000D03*
X60900000Y52660000D03*
X60900000Y53930000D03*
X60900000Y55200000D03*
G04 #@! TD*
D45*
G04 #@! TO.C,J1*
X53437500Y77400000D03*
X53437500Y76400000D03*
X53437500Y75400000D03*
X53437500Y74400000D03*
X53437500Y73400000D03*
X53437500Y72400000D03*
D46*
X55962500Y78700000D03*
X55962500Y71100000D03*
G04 #@! TD*
D45*
G04 #@! TO.C,J2*
X59100000Y77300000D03*
X59100000Y76300000D03*
X59100000Y75300000D03*
X59100000Y74300000D03*
D46*
X61625000Y78600000D03*
X61625000Y73000000D03*
G04 #@! TD*
D47*
G04 #@! TO.C,J10*
X9600000Y24137500D03*
X10600000Y24137500D03*
X11600000Y24137500D03*
X12600000Y24137500D03*
D48*
X8300000Y26662500D03*
X13900000Y26662500D03*
G04 #@! TD*
D47*
G04 #@! TO.C,J11*
X2600000Y24137500D03*
X3600000Y24137500D03*
X4600000Y24137500D03*
D48*
X1300000Y26662500D03*
X5900000Y26662500D03*
G04 #@! TD*
D45*
G04 #@! TO.C,J12*
X67137500Y21500000D03*
X67137500Y20500000D03*
X67137500Y19500000D03*
D46*
X69662500Y22800000D03*
X69662500Y18200000D03*
G04 #@! TD*
D45*
G04 #@! TO.C,J14*
X72537500Y21500000D03*
X72537500Y20500000D03*
X72537500Y19500000D03*
D46*
X75062500Y22800000D03*
X75062500Y18200000D03*
G04 #@! TD*
D45*
G04 #@! TO.C,J15*
X47537500Y77400000D03*
X47537500Y76400000D03*
X47537500Y75400000D03*
X47537500Y74400000D03*
X47537500Y73400000D03*
D46*
X50062500Y78700000D03*
X50062500Y72100000D03*
G04 #@! TD*
D13*
G04 #@! TO.C,J16*
X27150000Y76950000D03*
X18050000Y76950000D03*
D12*
X24850000Y74250000D03*
X24350000Y74250000D03*
X23850000Y74250000D03*
X23350000Y74250000D03*
X22850000Y74250000D03*
X22350000Y74250000D03*
X21850000Y74250000D03*
X21350000Y74250000D03*
X20850000Y74250000D03*
X20350000Y74250000D03*
G04 #@! TD*
D49*
G04 #@! TO.C,R1*
X49150000Y68900000D03*
X50650000Y68900000D03*
G04 #@! TD*
G04 #@! TO.C,R3*
X35500000Y63800000D03*
X37000000Y63800000D03*
G04 #@! TD*
D21*
G04 #@! TO.C,R4*
X27500000Y16750000D03*
X27500000Y15250000D03*
G04 #@! TD*
D49*
G04 #@! TO.C,R6*
X32550000Y20600000D03*
X31050000Y20600000D03*
G04 #@! TD*
D21*
G04 #@! TO.C,R7*
X26000000Y21200000D03*
X26000000Y19700000D03*
G04 #@! TD*
G04 #@! TO.C,R8*
X45100000Y16200000D03*
X45100000Y14700000D03*
G04 #@! TD*
G04 #@! TO.C,R9*
X58100000Y22150000D03*
X58100000Y20650000D03*
G04 #@! TD*
G04 #@! TO.C,R10*
X42200000Y26750000D03*
X42200000Y25250000D03*
G04 #@! TD*
G04 #@! TO.C,R11*
X29200000Y36850000D03*
X29200000Y35350000D03*
G04 #@! TD*
G04 #@! TO.C,R12*
X42200000Y36650000D03*
X42200000Y35150000D03*
G04 #@! TD*
G04 #@! TO.C,R13*
X29100000Y26700000D03*
X29100000Y25200000D03*
G04 #@! TD*
G04 #@! TO.C,R14*
X44000000Y26750000D03*
X44000000Y25250000D03*
G04 #@! TD*
G04 #@! TO.C,R15*
X30900000Y36850000D03*
X30900000Y35350000D03*
G04 #@! TD*
G04 #@! TO.C,R16*
X44000000Y36650000D03*
X44000000Y35150000D03*
G04 #@! TD*
G04 #@! TO.C,R17*
X30900000Y26700000D03*
X30900000Y25200000D03*
G04 #@! TD*
G04 #@! TO.C,R18*
X45800000Y26750000D03*
X45800000Y25250000D03*
G04 #@! TD*
G04 #@! TO.C,R20*
X45800000Y36650000D03*
X45800000Y35150000D03*
G04 #@! TD*
G04 #@! TO.C,R21*
X32700000Y26750000D03*
X32700000Y25250000D03*
G04 #@! TD*
G04 #@! TO.C,R22*
X47700000Y26750000D03*
X47700000Y25250000D03*
G04 #@! TD*
G04 #@! TO.C,R23*
X34500000Y36850000D03*
X34500000Y35350000D03*
G04 #@! TD*
G04 #@! TO.C,R24*
X47600000Y36650000D03*
X47600000Y35150000D03*
G04 #@! TD*
G04 #@! TO.C,R25*
X34500000Y26750000D03*
X34500000Y25250000D03*
G04 #@! TD*
G04 #@! TO.C,R26*
X49500000Y26750000D03*
X49500000Y25250000D03*
G04 #@! TD*
G04 #@! TO.C,R27*
X36200000Y36900000D03*
X36200000Y35400000D03*
G04 #@! TD*
G04 #@! TO.C,R28*
X49400000Y36650000D03*
X49400000Y35150000D03*
G04 #@! TD*
G04 #@! TO.C,R29*
X36300000Y26750000D03*
X36300000Y25250000D03*
G04 #@! TD*
G04 #@! TO.C,R30*
X51300000Y26750000D03*
X51300000Y25250000D03*
G04 #@! TD*
G04 #@! TO.C,R31*
X37900000Y36900000D03*
X37900000Y35400000D03*
G04 #@! TD*
G04 #@! TO.C,R32*
X51200000Y36650000D03*
X51200000Y35150000D03*
G04 #@! TD*
G04 #@! TO.C,R33*
X38100000Y26750000D03*
X38100000Y25250000D03*
G04 #@! TD*
D49*
G04 #@! TO.C,R84*
X28850000Y49500000D03*
X27350000Y49500000D03*
G04 #@! TD*
G04 #@! TO.C,R85*
X28850000Y51100000D03*
X27350000Y51100000D03*
G04 #@! TD*
G04 #@! TO.C,R86*
X28850000Y52700000D03*
X27350000Y52700000D03*
G04 #@! TD*
D21*
G04 #@! TO.C,R87*
X62100000Y13050000D03*
X62100000Y14550000D03*
G04 #@! TD*
G04 #@! TO.C,R88*
X63600000Y14550000D03*
X63600000Y13050000D03*
G04 #@! TD*
G04 #@! TO.C,R89*
X68600000Y14450000D03*
X68600000Y12950000D03*
G04 #@! TD*
G04 #@! TO.C,R90*
X73500000Y14450000D03*
X73500000Y12950000D03*
G04 #@! TD*
G04 #@! TO.C,R91*
X73800000Y11250000D03*
X73800000Y9750000D03*
G04 #@! TD*
G04 #@! TO.C,R93*
X75400000Y11250000D03*
X75400000Y9750000D03*
G04 #@! TD*
G04 #@! TO.C,R94*
X72000000Y14450000D03*
X72000000Y12950000D03*
G04 #@! TD*
G04 #@! TO.C,R95*
X67100000Y14450000D03*
X67100000Y12950000D03*
G04 #@! TD*
D50*
G04 #@! TO.C,SW1*
X45800000Y65350000D03*
D51*
X50600000Y65350000D03*
D50*
X45800000Y67500000D03*
D51*
X50600000Y67500000D03*
G04 #@! TD*
D52*
G04 #@! TO.C,U1*
X32100000Y60000000D03*
X32100000Y59500000D03*
X32100000Y59000000D03*
X32100000Y58500000D03*
X32100000Y58000000D03*
X32100000Y57500000D03*
X32100000Y57000000D03*
X32100000Y56500000D03*
X32100000Y56000000D03*
X32100000Y55500000D03*
X32100000Y55000000D03*
X32100000Y54500000D03*
X32100000Y54000000D03*
X32100000Y53500000D03*
X32100000Y53000000D03*
X32100000Y52500000D03*
X32100000Y52000000D03*
X32100000Y51500000D03*
X32100000Y51000000D03*
X32100000Y50500000D03*
X32100000Y50000000D03*
X32100000Y49500000D03*
X32100000Y49000000D03*
X32100000Y48500000D03*
X32100000Y48000000D03*
D53*
X34000000Y46100000D03*
X34500000Y46100000D03*
X35000000Y46100000D03*
X35500000Y46100000D03*
X36000000Y46100000D03*
X36500000Y46100000D03*
X37000000Y46100000D03*
X37500000Y46100000D03*
X38000000Y46100000D03*
X38500000Y46100000D03*
X39000000Y46100000D03*
X39500000Y46100000D03*
X40000000Y46100000D03*
X40500000Y46100000D03*
X41000000Y46100000D03*
X41500000Y46100000D03*
X42000000Y46100000D03*
X42500000Y46100000D03*
X43000000Y46100000D03*
X43500000Y46100000D03*
X44000000Y46100000D03*
X44500000Y46100000D03*
X45000000Y46100000D03*
X45500000Y46100000D03*
X46000000Y46100000D03*
D52*
X47900000Y48000000D03*
X47900000Y48500000D03*
X47900000Y49000000D03*
X47900000Y49500000D03*
X47900000Y50000000D03*
X47900000Y50500000D03*
X47900000Y51000000D03*
X47900000Y51500000D03*
X47900000Y52000000D03*
X47900000Y52500000D03*
X47900000Y53000000D03*
X47900000Y53500000D03*
X47900000Y54000000D03*
X47900000Y54500000D03*
X47900000Y55000000D03*
X47900000Y55500000D03*
X47900000Y56000000D03*
X47900000Y56500000D03*
X47900000Y57000000D03*
X47900000Y57500000D03*
X47900000Y58000000D03*
X47900000Y58500000D03*
X47900000Y59000000D03*
X47900000Y59500000D03*
X47900000Y60000000D03*
D53*
X46000000Y61900000D03*
X45500000Y61900000D03*
X45000000Y61900000D03*
X44500000Y61900000D03*
X44000000Y61900000D03*
X43500000Y61900000D03*
X43000000Y61900000D03*
X42500000Y61900000D03*
X42000000Y61900000D03*
X41500000Y61900000D03*
X41000000Y61900000D03*
X40500000Y61900000D03*
X40000000Y61900000D03*
X39500000Y61900000D03*
X39000000Y61900000D03*
X38500000Y61900000D03*
X38000000Y61900000D03*
X37500000Y61900000D03*
X37000000Y61900000D03*
X36500000Y61900000D03*
X36000000Y61900000D03*
X35500000Y61900000D03*
X35000000Y61900000D03*
X34500000Y61900000D03*
X34000000Y61900000D03*
G04 #@! TD*
D54*
G04 #@! TO.C,U3*
X62075000Y19800000D03*
D55*
G36*
X62650000Y18426297D02*
X61500000Y19192963D01*
X61500000Y20407037D01*
X62650000Y21173703D01*
X62650000Y18426297D01*
X62650000Y18426297D01*
G37*
D56*
X61000000Y18300000D03*
X61000000Y21300000D03*
X64700000Y18300000D03*
D57*
X64700000Y19800000D03*
D56*
X64700000Y21300000D03*
D57*
X61000000Y19800000D03*
D54*
X63625000Y19800000D03*
D55*
G36*
X63050000Y21173703D02*
X64200000Y20407037D01*
X64200000Y19192963D01*
X63050000Y18426297D01*
X63050000Y21173703D01*
X63050000Y21173703D01*
G37*
D58*
X62850000Y19800000D03*
G04 #@! TD*
D59*
G04 #@! TO.C,U8*
X7250000Y65925000D03*
X7250000Y66575000D03*
X7250000Y67225000D03*
X7250000Y67875000D03*
X7250000Y68525000D03*
X7250000Y69175000D03*
X7250000Y69825000D03*
X7250000Y70475000D03*
X1350000Y70475000D03*
X1350000Y69825000D03*
X1350000Y69175000D03*
X1350000Y68525000D03*
X1350000Y67875000D03*
X1350000Y67225000D03*
X1350000Y66575000D03*
X1350000Y65925000D03*
G04 #@! TD*
D60*
G04 #@! TO.C,RN7*
X29700000Y59900000D03*
D61*
X29700000Y61500000D03*
X29700000Y60700000D03*
D60*
X29700000Y62300000D03*
D61*
X27900000Y60700000D03*
D60*
X27900000Y59900000D03*
D61*
X27900000Y61500000D03*
D60*
X27900000Y62300000D03*
G04 #@! TD*
M02*
