G04 #@! TF.GenerationSoftware,KiCad,Pcbnew,(5.0.0)*
G04 #@! TF.CreationDate,2020-01-25T17:25:25+09:00*
G04 #@! TF.ProjectId,General_purpose_lancer_board,47656E6572616C5F707572706F73655F,rev?*
G04 #@! TF.SameCoordinates,PX69618a0PY822d320*
G04 #@! TF.FileFunction,Soldermask,Bot*
G04 #@! TF.FilePolarity,Negative*
%FSLAX46Y46*%
G04 Gerber Fmt 4.6, Leading zero omitted, Abs format (unit mm)*
G04 Created by KiCad (PCBNEW (5.0.0)) date 01/25/20 17:25:25*
%MOMM*%
%LPD*%
G01*
G04 APERTURE LIST*
%ADD10R,1.670000X1.010000*%
%ADD11R,1.420000X1.010000*%
%ADD12R,4.210000X4.310000*%
%ADD13R,1.300000X0.900000*%
%ADD14C,2.400000*%
%ADD15C,4.400000*%
%ADD16R,1.200000X1.150000*%
%ADD17R,1.100000X1.600000*%
%ADD18R,1.400000X1.600000*%
%ADD19R,1.400000X1.200000*%
%ADD20R,1.400000X3.200000*%
%ADD21R,1.700000X2.300000*%
%ADD22R,0.900000X1.300000*%
%ADD23C,3.600000*%
%ADD24R,1.700000X3.800000*%
%ADD25R,1.150000X1.200000*%
%ADD26R,2.900000X1.400000*%
%ADD27R,1.500000X0.800000*%
%ADD28R,1.600000X1.942500*%
%ADD29R,1.200000X1.300000*%
%ADD30R,1.000000X1.900000*%
%ADD31R,2.200000X1.900000*%
%ADD32R,1.200000X0.900000*%
%ADD33R,1.200000X0.800000*%
G04 APERTURE END LIST*
D10*
G04 #@! TO.C,FET13*
X12270000Y18205000D03*
X12270000Y16935000D03*
X12270000Y15665000D03*
X12270000Y14395000D03*
D11*
X6805000Y14395000D03*
X6805000Y15665000D03*
X6805000Y16935000D03*
X6805000Y18205000D03*
D12*
X8910000Y16300000D03*
G04 #@! TD*
D13*
G04 #@! TO.C,R108*
X73100000Y7650000D03*
X73100000Y6150000D03*
G04 #@! TD*
D14*
G04 #@! TO.C,J3*
X6900000Y21200000D03*
X6900000Y10200000D03*
D15*
X16900000Y18200000D03*
X16900000Y13200000D03*
G04 #@! TD*
D16*
G04 #@! TO.C,C48*
X64000000Y30600000D03*
X65500000Y30600000D03*
G04 #@! TD*
D17*
G04 #@! TO.C,J13*
X37150000Y52200000D03*
X38100000Y52200000D03*
X45800000Y52200000D03*
X44700000Y52200000D03*
X43600000Y52200000D03*
X42500000Y52200000D03*
X41400000Y52200000D03*
X40300000Y52200000D03*
X39200000Y52200000D03*
D18*
X47350000Y52200000D03*
X36200000Y56500000D03*
D19*
X36200000Y62700000D03*
D20*
X36200000Y66850000D03*
D21*
X49700000Y67300000D03*
G04 #@! TD*
D22*
G04 #@! TO.C,R42*
X54850000Y37900000D03*
X56350000Y37900000D03*
G04 #@! TD*
D13*
G04 #@! TO.C,R58*
X69700000Y33350000D03*
X69700000Y31850000D03*
G04 #@! TD*
D23*
G04 #@! TO.C,REF\002A\002A*
X2500000Y77500000D03*
G04 #@! TD*
G04 #@! TO.C,REF\002A\002A*
X2500000Y2500000D03*
G04 #@! TD*
G04 #@! TO.C,REF\002A\002A*
X77500000Y2500000D03*
G04 #@! TD*
G04 #@! TO.C,REF\002A\002A*
X77500000Y77500000D03*
G04 #@! TD*
D22*
G04 #@! TO.C,R2*
X21700000Y17200000D03*
X23200000Y17200000D03*
G04 #@! TD*
D24*
G04 #@! TO.C,BZ1*
X62250000Y11400000D03*
X70950000Y11400000D03*
G04 #@! TD*
D25*
G04 #@! TO.C,C1*
X34400000Y57850000D03*
X34400000Y59350000D03*
G04 #@! TD*
G04 #@! TO.C,C3*
X34400000Y61850000D03*
X34400000Y63350000D03*
G04 #@! TD*
D16*
G04 #@! TO.C,C4*
X33450000Y53100000D03*
X31950000Y53100000D03*
G04 #@! TD*
G04 #@! TO.C,C5*
X32000000Y54600000D03*
X33500000Y54600000D03*
G04 #@! TD*
D25*
G04 #@! TO.C,C13*
X34700000Y10700000D03*
X34700000Y12200000D03*
G04 #@! TD*
D16*
G04 #@! TO.C,C24*
X29300000Y41400000D03*
X30800000Y41400000D03*
G04 #@! TD*
D25*
G04 #@! TO.C,C26*
X27300000Y23350000D03*
X27300000Y21850000D03*
G04 #@! TD*
G04 #@! TO.C,C30*
X27400000Y28650000D03*
X27400000Y27150000D03*
G04 #@! TD*
D16*
G04 #@! TO.C,C31*
X61950000Y58600000D03*
X60450000Y58600000D03*
G04 #@! TD*
G04 #@! TO.C,C32*
X18050000Y54900000D03*
X19550000Y54900000D03*
G04 #@! TD*
G04 #@! TO.C,C33*
X61900000Y30600000D03*
X60400000Y30600000D03*
G04 #@! TD*
G04 #@! TO.C,C34*
X58850000Y58600000D03*
X57350000Y58600000D03*
G04 #@! TD*
G04 #@! TO.C,C35*
X21150000Y54900000D03*
X22650000Y54900000D03*
G04 #@! TD*
G04 #@! TO.C,C36*
X58900000Y30600000D03*
X57400000Y30600000D03*
G04 #@! TD*
G04 #@! TO.C,C37*
X18050000Y69500000D03*
X19550000Y69500000D03*
G04 #@! TD*
G04 #@! TO.C,C38*
X21100000Y69500000D03*
X22600000Y69500000D03*
G04 #@! TD*
G04 #@! TO.C,C39*
X69950000Y64000000D03*
X68450000Y64000000D03*
G04 #@! TD*
G04 #@! TO.C,C40*
X10050000Y49500000D03*
X11550000Y49500000D03*
G04 #@! TD*
G04 #@! TO.C,C41*
X69950000Y36000000D03*
X68450000Y36000000D03*
G04 #@! TD*
G04 #@! TO.C,C42*
X63950000Y58600000D03*
X65450000Y58600000D03*
G04 #@! TD*
G04 #@! TO.C,C44*
X69950000Y65400000D03*
X68450000Y65400000D03*
G04 #@! TD*
G04 #@! TO.C,C45*
X16000000Y54900000D03*
X14500000Y54900000D03*
G04 #@! TD*
G04 #@! TO.C,C47*
X10050000Y48100000D03*
X11550000Y48100000D03*
G04 #@! TD*
G04 #@! TO.C,C50*
X69950000Y37400000D03*
X68450000Y37400000D03*
G04 #@! TD*
G04 #@! TO.C,C51*
X10050000Y64100000D03*
X11550000Y64100000D03*
G04 #@! TD*
G04 #@! TO.C,C52*
X16050000Y69500000D03*
X14550000Y69500000D03*
G04 #@! TD*
G04 #@! TO.C,C54*
X10050000Y62700000D03*
X11550000Y62700000D03*
G04 #@! TD*
G04 #@! TO.C,C59*
X18050000Y40900000D03*
X19550000Y40900000D03*
G04 #@! TD*
G04 #@! TO.C,C60*
X61950000Y44600000D03*
X60450000Y44600000D03*
G04 #@! TD*
G04 #@! TO.C,C61*
X21150000Y40900000D03*
X22650000Y40900000D03*
G04 #@! TD*
G04 #@! TO.C,C62*
X58850000Y44600000D03*
X57350000Y44600000D03*
G04 #@! TD*
G04 #@! TO.C,C65*
X10050000Y35500000D03*
X11550000Y35500000D03*
G04 #@! TD*
G04 #@! TO.C,C66*
X69950000Y50000000D03*
X68450000Y50000000D03*
G04 #@! TD*
G04 #@! TO.C,C67*
X16050000Y40900000D03*
X14550000Y40900000D03*
G04 #@! TD*
G04 #@! TO.C,C69*
X10050000Y34100000D03*
X11550000Y34100000D03*
G04 #@! TD*
G04 #@! TO.C,C70*
X63950000Y44600000D03*
X65450000Y44600000D03*
G04 #@! TD*
G04 #@! TO.C,C72*
X69950000Y51400000D03*
X68450000Y51400000D03*
G04 #@! TD*
D26*
G04 #@! TO.C,C83*
X46000000Y47100000D03*
X46000000Y44100000D03*
G04 #@! TD*
D25*
G04 #@! TO.C,C84*
X46400000Y48750000D03*
X46400000Y50250000D03*
G04 #@! TD*
D27*
G04 #@! TO.C,IC1*
X66050000Y68925000D03*
X66050000Y68275000D03*
X66050000Y67625000D03*
X66050000Y66975000D03*
X66050000Y66325000D03*
X66050000Y65675000D03*
X66050000Y65025000D03*
X66050000Y64375000D03*
X66050000Y63725000D03*
X66050000Y63075000D03*
X66050000Y62425000D03*
X66050000Y61775000D03*
X66050000Y61125000D03*
X66050000Y60475000D03*
X60350000Y60475000D03*
X60350000Y61125000D03*
X60350000Y61775000D03*
X60350000Y62425000D03*
X60350000Y63075000D03*
X60350000Y63725000D03*
X60350000Y64375000D03*
X60350000Y65025000D03*
X60350000Y65675000D03*
X60350000Y66325000D03*
X60350000Y66975000D03*
X60350000Y67625000D03*
X60350000Y68275000D03*
X60350000Y68925000D03*
D28*
X62600000Y62386250D03*
X62600000Y63928750D03*
X62600000Y65471250D03*
X62600000Y67013750D03*
X63800000Y62386250D03*
X63800000Y63928750D03*
X63800000Y65471250D03*
X63800000Y67013750D03*
G04 #@! TD*
D27*
G04 #@! TO.C,IC2*
X13950000Y44575000D03*
X13950000Y45225000D03*
X13950000Y45875000D03*
X13950000Y46525000D03*
X13950000Y47175000D03*
X13950000Y47825000D03*
X13950000Y48475000D03*
X13950000Y49125000D03*
X13950000Y49775000D03*
X13950000Y50425000D03*
X13950000Y51075000D03*
X13950000Y51725000D03*
X13950000Y52375000D03*
X13950000Y53025000D03*
X19650000Y53025000D03*
X19650000Y52375000D03*
X19650000Y51725000D03*
X19650000Y51075000D03*
X19650000Y50425000D03*
X19650000Y49775000D03*
X19650000Y49125000D03*
X19650000Y48475000D03*
X19650000Y47825000D03*
X19650000Y47175000D03*
X19650000Y46525000D03*
X19650000Y45875000D03*
X19650000Y45225000D03*
X19650000Y44575000D03*
D28*
X17400000Y51113750D03*
X17400000Y49571250D03*
X17400000Y48028750D03*
X17400000Y46486250D03*
X16200000Y51113750D03*
X16200000Y49571250D03*
X16200000Y48028750D03*
X16200000Y46486250D03*
G04 #@! TD*
D27*
G04 #@! TO.C,IC3*
X66050000Y40925000D03*
X66050000Y40275000D03*
X66050000Y39625000D03*
X66050000Y38975000D03*
X66050000Y38325000D03*
X66050000Y37675000D03*
X66050000Y37025000D03*
X66050000Y36375000D03*
X66050000Y35725000D03*
X66050000Y35075000D03*
X66050000Y34425000D03*
X66050000Y33775000D03*
X66050000Y33125000D03*
X66050000Y32475000D03*
X60350000Y32475000D03*
X60350000Y33125000D03*
X60350000Y33775000D03*
X60350000Y34425000D03*
X60350000Y35075000D03*
X60350000Y35725000D03*
X60350000Y36375000D03*
X60350000Y37025000D03*
X60350000Y37675000D03*
X60350000Y38325000D03*
X60350000Y38975000D03*
X60350000Y39625000D03*
X60350000Y40275000D03*
X60350000Y40925000D03*
D28*
X62600000Y34386250D03*
X62600000Y35928750D03*
X62600000Y37471250D03*
X62600000Y39013750D03*
X63800000Y34386250D03*
X63800000Y35928750D03*
X63800000Y37471250D03*
X63800000Y39013750D03*
G04 #@! TD*
D27*
G04 #@! TO.C,IC4*
X13950000Y59175000D03*
X13950000Y59825000D03*
X13950000Y60475000D03*
X13950000Y61125000D03*
X13950000Y61775000D03*
X13950000Y62425000D03*
X13950000Y63075000D03*
X13950000Y63725000D03*
X13950000Y64375000D03*
X13950000Y65025000D03*
X13950000Y65675000D03*
X13950000Y66325000D03*
X13950000Y66975000D03*
X13950000Y67625000D03*
X19650000Y67625000D03*
X19650000Y66975000D03*
X19650000Y66325000D03*
X19650000Y65675000D03*
X19650000Y65025000D03*
X19650000Y64375000D03*
X19650000Y63725000D03*
X19650000Y63075000D03*
X19650000Y62425000D03*
X19650000Y61775000D03*
X19650000Y61125000D03*
X19650000Y60475000D03*
X19650000Y59825000D03*
X19650000Y59175000D03*
D28*
X17400000Y65713750D03*
X17400000Y64171250D03*
X17400000Y62628750D03*
X17400000Y61086250D03*
X16200000Y65713750D03*
X16200000Y64171250D03*
X16200000Y62628750D03*
X16200000Y61086250D03*
G04 #@! TD*
D27*
G04 #@! TO.C,IC5*
X13950000Y30575000D03*
X13950000Y31225000D03*
X13950000Y31875000D03*
X13950000Y32525000D03*
X13950000Y33175000D03*
X13950000Y33825000D03*
X13950000Y34475000D03*
X13950000Y35125000D03*
X13950000Y35775000D03*
X13950000Y36425000D03*
X13950000Y37075000D03*
X13950000Y37725000D03*
X13950000Y38375000D03*
X13950000Y39025000D03*
X19650000Y39025000D03*
X19650000Y38375000D03*
X19650000Y37725000D03*
X19650000Y37075000D03*
X19650000Y36425000D03*
X19650000Y35775000D03*
X19650000Y35125000D03*
X19650000Y34475000D03*
X19650000Y33825000D03*
X19650000Y33175000D03*
X19650000Y32525000D03*
X19650000Y31875000D03*
X19650000Y31225000D03*
X19650000Y30575000D03*
D28*
X17400000Y37113750D03*
X17400000Y35571250D03*
X17400000Y34028750D03*
X17400000Y32486250D03*
X16200000Y37113750D03*
X16200000Y35571250D03*
X16200000Y34028750D03*
X16200000Y32486250D03*
G04 #@! TD*
D27*
G04 #@! TO.C,IC6*
X66050000Y54925000D03*
X66050000Y54275000D03*
X66050000Y53625000D03*
X66050000Y52975000D03*
X66050000Y52325000D03*
X66050000Y51675000D03*
X66050000Y51025000D03*
X66050000Y50375000D03*
X66050000Y49725000D03*
X66050000Y49075000D03*
X66050000Y48425000D03*
X66050000Y47775000D03*
X66050000Y47125000D03*
X66050000Y46475000D03*
X60350000Y46475000D03*
X60350000Y47125000D03*
X60350000Y47775000D03*
X60350000Y48425000D03*
X60350000Y49075000D03*
X60350000Y49725000D03*
X60350000Y50375000D03*
X60350000Y51025000D03*
X60350000Y51675000D03*
X60350000Y52325000D03*
X60350000Y52975000D03*
X60350000Y53625000D03*
X60350000Y54275000D03*
X60350000Y54925000D03*
D28*
X62600000Y48386250D03*
X62600000Y49928750D03*
X62600000Y51471250D03*
X62600000Y53013750D03*
X63800000Y48386250D03*
X63800000Y49928750D03*
X63800000Y51471250D03*
X63800000Y53013750D03*
G04 #@! TD*
D22*
G04 #@! TO.C,L1*
X31850000Y51500000D03*
X33350000Y51500000D03*
G04 #@! TD*
G04 #@! TO.C,L3*
X40550000Y46800000D03*
X42050000Y46800000D03*
G04 #@! TD*
G04 #@! TO.C,L4*
X40550000Y50000000D03*
X42050000Y50000000D03*
G04 #@! TD*
G04 #@! TO.C,L5*
X36650000Y50200000D03*
X35150000Y50200000D03*
G04 #@! TD*
G04 #@! TO.C,L6*
X39350000Y50200000D03*
X37850000Y50200000D03*
G04 #@! TD*
G04 #@! TO.C,L7*
X39350000Y46900000D03*
X37850000Y46900000D03*
G04 #@! TD*
G04 #@! TO.C,L8*
X36650000Y47000000D03*
X35150000Y47000000D03*
G04 #@! TD*
D29*
G04 #@! TO.C,Q2*
X32650000Y73900000D03*
X34550000Y73900000D03*
X33600000Y71900000D03*
G04 #@! TD*
G04 #@! TO.C,Q3*
X72250000Y16200000D03*
X74150000Y16200000D03*
X73200000Y14200000D03*
G04 #@! TD*
D13*
G04 #@! TO.C,R5*
X33000000Y10650000D03*
X33000000Y12150000D03*
G04 #@! TD*
D22*
G04 #@! TO.C,R34*
X54850000Y68900000D03*
X56350000Y68900000D03*
G04 #@! TD*
G04 #@! TO.C,R35*
X25150000Y44600000D03*
X23650000Y44600000D03*
G04 #@! TD*
G04 #@! TO.C,R36*
X54850000Y40900000D03*
X56350000Y40900000D03*
G04 #@! TD*
G04 #@! TO.C,R37*
X54850000Y67400000D03*
X56350000Y67400000D03*
G04 #@! TD*
G04 #@! TO.C,R38*
X25150000Y46100000D03*
X23650000Y46100000D03*
G04 #@! TD*
G04 #@! TO.C,R39*
X54850000Y39400000D03*
X56350000Y39400000D03*
G04 #@! TD*
G04 #@! TO.C,R40*
X54850000Y65900000D03*
X56350000Y65900000D03*
G04 #@! TD*
G04 #@! TO.C,R41*
X25150000Y47600000D03*
X23650000Y47600000D03*
G04 #@! TD*
G04 #@! TO.C,R43*
X57450000Y68900000D03*
X58950000Y68900000D03*
G04 #@! TD*
G04 #@! TO.C,R44*
X22550000Y44600000D03*
X21050000Y44600000D03*
G04 #@! TD*
G04 #@! TO.C,R45*
X57400000Y40900000D03*
X58900000Y40900000D03*
G04 #@! TD*
G04 #@! TO.C,R46*
X25150000Y59200000D03*
X23650000Y59200000D03*
G04 #@! TD*
G04 #@! TO.C,R47*
X25150000Y60700000D03*
X23650000Y60700000D03*
G04 #@! TD*
G04 #@! TO.C,R48*
X25150000Y62200000D03*
X23650000Y62200000D03*
G04 #@! TD*
G04 #@! TO.C,R49*
X22550000Y59200000D03*
X21050000Y59200000D03*
G04 #@! TD*
D13*
G04 #@! TO.C,R50*
X69700000Y61350000D03*
X69700000Y59850000D03*
G04 #@! TD*
G04 #@! TO.C,R51*
X68200000Y61350000D03*
X68200000Y59850000D03*
G04 #@! TD*
G04 #@! TO.C,R52*
X68200000Y67750000D03*
X68200000Y69250000D03*
G04 #@! TD*
G04 #@! TO.C,R53*
X69700000Y67750000D03*
X69700000Y69250000D03*
G04 #@! TD*
G04 #@! TO.C,R54*
X10300000Y52150000D03*
X10300000Y53650000D03*
G04 #@! TD*
G04 #@! TO.C,R55*
X11800000Y52150000D03*
X11800000Y53650000D03*
G04 #@! TD*
G04 #@! TO.C,R56*
X11800000Y45750000D03*
X11800000Y44250000D03*
G04 #@! TD*
G04 #@! TO.C,R57*
X10300000Y45750000D03*
X10300000Y44250000D03*
G04 #@! TD*
G04 #@! TO.C,R59*
X68200000Y33350000D03*
X68200000Y31850000D03*
G04 #@! TD*
G04 #@! TO.C,R60*
X68200000Y39750000D03*
X68200000Y41250000D03*
G04 #@! TD*
G04 #@! TO.C,R61*
X69700000Y39750000D03*
X69700000Y41250000D03*
G04 #@! TD*
G04 #@! TO.C,R62*
X10300000Y66750000D03*
X10300000Y68250000D03*
G04 #@! TD*
G04 #@! TO.C,R63*
X11800000Y66750000D03*
X11800000Y68250000D03*
G04 #@! TD*
G04 #@! TO.C,R64*
X11800000Y60350000D03*
X11800000Y58850000D03*
G04 #@! TD*
G04 #@! TO.C,R65*
X10300000Y60350000D03*
X10300000Y58850000D03*
G04 #@! TD*
D22*
G04 #@! TO.C,R66*
X25150000Y30600000D03*
X23650000Y30600000D03*
G04 #@! TD*
G04 #@! TO.C,R67*
X54850000Y54900000D03*
X56350000Y54900000D03*
G04 #@! TD*
G04 #@! TO.C,R68*
X25150000Y32100000D03*
X23650000Y32100000D03*
G04 #@! TD*
G04 #@! TO.C,R69*
X54850000Y53400000D03*
X56350000Y53400000D03*
G04 #@! TD*
G04 #@! TO.C,R70*
X25150000Y33600000D03*
X23650000Y33600000D03*
G04 #@! TD*
G04 #@! TO.C,R71*
X54850000Y51900000D03*
X56350000Y51900000D03*
G04 #@! TD*
G04 #@! TO.C,R72*
X22550000Y30600000D03*
X21050000Y30600000D03*
G04 #@! TD*
G04 #@! TO.C,R73*
X57450000Y54900000D03*
X58950000Y54900000D03*
G04 #@! TD*
D13*
G04 #@! TO.C,R74*
X12600000Y71950000D03*
X12600000Y73450000D03*
G04 #@! TD*
G04 #@! TO.C,R75*
X10300000Y38150000D03*
X10300000Y39650000D03*
G04 #@! TD*
G04 #@! TO.C,R76*
X11800000Y38150000D03*
X11800000Y39650000D03*
G04 #@! TD*
G04 #@! TO.C,R77*
X11800000Y31750000D03*
X11800000Y30250000D03*
G04 #@! TD*
G04 #@! TO.C,R78*
X10300000Y31750000D03*
X10300000Y30250000D03*
G04 #@! TD*
G04 #@! TO.C,R79*
X69700000Y47350000D03*
X69700000Y45850000D03*
G04 #@! TD*
G04 #@! TO.C,R80*
X68200000Y47350000D03*
X68200000Y45850000D03*
G04 #@! TD*
G04 #@! TO.C,R81*
X68200000Y53750000D03*
X68200000Y55250000D03*
G04 #@! TD*
G04 #@! TO.C,R82*
X69700000Y53750000D03*
X69700000Y55250000D03*
G04 #@! TD*
G04 #@! TO.C,R83*
X11000000Y71900000D03*
X11000000Y73400000D03*
G04 #@! TD*
D22*
G04 #@! TO.C,R97*
X37800000Y48600000D03*
X39300000Y48600000D03*
G04 #@! TD*
G04 #@! TO.C,R98*
X10500000Y28000000D03*
X12000000Y28000000D03*
G04 #@! TD*
G04 #@! TO.C,R99*
X10500000Y26400000D03*
X12000000Y26400000D03*
G04 #@! TD*
G04 #@! TO.C,R100*
X41950000Y45200000D03*
X40450000Y45200000D03*
G04 #@! TD*
G04 #@! TO.C,R101*
X42050000Y48400000D03*
X40550000Y48400000D03*
G04 #@! TD*
G04 #@! TO.C,R102*
X35150000Y48600000D03*
X36650000Y48600000D03*
G04 #@! TD*
G04 #@! TO.C,R103*
X39350000Y45300000D03*
X37850000Y45300000D03*
G04 #@! TD*
G04 #@! TO.C,R104*
X37900000Y43800000D03*
X39400000Y43800000D03*
G04 #@! TD*
G04 #@! TO.C,R105*
X35150000Y45400000D03*
X36650000Y45400000D03*
G04 #@! TD*
D13*
G04 #@! TO.C,R106*
X34400000Y68450000D03*
X34400000Y66950000D03*
G04 #@! TD*
G04 #@! TO.C,R107*
X73100000Y11350000D03*
X73100000Y12850000D03*
G04 #@! TD*
G04 #@! TO.C,R109*
X28000000Y71950000D03*
X28000000Y73450000D03*
G04 #@! TD*
G04 #@! TO.C,R110*
X26500000Y71950000D03*
X26500000Y73450000D03*
G04 #@! TD*
G04 #@! TO.C,R111*
X29500000Y73450000D03*
X29500000Y71950000D03*
G04 #@! TD*
G04 #@! TO.C,R112*
X25000000Y71950000D03*
X25000000Y73450000D03*
G04 #@! TD*
G04 #@! TO.C,R113*
X23500000Y71950000D03*
X23500000Y73450000D03*
G04 #@! TD*
G04 #@! TO.C,R114*
X31000000Y73450000D03*
X31000000Y71950000D03*
G04 #@! TD*
G04 #@! TO.C,R115*
X22000000Y71950000D03*
X22000000Y73450000D03*
G04 #@! TD*
G04 #@! TO.C,R116*
X20500000Y71950000D03*
X20500000Y73450000D03*
G04 #@! TD*
G04 #@! TO.C,R117*
X73100000Y8750000D03*
X73100000Y10250000D03*
G04 #@! TD*
D30*
G04 #@! TO.C,U4*
X37945000Y33300000D03*
X36675000Y33300000D03*
X35405000Y33300000D03*
X34135000Y33300000D03*
X32865000Y33300000D03*
X31595000Y33300000D03*
X30325000Y33300000D03*
X29055000Y33300000D03*
X29055000Y38700000D03*
X30325000Y38700000D03*
X31595000Y38700000D03*
X32865000Y38700000D03*
X34135000Y38700000D03*
X35405000Y38700000D03*
X36675000Y38700000D03*
X37945000Y38700000D03*
G04 #@! TD*
G04 #@! TO.C,U5*
X51045000Y33300000D03*
X49775000Y33300000D03*
X48505000Y33300000D03*
X47235000Y33300000D03*
X45965000Y33300000D03*
X44695000Y33300000D03*
X43425000Y33300000D03*
X42155000Y33300000D03*
X42155000Y38700000D03*
X43425000Y38700000D03*
X44695000Y38700000D03*
X45965000Y38700000D03*
X47235000Y38700000D03*
X48505000Y38700000D03*
X49775000Y38700000D03*
X51045000Y38700000D03*
G04 #@! TD*
G04 #@! TO.C,U6*
X37945000Y23300000D03*
X36675000Y23300000D03*
X35405000Y23300000D03*
X34135000Y23300000D03*
X32865000Y23300000D03*
X31595000Y23300000D03*
X30325000Y23300000D03*
X29055000Y23300000D03*
X29055000Y28700000D03*
X30325000Y28700000D03*
X31595000Y28700000D03*
X32865000Y28700000D03*
X34135000Y28700000D03*
X35405000Y28700000D03*
X36675000Y28700000D03*
X37945000Y28700000D03*
G04 #@! TD*
G04 #@! TO.C,U7*
X51045000Y23300000D03*
X49775000Y23300000D03*
X48505000Y23300000D03*
X47235000Y23300000D03*
X45965000Y23300000D03*
X44695000Y23300000D03*
X43425000Y23300000D03*
X42155000Y23300000D03*
X42155000Y28700000D03*
X43425000Y28700000D03*
X44695000Y28700000D03*
X45965000Y28700000D03*
X47235000Y28700000D03*
X48505000Y28700000D03*
X49775000Y28700000D03*
X51045000Y28700000D03*
G04 #@! TD*
D31*
G04 #@! TO.C,X1*
X32400000Y61250000D03*
X30200000Y61250000D03*
X30200000Y62950000D03*
X32400000Y62950000D03*
G04 #@! TD*
G04 #@! TO.C,X2*
X32400000Y57400000D03*
X30200000Y57400000D03*
X30200000Y59100000D03*
X32400000Y59100000D03*
G04 #@! TD*
D32*
G04 #@! TO.C,RN1*
X54800000Y60700000D03*
D33*
X54800000Y62300000D03*
X54800000Y61500000D03*
D32*
X54800000Y63100000D03*
D33*
X56600000Y61500000D03*
D32*
X56600000Y60700000D03*
D33*
X56600000Y62300000D03*
D32*
X56600000Y63100000D03*
G04 #@! TD*
G04 #@! TO.C,RN2*
X25200000Y52800000D03*
D33*
X25200000Y51200000D03*
X25200000Y52000000D03*
D32*
X25200000Y50400000D03*
D33*
X23400000Y52000000D03*
D32*
X23400000Y52800000D03*
D33*
X23400000Y51200000D03*
D32*
X23400000Y50400000D03*
G04 #@! TD*
G04 #@! TO.C,RN3*
X54800000Y32700000D03*
D33*
X54800000Y34300000D03*
X54800000Y33500000D03*
D32*
X54800000Y35100000D03*
D33*
X56600000Y33500000D03*
D32*
X56600000Y32700000D03*
D33*
X56600000Y34300000D03*
D32*
X56600000Y35100000D03*
G04 #@! TD*
G04 #@! TO.C,RN4*
X25200000Y67400000D03*
D33*
X25200000Y65800000D03*
X25200000Y66600000D03*
D32*
X25200000Y65000000D03*
D33*
X23400000Y66600000D03*
D32*
X23400000Y67400000D03*
D33*
X23400000Y65800000D03*
D32*
X23400000Y65000000D03*
G04 #@! TD*
G04 #@! TO.C,RN5*
X25200000Y38800000D03*
D33*
X25200000Y37200000D03*
X25200000Y38000000D03*
D32*
X25200000Y36400000D03*
D33*
X23400000Y38000000D03*
D32*
X23400000Y38800000D03*
D33*
X23400000Y37200000D03*
D32*
X23400000Y36400000D03*
G04 #@! TD*
G04 #@! TO.C,RN6*
X55700000Y46700000D03*
D33*
X55700000Y48300000D03*
X55700000Y47500000D03*
D32*
X55700000Y49100000D03*
D33*
X57500000Y47500000D03*
D32*
X57500000Y46700000D03*
D33*
X57500000Y48300000D03*
D32*
X57500000Y49100000D03*
G04 #@! TD*
M02*
