M48
;DRILL file {KiCad (5.0.0)} date 01/25/20 17:41:39
;FORMAT={-:-/ absolute / metric / decimal}
FMAT,2
METRIC,TZ
T1C0.400
T2C0.600
T3C1.000
T4C3.200
%
G90
G05
M71
T1
X171.7Y-77.5
X171.7Y-119.3
X171.8Y-64.2
X171.8Y-106.
X172.Y-89.2
X172.Y-131.
X175.8Y-78.9
X175.8Y-120.7
X176.7Y-77.95
X176.7Y-119.75
X176.85Y-87.95
X176.85Y-129.75
X177.75Y-70.7
X177.75Y-112.5
X178.25Y-68.7
X178.25Y-110.5
X179.6Y-59.5
X179.6Y-101.3
X179.8Y-96.2
X179.8Y-138.
X180.2Y-64.5
X180.2Y-106.3
X180.3Y-74.9
X180.3Y-81.7
X180.3Y-116.7
X180.3Y-123.5
X182.Y-67.7
X182.Y-109.5
X184.Y-91.2
X184.Y-133.
X184.8Y-74.7
X184.8Y-116.5
X185.Y-88.2
X185.Y-130.
X188.5Y-91.2
X188.5Y-133.
X189.6Y-63.
X189.6Y-104.8
X191.5Y-90.95
X191.5Y-132.75
X192.9Y-67.5
X192.9Y-109.3
X194.7Y-63.5
X194.7Y-105.3
X196.5Y-90.95
X196.5Y-132.75
X196.75Y-63.5
X196.75Y-105.3
X199.5Y-96.2
X199.5Y-138.
X201.Y-77.7
X201.Y-119.5
X201.6Y-59.3
X201.6Y-101.1
X202.3Y-70.6
X202.3Y-112.4
X202.8Y-90.95
X202.8Y-132.75
X208.3Y-90.95
X208.3Y-132.75
X209.5Y-83.3
X209.5Y-125.1
X212.5Y-61.25
X212.5Y-65.65
X212.5Y-103.05
X212.5Y-107.45
X213.4Y-87.9
X213.4Y-129.7
X213.5Y-90.95
X213.5Y-132.75
X218.2Y-96.3
X218.2Y-138.1
X219.3Y-90.95
X219.3Y-132.75
X221.05Y-70.1
X221.05Y-111.9
X222.1Y-66.7
X222.1Y-108.5
X222.7Y-61.2
X222.7Y-103.
X227.2Y-66.8
X227.2Y-90.3
X227.2Y-108.6
X227.2Y-132.1
X227.3Y-78.6
X227.3Y-120.4
T2
X192.Y-83.2
X193.5Y-83.2
X195.Y-83.2
X196.5Y-83.2
X198.Y-83.2
X199.5Y-83.2
X201.Y-83.2
X202.5Y-83.2
X204.Y-83.2
X192.Y-125.
X193.5Y-125.
X195.Y-125.
X196.5Y-125.
X198.Y-125.
X199.5Y-125.
X201.Y-125.
X202.5Y-125.
X204.Y-125.
T3
X215.19Y-116.75
X217.73Y-116.75
X217.73Y-124.37
X220.27Y-116.75
X222.81Y-116.75
X215.19Y-74.95
X217.73Y-74.95
X217.73Y-82.57
X220.27Y-74.95
X222.81Y-74.95
T4
X227.5Y-60.7
X172.5Y-137.5
X172.5Y-102.5
X172.5Y-95.7
X227.5Y-102.5
X227.5Y-95.7
X172.5Y-60.7
X227.5Y-137.5
T0
M30
