G04 #@! TF.GenerationSoftware,KiCad,Pcbnew,(5.0.0)*
G04 #@! TF.CreationDate,2020-01-25T17:41:45+09:00*
G04 #@! TF.ProjectId,General_purpose_lancer_board_sub_m,47656E6572616C5F707572706F73655F,rev?*
G04 #@! TF.SameCoordinates,Original*
G04 #@! TF.FileFunction,Profile,NP*
%FSLAX46Y46*%
G04 Gerber Fmt 4.6, Leading zero omitted, Abs format (unit mm)*
G04 Created by KiCad (PCBNEW (5.0.0)) date 01/25/20 17:41:45*
%MOMM*%
%LPD*%
G01*
G04 APERTURE LIST*
%ADD10C,0.200000*%
G04 APERTURE END LIST*
D10*
X228000000Y-98200000D02*
X230000000Y-98200000D01*
X228000000Y-100000000D02*
X228000000Y-98200000D01*
X230000000Y-100000000D02*
X228000000Y-100000000D01*
X226000000Y-98200000D02*
X174000000Y-98200000D01*
X226000000Y-100000000D02*
X226000000Y-98200000D01*
X174000000Y-100000000D02*
X226000000Y-100000000D01*
X174000000Y-98200000D02*
X174000000Y-100000000D01*
X172000000Y-98200000D02*
X170000000Y-98200000D01*
X172000000Y-100000000D02*
X172000000Y-98200000D01*
X170000000Y-100000000D02*
X172000000Y-100000000D01*
X228800000Y-137500000D02*
G75*
G03X228800000Y-137500000I-1300000J0D01*
G01*
X228800000Y-102500000D02*
G75*
G03X228800000Y-102500000I-1300000J0D01*
G01*
X173800000Y-137500000D02*
G75*
G03X173800000Y-137500000I-1300000J0D01*
G01*
X170000000Y-100000000D02*
X170000000Y-140000000D01*
X173800000Y-102500000D02*
G75*
G03X173800000Y-102500000I-1300000J0D01*
G01*
X230000000Y-140000000D02*
X230000000Y-100000000D01*
X170000000Y-140000000D02*
X230000000Y-140000000D01*
X228800000Y-95700000D02*
G75*
G03X228800000Y-95700000I-1300000J0D01*
G01*
X228800000Y-60700000D02*
G75*
G03X228800000Y-60700000I-1300000J0D01*
G01*
X173800000Y-95700000D02*
G75*
G03X173800000Y-95700000I-1300000J0D01*
G01*
X170000000Y-58200000D02*
X170000000Y-98200000D01*
X173800000Y-60700000D02*
G75*
G03X173800000Y-60700000I-1300000J0D01*
G01*
X230000000Y-58200000D02*
X170000000Y-58200000D01*
X230000000Y-98200000D02*
X230000000Y-58200000D01*
M02*
