M48
;DRILL file {KiCad (5.0.0)} date 01/25/20 17:25:29
;FORMAT={-:-/ absolute / metric / decimal}
FMAT,2
METRIC,TZ
T1C0.400
T2C1.000
T3C1.700
T4C3.200
%
G90
G05
M71
T1
X1.Y24.6
X1.2Y73.9
X1.5Y58.7
X1.5Y57.3
X1.5Y56.1
X1.5Y54.8
X1.5Y53.6
X1.5Y52.3
X1.5Y51.
X1.5Y49.7
X1.5Y48.3
X1.5Y47.
X1.5Y45.7
X1.5Y44.5
X1.5Y43.2
X1.5Y42.1
X1.5Y40.8
X1.5Y39.5
X1.5Y38.3
X1.5Y37.1
X1.5Y35.9
X1.5Y34.5
X1.5Y33.2
X1.5Y31.9
X1.5Y30.6
X1.5Y29.5
X2.2Y14.2
X2.2Y12.9
X2.2Y11.7
X2.2Y10.4
X2.2Y9.2
X2.2Y7.9
X2.2Y6.6
X2.45Y72.8
X2.7Y69.8
X2.73Y68.964
X3.5Y68.6
X3.5Y28.
X3.5Y27.
X3.5Y26.
X3.8Y48.3
X3.8Y35.9
X3.9Y54.7
X3.9Y41.4
X4.Y72.8
X4.5Y69.6
X4.5Y29.
X4.5Y28.
X5.4Y74.2
X5.5Y29.5
X5.5Y28.5
X6.5Y29.5
X6.5Y28.5
X6.5Y22.9
X7.5Y76.65
X7.5Y75.85
X7.5Y75.05
X7.5Y74.35
X7.5Y57.5
X7.5Y56.5
X7.5Y55.5
X7.5Y54.5
X7.5Y53.5
X7.5Y52.5
X7.5Y44.5
X7.5Y43.5
X7.5Y42.5
X7.5Y41.5
X7.5Y40.5
X7.5Y39.5
X7.5Y38.5
X7.5Y29.5
X7.5Y28.5
X7.75Y72.
X8.3Y76.7
X8.3Y75.9
X8.3Y75.1
X8.3Y74.35
X8.4Y2.4
X8.5Y72.3
X8.5Y71.5
X8.5Y70.75
X8.5Y70.
X8.5Y69.25
X8.5Y57.5
X8.5Y56.5
X8.5Y55.5
X8.5Y54.5
X8.5Y53.5
X8.5Y52.5
X8.5Y45.5
X8.5Y44.5
X8.5Y43.5
X8.5Y42.5
X8.5Y41.5
X8.5Y40.5
X8.5Y39.5
X8.5Y38.5
X9.Y20.9
X9.1Y76.7
X9.1Y75.9
X9.1Y75.1
X9.1Y74.35
X9.25Y71.25
X9.25Y70.5
X9.25Y69.75
X9.3Y72.
X9.6Y22.4
X9.7Y2.4
X10.1Y65.7
X10.1Y62.7
X10.1Y51.1
X10.1Y48.1
X10.1Y37.1
X10.1Y34.1
X10.3Y43.3
X10.3Y29.3
X10.59Y54.4
X10.59Y40.4
X10.635Y68.955
X10.7Y70.1
X10.7Y55.5
X10.7Y41.5
X10.9Y77.944
X11.Y2.4
X11.1Y73.6
X11.3Y70.6
X11.3Y56.
X11.3Y42.
X11.5Y74.8
X11.8Y68.8
X11.8Y54.2
X11.8Y43.4
X11.8Y40.2
X11.8Y29.4
X12.Y28.
X12.Y26.4
X12.1Y70.6
X12.1Y56.
X12.1Y42.
X12.3Y78.
X12.3Y2.4
X12.6Y73.45
X12.8Y46.5
X12.8Y32.5
X12.844Y61.299
X12.918Y65.718
X12.918Y51.118
X12.918Y37.118
X12.933Y68.2
X12.933Y53.6
X12.933Y39.6
X13.Y70.6
X13.Y56.
X13.Y42.
X13.5Y2.4
X13.6Y76.3
X13.6Y75.5
X13.8Y70.6
X13.8Y56.
X13.8Y42.
X13.95Y59.125
X13.95Y44.525
X13.95Y30.525
X14.013Y57.595
X14.4Y76.3
X14.4Y75.5
X14.4Y74.7
X14.5Y70.6
X14.5Y56.
X14.5Y42.
X14.8Y57.9
X14.8Y2.4
X15.2Y76.3
X15.2Y75.5
X15.2Y74.7
X15.25Y42.
X15.3Y70.6
X15.3Y56.
X15.95Y41.95
X16.Y75.5
X16.Y74.7
X16.Y2.4
X16.05Y56.
X16.1Y70.6
X16.2Y64.171
X16.2Y62.629
X16.2Y49.571
X16.2Y48.029
X16.2Y35.571
X16.2Y34.029
X16.8Y70.6
X16.8Y56.
X16.8Y42.
X17.3Y2.4
X17.4Y64.1
X17.4Y62.629
X17.4Y61.9
X17.4Y61.086
X17.4Y49.5
X17.4Y48.029
X17.4Y47.3
X17.4Y46.486
X17.4Y35.5
X17.4Y34.029
X17.4Y33.3
X17.4Y32.486
X17.4Y65.1
X17.4Y50.5
X17.4Y36.5
X17.8Y21.7
X18.364Y26.4
X18.6Y2.4
X18.9Y7.679
X18.9Y5.95
X19.1Y21.7
X19.5Y23.1
X19.513Y23.9
X20.Y2.4
X20.2Y7.7
X20.2Y5.971
X20.5Y75.9
X20.6Y29.2
X20.7Y57.8
X20.7Y43.2
X20.9Y66.3
X20.9Y51.7
X20.9Y37.7
X20.98Y62.232
X20.98Y47.632
X20.98Y33.632
X21.1Y59.2
X21.1Y44.6
X21.1Y30.6
X21.3Y7.692
X21.3Y5.963
X21.3Y2.4
X22.Y76.9
X22.4Y7.679
X22.4Y5.95
X22.6Y2.4
X22.7Y27.1
X23.2Y17.2
X23.2Y14.4
X23.524Y77.198
X23.6Y10.4
X23.7Y7.7
X23.7Y5.971
X23.9Y2.4
X24.Y72.
X24.4Y76.616
X24.8Y7.692
X24.8Y5.963
X24.9Y22.4
X25.1Y2.4
X25.2Y65.
X25.2Y50.4
X25.2Y36.4
X25.6Y29.1
X25.6Y28.1
X25.644Y76.1
X25.9Y57.9
X25.9Y7.679
X25.9Y5.95
X26.Y19.85
X26.007Y44.615
X26.1Y41.5
X26.4Y58.656
X26.4Y60.7
X26.4Y2.4
X27.2Y7.7
X27.2Y5.971
X27.3Y69.9
X27.3Y22.45
X27.5Y9.8
X27.6Y2.4
X27.6Y42.5
X27.7Y44.003
X27.8Y66.2
X27.8Y64.5
X28.Y75.7
X28.3Y19.3
X28.3Y7.692
X28.3Y5.963
X28.85Y52.7
X28.9Y74.9
X28.9Y2.4
X28.9Y51.1
X29.055Y28.7
X29.1Y26.7
X29.1Y25.2
X29.2Y36.9
X29.2Y33.2
X29.3Y44.1
X29.6Y7.699
X29.6Y5.97
X29.9Y49.6
X29.941Y56.011
X30.2Y2.4
X30.3Y71.1
X30.5Y44.1
X30.6Y65.
X30.75Y53.1
X30.8Y54.287
X30.9Y36.8
X30.9Y26.7
X31.Y71.975
X31.1Y7.707
X31.1Y5.978
X31.35Y71.1
X31.5Y2.4
X31.6Y12.3
X31.7Y66.1
X31.7Y10.3
X32.5Y7.714
X32.5Y5.985
X32.7Y36.85
X32.7Y26.8
X32.7Y2.4
X32.8Y63.4
X32.9Y71.
X32.91Y13.55
X33.3Y51.
X33.3Y44.45
X33.302Y43.25
X33.4Y50.2
X33.5Y54.6
X33.7Y41.166
X33.762Y47.34
X33.8Y65.495
X33.8Y64.695
X33.9Y7.721
X33.9Y5.993
X34.Y2.4
X34.15Y48.045
X34.328Y48.825
X34.4Y59.4
X34.5Y26.75
X34.51Y36.8
X34.587Y42.232
X35.1Y54.1
X35.2Y66.75
X35.3Y50.364
X35.3Y7.729
X35.3Y6.
X35.3Y2.4
X35.807Y63.792
X36.2Y75.4
X36.2Y36.9
X36.3Y26.75
X36.405Y40.656
X36.41Y64.8
X36.6Y7.736
X36.6Y6.007
X36.6Y2.4
X36.9Y69.066
X37.2Y40.75
X37.2Y66.9
X37.447Y55.258
X37.466Y54.428
X37.9Y36.9
X37.9Y7.742
X37.9Y6.014
X37.9Y2.4
X37.945Y33.3
X38.Y66.818
X38.Y30.9
X38.1Y26.75
X38.4Y78.8
X38.679Y55.307
X38.8Y30.9
X39.027Y56.194
X39.07Y54.609
X39.2Y7.749
X39.2Y6.021
X39.2Y2.4
X39.3Y48.6
X39.517Y77.481
X39.6Y30.9
X39.871Y54.6
X40.1Y21.4
X40.4Y2.4
X40.5Y7.756
X40.5Y6.027
X40.676Y54.724
X40.837Y78.8
X40.932Y76.325
X41.076Y55.425
X41.2Y23.09
X41.252Y66.889
X41.3Y66.091
X41.3Y48.55
X41.3Y50.024
X41.317Y60.069
X41.502Y56.103
X41.7Y2.4
X41.8Y76.3
X41.834Y59.446
X41.85Y11.1
X41.9Y60.646
X42.Y48.988
X42.05Y43.322
X42.125Y32.9
X42.15Y38.9
X42.2Y26.75
X42.25Y30.4
X42.255Y36.65
X42.5Y67.2
X42.847Y69.788
X43.Y2.4
X43.2Y50.1
X43.428Y69.238
X43.653Y48.357
X43.7Y52.2
X43.75Y31.6
X43.867Y39.953
X43.88Y36.53
X44.Y26.75
X44.1Y44.3
X44.228Y69.253
X44.281Y63.144
X44.3Y2.4
X44.4Y49.5
X44.424Y63.976
X44.6Y54.2
X44.893Y72.993
X45.4Y47.6
X45.423Y41.509
X45.6Y2.4
X45.78Y36.63
X45.8Y26.75
X45.826Y74.774
X46.2Y75.5
X46.2Y18.2
X46.9Y2.4
X47.335Y40.012
X47.376Y76.425
X47.62Y36.
X47.7Y26.75
X47.9Y65.3
X48.Y66.3
X48.1Y69.958
X48.1Y69.158
X48.1Y2.4
X48.132Y39.945
X48.142Y71.558
X48.526Y44.274
X48.7Y10.9
X48.702Y35.834
X48.837Y77.633
X49.127Y39.832
X49.2Y55.9
X49.4Y45.685
X49.4Y47.3
X49.4Y46.5
X49.4Y2.4
X49.41Y49.324
X49.5Y26.75
X49.55Y48.382
X49.67Y59.93
X49.671Y77.6
X49.876Y69.1
X50.Y45.
X50.486Y73.284
X50.6Y65.35
X50.676Y69.1
X50.7Y2.4
X51.025Y73.875
X51.262Y35.921
X51.3Y62.4
X51.3Y26.9
X51.495Y68.318
X51.5Y72.4
X51.5Y66.497
X52.Y2.4
X52.1Y71.6
X52.712Y65.3
X52.8Y56.6
X52.8Y55.7
X52.966Y8.4
X52.966Y6.8
X52.966Y5.2
X53.3Y2.4
X53.533Y13.961
X53.9Y40.
X53.9Y8.4
X53.9Y6.8
X53.9Y5.2
X54.Y23.3
X54.Y58.6
X54.1Y26.7
X54.318Y68.829
X54.6Y2.4
X54.8Y8.4
X54.8Y6.8
X54.8Y5.2
X54.8Y63.1
X54.8Y35.1
X54.944Y74.383
X55.014Y69.881
X55.035Y75.2
X55.512Y72.739
X55.6Y10.9
X55.7Y49.1
X55.7Y8.4
X55.7Y6.8
X55.7Y5.2
X55.768Y58.7
X55.768Y57.8
X55.768Y56.9
X55.8Y2.4
X56.568Y57.4
X56.6Y43.2
X56.6Y8.4
X56.6Y6.8
X56.6Y5.2
X56.9Y28.1
X56.9Y27.2
X56.9Y26.2
X56.9Y75.2
X56.919Y74.361
X57.1Y2.4
X57.2Y72.725
X57.468Y57.4
X57.5Y8.4
X57.5Y6.8
X57.5Y5.2
X57.7Y28.1
X57.7Y27.2
X57.7Y26.2
X58.15Y72.
X58.2Y43.3
X58.368Y57.4
X58.4Y8.4
X58.4Y6.8
X58.4Y5.2
X58.5Y28.1
X58.5Y27.2
X58.5Y26.2
X58.9Y46.433
X58.9Y72.
X58.9Y68.9
X58.9Y54.9
X58.9Y40.9
X59.Y51.896
X59.02Y65.868
X59.02Y37.868
X59.1Y61.8
X59.1Y33.8
X59.3Y56.3
X59.3Y42.3
X59.3Y6.8
X59.5Y78.5
X59.579Y23.473
X59.6Y72.
X59.6Y24.3
X60.521Y75.2
X60.7Y25.1
X60.7Y11.2
X61.4Y70.7
X61.475Y75.2
X61.5Y1.7
X62.6Y63.
X62.6Y49.
X62.6Y35.
X62.6Y67.014
X62.6Y66.3
X62.6Y65.471
X62.6Y64.
X62.6Y53.014
X62.6Y52.3
X62.6Y51.471
X62.6Y50.
X62.6Y39.014
X62.6Y38.3
X62.6Y37.471
X62.6Y36.
X62.9Y21.8
X62.9Y19.8
X63.2Y57.5
X63.2Y43.5
X63.2Y29.5
X63.2Y28.6
X63.2Y27.6
X63.5Y78.5
X63.65Y74.4
X63.65Y73.5
X63.65Y72.6
X63.8Y65.471
X63.8Y63.929
X63.8Y51.471
X63.8Y49.929
X63.8Y37.471
X63.8Y35.929
X63.9Y10.5
X64.Y57.5
X64.Y43.5
X64.Y29.5
X64.Y28.6
X64.Y27.6
X64.4Y74.4
X64.4Y73.5
X64.4Y72.6
X64.7Y19.8
X64.8Y57.5
X64.8Y43.5
X64.8Y29.5
X64.8Y28.6
X64.8Y27.6
X65.1Y74.4
X65.1Y73.5
X65.1Y72.6
X65.5Y57.5
X65.5Y43.5
X65.5Y29.5
X65.5Y28.6
X65.5Y27.6
X65.85Y74.4
X65.85Y73.5
X65.85Y72.6
X66.05Y68.975
X66.05Y54.975
X66.05Y40.975
X66.2Y57.5
X66.2Y43.5
X66.2Y29.5
X66.2Y28.6
X66.2Y27.6
X66.6Y74.4
X66.6Y73.5
X66.6Y72.6
X66.951Y19.687
X67.Y57.5
X67.Y43.5
X67.Y29.5
X67.Y28.6
X67.Y27.6
X67.067Y59.9
X67.067Y45.9
X67.067Y31.9
X67.082Y62.382
X67.082Y48.382
X67.082Y34.382
X67.2Y67.
X67.2Y53.
X67.2Y39.
X67.3Y74.4
X67.3Y73.5
X67.3Y72.6
X67.9Y57.5
X67.9Y43.5
X67.9Y29.5
X67.9Y28.6
X67.9Y27.6
X68.1Y74.4
X68.1Y73.5
X68.1Y72.6
X68.2Y70.1
X68.2Y59.3
X68.2Y56.1
X68.2Y45.3
X68.2Y42.1
X68.2Y31.3
X68.7Y57.5
X68.7Y43.5
X68.7Y29.5
X68.7Y29.5
X68.7Y28.6
X68.7Y27.6
X69.3Y58.
X69.3Y44.
X69.3Y30.
X69.4Y4.7
X69.41Y59.1
X69.41Y45.1
X69.41Y31.1
X69.7Y12.9
X69.7Y70.2
X69.7Y56.2
X69.7Y42.2
X69.9Y65.4
X69.9Y62.4
X69.9Y51.4
X69.9Y48.4
X69.9Y37.4
X69.9Y34.4
X70.7Y7.4
X71.Y71.5
X71.Y70.5
X71.Y69.5
X71.5Y60.5
X71.5Y59.5
X71.5Y58.5
X71.5Y57.5
X71.5Y56.5
X71.5Y55.5
X71.5Y46.5
X71.5Y45.5
X71.5Y44.5
X71.5Y43.5
X71.5Y42.5
X71.5Y41.5
X72.Y72.5
X72.Y71.5
X72.Y70.5
X72.Y69.5
X72.Y31.5
X72.Y30.5
X72.Y29.5
X72.Y28.5
X72.Y27.5
X72.5Y60.5
X72.5Y59.5
X72.5Y58.5
X72.5Y57.5
X72.5Y56.5
X72.5Y55.5
X72.5Y46.5
X72.5Y45.5
X72.5Y44.5
X72.5Y43.5
X72.5Y42.5
X72.5Y41.5
X73.Y72.5
X73.Y71.5
X73.Y70.5
X73.Y31.5
X73.Y30.5
X73.Y29.5
X73.Y28.5
X73.Y27.5
X73.8Y1.2
X74.Y71.5
X75.Y12.95
X76.Y70.7
X76.Y66.6
X76.Y64.8
X76.Y63.4
X76.Y59.9
X76.Y57.8
X76.Y56.2
X76.Y52.6
X76.Y50.9
X76.Y49.4
X76.Y45.8
X76.Y43.9
X76.Y42.3
X76.Y38.4
X76.Y37.
X76.Y35.6
X76.Y31.
X76.Y28.6
X76.Y26.
X76.Y16.9
X76.7Y15.9
X77.952Y14.369
X78.Y13.
X78.5Y6.7
X78.9Y12.5
T2
X6.9Y21.2
X6.9Y10.2
T3
X16.9Y18.2
X16.9Y13.2
T4
X2.5Y2.5
X2.5Y77.5
X77.5Y2.5
X77.5Y77.5
T0
M30
