G04 #@! TF.GenerationSoftware,KiCad,Pcbnew,(5.0.0)*
G04 #@! TF.CreationDate,2020-01-25T17:41:45+09:00*
G04 #@! TF.ProjectId,General_purpose_lancer_board_sub_m,47656E6572616C5F707572706F73655F,rev?*
G04 #@! TF.SameCoordinates,Original*
G04 #@! TF.FileFunction,Soldermask,Bot*
G04 #@! TF.FilePolarity,Negative*
%FSLAX46Y46*%
G04 Gerber Fmt 4.6, Leading zero omitted, Abs format (unit mm)*
G04 Created by KiCad (PCBNEW (5.0.0)) date 01/25/20 17:41:45*
%MOMM*%
%LPD*%
G01*
G04 APERTURE LIST*
%ADD10C,3.600000*%
%ADD11R,0.700000X1.400000*%
%ADD12R,2.400000X1.700000*%
%ADD13O,1.400000X1.900000*%
%ADD14R,1.300000X0.900000*%
%ADD15R,0.900000X1.300000*%
%ADD16R,1.200000X1.150000*%
%ADD17R,1.150000X1.200000*%
%ADD18C,2.200000*%
%ADD19R,2.000000X3.400000*%
G04 APERTURE END LIST*
D10*
G04 #@! TO.C,REF\002A\002A*
X172500000Y-102500000D03*
G04 #@! TD*
D11*
G04 #@! TO.C,J3*
X195250000Y-106850000D03*
X196750000Y-106850000D03*
X196250000Y-106850000D03*
X195750000Y-106850000D03*
X197250000Y-106850000D03*
X194750000Y-106850000D03*
X197750000Y-106850000D03*
X198250000Y-106850000D03*
X198750000Y-106850000D03*
X199250000Y-106850000D03*
X199750000Y-106850000D03*
X200250000Y-106850000D03*
D12*
X192450000Y-104150000D03*
D11*
X202250000Y-106850000D03*
D12*
X207550000Y-104150000D03*
D11*
X202750000Y-106850000D03*
X204250000Y-106850000D03*
X203750000Y-106850000D03*
X201750000Y-106850000D03*
X205250000Y-106850000D03*
X200750000Y-106850000D03*
X204750000Y-106850000D03*
X203250000Y-106850000D03*
X201250000Y-106850000D03*
G04 #@! TD*
D13*
G04 #@! TO.C,LCD1*
X192000000Y-125000000D03*
X193500000Y-125000000D03*
X195000000Y-125000000D03*
X196500000Y-125000000D03*
X198000000Y-125000000D03*
X199500000Y-125000000D03*
X201000000Y-125000000D03*
X202500000Y-125000000D03*
X204000000Y-125000000D03*
G04 #@! TD*
D14*
G04 #@! TO.C,R4*
X205600000Y-131250000D03*
X205600000Y-132750000D03*
G04 #@! TD*
G04 #@! TO.C,R11*
X202500000Y-122350000D03*
X202500000Y-120850000D03*
G04 #@! TD*
G04 #@! TO.C,R6*
X216500000Y-131250000D03*
X216500000Y-132750000D03*
G04 #@! TD*
G04 #@! TO.C,R10*
X201000000Y-120850000D03*
X201000000Y-122350000D03*
G04 #@! TD*
D15*
G04 #@! TO.C,R8*
X185750000Y-128500000D03*
X187250000Y-128500000D03*
G04 #@! TD*
G04 #@! TO.C,R7*
X187250000Y-126500000D03*
X185750000Y-126500000D03*
G04 #@! TD*
D14*
G04 #@! TO.C,R3*
X202800000Y-132750000D03*
X202800000Y-131250000D03*
G04 #@! TD*
D15*
G04 #@! TO.C,R9*
X185750000Y-124500000D03*
X187250000Y-124500000D03*
G04 #@! TD*
D14*
G04 #@! TO.C,R5*
X213500000Y-132750000D03*
X213500000Y-131250000D03*
G04 #@! TD*
D16*
G04 #@! TO.C,C7*
X199450000Y-127800000D03*
X197950000Y-127800000D03*
G04 #@! TD*
D17*
G04 #@! TO.C,C2*
X208300000Y-131250000D03*
X208300000Y-132750000D03*
G04 #@! TD*
D16*
G04 #@! TO.C,C5*
X194950000Y-127800000D03*
X193450000Y-127800000D03*
G04 #@! TD*
D10*
G04 #@! TO.C,REF\002A\002A*
X227500000Y-102500000D03*
G04 #@! TD*
D17*
G04 #@! TO.C,C3*
X219300000Y-131250000D03*
X219300000Y-132750000D03*
G04 #@! TD*
G04 #@! TO.C,C1*
X196500000Y-132750000D03*
X196500000Y-131250000D03*
G04 #@! TD*
D18*
G04 #@! TO.C,SW5*
X220270000Y-116750000D03*
X217730000Y-116750000D03*
X215190000Y-116750000D03*
X222810000Y-116750000D03*
X217730000Y-124370000D03*
G04 #@! TD*
D10*
G04 #@! TO.C,REF\002A\002A*
X172500000Y-137500000D03*
G04 #@! TD*
D14*
G04 #@! TO.C,R2*
X194000000Y-131250000D03*
X194000000Y-132750000D03*
G04 #@! TD*
D16*
G04 #@! TO.C,C6*
X196450000Y-122100000D03*
X194950000Y-122100000D03*
G04 #@! TD*
D17*
G04 #@! TO.C,C4*
X222100000Y-108500000D03*
X222100000Y-110000000D03*
G04 #@! TD*
D14*
G04 #@! TO.C,R1*
X191500000Y-132750000D03*
X191500000Y-131250000D03*
G04 #@! TD*
D19*
G04 #@! TO.C,C9*
X212500000Y-107450000D03*
X212500000Y-103050000D03*
G04 #@! TD*
D17*
G04 #@! TO.C,C8*
X217500000Y-103000000D03*
X217500000Y-104500000D03*
G04 #@! TD*
D10*
G04 #@! TO.C,REF\002A\002A*
X227500000Y-137500000D03*
G04 #@! TD*
G04 #@! TO.C,REF\002A\002A*
X172500000Y-60700000D03*
G04 #@! TD*
D11*
G04 #@! TO.C,J3*
X195250000Y-65050000D03*
X196750000Y-65050000D03*
X196250000Y-65050000D03*
X195750000Y-65050000D03*
X197250000Y-65050000D03*
X194750000Y-65050000D03*
X197750000Y-65050000D03*
X198250000Y-65050000D03*
X198750000Y-65050000D03*
X199250000Y-65050000D03*
X199750000Y-65050000D03*
X200250000Y-65050000D03*
D12*
X192450000Y-62350000D03*
D11*
X202250000Y-65050000D03*
D12*
X207550000Y-62350000D03*
D11*
X202750000Y-65050000D03*
X204250000Y-65050000D03*
X203750000Y-65050000D03*
X201750000Y-65050000D03*
X205250000Y-65050000D03*
X200750000Y-65050000D03*
X204750000Y-65050000D03*
X203250000Y-65050000D03*
X201250000Y-65050000D03*
G04 #@! TD*
D13*
G04 #@! TO.C,LCD1*
X192000000Y-83200000D03*
X193500000Y-83200000D03*
X195000000Y-83200000D03*
X196500000Y-83200000D03*
X198000000Y-83200000D03*
X199500000Y-83200000D03*
X201000000Y-83200000D03*
X202500000Y-83200000D03*
X204000000Y-83200000D03*
G04 #@! TD*
D14*
G04 #@! TO.C,R4*
X205600000Y-89450000D03*
X205600000Y-90950000D03*
G04 #@! TD*
G04 #@! TO.C,R11*
X202500000Y-80550000D03*
X202500000Y-79050000D03*
G04 #@! TD*
G04 #@! TO.C,R6*
X216500000Y-89450000D03*
X216500000Y-90950000D03*
G04 #@! TD*
G04 #@! TO.C,R10*
X201000000Y-79050000D03*
X201000000Y-80550000D03*
G04 #@! TD*
D15*
G04 #@! TO.C,R8*
X185750000Y-86700000D03*
X187250000Y-86700000D03*
G04 #@! TD*
G04 #@! TO.C,R7*
X187250000Y-84700000D03*
X185750000Y-84700000D03*
G04 #@! TD*
D14*
G04 #@! TO.C,R3*
X202800000Y-90950000D03*
X202800000Y-89450000D03*
G04 #@! TD*
D15*
G04 #@! TO.C,R9*
X185750000Y-82700000D03*
X187250000Y-82700000D03*
G04 #@! TD*
D14*
G04 #@! TO.C,R5*
X213500000Y-90950000D03*
X213500000Y-89450000D03*
G04 #@! TD*
D16*
G04 #@! TO.C,C7*
X199450000Y-86000000D03*
X197950000Y-86000000D03*
G04 #@! TD*
D17*
G04 #@! TO.C,C2*
X208300000Y-89450000D03*
X208300000Y-90950000D03*
G04 #@! TD*
D16*
G04 #@! TO.C,C5*
X194950000Y-86000000D03*
X193450000Y-86000000D03*
G04 #@! TD*
D10*
G04 #@! TO.C,REF\002A\002A*
X227500000Y-60700000D03*
G04 #@! TD*
D17*
G04 #@! TO.C,C3*
X219300000Y-89450000D03*
X219300000Y-90950000D03*
G04 #@! TD*
G04 #@! TO.C,C1*
X196500000Y-90950000D03*
X196500000Y-89450000D03*
G04 #@! TD*
D18*
G04 #@! TO.C,SW5*
X220270000Y-74950000D03*
X217730000Y-74950000D03*
X215190000Y-74950000D03*
X222810000Y-74950000D03*
X217730000Y-82570000D03*
G04 #@! TD*
D10*
G04 #@! TO.C,REF\002A\002A*
X172500000Y-95700000D03*
G04 #@! TD*
D14*
G04 #@! TO.C,R2*
X194000000Y-89450000D03*
X194000000Y-90950000D03*
G04 #@! TD*
D16*
G04 #@! TO.C,C6*
X196450000Y-80300000D03*
X194950000Y-80300000D03*
G04 #@! TD*
D17*
G04 #@! TO.C,C4*
X222100000Y-66700000D03*
X222100000Y-68200000D03*
G04 #@! TD*
D14*
G04 #@! TO.C,R1*
X191500000Y-90950000D03*
X191500000Y-89450000D03*
G04 #@! TD*
D19*
G04 #@! TO.C,C9*
X212500000Y-65650000D03*
X212500000Y-61250000D03*
G04 #@! TD*
D17*
G04 #@! TO.C,C8*
X217500000Y-61200000D03*
X217500000Y-62700000D03*
G04 #@! TD*
D10*
G04 #@! TO.C,REF\002A\002A*
X227500000Y-95700000D03*
G04 #@! TD*
M02*
