G04 #@! TF.GenerationSoftware,KiCad,Pcbnew,(5.0.0)*
G04 #@! TF.CreationDate,2020-01-25T17:41:45+09:00*
G04 #@! TF.ProjectId,General_purpose_lancer_board_sub_m,47656E6572616C5F707572706F73655F,rev?*
G04 #@! TF.SameCoordinates,Original*
G04 #@! TF.FileFunction,Copper,L2,Bot,Signal*
G04 #@! TF.FilePolarity,Positive*
%FSLAX46Y46*%
G04 Gerber Fmt 4.6, Leading zero omitted, Abs format (unit mm)*
G04 Created by KiCad (PCBNEW (5.0.0)) date 01/25/20 17:41:45*
%MOMM*%
%LPD*%
G01*
G04 APERTURE LIST*
G04 #@! TA.AperFunction,SMDPad,CuDef*
%ADD10R,0.300000X1.000000*%
G04 #@! TD*
G04 #@! TA.AperFunction,SMDPad,CuDef*
%ADD11R,2.000000X1.300000*%
G04 #@! TD*
G04 #@! TA.AperFunction,ComponentPad*
%ADD12O,1.000000X1.500000*%
G04 #@! TD*
G04 #@! TA.AperFunction,SMDPad,CuDef*
%ADD13R,0.900000X0.500000*%
G04 #@! TD*
G04 #@! TA.AperFunction,SMDPad,CuDef*
%ADD14R,0.500000X0.900000*%
G04 #@! TD*
G04 #@! TA.AperFunction,SMDPad,CuDef*
%ADD15R,0.800000X0.750000*%
G04 #@! TD*
G04 #@! TA.AperFunction,SMDPad,CuDef*
%ADD16R,0.750000X0.800000*%
G04 #@! TD*
G04 #@! TA.AperFunction,ComponentPad*
%ADD17C,1.800000*%
G04 #@! TD*
G04 #@! TA.AperFunction,SMDPad,CuDef*
%ADD18R,1.600000X3.000000*%
G04 #@! TD*
G04 #@! TA.AperFunction,ViaPad*
%ADD19C,0.800000*%
G04 #@! TD*
G04 #@! TA.AperFunction,Conductor*
%ADD20C,0.250000*%
G04 #@! TD*
G04 #@! TA.AperFunction,NonConductor*
%ADD21C,0.254000*%
G04 #@! TD*
G04 APERTURE END LIST*
D10*
G04 #@! TO.P,J3,21*
G04 #@! TO.N,N/C*
X195250000Y-106850000D03*
G04 #@! TO.P,J3,18*
X196750000Y-106850000D03*
G04 #@! TO.P,J3,19*
X196250000Y-106850000D03*
G04 #@! TO.P,J3,20*
X195750000Y-106850000D03*
G04 #@! TO.P,J3,17*
X197250000Y-106850000D03*
G04 #@! TO.P,J3,22*
X194750000Y-106850000D03*
G04 #@! TO.P,J3,16*
X197750000Y-106850000D03*
G04 #@! TO.P,J3,15*
X198250000Y-106850000D03*
G04 #@! TO.P,J3,14*
X198750000Y-106850000D03*
G04 #@! TO.P,J3,13*
X199250000Y-106850000D03*
G04 #@! TO.P,J3,12*
X199750000Y-106850000D03*
G04 #@! TO.P,J3,11*
X200250000Y-106850000D03*
D11*
G04 #@! TO.P,J3,*
G04 #@! TO.N,*
X192450000Y-104150000D03*
D10*
G04 #@! TO.P,J3,7*
G04 #@! TO.N,N/C*
X202250000Y-106850000D03*
D11*
G04 #@! TO.P,J3,*
G04 #@! TO.N,*
X207550000Y-104150000D03*
D10*
G04 #@! TO.P,J3,6*
G04 #@! TO.N,N/C*
X202750000Y-106850000D03*
G04 #@! TO.P,J3,3*
X204250000Y-106850000D03*
G04 #@! TO.P,J3,4*
X203750000Y-106850000D03*
G04 #@! TO.P,J3,8*
X201750000Y-106850000D03*
G04 #@! TO.P,J3,1*
X205250000Y-106850000D03*
G04 #@! TO.P,J3,10*
X200750000Y-106850000D03*
G04 #@! TO.P,J3,2*
X204750000Y-106850000D03*
G04 #@! TO.P,J3,5*
X203250000Y-106850000D03*
G04 #@! TO.P,J3,9*
X201250000Y-106850000D03*
G04 #@! TD*
D12*
G04 #@! TO.P,LCD1,1*
G04 #@! TO.N,N/C*
X192000000Y-125000000D03*
G04 #@! TO.P,LCD1,2*
X193500000Y-125000000D03*
G04 #@! TO.P,LCD1,3*
X195000000Y-125000000D03*
G04 #@! TO.P,LCD1,4*
X196500000Y-125000000D03*
G04 #@! TO.P,LCD1,5*
X198000000Y-125000000D03*
G04 #@! TO.P,LCD1,6*
X199500000Y-125000000D03*
G04 #@! TO.P,LCD1,7*
X201000000Y-125000000D03*
G04 #@! TO.P,LCD1,8*
X202500000Y-125000000D03*
G04 #@! TO.P,LCD1,9*
X204000000Y-125000000D03*
G04 #@! TD*
D13*
G04 #@! TO.P,R4,1*
G04 #@! TO.N,N/C*
X205600000Y-131250000D03*
G04 #@! TO.P,R4,2*
X205600000Y-132750000D03*
G04 #@! TD*
G04 #@! TO.P,R11,2*
G04 #@! TO.N,N/C*
X202500000Y-122350000D03*
G04 #@! TO.P,R11,1*
X202500000Y-120850000D03*
G04 #@! TD*
G04 #@! TO.P,R6,1*
G04 #@! TO.N,N/C*
X216500000Y-131250000D03*
G04 #@! TO.P,R6,2*
X216500000Y-132750000D03*
G04 #@! TD*
G04 #@! TO.P,R10,1*
G04 #@! TO.N,N/C*
X201000000Y-120850000D03*
G04 #@! TO.P,R10,2*
X201000000Y-122350000D03*
G04 #@! TD*
D14*
G04 #@! TO.P,R8,2*
G04 #@! TO.N,N/C*
X185750000Y-128500000D03*
G04 #@! TO.P,R8,1*
X187250000Y-128500000D03*
G04 #@! TD*
G04 #@! TO.P,R7,1*
G04 #@! TO.N,N/C*
X187250000Y-126500000D03*
G04 #@! TO.P,R7,2*
X185750000Y-126500000D03*
G04 #@! TD*
D13*
G04 #@! TO.P,R3,2*
G04 #@! TO.N,N/C*
X202800000Y-132750000D03*
G04 #@! TO.P,R3,1*
X202800000Y-131250000D03*
G04 #@! TD*
D14*
G04 #@! TO.P,R9,2*
G04 #@! TO.N,N/C*
X185750000Y-124500000D03*
G04 #@! TO.P,R9,1*
X187250000Y-124500000D03*
G04 #@! TD*
D13*
G04 #@! TO.P,R5,2*
G04 #@! TO.N,N/C*
X213500000Y-132750000D03*
G04 #@! TO.P,R5,1*
X213500000Y-131250000D03*
G04 #@! TD*
D15*
G04 #@! TO.P,C7,1*
G04 #@! TO.N,N/C*
X199450000Y-127800000D03*
G04 #@! TO.P,C7,2*
X197950000Y-127800000D03*
G04 #@! TD*
D16*
G04 #@! TO.P,C2,2*
G04 #@! TO.N,N/C*
X208300000Y-131250000D03*
G04 #@! TO.P,C2,1*
X208300000Y-132750000D03*
G04 #@! TD*
D15*
G04 #@! TO.P,C5,2*
G04 #@! TO.N,N/C*
X194950000Y-127800000D03*
G04 #@! TO.P,C5,1*
X193450000Y-127800000D03*
G04 #@! TD*
D16*
G04 #@! TO.P,C3,2*
G04 #@! TO.N,N/C*
X219300000Y-131250000D03*
G04 #@! TO.P,C3,1*
X219300000Y-132750000D03*
G04 #@! TD*
G04 #@! TO.P,C1,1*
G04 #@! TO.N,N/C*
X196500000Y-132750000D03*
G04 #@! TO.P,C1,2*
X196500000Y-131250000D03*
G04 #@! TD*
D17*
G04 #@! TO.P,SW5,4*
G04 #@! TO.N,N/C*
X220270000Y-116750000D03*
G04 #@! TO.P,SW5,2*
X217730000Y-116750000D03*
G04 #@! TO.P,SW5,1*
X215190000Y-116750000D03*
G04 #@! TO.P,SW5,8*
X222810000Y-116750000D03*
G04 #@! TO.P,SW5,C*
X217730000Y-124370000D03*
G04 #@! TD*
D13*
G04 #@! TO.P,R2,1*
G04 #@! TO.N,N/C*
X194000000Y-131250000D03*
G04 #@! TO.P,R2,2*
X194000000Y-132750000D03*
G04 #@! TD*
D15*
G04 #@! TO.P,C6,1*
G04 #@! TO.N,N/C*
X196450000Y-122100000D03*
G04 #@! TO.P,C6,2*
X194950000Y-122100000D03*
G04 #@! TD*
D16*
G04 #@! TO.P,C4,1*
G04 #@! TO.N,N/C*
X222100000Y-108500000D03*
G04 #@! TO.P,C4,2*
X222100000Y-110000000D03*
G04 #@! TD*
D13*
G04 #@! TO.P,R1,2*
G04 #@! TO.N,N/C*
X191500000Y-132750000D03*
G04 #@! TO.P,R1,1*
X191500000Y-131250000D03*
G04 #@! TD*
D18*
G04 #@! TO.P,C9,1*
G04 #@! TO.N,N/C*
X212500000Y-107450000D03*
G04 #@! TO.P,C9,2*
X212500000Y-103050000D03*
G04 #@! TD*
D16*
G04 #@! TO.P,C8,2*
G04 #@! TO.N,N/C*
X217500000Y-103000000D03*
G04 #@! TO.P,C8,1*
X217500000Y-104500000D03*
G04 #@! TD*
D10*
G04 #@! TO.P,J3,21*
G04 #@! TO.N,N/C*
X195250000Y-65050000D03*
G04 #@! TO.P,J3,18*
X196750000Y-65050000D03*
G04 #@! TO.P,J3,19*
X196250000Y-65050000D03*
G04 #@! TO.P,J3,20*
X195750000Y-65050000D03*
G04 #@! TO.P,J3,17*
X197250000Y-65050000D03*
G04 #@! TO.P,J3,22*
X194750000Y-65050000D03*
G04 #@! TO.P,J3,16*
X197750000Y-65050000D03*
G04 #@! TO.P,J3,15*
X198250000Y-65050000D03*
G04 #@! TO.P,J3,14*
X198750000Y-65050000D03*
G04 #@! TO.P,J3,13*
X199250000Y-65050000D03*
G04 #@! TO.P,J3,12*
X199750000Y-65050000D03*
G04 #@! TO.P,J3,11*
X200250000Y-65050000D03*
D11*
G04 #@! TO.P,J3,*
G04 #@! TO.N,*
X192450000Y-62350000D03*
D10*
G04 #@! TO.P,J3,7*
G04 #@! TO.N,N/C*
X202250000Y-65050000D03*
D11*
G04 #@! TO.P,J3,*
G04 #@! TO.N,*
X207550000Y-62350000D03*
D10*
G04 #@! TO.P,J3,6*
G04 #@! TO.N,N/C*
X202750000Y-65050000D03*
G04 #@! TO.P,J3,3*
X204250000Y-65050000D03*
G04 #@! TO.P,J3,4*
X203750000Y-65050000D03*
G04 #@! TO.P,J3,8*
X201750000Y-65050000D03*
G04 #@! TO.P,J3,1*
X205250000Y-65050000D03*
G04 #@! TO.P,J3,10*
X200750000Y-65050000D03*
G04 #@! TO.P,J3,2*
X204750000Y-65050000D03*
G04 #@! TO.P,J3,5*
X203250000Y-65050000D03*
G04 #@! TO.P,J3,9*
X201250000Y-65050000D03*
G04 #@! TD*
D12*
G04 #@! TO.P,LCD1,1*
G04 #@! TO.N,N/C*
X192000000Y-83200000D03*
G04 #@! TO.P,LCD1,2*
X193500000Y-83200000D03*
G04 #@! TO.P,LCD1,3*
X195000000Y-83200000D03*
G04 #@! TO.P,LCD1,4*
X196500000Y-83200000D03*
G04 #@! TO.P,LCD1,5*
X198000000Y-83200000D03*
G04 #@! TO.P,LCD1,6*
X199500000Y-83200000D03*
G04 #@! TO.P,LCD1,7*
X201000000Y-83200000D03*
G04 #@! TO.P,LCD1,8*
X202500000Y-83200000D03*
G04 #@! TO.P,LCD1,9*
X204000000Y-83200000D03*
G04 #@! TD*
D13*
G04 #@! TO.P,R4,1*
G04 #@! TO.N,N/C*
X205600000Y-89450000D03*
G04 #@! TO.P,R4,2*
X205600000Y-90950000D03*
G04 #@! TD*
G04 #@! TO.P,R11,2*
G04 #@! TO.N,N/C*
X202500000Y-80550000D03*
G04 #@! TO.P,R11,1*
X202500000Y-79050000D03*
G04 #@! TD*
G04 #@! TO.P,R6,1*
G04 #@! TO.N,N/C*
X216500000Y-89450000D03*
G04 #@! TO.P,R6,2*
X216500000Y-90950000D03*
G04 #@! TD*
G04 #@! TO.P,R10,1*
G04 #@! TO.N,N/C*
X201000000Y-79050000D03*
G04 #@! TO.P,R10,2*
X201000000Y-80550000D03*
G04 #@! TD*
D14*
G04 #@! TO.P,R8,2*
G04 #@! TO.N,N/C*
X185750000Y-86700000D03*
G04 #@! TO.P,R8,1*
X187250000Y-86700000D03*
G04 #@! TD*
G04 #@! TO.P,R7,1*
G04 #@! TO.N,N/C*
X187250000Y-84700000D03*
G04 #@! TO.P,R7,2*
X185750000Y-84700000D03*
G04 #@! TD*
D13*
G04 #@! TO.P,R3,2*
G04 #@! TO.N,N/C*
X202800000Y-90950000D03*
G04 #@! TO.P,R3,1*
X202800000Y-89450000D03*
G04 #@! TD*
D14*
G04 #@! TO.P,R9,2*
G04 #@! TO.N,N/C*
X185750000Y-82700000D03*
G04 #@! TO.P,R9,1*
X187250000Y-82700000D03*
G04 #@! TD*
D13*
G04 #@! TO.P,R5,2*
G04 #@! TO.N,N/C*
X213500000Y-90950000D03*
G04 #@! TO.P,R5,1*
X213500000Y-89450000D03*
G04 #@! TD*
D15*
G04 #@! TO.P,C7,1*
G04 #@! TO.N,N/C*
X199450000Y-86000000D03*
G04 #@! TO.P,C7,2*
X197950000Y-86000000D03*
G04 #@! TD*
D16*
G04 #@! TO.P,C2,2*
G04 #@! TO.N,N/C*
X208300000Y-89450000D03*
G04 #@! TO.P,C2,1*
X208300000Y-90950000D03*
G04 #@! TD*
D15*
G04 #@! TO.P,C5,2*
G04 #@! TO.N,N/C*
X194950000Y-86000000D03*
G04 #@! TO.P,C5,1*
X193450000Y-86000000D03*
G04 #@! TD*
D16*
G04 #@! TO.P,C3,2*
G04 #@! TO.N,N/C*
X219300000Y-89450000D03*
G04 #@! TO.P,C3,1*
X219300000Y-90950000D03*
G04 #@! TD*
G04 #@! TO.P,C1,1*
G04 #@! TO.N,N/C*
X196500000Y-90950000D03*
G04 #@! TO.P,C1,2*
X196500000Y-89450000D03*
G04 #@! TD*
D17*
G04 #@! TO.P,SW5,4*
G04 #@! TO.N,N/C*
X220270000Y-74950000D03*
G04 #@! TO.P,SW5,2*
X217730000Y-74950000D03*
G04 #@! TO.P,SW5,1*
X215190000Y-74950000D03*
G04 #@! TO.P,SW5,8*
X222810000Y-74950000D03*
G04 #@! TO.P,SW5,C*
X217730000Y-82570000D03*
G04 #@! TD*
D13*
G04 #@! TO.P,R2,1*
G04 #@! TO.N,N/C*
X194000000Y-89450000D03*
G04 #@! TO.P,R2,2*
X194000000Y-90950000D03*
G04 #@! TD*
D15*
G04 #@! TO.P,C6,1*
G04 #@! TO.N,N/C*
X196450000Y-80300000D03*
G04 #@! TO.P,C6,2*
X194950000Y-80300000D03*
G04 #@! TD*
D16*
G04 #@! TO.P,C4,1*
G04 #@! TO.N,N/C*
X222100000Y-66700000D03*
G04 #@! TO.P,C4,2*
X222100000Y-68200000D03*
G04 #@! TD*
D13*
G04 #@! TO.P,R1,2*
G04 #@! TO.N,N/C*
X191500000Y-90950000D03*
G04 #@! TO.P,R1,1*
X191500000Y-89450000D03*
G04 #@! TD*
D18*
G04 #@! TO.P,C9,1*
G04 #@! TO.N,N/C*
X212500000Y-65650000D03*
G04 #@! TO.P,C9,2*
X212500000Y-61250000D03*
G04 #@! TD*
D16*
G04 #@! TO.P,C8,2*
G04 #@! TO.N,N/C*
X217500000Y-61200000D03*
G04 #@! TO.P,C8,1*
X217500000Y-62700000D03*
G04 #@! TD*
D19*
G04 #@! TO.N,*
X227200000Y-66800000D03*
X184800000Y-74700000D03*
X219300000Y-90950000D03*
X171700000Y-77500000D03*
X208300000Y-90950000D03*
X180300000Y-74900000D03*
X222700000Y-61200000D03*
X199500000Y-96200000D03*
X196500000Y-90950000D03*
X179600000Y-59500000D03*
X179800000Y-96200000D03*
X172000000Y-89200000D03*
X218200000Y-96300000D03*
X202300000Y-70600000D03*
X213400000Y-87900000D03*
X212500000Y-61250000D03*
X221050000Y-70100000D03*
X192900000Y-67500000D03*
X171800000Y-64200000D03*
X209500000Y-83300000D03*
X189600000Y-63000000D03*
X201600000Y-59300000D03*
X227300000Y-78600000D03*
X180300000Y-81700000D03*
X227200000Y-90300000D03*
X196750000Y-63500000D03*
X222100000Y-66700000D03*
X182000000Y-67700000D03*
X194700000Y-63500000D03*
X201000000Y-77700000D03*
X212500000Y-65650000D03*
X177750000Y-70700000D03*
X175800000Y-78900000D03*
X176850000Y-87950000D03*
X185000000Y-88200000D03*
X191500000Y-90950000D03*
X202800000Y-90950000D03*
X213500000Y-90950000D03*
X188500000Y-91200000D03*
X184000000Y-91200000D03*
X180200000Y-64500000D03*
X178250000Y-68700000D03*
X176700000Y-77950000D03*
X227200000Y-108600000D03*
X184800000Y-116500000D03*
X219300000Y-132750000D03*
X171700000Y-119300000D03*
X208300000Y-132750000D03*
X180300000Y-116700000D03*
X222700000Y-103000000D03*
X199500000Y-138000000D03*
X196500000Y-132750000D03*
X179600000Y-101300000D03*
X179800000Y-138000000D03*
X172000000Y-131000000D03*
X218200000Y-138100000D03*
X202300000Y-112400000D03*
X213400000Y-129700000D03*
X212500000Y-103050000D03*
X221050000Y-111900000D03*
X192900000Y-109300000D03*
X171800000Y-106000000D03*
X209500000Y-125100000D03*
X189600000Y-104800000D03*
X201600000Y-101100000D03*
X227300000Y-120400000D03*
X180300000Y-123500000D03*
X227200000Y-132100000D03*
X196750000Y-105300000D03*
X222100000Y-108500000D03*
X182000000Y-109500000D03*
X194700000Y-105300000D03*
X201000000Y-119500000D03*
X212500000Y-107450000D03*
X177750000Y-112500000D03*
X175800000Y-120700000D03*
X176850000Y-129750000D03*
X185000000Y-130000000D03*
X191500000Y-132750000D03*
X202800000Y-132750000D03*
X213500000Y-132750000D03*
X188500000Y-133000000D03*
X184000000Y-133000000D03*
X180200000Y-106300000D03*
X178250000Y-110500000D03*
X176700000Y-119750000D03*
G04 #@! TD*
D20*
G04 #@! TO.N,*
X194000000Y-89450000D02*
X196500000Y-89450000D01*
X201550000Y-89450000D02*
X196500000Y-89450000D01*
X198750000Y-65050000D02*
X198750000Y-65800000D01*
X198800000Y-65850000D02*
X198800000Y-73300000D01*
X198800000Y-73300000D02*
X206200000Y-80700000D01*
X198750000Y-65800000D02*
X198800000Y-65850000D01*
X206200000Y-84800000D02*
X201550000Y-89450000D01*
X206200000Y-80700000D02*
X206200000Y-84800000D01*
X206414998Y-61250000D02*
X211450000Y-61250000D01*
X217450000Y-61250000D02*
X217500000Y-61200000D01*
X199500000Y-85950000D02*
X199450000Y-86000000D01*
X205250000Y-62414998D02*
X206414998Y-61250000D01*
X212500000Y-61250000D02*
X217450000Y-61250000D01*
X222700000Y-61200000D02*
X224900000Y-63400000D01*
X217500000Y-61200000D02*
X222700000Y-61200000D01*
X211450000Y-61250000D02*
X212500000Y-61250000D01*
X222100000Y-69050000D02*
X221050000Y-70100000D01*
X224900000Y-63400000D02*
X224900000Y-69200000D01*
X220830000Y-82570000D02*
X217730000Y-82570000D01*
X224900000Y-78500000D02*
X220830000Y-82570000D01*
X205250000Y-65050000D02*
X205250000Y-62414998D01*
X199500000Y-83200000D02*
X199500000Y-85950000D01*
X222100000Y-68200000D02*
X222100000Y-69050000D01*
X222100000Y-68200000D02*
X224900000Y-68200000D01*
X205250000Y-65050000D02*
X205750000Y-65050000D01*
X224900000Y-68200000D02*
X224900000Y-78500000D01*
X222700000Y-61200000D02*
X222700000Y-61200000D01*
X208300000Y-81500000D02*
X199250000Y-72450000D01*
X199250000Y-72450000D02*
X199250000Y-65050000D01*
X208300000Y-89450000D02*
X205600000Y-89450000D01*
X208300000Y-89450000D02*
X208300000Y-81500000D01*
X216500000Y-88600000D02*
X216500000Y-89450000D01*
X219300000Y-89450000D02*
X216500000Y-89450000D01*
X199750000Y-71850000D02*
X216500000Y-88600000D01*
X199750000Y-65050000D02*
X199750000Y-71850000D01*
X196750000Y-65050000D02*
X196750000Y-63500000D01*
X182399999Y-67300001D02*
X182000000Y-67700000D01*
X195500000Y-61200000D02*
X188500000Y-61200000D01*
X196750000Y-62450000D02*
X195500000Y-61200000D01*
X196750000Y-63500000D02*
X196750000Y-62450000D01*
X188500000Y-61200000D02*
X182399999Y-67300001D01*
X193500000Y-85950000D02*
X193450000Y-86000000D01*
X193500000Y-83200000D02*
X193500000Y-85950000D01*
X198000000Y-83200000D02*
X198000000Y-85950000D01*
X194950000Y-86000000D02*
X191500000Y-89450000D01*
X202600000Y-89450000D02*
X202800000Y-89450000D01*
X201000000Y-92200000D02*
X201000000Y-91050000D01*
X197950000Y-86000000D02*
X197300000Y-86000000D01*
X201000000Y-91050000D02*
X202600000Y-89450000D01*
X213300000Y-89450000D02*
X213500000Y-89450000D01*
X191500000Y-89450000D02*
X190800000Y-89450000D01*
X197300000Y-86000000D02*
X194950000Y-86000000D01*
X215200000Y-65650000D02*
X213550000Y-65650000D01*
X201000000Y-79050000D02*
X202500000Y-79050000D01*
X194750000Y-65050000D02*
X194750000Y-63550000D01*
X201000000Y-77700000D02*
X201000000Y-79050000D01*
X198000000Y-85950000D02*
X197950000Y-86000000D01*
X194750000Y-63550000D02*
X194700000Y-63500000D01*
X213550000Y-65650000D02*
X212500000Y-65650000D01*
X217500000Y-62700000D02*
X217500000Y-63350000D01*
X217500000Y-63350000D02*
X215200000Y-65650000D01*
X210550000Y-92200000D02*
X213300000Y-89450000D01*
X197950000Y-86650000D02*
X197950000Y-86000000D01*
X205300000Y-84463590D02*
X202463590Y-87300000D01*
X190100000Y-90150000D02*
X190100000Y-91500000D01*
X205300000Y-81650000D02*
X205300000Y-84463590D01*
X202500000Y-79050000D02*
X202700000Y-79050000D01*
X202700000Y-79050000D02*
X205300000Y-81650000D01*
X190100000Y-91500000D02*
X190800000Y-92200000D01*
X202463590Y-87300000D02*
X198600000Y-87300000D01*
X190800000Y-89450000D02*
X190100000Y-90150000D01*
X198600000Y-87300000D02*
X197950000Y-86650000D01*
X190800000Y-92200000D02*
X210550000Y-92200000D01*
X194950000Y-83150000D02*
X195000000Y-83200000D01*
X194950000Y-80300000D02*
X194950000Y-83150000D01*
X196450000Y-83150000D02*
X196500000Y-83200000D01*
X196450000Y-80300000D02*
X196450000Y-83150000D01*
X198699989Y-60749989D02*
X187700011Y-60749989D01*
X202250000Y-65050000D02*
X202250000Y-64300000D01*
X187700011Y-60749989D02*
X178149999Y-70300001D01*
X202250000Y-64300000D02*
X198699989Y-60749989D01*
X178149999Y-70300001D02*
X177750000Y-70700000D01*
X199400000Y-58900000D02*
X182400000Y-58900000D01*
X204250000Y-63750000D02*
X199400000Y-58900000D01*
X175800000Y-65500000D02*
X175800000Y-78900000D01*
X182400000Y-58900000D02*
X175800000Y-65500000D01*
X204250000Y-65050000D02*
X204250000Y-63750000D01*
X195250000Y-65050000D02*
X195250000Y-69550000D01*
X195250000Y-69550000D02*
X176850000Y-87950000D01*
X185000000Y-84950000D02*
X185000000Y-88200000D01*
X185250000Y-84700000D02*
X185000000Y-84950000D01*
X185750000Y-84700000D02*
X185250000Y-84700000D01*
X191500000Y-90950000D02*
X194000000Y-90950000D01*
X205600000Y-90950000D02*
X202800000Y-90950000D01*
X213500000Y-90950000D02*
X216500000Y-90950000D01*
X187250000Y-83850000D02*
X187250000Y-84700000D01*
X187825001Y-83410001D02*
X187760001Y-83475001D01*
X187825001Y-83274999D02*
X187825001Y-83410001D01*
X196250000Y-65050000D02*
X196250000Y-74850000D01*
X187624999Y-83475001D02*
X187250000Y-83850000D01*
X196250000Y-74850000D02*
X187825001Y-83274999D01*
X187760001Y-83475001D02*
X187624999Y-83475001D01*
X187750000Y-86000000D02*
X187250000Y-86500000D01*
X187783260Y-86000000D02*
X187750000Y-86000000D01*
X197250000Y-76533260D02*
X187783260Y-86000000D01*
X197250000Y-65050000D02*
X197250000Y-76533260D01*
X187250000Y-86500000D02*
X187250000Y-86700000D01*
X185750000Y-86700000D02*
X185750000Y-88450000D01*
X185750000Y-88450000D02*
X188500000Y-91200000D01*
X187250000Y-80750000D02*
X187250000Y-82700000D01*
X195750000Y-65050000D02*
X195750000Y-72250000D01*
X195750000Y-72250000D02*
X187250000Y-80750000D01*
X185750000Y-82700000D02*
X185200000Y-82700000D01*
X184000000Y-83900000D02*
X184000000Y-91200000D01*
X185200000Y-82700000D02*
X184000000Y-83900000D01*
X199450000Y-80550000D02*
X197750000Y-78850000D01*
X201000000Y-81050000D02*
X201000000Y-83200000D01*
X197750000Y-65800000D02*
X197750000Y-65050000D01*
X201000000Y-80550000D02*
X201000000Y-81050000D01*
X197750000Y-78850000D02*
X197750000Y-65800000D01*
X201000000Y-80550000D02*
X199450000Y-80550000D01*
X201900000Y-79800000D02*
X202500000Y-80400000D01*
X202500000Y-80400000D02*
X202500000Y-80550000D01*
X198250000Y-65050000D02*
X198250000Y-77585002D01*
X198250000Y-77585002D02*
X200464998Y-79800000D01*
X202500000Y-80550000D02*
X202500000Y-83200000D01*
X200464998Y-79800000D02*
X201900000Y-79800000D01*
X200250000Y-65800000D02*
X200250000Y-65050000D01*
X208340768Y-74950000D02*
X200250000Y-66859232D01*
X200250000Y-66859232D02*
X200250000Y-65800000D01*
X215190000Y-74950000D02*
X208340768Y-74950000D01*
X217420000Y-72100000D02*
X206763589Y-72100000D01*
X206763589Y-72100000D02*
X201250000Y-66586411D01*
X220270000Y-74950000D02*
X217420000Y-72100000D01*
X201250000Y-65800000D02*
X201250000Y-65050000D01*
X201250000Y-66586411D02*
X201250000Y-65800000D01*
X216830001Y-74050001D02*
X217730000Y-74950000D01*
X215780000Y-73000000D02*
X216830001Y-74050001D01*
X207027178Y-73000000D02*
X215780000Y-73000000D01*
X200750000Y-65050000D02*
X200750000Y-66722822D01*
X200750000Y-66722822D02*
X207027178Y-73000000D01*
X199077147Y-59849967D02*
X184850033Y-59849967D01*
X203250000Y-65050000D02*
X203250000Y-64022820D01*
X203250000Y-64022820D02*
X199077147Y-59849967D01*
X184850033Y-59849967D02*
X180200000Y-64500000D01*
X202750000Y-64159230D02*
X198890748Y-60299978D01*
X186500022Y-60299978D02*
X178300000Y-68500000D01*
X202750000Y-65050000D02*
X202750000Y-64159230D01*
X178300000Y-68600000D02*
X178250000Y-68650000D01*
X178250000Y-68650000D02*
X178250000Y-68700000D01*
X198890748Y-60299978D02*
X186500022Y-60299978D01*
X178300000Y-68500000D02*
X178300000Y-68600000D01*
X176700000Y-66200000D02*
X176700000Y-77384315D01*
X183549989Y-59350011D02*
X176700000Y-66200000D01*
X203750000Y-63886410D02*
X199213601Y-59350011D01*
X176700000Y-77384315D02*
X176700000Y-77950000D01*
X199213601Y-59350011D02*
X183549989Y-59350011D01*
X203750000Y-65050000D02*
X203750000Y-63886410D01*
X206599999Y-71300000D02*
X219160000Y-71300000D01*
X201750000Y-66450001D02*
X206599999Y-71300000D01*
X201750000Y-65050000D02*
X201750000Y-66450001D01*
X219160000Y-71300000D02*
X222810000Y-74950000D01*
X194000000Y-131250000D02*
X196500000Y-131250000D01*
X201550000Y-131250000D02*
X196500000Y-131250000D01*
X198750000Y-106850000D02*
X198750000Y-107600000D01*
X198800000Y-107650000D02*
X198800000Y-115100000D01*
X198800000Y-115100000D02*
X206200000Y-122500000D01*
X198750000Y-107600000D02*
X198800000Y-107650000D01*
X206200000Y-126600000D02*
X201550000Y-131250000D01*
X206200000Y-122500000D02*
X206200000Y-126600000D01*
X206414998Y-103050000D02*
X211450000Y-103050000D01*
X217450000Y-103050000D02*
X217500000Y-103000000D01*
X199500000Y-127750000D02*
X199450000Y-127800000D01*
X205250000Y-104214998D02*
X206414998Y-103050000D01*
X212500000Y-103050000D02*
X217450000Y-103050000D01*
X222700000Y-103000000D02*
X224900000Y-105200000D01*
X217500000Y-103000000D02*
X222700000Y-103000000D01*
X211450000Y-103050000D02*
X212500000Y-103050000D01*
X222100000Y-110850000D02*
X221050000Y-111900000D01*
X224900000Y-105200000D02*
X224900000Y-111000000D01*
X220830000Y-124370000D02*
X217730000Y-124370000D01*
X224900000Y-120300000D02*
X220830000Y-124370000D01*
X205250000Y-106850000D02*
X205250000Y-104214998D01*
X199500000Y-125000000D02*
X199500000Y-127750000D01*
X222100000Y-110000000D02*
X222100000Y-110850000D01*
X222100000Y-110000000D02*
X224900000Y-110000000D01*
X205250000Y-106850000D02*
X205750000Y-106850000D01*
X224900000Y-110000000D02*
X224900000Y-120300000D01*
X222700000Y-103000000D02*
X222700000Y-103000000D01*
X208300000Y-123300000D02*
X199250000Y-114250000D01*
X199250000Y-114250000D02*
X199250000Y-106850000D01*
X208300000Y-131250000D02*
X205600000Y-131250000D01*
X208300000Y-131250000D02*
X208300000Y-123300000D01*
X216500000Y-130400000D02*
X216500000Y-131250000D01*
X219300000Y-131250000D02*
X216500000Y-131250000D01*
X199750000Y-113650000D02*
X216500000Y-130400000D01*
X199750000Y-106850000D02*
X199750000Y-113650000D01*
X196750000Y-106850000D02*
X196750000Y-105300000D01*
X182399999Y-109100001D02*
X182000000Y-109500000D01*
X195500000Y-103000000D02*
X188500000Y-103000000D01*
X196750000Y-104250000D02*
X195500000Y-103000000D01*
X196750000Y-105300000D02*
X196750000Y-104250000D01*
X188500000Y-103000000D02*
X182399999Y-109100001D01*
X193500000Y-127750000D02*
X193450000Y-127800000D01*
X193500000Y-125000000D02*
X193500000Y-127750000D01*
X198000000Y-125000000D02*
X198000000Y-127750000D01*
X194950000Y-127800000D02*
X191500000Y-131250000D01*
X202600000Y-131250000D02*
X202800000Y-131250000D01*
X201000000Y-134000000D02*
X201000000Y-132850000D01*
X197950000Y-127800000D02*
X197300000Y-127800000D01*
X201000000Y-132850000D02*
X202600000Y-131250000D01*
X213300000Y-131250000D02*
X213500000Y-131250000D01*
X191500000Y-131250000D02*
X190800000Y-131250000D01*
X197300000Y-127800000D02*
X194950000Y-127800000D01*
X215200000Y-107450000D02*
X213550000Y-107450000D01*
X201000000Y-120850000D02*
X202500000Y-120850000D01*
X194750000Y-106850000D02*
X194750000Y-105350000D01*
X201000000Y-119500000D02*
X201000000Y-120850000D01*
X198000000Y-127750000D02*
X197950000Y-127800000D01*
X194750000Y-105350000D02*
X194700000Y-105300000D01*
X213550000Y-107450000D02*
X212500000Y-107450000D01*
X217500000Y-104500000D02*
X217500000Y-105150000D01*
X217500000Y-105150000D02*
X215200000Y-107450000D01*
X210550000Y-134000000D02*
X213300000Y-131250000D01*
X197950000Y-128450000D02*
X197950000Y-127800000D01*
X205300000Y-126263590D02*
X202463590Y-129100000D01*
X190100000Y-131950000D02*
X190100000Y-133300000D01*
X205300000Y-123450000D02*
X205300000Y-126263590D01*
X202500000Y-120850000D02*
X202700000Y-120850000D01*
X202700000Y-120850000D02*
X205300000Y-123450000D01*
X190100000Y-133300000D02*
X190800000Y-134000000D01*
X202463590Y-129100000D02*
X198600000Y-129100000D01*
X190800000Y-131250000D02*
X190100000Y-131950000D01*
X198600000Y-129100000D02*
X197950000Y-128450000D01*
X190800000Y-134000000D02*
X210550000Y-134000000D01*
X194950000Y-124950000D02*
X195000000Y-125000000D01*
X194950000Y-122100000D02*
X194950000Y-124950000D01*
X196450000Y-124950000D02*
X196500000Y-125000000D01*
X196450000Y-122100000D02*
X196450000Y-124950000D01*
X198699989Y-102549989D02*
X187700011Y-102549989D01*
X202250000Y-106850000D02*
X202250000Y-106100000D01*
X187700011Y-102549989D02*
X178149999Y-112100001D01*
X202250000Y-106100000D02*
X198699989Y-102549989D01*
X178149999Y-112100001D02*
X177750000Y-112500000D01*
X199400000Y-100700000D02*
X182400000Y-100700000D01*
X204250000Y-105550000D02*
X199400000Y-100700000D01*
X175800000Y-107300000D02*
X175800000Y-120700000D01*
X182400000Y-100700000D02*
X175800000Y-107300000D01*
X204250000Y-106850000D02*
X204250000Y-105550000D01*
X195250000Y-106850000D02*
X195250000Y-111350000D01*
X195250000Y-111350000D02*
X176850000Y-129750000D01*
X185000000Y-126750000D02*
X185000000Y-130000000D01*
X185250000Y-126500000D02*
X185000000Y-126750000D01*
X185750000Y-126500000D02*
X185250000Y-126500000D01*
X191500000Y-132750000D02*
X194000000Y-132750000D01*
X205600000Y-132750000D02*
X202800000Y-132750000D01*
X213500000Y-132750000D02*
X216500000Y-132750000D01*
X187250000Y-125650000D02*
X187250000Y-126500000D01*
X187825001Y-125210001D02*
X187760001Y-125275001D01*
X187825001Y-125074999D02*
X187825001Y-125210001D01*
X196250000Y-106850000D02*
X196250000Y-116650000D01*
X187624999Y-125275001D02*
X187250000Y-125650000D01*
X196250000Y-116650000D02*
X187825001Y-125074999D01*
X187760001Y-125275001D02*
X187624999Y-125275001D01*
X187750000Y-127800000D02*
X187250000Y-128300000D01*
X187783260Y-127800000D02*
X187750000Y-127800000D01*
X197250000Y-118333260D02*
X187783260Y-127800000D01*
X197250000Y-106850000D02*
X197250000Y-118333260D01*
X187250000Y-128300000D02*
X187250000Y-128500000D01*
X185750000Y-128500000D02*
X185750000Y-130250000D01*
X185750000Y-130250000D02*
X188500000Y-133000000D01*
X187250000Y-122550000D02*
X187250000Y-124500000D01*
X195750000Y-106850000D02*
X195750000Y-114050000D01*
X195750000Y-114050000D02*
X187250000Y-122550000D01*
X185750000Y-124500000D02*
X185200000Y-124500000D01*
X184000000Y-125700000D02*
X184000000Y-133000000D01*
X185200000Y-124500000D02*
X184000000Y-125700000D01*
X199450000Y-122350000D02*
X197750000Y-120650000D01*
X201000000Y-122850000D02*
X201000000Y-125000000D01*
X197750000Y-107600000D02*
X197750000Y-106850000D01*
X201000000Y-122350000D02*
X201000000Y-122850000D01*
X197750000Y-120650000D02*
X197750000Y-107600000D01*
X201000000Y-122350000D02*
X199450000Y-122350000D01*
X201900000Y-121600000D02*
X202500000Y-122200000D01*
X202500000Y-122200000D02*
X202500000Y-122350000D01*
X198250000Y-106850000D02*
X198250000Y-119385002D01*
X198250000Y-119385002D02*
X200464998Y-121600000D01*
X202500000Y-122350000D02*
X202500000Y-125000000D01*
X200464998Y-121600000D02*
X201900000Y-121600000D01*
X200250000Y-107600000D02*
X200250000Y-106850000D01*
X208340768Y-116750000D02*
X200250000Y-108659232D01*
X200250000Y-108659232D02*
X200250000Y-107600000D01*
X215190000Y-116750000D02*
X208340768Y-116750000D01*
X217420000Y-113900000D02*
X206763589Y-113900000D01*
X206763589Y-113900000D02*
X201250000Y-108386411D01*
X220270000Y-116750000D02*
X217420000Y-113900000D01*
X201250000Y-107600000D02*
X201250000Y-106850000D01*
X201250000Y-108386411D02*
X201250000Y-107600000D01*
X216830001Y-115850001D02*
X217730000Y-116750000D01*
X215780000Y-114800000D02*
X216830001Y-115850001D01*
X207027178Y-114800000D02*
X215780000Y-114800000D01*
X200750000Y-106850000D02*
X200750000Y-108522822D01*
X200750000Y-108522822D02*
X207027178Y-114800000D01*
X199077147Y-101649967D02*
X184850033Y-101649967D01*
X203250000Y-106850000D02*
X203250000Y-105822820D01*
X203250000Y-105822820D02*
X199077147Y-101649967D01*
X184850033Y-101649967D02*
X180200000Y-106300000D01*
X202750000Y-105959230D02*
X198890748Y-102099978D01*
X186500022Y-102099978D02*
X178300000Y-110300000D01*
X202750000Y-106850000D02*
X202750000Y-105959230D01*
X178300000Y-110400000D02*
X178250000Y-110450000D01*
X178250000Y-110450000D02*
X178250000Y-110500000D01*
X198890748Y-102099978D02*
X186500022Y-102099978D01*
X178300000Y-110300000D02*
X178300000Y-110400000D01*
X176700000Y-108000000D02*
X176700000Y-119184315D01*
X183549989Y-101150011D02*
X176700000Y-108000000D01*
X203750000Y-105686410D02*
X199213601Y-101150011D01*
X176700000Y-119184315D02*
X176700000Y-119750000D01*
X199213601Y-101150011D02*
X183549989Y-101150011D01*
X203750000Y-106850000D02*
X203750000Y-105686410D01*
X206599999Y-113100000D02*
X219160000Y-113100000D01*
X201750000Y-108250001D02*
X206599999Y-113100000D01*
X201750000Y-106850000D02*
X201750000Y-108250001D01*
X219160000Y-113100000D02*
X222810000Y-116750000D01*
G04 #@! TD*
D21*
G36*
X175315530Y-64909669D02*
X175252071Y-64952071D01*
X175084096Y-65203464D01*
X175040000Y-65425149D01*
X175040000Y-65425153D01*
X175025112Y-65500000D01*
X175040000Y-65574847D01*
X175040001Y-78196288D01*
X174922569Y-78313720D01*
X174765000Y-78694126D01*
X174765000Y-79105874D01*
X174922569Y-79486280D01*
X175213720Y-79777431D01*
X175594126Y-79935000D01*
X176005874Y-79935000D01*
X176386280Y-79777431D01*
X176677431Y-79486280D01*
X176835000Y-79105874D01*
X176835000Y-78985000D01*
X176905874Y-78985000D01*
X177286280Y-78827431D01*
X177577431Y-78536280D01*
X177735000Y-78155874D01*
X177735000Y-77744126D01*
X177577431Y-77363720D01*
X177460000Y-77246289D01*
X177460000Y-71700154D01*
X177544126Y-71735000D01*
X177955874Y-71735000D01*
X178336280Y-71577431D01*
X178627431Y-71286280D01*
X178785000Y-70905874D01*
X178785000Y-70739801D01*
X180697801Y-68827000D01*
X181800000Y-68827000D01*
X181848601Y-68817333D01*
X181889803Y-68789803D01*
X181917333Y-68748601D01*
X181920038Y-68735000D01*
X182205874Y-68735000D01*
X182586280Y-68577431D01*
X182877431Y-68286280D01*
X183035000Y-67905874D01*
X183035000Y-67739801D01*
X188814802Y-61960000D01*
X190802560Y-61960000D01*
X190802560Y-63000000D01*
X190851843Y-63247765D01*
X190992191Y-63457809D01*
X191202235Y-63598157D01*
X191450000Y-63647440D01*
X193450000Y-63647440D01*
X193665000Y-63604674D01*
X193665000Y-63705874D01*
X193822569Y-64086280D01*
X193990001Y-64253712D01*
X193990000Y-64361772D01*
X193952560Y-64550000D01*
X193952560Y-65550000D01*
X194001843Y-65797765D01*
X194142191Y-66007809D01*
X194352235Y-66148157D01*
X194490000Y-66175560D01*
X194490001Y-69235197D01*
X176810199Y-86915000D01*
X176644126Y-86915000D01*
X176263720Y-87072569D01*
X175972569Y-87363720D01*
X175815000Y-87744126D01*
X175815000Y-88155874D01*
X175972569Y-88536280D01*
X176263720Y-88827431D01*
X176644126Y-88985000D01*
X177055874Y-88985000D01*
X177195899Y-88927000D01*
X183240001Y-88927000D01*
X183240001Y-90496288D01*
X183122569Y-90613720D01*
X182965000Y-90994126D01*
X182965000Y-91405874D01*
X183122569Y-91786280D01*
X183413720Y-92077431D01*
X183794126Y-92235000D01*
X184205874Y-92235000D01*
X184225188Y-92227000D01*
X188274812Y-92227000D01*
X188294126Y-92235000D01*
X188705874Y-92235000D01*
X189086280Y-92077431D01*
X189377431Y-91786280D01*
X189380556Y-91778735D01*
X189384097Y-91796537D01*
X189487573Y-91951399D01*
X189552072Y-92047929D01*
X189615527Y-92090328D01*
X190209672Y-92684475D01*
X190252071Y-92747929D01*
X190315524Y-92790327D01*
X190315526Y-92790329D01*
X190440902Y-92874102D01*
X190503463Y-92915904D01*
X190725148Y-92960000D01*
X190725152Y-92960000D01*
X190799999Y-92974888D01*
X190874846Y-92960000D01*
X200925148Y-92960000D01*
X201000000Y-92974889D01*
X201074852Y-92960000D01*
X210475153Y-92960000D01*
X210550000Y-92974888D01*
X210624847Y-92960000D01*
X210624852Y-92960000D01*
X210846537Y-92915904D01*
X211097929Y-92747929D01*
X211140331Y-92684470D01*
X212439432Y-91385370D01*
X212451843Y-91447765D01*
X212592191Y-91657809D01*
X212802235Y-91798157D01*
X212904859Y-91818570D01*
X212913720Y-91827431D01*
X213294126Y-91985000D01*
X213705874Y-91985000D01*
X214086280Y-91827431D01*
X214095141Y-91818570D01*
X214197765Y-91798157D01*
X214329700Y-91710000D01*
X215670300Y-91710000D01*
X215802235Y-91798157D01*
X216050000Y-91847440D01*
X216950000Y-91847440D01*
X217197765Y-91798157D01*
X217407809Y-91657809D01*
X217548157Y-91447765D01*
X217590328Y-91235750D01*
X218290000Y-91235750D01*
X218290000Y-91476309D01*
X218386673Y-91709698D01*
X218565301Y-91888327D01*
X218798690Y-91985000D01*
X219014250Y-91985000D01*
X219173000Y-91826250D01*
X219173000Y-91077000D01*
X219427000Y-91077000D01*
X219427000Y-91826250D01*
X219585750Y-91985000D01*
X219801310Y-91985000D01*
X220034699Y-91888327D01*
X220213327Y-91709698D01*
X220310000Y-91476309D01*
X220310000Y-91235750D01*
X220151250Y-91077000D01*
X219427000Y-91077000D01*
X219173000Y-91077000D01*
X218448750Y-91077000D01*
X218290000Y-91235750D01*
X217590328Y-91235750D01*
X217597440Y-91200000D01*
X217597440Y-90700000D01*
X217548157Y-90452235D01*
X217407809Y-90242191D01*
X217359632Y-90210000D01*
X218378514Y-90210000D01*
X218290000Y-90423691D01*
X218290000Y-90664250D01*
X218448750Y-90823000D01*
X219173000Y-90823000D01*
X219173000Y-90803000D01*
X219427000Y-90803000D01*
X219427000Y-90823000D01*
X220151250Y-90823000D01*
X220310000Y-90664250D01*
X220310000Y-90423691D01*
X220213327Y-90190302D01*
X220212127Y-90189102D01*
X220273157Y-90097765D01*
X220322440Y-89850000D01*
X220322440Y-89050000D01*
X220273157Y-88802235D01*
X220132809Y-88592191D01*
X219922765Y-88451843D01*
X219675000Y-88402560D01*
X218925000Y-88402560D01*
X218677235Y-88451843D01*
X218467191Y-88592191D01*
X218401837Y-88690000D01*
X217329700Y-88690000D01*
X217265516Y-88647113D01*
X217274888Y-88599999D01*
X217260000Y-88525152D01*
X217260000Y-88525148D01*
X217215904Y-88303463D01*
X217047929Y-88052071D01*
X216984473Y-88009671D01*
X212624961Y-83650159D01*
X216829446Y-83650159D01*
X216915852Y-83906643D01*
X217489336Y-84116458D01*
X218099460Y-84090839D01*
X218544148Y-83906643D01*
X218630554Y-83650159D01*
X217730000Y-82749605D01*
X216829446Y-83650159D01*
X212624961Y-83650159D01*
X211304138Y-82329336D01*
X216183542Y-82329336D01*
X216209161Y-82939460D01*
X216393357Y-83384148D01*
X216649841Y-83470554D01*
X217550395Y-82570000D01*
X217909605Y-82570000D01*
X218810159Y-83470554D01*
X219066643Y-83384148D01*
X219276458Y-82810664D01*
X219250839Y-82200540D01*
X219066643Y-81755852D01*
X218810159Y-81669446D01*
X217909605Y-82570000D01*
X217550395Y-82570000D01*
X216649841Y-81669446D01*
X216393357Y-81755852D01*
X216183542Y-82329336D01*
X211304138Y-82329336D01*
X210464643Y-81489841D01*
X216829446Y-81489841D01*
X217730000Y-82390395D01*
X218630554Y-81489841D01*
X218544148Y-81233357D01*
X217970664Y-81023542D01*
X217360540Y-81049161D01*
X216915852Y-81233357D01*
X216829446Y-81489841D01*
X210464643Y-81489841D01*
X201927000Y-72952199D01*
X201927000Y-70227000D01*
X202542967Y-70227000D01*
X207750439Y-75434473D01*
X207792839Y-75497929D01*
X207856295Y-75540329D01*
X208044230Y-75665904D01*
X208092373Y-75675480D01*
X208265916Y-75710000D01*
X208265920Y-75710000D01*
X208340768Y-75724888D01*
X208415616Y-75710000D01*
X213843331Y-75710000D01*
X213888690Y-75819507D01*
X214320493Y-76251310D01*
X214884670Y-76485000D01*
X215495330Y-76485000D01*
X216059507Y-76251310D01*
X216460000Y-75850817D01*
X216860493Y-76251310D01*
X217424670Y-76485000D01*
X218035330Y-76485000D01*
X218599507Y-76251310D01*
X219000000Y-75850817D01*
X219400493Y-76251310D01*
X219964670Y-76485000D01*
X220575330Y-76485000D01*
X221139507Y-76251310D01*
X221540000Y-75850817D01*
X221940493Y-76251310D01*
X222504670Y-76485000D01*
X223115330Y-76485000D01*
X223679507Y-76251310D01*
X224111310Y-75819507D01*
X224345000Y-75255330D01*
X224345000Y-74644670D01*
X224111310Y-74080493D01*
X223679507Y-73648690D01*
X223115330Y-73415000D01*
X222504670Y-73415000D01*
X222395162Y-73460360D01*
X219750331Y-70815530D01*
X219707929Y-70752071D01*
X219456537Y-70584096D01*
X219234852Y-70540000D01*
X219234847Y-70540000D01*
X219160000Y-70525112D01*
X219085153Y-70540000D01*
X206914802Y-70540000D01*
X205527000Y-69152199D01*
X205527000Y-68485750D01*
X221090000Y-68485750D01*
X221090000Y-68726309D01*
X221186673Y-68959698D01*
X221365301Y-69138327D01*
X221598690Y-69235000D01*
X221814250Y-69235000D01*
X221973000Y-69076250D01*
X221973000Y-68327000D01*
X222227000Y-68327000D01*
X222227000Y-69076250D01*
X222385750Y-69235000D01*
X222601310Y-69235000D01*
X222834699Y-69138327D01*
X223013327Y-68959698D01*
X223110000Y-68726309D01*
X223110000Y-68485750D01*
X222951250Y-68327000D01*
X222227000Y-68327000D01*
X221973000Y-68327000D01*
X221248750Y-68327000D01*
X221090000Y-68485750D01*
X205527000Y-68485750D01*
X205527000Y-66184714D01*
X205759698Y-66088327D01*
X205938327Y-65909699D01*
X206035000Y-65676310D01*
X206035000Y-65335750D01*
X205876250Y-65177000D01*
X205547440Y-65177000D01*
X205547440Y-64923000D01*
X205876250Y-64923000D01*
X206035000Y-64764250D01*
X206035000Y-64423690D01*
X205938327Y-64190301D01*
X205898026Y-64150000D01*
X211052560Y-64150000D01*
X211052560Y-67150000D01*
X211101843Y-67397765D01*
X211242191Y-67607809D01*
X211452235Y-67748157D01*
X211700000Y-67797440D01*
X213300000Y-67797440D01*
X213547765Y-67748157D01*
X213757809Y-67607809D01*
X213898157Y-67397765D01*
X213947440Y-67150000D01*
X213947440Y-66494126D01*
X221065000Y-66494126D01*
X221065000Y-66905874D01*
X221077560Y-66936197D01*
X221077560Y-67100000D01*
X221126843Y-67347765D01*
X221187873Y-67439102D01*
X221186673Y-67440302D01*
X221090000Y-67673691D01*
X221090000Y-67914250D01*
X221248750Y-68073000D01*
X221973000Y-68073000D01*
X221973000Y-68053000D01*
X222227000Y-68053000D01*
X222227000Y-68073000D01*
X222951250Y-68073000D01*
X223110000Y-67914250D01*
X223110000Y-67673691D01*
X223013327Y-67440302D01*
X223012127Y-67439102D01*
X223073157Y-67347765D01*
X223122440Y-67100000D01*
X223122440Y-66936197D01*
X223135000Y-66905874D01*
X223135000Y-66494126D01*
X223122440Y-66463803D01*
X223122440Y-66300000D01*
X223073157Y-66052235D01*
X222932809Y-65842191D01*
X222722765Y-65701843D01*
X222475000Y-65652560D01*
X221725000Y-65652560D01*
X221477235Y-65701843D01*
X221267191Y-65842191D01*
X221126843Y-66052235D01*
X221077560Y-66300000D01*
X221077560Y-66463803D01*
X221065000Y-66494126D01*
X213947440Y-66494126D01*
X213947440Y-66410000D01*
X215125153Y-66410000D01*
X215200000Y-66424888D01*
X215274847Y-66410000D01*
X215274852Y-66410000D01*
X215496537Y-66365904D01*
X215747929Y-66197929D01*
X215790331Y-66134470D01*
X217984473Y-63940329D01*
X218047929Y-63897929D01*
X218215904Y-63646537D01*
X218218339Y-63634296D01*
X218332809Y-63557809D01*
X218473157Y-63347765D01*
X218522440Y-63100000D01*
X218522440Y-62300000D01*
X218473157Y-62052235D01*
X218412127Y-61960898D01*
X218413327Y-61959698D01*
X218510000Y-61726309D01*
X218510000Y-61485750D01*
X218351250Y-61327000D01*
X217627000Y-61327000D01*
X217627000Y-61347000D01*
X217373000Y-61347000D01*
X217373000Y-61327000D01*
X216648750Y-61327000D01*
X216490000Y-61485750D01*
X216490000Y-61726309D01*
X216586673Y-61959698D01*
X216587873Y-61960898D01*
X216526843Y-62052235D01*
X216477560Y-62300000D01*
X216477560Y-63100000D01*
X216510350Y-63264848D01*
X214885199Y-64890000D01*
X213947440Y-64890000D01*
X213947440Y-64150000D01*
X213898157Y-63902235D01*
X213757809Y-63692191D01*
X213547765Y-63551843D01*
X213300000Y-63502560D01*
X211700000Y-63502560D01*
X211452235Y-63551843D01*
X211242191Y-63692191D01*
X211101843Y-63902235D01*
X211052560Y-64150000D01*
X205898026Y-64150000D01*
X205759698Y-64011673D01*
X205526309Y-63915000D01*
X205483750Y-63915000D01*
X205327087Y-64071663D01*
X205147765Y-63951843D01*
X205029586Y-63928336D01*
X205016250Y-63915000D01*
X205010000Y-63915000D01*
X205010000Y-63824848D01*
X205024888Y-63750000D01*
X205010000Y-63675152D01*
X205010000Y-63675148D01*
X204975161Y-63500000D01*
X204965904Y-63453462D01*
X204840329Y-63265527D01*
X204797929Y-63202071D01*
X204734473Y-63159671D01*
X203274802Y-61700000D01*
X205902560Y-61700000D01*
X205902560Y-63000000D01*
X205951843Y-63247765D01*
X206092191Y-63457809D01*
X206302235Y-63598157D01*
X206550000Y-63647440D01*
X208550000Y-63647440D01*
X208797765Y-63598157D01*
X209007809Y-63457809D01*
X209148157Y-63247765D01*
X209197440Y-63000000D01*
X209197440Y-61700000D01*
X209164769Y-61535750D01*
X211065000Y-61535750D01*
X211065000Y-62876309D01*
X211161673Y-63109698D01*
X211340301Y-63288327D01*
X211573690Y-63385000D01*
X212214250Y-63385000D01*
X212373000Y-63226250D01*
X212373000Y-61377000D01*
X212627000Y-61377000D01*
X212627000Y-63226250D01*
X212785750Y-63385000D01*
X213426310Y-63385000D01*
X213659699Y-63288327D01*
X213838327Y-63109698D01*
X213935000Y-62876309D01*
X213935000Y-61535750D01*
X213776250Y-61377000D01*
X212627000Y-61377000D01*
X212373000Y-61377000D01*
X211223750Y-61377000D01*
X211065000Y-61535750D01*
X209164769Y-61535750D01*
X209148157Y-61452235D01*
X209007809Y-61242191D01*
X208797765Y-61101843D01*
X208550000Y-61052560D01*
X206550000Y-61052560D01*
X206302235Y-61101843D01*
X206092191Y-61242191D01*
X205951843Y-61452235D01*
X205902560Y-61700000D01*
X203274802Y-61700000D01*
X201227000Y-59652199D01*
X201227000Y-59623691D01*
X211065000Y-59623691D01*
X211065000Y-60964250D01*
X211223750Y-61123000D01*
X212373000Y-61123000D01*
X212373000Y-59273750D01*
X212627000Y-59273750D01*
X212627000Y-61123000D01*
X213776250Y-61123000D01*
X213935000Y-60964250D01*
X213935000Y-60673691D01*
X216490000Y-60673691D01*
X216490000Y-60914250D01*
X216648750Y-61073000D01*
X217373000Y-61073000D01*
X217373000Y-60323750D01*
X217627000Y-60323750D01*
X217627000Y-61073000D01*
X218351250Y-61073000D01*
X218510000Y-60914250D01*
X218510000Y-60673691D01*
X218413327Y-60440302D01*
X218234699Y-60261673D01*
X218001310Y-60165000D01*
X217785750Y-60165000D01*
X217627000Y-60323750D01*
X217373000Y-60323750D01*
X217214250Y-60165000D01*
X216998690Y-60165000D01*
X216765301Y-60261673D01*
X216586673Y-60440302D01*
X216490000Y-60673691D01*
X213935000Y-60673691D01*
X213935000Y-59623691D01*
X213838327Y-59390302D01*
X213659699Y-59211673D01*
X213426310Y-59115000D01*
X212785750Y-59115000D01*
X212627000Y-59273750D01*
X212373000Y-59273750D01*
X212214250Y-59115000D01*
X211573690Y-59115000D01*
X211340301Y-59211673D01*
X211161673Y-59390302D01*
X211065000Y-59623691D01*
X201227000Y-59623691D01*
X201227000Y-58935000D01*
X226104233Y-58935000D01*
X225605259Y-59433974D01*
X225265000Y-60255431D01*
X225265000Y-61144569D01*
X225605259Y-61966026D01*
X226233974Y-62594741D01*
X227055431Y-62935000D01*
X227944569Y-62935000D01*
X228766026Y-62594741D01*
X229265001Y-62095766D01*
X229265000Y-94304233D01*
X228766026Y-93805259D01*
X227944569Y-93465000D01*
X227055431Y-93465000D01*
X226233974Y-93805259D01*
X225605259Y-94433974D01*
X225265000Y-95255431D01*
X225265000Y-96144569D01*
X225605259Y-96966026D01*
X226104233Y-97465000D01*
X173895767Y-97465000D01*
X174394741Y-96966026D01*
X174735000Y-96144569D01*
X174735000Y-95255431D01*
X174394741Y-94433974D01*
X173766026Y-93805259D01*
X172944569Y-93465000D01*
X172055431Y-93465000D01*
X171233974Y-93805259D01*
X170735000Y-94304233D01*
X170735000Y-62095767D01*
X171233974Y-62594741D01*
X172055431Y-62935000D01*
X172944569Y-62935000D01*
X173766026Y-62594741D01*
X174394741Y-61966026D01*
X174735000Y-61144569D01*
X174735000Y-60255431D01*
X174394741Y-59433974D01*
X173895767Y-58935000D01*
X181290198Y-58935000D01*
X175315530Y-64909669D01*
X175315530Y-64909669D01*
G37*
X175315530Y-64909669D02*
X175252071Y-64952071D01*
X175084096Y-65203464D01*
X175040000Y-65425149D01*
X175040000Y-65425153D01*
X175025112Y-65500000D01*
X175040000Y-65574847D01*
X175040001Y-78196288D01*
X174922569Y-78313720D01*
X174765000Y-78694126D01*
X174765000Y-79105874D01*
X174922569Y-79486280D01*
X175213720Y-79777431D01*
X175594126Y-79935000D01*
X176005874Y-79935000D01*
X176386280Y-79777431D01*
X176677431Y-79486280D01*
X176835000Y-79105874D01*
X176835000Y-78985000D01*
X176905874Y-78985000D01*
X177286280Y-78827431D01*
X177577431Y-78536280D01*
X177735000Y-78155874D01*
X177735000Y-77744126D01*
X177577431Y-77363720D01*
X177460000Y-77246289D01*
X177460000Y-71700154D01*
X177544126Y-71735000D01*
X177955874Y-71735000D01*
X178336280Y-71577431D01*
X178627431Y-71286280D01*
X178785000Y-70905874D01*
X178785000Y-70739801D01*
X180697801Y-68827000D01*
X181800000Y-68827000D01*
X181848601Y-68817333D01*
X181889803Y-68789803D01*
X181917333Y-68748601D01*
X181920038Y-68735000D01*
X182205874Y-68735000D01*
X182586280Y-68577431D01*
X182877431Y-68286280D01*
X183035000Y-67905874D01*
X183035000Y-67739801D01*
X188814802Y-61960000D01*
X190802560Y-61960000D01*
X190802560Y-63000000D01*
X190851843Y-63247765D01*
X190992191Y-63457809D01*
X191202235Y-63598157D01*
X191450000Y-63647440D01*
X193450000Y-63647440D01*
X193665000Y-63604674D01*
X193665000Y-63705874D01*
X193822569Y-64086280D01*
X193990001Y-64253712D01*
X193990000Y-64361772D01*
X193952560Y-64550000D01*
X193952560Y-65550000D01*
X194001843Y-65797765D01*
X194142191Y-66007809D01*
X194352235Y-66148157D01*
X194490000Y-66175560D01*
X194490001Y-69235197D01*
X176810199Y-86915000D01*
X176644126Y-86915000D01*
X176263720Y-87072569D01*
X175972569Y-87363720D01*
X175815000Y-87744126D01*
X175815000Y-88155874D01*
X175972569Y-88536280D01*
X176263720Y-88827431D01*
X176644126Y-88985000D01*
X177055874Y-88985000D01*
X177195899Y-88927000D01*
X183240001Y-88927000D01*
X183240001Y-90496288D01*
X183122569Y-90613720D01*
X182965000Y-90994126D01*
X182965000Y-91405874D01*
X183122569Y-91786280D01*
X183413720Y-92077431D01*
X183794126Y-92235000D01*
X184205874Y-92235000D01*
X184225188Y-92227000D01*
X188274812Y-92227000D01*
X188294126Y-92235000D01*
X188705874Y-92235000D01*
X189086280Y-92077431D01*
X189377431Y-91786280D01*
X189380556Y-91778735D01*
X189384097Y-91796537D01*
X189487573Y-91951399D01*
X189552072Y-92047929D01*
X189615527Y-92090328D01*
X190209672Y-92684475D01*
X190252071Y-92747929D01*
X190315524Y-92790327D01*
X190315526Y-92790329D01*
X190440902Y-92874102D01*
X190503463Y-92915904D01*
X190725148Y-92960000D01*
X190725152Y-92960000D01*
X190799999Y-92974888D01*
X190874846Y-92960000D01*
X200925148Y-92960000D01*
X201000000Y-92974889D01*
X201074852Y-92960000D01*
X210475153Y-92960000D01*
X210550000Y-92974888D01*
X210624847Y-92960000D01*
X210624852Y-92960000D01*
X210846537Y-92915904D01*
X211097929Y-92747929D01*
X211140331Y-92684470D01*
X212439432Y-91385370D01*
X212451843Y-91447765D01*
X212592191Y-91657809D01*
X212802235Y-91798157D01*
X212904859Y-91818570D01*
X212913720Y-91827431D01*
X213294126Y-91985000D01*
X213705874Y-91985000D01*
X214086280Y-91827431D01*
X214095141Y-91818570D01*
X214197765Y-91798157D01*
X214329700Y-91710000D01*
X215670300Y-91710000D01*
X215802235Y-91798157D01*
X216050000Y-91847440D01*
X216950000Y-91847440D01*
X217197765Y-91798157D01*
X217407809Y-91657809D01*
X217548157Y-91447765D01*
X217590328Y-91235750D01*
X218290000Y-91235750D01*
X218290000Y-91476309D01*
X218386673Y-91709698D01*
X218565301Y-91888327D01*
X218798690Y-91985000D01*
X219014250Y-91985000D01*
X219173000Y-91826250D01*
X219173000Y-91077000D01*
X219427000Y-91077000D01*
X219427000Y-91826250D01*
X219585750Y-91985000D01*
X219801310Y-91985000D01*
X220034699Y-91888327D01*
X220213327Y-91709698D01*
X220310000Y-91476309D01*
X220310000Y-91235750D01*
X220151250Y-91077000D01*
X219427000Y-91077000D01*
X219173000Y-91077000D01*
X218448750Y-91077000D01*
X218290000Y-91235750D01*
X217590328Y-91235750D01*
X217597440Y-91200000D01*
X217597440Y-90700000D01*
X217548157Y-90452235D01*
X217407809Y-90242191D01*
X217359632Y-90210000D01*
X218378514Y-90210000D01*
X218290000Y-90423691D01*
X218290000Y-90664250D01*
X218448750Y-90823000D01*
X219173000Y-90823000D01*
X219173000Y-90803000D01*
X219427000Y-90803000D01*
X219427000Y-90823000D01*
X220151250Y-90823000D01*
X220310000Y-90664250D01*
X220310000Y-90423691D01*
X220213327Y-90190302D01*
X220212127Y-90189102D01*
X220273157Y-90097765D01*
X220322440Y-89850000D01*
X220322440Y-89050000D01*
X220273157Y-88802235D01*
X220132809Y-88592191D01*
X219922765Y-88451843D01*
X219675000Y-88402560D01*
X218925000Y-88402560D01*
X218677235Y-88451843D01*
X218467191Y-88592191D01*
X218401837Y-88690000D01*
X217329700Y-88690000D01*
X217265516Y-88647113D01*
X217274888Y-88599999D01*
X217260000Y-88525152D01*
X217260000Y-88525148D01*
X217215904Y-88303463D01*
X217047929Y-88052071D01*
X216984473Y-88009671D01*
X212624961Y-83650159D01*
X216829446Y-83650159D01*
X216915852Y-83906643D01*
X217489336Y-84116458D01*
X218099460Y-84090839D01*
X218544148Y-83906643D01*
X218630554Y-83650159D01*
X217730000Y-82749605D01*
X216829446Y-83650159D01*
X212624961Y-83650159D01*
X211304138Y-82329336D01*
X216183542Y-82329336D01*
X216209161Y-82939460D01*
X216393357Y-83384148D01*
X216649841Y-83470554D01*
X217550395Y-82570000D01*
X217909605Y-82570000D01*
X218810159Y-83470554D01*
X219066643Y-83384148D01*
X219276458Y-82810664D01*
X219250839Y-82200540D01*
X219066643Y-81755852D01*
X218810159Y-81669446D01*
X217909605Y-82570000D01*
X217550395Y-82570000D01*
X216649841Y-81669446D01*
X216393357Y-81755852D01*
X216183542Y-82329336D01*
X211304138Y-82329336D01*
X210464643Y-81489841D01*
X216829446Y-81489841D01*
X217730000Y-82390395D01*
X218630554Y-81489841D01*
X218544148Y-81233357D01*
X217970664Y-81023542D01*
X217360540Y-81049161D01*
X216915852Y-81233357D01*
X216829446Y-81489841D01*
X210464643Y-81489841D01*
X201927000Y-72952199D01*
X201927000Y-70227000D01*
X202542967Y-70227000D01*
X207750439Y-75434473D01*
X207792839Y-75497929D01*
X207856295Y-75540329D01*
X208044230Y-75665904D01*
X208092373Y-75675480D01*
X208265916Y-75710000D01*
X208265920Y-75710000D01*
X208340768Y-75724888D01*
X208415616Y-75710000D01*
X213843331Y-75710000D01*
X213888690Y-75819507D01*
X214320493Y-76251310D01*
X214884670Y-76485000D01*
X215495330Y-76485000D01*
X216059507Y-76251310D01*
X216460000Y-75850817D01*
X216860493Y-76251310D01*
X217424670Y-76485000D01*
X218035330Y-76485000D01*
X218599507Y-76251310D01*
X219000000Y-75850817D01*
X219400493Y-76251310D01*
X219964670Y-76485000D01*
X220575330Y-76485000D01*
X221139507Y-76251310D01*
X221540000Y-75850817D01*
X221940493Y-76251310D01*
X222504670Y-76485000D01*
X223115330Y-76485000D01*
X223679507Y-76251310D01*
X224111310Y-75819507D01*
X224345000Y-75255330D01*
X224345000Y-74644670D01*
X224111310Y-74080493D01*
X223679507Y-73648690D01*
X223115330Y-73415000D01*
X222504670Y-73415000D01*
X222395162Y-73460360D01*
X219750331Y-70815530D01*
X219707929Y-70752071D01*
X219456537Y-70584096D01*
X219234852Y-70540000D01*
X219234847Y-70540000D01*
X219160000Y-70525112D01*
X219085153Y-70540000D01*
X206914802Y-70540000D01*
X205527000Y-69152199D01*
X205527000Y-68485750D01*
X221090000Y-68485750D01*
X221090000Y-68726309D01*
X221186673Y-68959698D01*
X221365301Y-69138327D01*
X221598690Y-69235000D01*
X221814250Y-69235000D01*
X221973000Y-69076250D01*
X221973000Y-68327000D01*
X222227000Y-68327000D01*
X222227000Y-69076250D01*
X222385750Y-69235000D01*
X222601310Y-69235000D01*
X222834699Y-69138327D01*
X223013327Y-68959698D01*
X223110000Y-68726309D01*
X223110000Y-68485750D01*
X222951250Y-68327000D01*
X222227000Y-68327000D01*
X221973000Y-68327000D01*
X221248750Y-68327000D01*
X221090000Y-68485750D01*
X205527000Y-68485750D01*
X205527000Y-66184714D01*
X205759698Y-66088327D01*
X205938327Y-65909699D01*
X206035000Y-65676310D01*
X206035000Y-65335750D01*
X205876250Y-65177000D01*
X205547440Y-65177000D01*
X205547440Y-64923000D01*
X205876250Y-64923000D01*
X206035000Y-64764250D01*
X206035000Y-64423690D01*
X205938327Y-64190301D01*
X205898026Y-64150000D01*
X211052560Y-64150000D01*
X211052560Y-67150000D01*
X211101843Y-67397765D01*
X211242191Y-67607809D01*
X211452235Y-67748157D01*
X211700000Y-67797440D01*
X213300000Y-67797440D01*
X213547765Y-67748157D01*
X213757809Y-67607809D01*
X213898157Y-67397765D01*
X213947440Y-67150000D01*
X213947440Y-66494126D01*
X221065000Y-66494126D01*
X221065000Y-66905874D01*
X221077560Y-66936197D01*
X221077560Y-67100000D01*
X221126843Y-67347765D01*
X221187873Y-67439102D01*
X221186673Y-67440302D01*
X221090000Y-67673691D01*
X221090000Y-67914250D01*
X221248750Y-68073000D01*
X221973000Y-68073000D01*
X221973000Y-68053000D01*
X222227000Y-68053000D01*
X222227000Y-68073000D01*
X222951250Y-68073000D01*
X223110000Y-67914250D01*
X223110000Y-67673691D01*
X223013327Y-67440302D01*
X223012127Y-67439102D01*
X223073157Y-67347765D01*
X223122440Y-67100000D01*
X223122440Y-66936197D01*
X223135000Y-66905874D01*
X223135000Y-66494126D01*
X223122440Y-66463803D01*
X223122440Y-66300000D01*
X223073157Y-66052235D01*
X222932809Y-65842191D01*
X222722765Y-65701843D01*
X222475000Y-65652560D01*
X221725000Y-65652560D01*
X221477235Y-65701843D01*
X221267191Y-65842191D01*
X221126843Y-66052235D01*
X221077560Y-66300000D01*
X221077560Y-66463803D01*
X221065000Y-66494126D01*
X213947440Y-66494126D01*
X213947440Y-66410000D01*
X215125153Y-66410000D01*
X215200000Y-66424888D01*
X215274847Y-66410000D01*
X215274852Y-66410000D01*
X215496537Y-66365904D01*
X215747929Y-66197929D01*
X215790331Y-66134470D01*
X217984473Y-63940329D01*
X218047929Y-63897929D01*
X218215904Y-63646537D01*
X218218339Y-63634296D01*
X218332809Y-63557809D01*
X218473157Y-63347765D01*
X218522440Y-63100000D01*
X218522440Y-62300000D01*
X218473157Y-62052235D01*
X218412127Y-61960898D01*
X218413327Y-61959698D01*
X218510000Y-61726309D01*
X218510000Y-61485750D01*
X218351250Y-61327000D01*
X217627000Y-61327000D01*
X217627000Y-61347000D01*
X217373000Y-61347000D01*
X217373000Y-61327000D01*
X216648750Y-61327000D01*
X216490000Y-61485750D01*
X216490000Y-61726309D01*
X216586673Y-61959698D01*
X216587873Y-61960898D01*
X216526843Y-62052235D01*
X216477560Y-62300000D01*
X216477560Y-63100000D01*
X216510350Y-63264848D01*
X214885199Y-64890000D01*
X213947440Y-64890000D01*
X213947440Y-64150000D01*
X213898157Y-63902235D01*
X213757809Y-63692191D01*
X213547765Y-63551843D01*
X213300000Y-63502560D01*
X211700000Y-63502560D01*
X211452235Y-63551843D01*
X211242191Y-63692191D01*
X211101843Y-63902235D01*
X211052560Y-64150000D01*
X205898026Y-64150000D01*
X205759698Y-64011673D01*
X205526309Y-63915000D01*
X205483750Y-63915000D01*
X205327087Y-64071663D01*
X205147765Y-63951843D01*
X205029586Y-63928336D01*
X205016250Y-63915000D01*
X205010000Y-63915000D01*
X205010000Y-63824848D01*
X205024888Y-63750000D01*
X205010000Y-63675152D01*
X205010000Y-63675148D01*
X204975161Y-63500000D01*
X204965904Y-63453462D01*
X204840329Y-63265527D01*
X204797929Y-63202071D01*
X204734473Y-63159671D01*
X203274802Y-61700000D01*
X205902560Y-61700000D01*
X205902560Y-63000000D01*
X205951843Y-63247765D01*
X206092191Y-63457809D01*
X206302235Y-63598157D01*
X206550000Y-63647440D01*
X208550000Y-63647440D01*
X208797765Y-63598157D01*
X209007809Y-63457809D01*
X209148157Y-63247765D01*
X209197440Y-63000000D01*
X209197440Y-61700000D01*
X209164769Y-61535750D01*
X211065000Y-61535750D01*
X211065000Y-62876309D01*
X211161673Y-63109698D01*
X211340301Y-63288327D01*
X211573690Y-63385000D01*
X212214250Y-63385000D01*
X212373000Y-63226250D01*
X212373000Y-61377000D01*
X212627000Y-61377000D01*
X212627000Y-63226250D01*
X212785750Y-63385000D01*
X213426310Y-63385000D01*
X213659699Y-63288327D01*
X213838327Y-63109698D01*
X213935000Y-62876309D01*
X213935000Y-61535750D01*
X213776250Y-61377000D01*
X212627000Y-61377000D01*
X212373000Y-61377000D01*
X211223750Y-61377000D01*
X211065000Y-61535750D01*
X209164769Y-61535750D01*
X209148157Y-61452235D01*
X209007809Y-61242191D01*
X208797765Y-61101843D01*
X208550000Y-61052560D01*
X206550000Y-61052560D01*
X206302235Y-61101843D01*
X206092191Y-61242191D01*
X205951843Y-61452235D01*
X205902560Y-61700000D01*
X203274802Y-61700000D01*
X201227000Y-59652199D01*
X201227000Y-59623691D01*
X211065000Y-59623691D01*
X211065000Y-60964250D01*
X211223750Y-61123000D01*
X212373000Y-61123000D01*
X212373000Y-59273750D01*
X212627000Y-59273750D01*
X212627000Y-61123000D01*
X213776250Y-61123000D01*
X213935000Y-60964250D01*
X213935000Y-60673691D01*
X216490000Y-60673691D01*
X216490000Y-60914250D01*
X216648750Y-61073000D01*
X217373000Y-61073000D01*
X217373000Y-60323750D01*
X217627000Y-60323750D01*
X217627000Y-61073000D01*
X218351250Y-61073000D01*
X218510000Y-60914250D01*
X218510000Y-60673691D01*
X218413327Y-60440302D01*
X218234699Y-60261673D01*
X218001310Y-60165000D01*
X217785750Y-60165000D01*
X217627000Y-60323750D01*
X217373000Y-60323750D01*
X217214250Y-60165000D01*
X216998690Y-60165000D01*
X216765301Y-60261673D01*
X216586673Y-60440302D01*
X216490000Y-60673691D01*
X213935000Y-60673691D01*
X213935000Y-59623691D01*
X213838327Y-59390302D01*
X213659699Y-59211673D01*
X213426310Y-59115000D01*
X212785750Y-59115000D01*
X212627000Y-59273750D01*
X212373000Y-59273750D01*
X212214250Y-59115000D01*
X211573690Y-59115000D01*
X211340301Y-59211673D01*
X211161673Y-59390302D01*
X211065000Y-59623691D01*
X201227000Y-59623691D01*
X201227000Y-58935000D01*
X226104233Y-58935000D01*
X225605259Y-59433974D01*
X225265000Y-60255431D01*
X225265000Y-61144569D01*
X225605259Y-61966026D01*
X226233974Y-62594741D01*
X227055431Y-62935000D01*
X227944569Y-62935000D01*
X228766026Y-62594741D01*
X229265001Y-62095766D01*
X229265000Y-94304233D01*
X228766026Y-93805259D01*
X227944569Y-93465000D01*
X227055431Y-93465000D01*
X226233974Y-93805259D01*
X225605259Y-94433974D01*
X225265000Y-95255431D01*
X225265000Y-96144569D01*
X225605259Y-96966026D01*
X226104233Y-97465000D01*
X173895767Y-97465000D01*
X174394741Y-96966026D01*
X174735000Y-96144569D01*
X174735000Y-95255431D01*
X174394741Y-94433974D01*
X173766026Y-93805259D01*
X172944569Y-93465000D01*
X172055431Y-93465000D01*
X171233974Y-93805259D01*
X170735000Y-94304233D01*
X170735000Y-62095767D01*
X171233974Y-62594741D01*
X172055431Y-62935000D01*
X172944569Y-62935000D01*
X173766026Y-62594741D01*
X174394741Y-61966026D01*
X174735000Y-61144569D01*
X174735000Y-60255431D01*
X174394741Y-59433974D01*
X173895767Y-58935000D01*
X181290198Y-58935000D01*
X175315530Y-64909669D01*
G36*
X214073000Y-87247802D02*
X214073000Y-88577026D01*
X213950000Y-88552560D01*
X213050000Y-88552560D01*
X212802235Y-88601843D01*
X212592191Y-88742191D01*
X212451843Y-88952235D01*
X212402560Y-89200000D01*
X212402560Y-89272637D01*
X210235199Y-91440000D01*
X209310000Y-91440000D01*
X209310000Y-91235750D01*
X209151250Y-91077000D01*
X208427000Y-91077000D01*
X208427000Y-91097000D01*
X208173000Y-91097000D01*
X208173000Y-91077000D01*
X207448750Y-91077000D01*
X207290000Y-91235750D01*
X207290000Y-91440000D01*
X206649702Y-91440000D01*
X206697440Y-91200000D01*
X206697440Y-90700000D01*
X206648157Y-90452235D01*
X206507809Y-90242191D01*
X206459632Y-90210000D01*
X207378514Y-90210000D01*
X207290000Y-90423691D01*
X207290000Y-90664250D01*
X207448750Y-90823000D01*
X208173000Y-90823000D01*
X208173000Y-90803000D01*
X208427000Y-90803000D01*
X208427000Y-90823000D01*
X209151250Y-90823000D01*
X209310000Y-90664250D01*
X209310000Y-90423691D01*
X209213327Y-90190302D01*
X209212127Y-90189102D01*
X209273157Y-90097765D01*
X209322440Y-89850000D01*
X209322440Y-89050000D01*
X209273157Y-88802235D01*
X209132809Y-88592191D01*
X209060000Y-88543541D01*
X209060000Y-83027000D01*
X209852198Y-83027000D01*
X214073000Y-87247802D01*
X214073000Y-87247802D01*
G37*
X214073000Y-87247802D02*
X214073000Y-88577026D01*
X213950000Y-88552560D01*
X213050000Y-88552560D01*
X212802235Y-88601843D01*
X212592191Y-88742191D01*
X212451843Y-88952235D01*
X212402560Y-89200000D01*
X212402560Y-89272637D01*
X210235199Y-91440000D01*
X209310000Y-91440000D01*
X209310000Y-91235750D01*
X209151250Y-91077000D01*
X208427000Y-91077000D01*
X208427000Y-91097000D01*
X208173000Y-91097000D01*
X208173000Y-91077000D01*
X207448750Y-91077000D01*
X207290000Y-91235750D01*
X207290000Y-91440000D01*
X206649702Y-91440000D01*
X206697440Y-91200000D01*
X206697440Y-90700000D01*
X206648157Y-90452235D01*
X206507809Y-90242191D01*
X206459632Y-90210000D01*
X207378514Y-90210000D01*
X207290000Y-90423691D01*
X207290000Y-90664250D01*
X207448750Y-90823000D01*
X208173000Y-90823000D01*
X208173000Y-90803000D01*
X208427000Y-90803000D01*
X208427000Y-90823000D01*
X209151250Y-90823000D01*
X209310000Y-90664250D01*
X209310000Y-90423691D01*
X209213327Y-90190302D01*
X209212127Y-90189102D01*
X209273157Y-90097765D01*
X209322440Y-89850000D01*
X209322440Y-89050000D01*
X209273157Y-88802235D01*
X209132809Y-88592191D01*
X209060000Y-88543541D01*
X209060000Y-83027000D01*
X209852198Y-83027000D01*
X214073000Y-87247802D01*
G36*
X196627000Y-90823000D02*
X197073000Y-90823000D01*
X197073000Y-91077000D01*
X196627000Y-91077000D01*
X196627000Y-91097000D01*
X196373000Y-91097000D01*
X196373000Y-91077000D01*
X195927000Y-91077000D01*
X195927000Y-90823000D01*
X196373000Y-90823000D01*
X196373000Y-90803000D01*
X196627000Y-90803000D01*
X196627000Y-90823000D01*
X196627000Y-90823000D01*
G37*
X196627000Y-90823000D02*
X197073000Y-90823000D01*
X197073000Y-91077000D01*
X196627000Y-91077000D01*
X196627000Y-91097000D01*
X196373000Y-91097000D01*
X196373000Y-91077000D01*
X195927000Y-91077000D01*
X195927000Y-90823000D01*
X196373000Y-90823000D01*
X196373000Y-90803000D01*
X196627000Y-90803000D01*
X196627000Y-90823000D01*
G36*
X175315530Y-106709669D02*
X175252071Y-106752071D01*
X175084096Y-107003464D01*
X175040000Y-107225149D01*
X175040000Y-107225153D01*
X175025112Y-107300000D01*
X175040000Y-107374847D01*
X175040001Y-119996288D01*
X174922569Y-120113720D01*
X174765000Y-120494126D01*
X174765000Y-120905874D01*
X174922569Y-121286280D01*
X175213720Y-121577431D01*
X175594126Y-121735000D01*
X176005874Y-121735000D01*
X176386280Y-121577431D01*
X176677431Y-121286280D01*
X176835000Y-120905874D01*
X176835000Y-120785000D01*
X176905874Y-120785000D01*
X177286280Y-120627431D01*
X177577431Y-120336280D01*
X177735000Y-119955874D01*
X177735000Y-119544126D01*
X177577431Y-119163720D01*
X177460000Y-119046289D01*
X177460000Y-113500154D01*
X177544126Y-113535000D01*
X177955874Y-113535000D01*
X178336280Y-113377431D01*
X178627431Y-113086280D01*
X178785000Y-112705874D01*
X178785000Y-112539801D01*
X180697801Y-110627000D01*
X181800000Y-110627000D01*
X181848601Y-110617333D01*
X181889803Y-110589803D01*
X181917333Y-110548601D01*
X181920038Y-110535000D01*
X182205874Y-110535000D01*
X182586280Y-110377431D01*
X182877431Y-110086280D01*
X183035000Y-109705874D01*
X183035000Y-109539801D01*
X188814802Y-103760000D01*
X190802560Y-103760000D01*
X190802560Y-104800000D01*
X190851843Y-105047765D01*
X190992191Y-105257809D01*
X191202235Y-105398157D01*
X191450000Y-105447440D01*
X193450000Y-105447440D01*
X193665000Y-105404674D01*
X193665000Y-105505874D01*
X193822569Y-105886280D01*
X193990001Y-106053712D01*
X193990000Y-106161772D01*
X193952560Y-106350000D01*
X193952560Y-107350000D01*
X194001843Y-107597765D01*
X194142191Y-107807809D01*
X194352235Y-107948157D01*
X194490000Y-107975560D01*
X194490001Y-111035197D01*
X176810199Y-128715000D01*
X176644126Y-128715000D01*
X176263720Y-128872569D01*
X175972569Y-129163720D01*
X175815000Y-129544126D01*
X175815000Y-129955874D01*
X175972569Y-130336280D01*
X176263720Y-130627431D01*
X176644126Y-130785000D01*
X177055874Y-130785000D01*
X177195899Y-130727000D01*
X183240001Y-130727000D01*
X183240001Y-132296288D01*
X183122569Y-132413720D01*
X182965000Y-132794126D01*
X182965000Y-133205874D01*
X183122569Y-133586280D01*
X183413720Y-133877431D01*
X183794126Y-134035000D01*
X184205874Y-134035000D01*
X184225188Y-134027000D01*
X188274812Y-134027000D01*
X188294126Y-134035000D01*
X188705874Y-134035000D01*
X189086280Y-133877431D01*
X189377431Y-133586280D01*
X189380556Y-133578735D01*
X189384097Y-133596537D01*
X189487573Y-133751399D01*
X189552072Y-133847929D01*
X189615527Y-133890328D01*
X190209672Y-134484475D01*
X190252071Y-134547929D01*
X190315524Y-134590327D01*
X190315526Y-134590329D01*
X190440902Y-134674102D01*
X190503463Y-134715904D01*
X190725148Y-134760000D01*
X190725152Y-134760000D01*
X190799999Y-134774888D01*
X190874846Y-134760000D01*
X200925148Y-134760000D01*
X201000000Y-134774889D01*
X201074852Y-134760000D01*
X210475153Y-134760000D01*
X210550000Y-134774888D01*
X210624847Y-134760000D01*
X210624852Y-134760000D01*
X210846537Y-134715904D01*
X211097929Y-134547929D01*
X211140331Y-134484470D01*
X212439432Y-133185370D01*
X212451843Y-133247765D01*
X212592191Y-133457809D01*
X212802235Y-133598157D01*
X212904859Y-133618570D01*
X212913720Y-133627431D01*
X213294126Y-133785000D01*
X213705874Y-133785000D01*
X214086280Y-133627431D01*
X214095141Y-133618570D01*
X214197765Y-133598157D01*
X214329700Y-133510000D01*
X215670300Y-133510000D01*
X215802235Y-133598157D01*
X216050000Y-133647440D01*
X216950000Y-133647440D01*
X217197765Y-133598157D01*
X217407809Y-133457809D01*
X217548157Y-133247765D01*
X217590328Y-133035750D01*
X218290000Y-133035750D01*
X218290000Y-133276309D01*
X218386673Y-133509698D01*
X218565301Y-133688327D01*
X218798690Y-133785000D01*
X219014250Y-133785000D01*
X219173000Y-133626250D01*
X219173000Y-132877000D01*
X219427000Y-132877000D01*
X219427000Y-133626250D01*
X219585750Y-133785000D01*
X219801310Y-133785000D01*
X220034699Y-133688327D01*
X220213327Y-133509698D01*
X220310000Y-133276309D01*
X220310000Y-133035750D01*
X220151250Y-132877000D01*
X219427000Y-132877000D01*
X219173000Y-132877000D01*
X218448750Y-132877000D01*
X218290000Y-133035750D01*
X217590328Y-133035750D01*
X217597440Y-133000000D01*
X217597440Y-132500000D01*
X217548157Y-132252235D01*
X217407809Y-132042191D01*
X217359632Y-132010000D01*
X218378514Y-132010000D01*
X218290000Y-132223691D01*
X218290000Y-132464250D01*
X218448750Y-132623000D01*
X219173000Y-132623000D01*
X219173000Y-132603000D01*
X219427000Y-132603000D01*
X219427000Y-132623000D01*
X220151250Y-132623000D01*
X220310000Y-132464250D01*
X220310000Y-132223691D01*
X220213327Y-131990302D01*
X220212127Y-131989102D01*
X220273157Y-131897765D01*
X220322440Y-131650000D01*
X220322440Y-130850000D01*
X220273157Y-130602235D01*
X220132809Y-130392191D01*
X219922765Y-130251843D01*
X219675000Y-130202560D01*
X218925000Y-130202560D01*
X218677235Y-130251843D01*
X218467191Y-130392191D01*
X218401837Y-130490000D01*
X217329700Y-130490000D01*
X217265516Y-130447113D01*
X217274888Y-130399999D01*
X217260000Y-130325152D01*
X217260000Y-130325148D01*
X217215904Y-130103463D01*
X217047929Y-129852071D01*
X216984473Y-129809671D01*
X212624961Y-125450159D01*
X216829446Y-125450159D01*
X216915852Y-125706643D01*
X217489336Y-125916458D01*
X218099460Y-125890839D01*
X218544148Y-125706643D01*
X218630554Y-125450159D01*
X217730000Y-124549605D01*
X216829446Y-125450159D01*
X212624961Y-125450159D01*
X211304138Y-124129336D01*
X216183542Y-124129336D01*
X216209161Y-124739460D01*
X216393357Y-125184148D01*
X216649841Y-125270554D01*
X217550395Y-124370000D01*
X217909605Y-124370000D01*
X218810159Y-125270554D01*
X219066643Y-125184148D01*
X219276458Y-124610664D01*
X219250839Y-124000540D01*
X219066643Y-123555852D01*
X218810159Y-123469446D01*
X217909605Y-124370000D01*
X217550395Y-124370000D01*
X216649841Y-123469446D01*
X216393357Y-123555852D01*
X216183542Y-124129336D01*
X211304138Y-124129336D01*
X210464643Y-123289841D01*
X216829446Y-123289841D01*
X217730000Y-124190395D01*
X218630554Y-123289841D01*
X218544148Y-123033357D01*
X217970664Y-122823542D01*
X217360540Y-122849161D01*
X216915852Y-123033357D01*
X216829446Y-123289841D01*
X210464643Y-123289841D01*
X201927000Y-114752199D01*
X201927000Y-112027000D01*
X202542967Y-112027000D01*
X207750439Y-117234473D01*
X207792839Y-117297929D01*
X207856295Y-117340329D01*
X208044230Y-117465904D01*
X208092373Y-117475480D01*
X208265916Y-117510000D01*
X208265920Y-117510000D01*
X208340768Y-117524888D01*
X208415616Y-117510000D01*
X213843331Y-117510000D01*
X213888690Y-117619507D01*
X214320493Y-118051310D01*
X214884670Y-118285000D01*
X215495330Y-118285000D01*
X216059507Y-118051310D01*
X216460000Y-117650817D01*
X216860493Y-118051310D01*
X217424670Y-118285000D01*
X218035330Y-118285000D01*
X218599507Y-118051310D01*
X219000000Y-117650817D01*
X219400493Y-118051310D01*
X219964670Y-118285000D01*
X220575330Y-118285000D01*
X221139507Y-118051310D01*
X221540000Y-117650817D01*
X221940493Y-118051310D01*
X222504670Y-118285000D01*
X223115330Y-118285000D01*
X223679507Y-118051310D01*
X224111310Y-117619507D01*
X224345000Y-117055330D01*
X224345000Y-116444670D01*
X224111310Y-115880493D01*
X223679507Y-115448690D01*
X223115330Y-115215000D01*
X222504670Y-115215000D01*
X222395162Y-115260360D01*
X219750331Y-112615530D01*
X219707929Y-112552071D01*
X219456537Y-112384096D01*
X219234852Y-112340000D01*
X219234847Y-112340000D01*
X219160000Y-112325112D01*
X219085153Y-112340000D01*
X206914802Y-112340000D01*
X205527000Y-110952199D01*
X205527000Y-110285750D01*
X221090000Y-110285750D01*
X221090000Y-110526309D01*
X221186673Y-110759698D01*
X221365301Y-110938327D01*
X221598690Y-111035000D01*
X221814250Y-111035000D01*
X221973000Y-110876250D01*
X221973000Y-110127000D01*
X222227000Y-110127000D01*
X222227000Y-110876250D01*
X222385750Y-111035000D01*
X222601310Y-111035000D01*
X222834699Y-110938327D01*
X223013327Y-110759698D01*
X223110000Y-110526309D01*
X223110000Y-110285750D01*
X222951250Y-110127000D01*
X222227000Y-110127000D01*
X221973000Y-110127000D01*
X221248750Y-110127000D01*
X221090000Y-110285750D01*
X205527000Y-110285750D01*
X205527000Y-107984714D01*
X205759698Y-107888327D01*
X205938327Y-107709699D01*
X206035000Y-107476310D01*
X206035000Y-107135750D01*
X205876250Y-106977000D01*
X205547440Y-106977000D01*
X205547440Y-106723000D01*
X205876250Y-106723000D01*
X206035000Y-106564250D01*
X206035000Y-106223690D01*
X205938327Y-105990301D01*
X205898026Y-105950000D01*
X211052560Y-105950000D01*
X211052560Y-108950000D01*
X211101843Y-109197765D01*
X211242191Y-109407809D01*
X211452235Y-109548157D01*
X211700000Y-109597440D01*
X213300000Y-109597440D01*
X213547765Y-109548157D01*
X213757809Y-109407809D01*
X213898157Y-109197765D01*
X213947440Y-108950000D01*
X213947440Y-108294126D01*
X221065000Y-108294126D01*
X221065000Y-108705874D01*
X221077560Y-108736197D01*
X221077560Y-108900000D01*
X221126843Y-109147765D01*
X221187873Y-109239102D01*
X221186673Y-109240302D01*
X221090000Y-109473691D01*
X221090000Y-109714250D01*
X221248750Y-109873000D01*
X221973000Y-109873000D01*
X221973000Y-109853000D01*
X222227000Y-109853000D01*
X222227000Y-109873000D01*
X222951250Y-109873000D01*
X223110000Y-109714250D01*
X223110000Y-109473691D01*
X223013327Y-109240302D01*
X223012127Y-109239102D01*
X223073157Y-109147765D01*
X223122440Y-108900000D01*
X223122440Y-108736197D01*
X223135000Y-108705874D01*
X223135000Y-108294126D01*
X223122440Y-108263803D01*
X223122440Y-108100000D01*
X223073157Y-107852235D01*
X222932809Y-107642191D01*
X222722765Y-107501843D01*
X222475000Y-107452560D01*
X221725000Y-107452560D01*
X221477235Y-107501843D01*
X221267191Y-107642191D01*
X221126843Y-107852235D01*
X221077560Y-108100000D01*
X221077560Y-108263803D01*
X221065000Y-108294126D01*
X213947440Y-108294126D01*
X213947440Y-108210000D01*
X215125153Y-108210000D01*
X215200000Y-108224888D01*
X215274847Y-108210000D01*
X215274852Y-108210000D01*
X215496537Y-108165904D01*
X215747929Y-107997929D01*
X215790331Y-107934470D01*
X217984473Y-105740329D01*
X218047929Y-105697929D01*
X218215904Y-105446537D01*
X218218339Y-105434296D01*
X218332809Y-105357809D01*
X218473157Y-105147765D01*
X218522440Y-104900000D01*
X218522440Y-104100000D01*
X218473157Y-103852235D01*
X218412127Y-103760898D01*
X218413327Y-103759698D01*
X218510000Y-103526309D01*
X218510000Y-103285750D01*
X218351250Y-103127000D01*
X217627000Y-103127000D01*
X217627000Y-103147000D01*
X217373000Y-103147000D01*
X217373000Y-103127000D01*
X216648750Y-103127000D01*
X216490000Y-103285750D01*
X216490000Y-103526309D01*
X216586673Y-103759698D01*
X216587873Y-103760898D01*
X216526843Y-103852235D01*
X216477560Y-104100000D01*
X216477560Y-104900000D01*
X216510350Y-105064848D01*
X214885199Y-106690000D01*
X213947440Y-106690000D01*
X213947440Y-105950000D01*
X213898157Y-105702235D01*
X213757809Y-105492191D01*
X213547765Y-105351843D01*
X213300000Y-105302560D01*
X211700000Y-105302560D01*
X211452235Y-105351843D01*
X211242191Y-105492191D01*
X211101843Y-105702235D01*
X211052560Y-105950000D01*
X205898026Y-105950000D01*
X205759698Y-105811673D01*
X205526309Y-105715000D01*
X205483750Y-105715000D01*
X205327087Y-105871663D01*
X205147765Y-105751843D01*
X205029586Y-105728336D01*
X205016250Y-105715000D01*
X205010000Y-105715000D01*
X205010000Y-105624848D01*
X205024888Y-105550000D01*
X205010000Y-105475152D01*
X205010000Y-105475148D01*
X204975161Y-105300000D01*
X204965904Y-105253462D01*
X204840329Y-105065527D01*
X204797929Y-105002071D01*
X204734473Y-104959671D01*
X203274802Y-103500000D01*
X205902560Y-103500000D01*
X205902560Y-104800000D01*
X205951843Y-105047765D01*
X206092191Y-105257809D01*
X206302235Y-105398157D01*
X206550000Y-105447440D01*
X208550000Y-105447440D01*
X208797765Y-105398157D01*
X209007809Y-105257809D01*
X209148157Y-105047765D01*
X209197440Y-104800000D01*
X209197440Y-103500000D01*
X209164769Y-103335750D01*
X211065000Y-103335750D01*
X211065000Y-104676309D01*
X211161673Y-104909698D01*
X211340301Y-105088327D01*
X211573690Y-105185000D01*
X212214250Y-105185000D01*
X212373000Y-105026250D01*
X212373000Y-103177000D01*
X212627000Y-103177000D01*
X212627000Y-105026250D01*
X212785750Y-105185000D01*
X213426310Y-105185000D01*
X213659699Y-105088327D01*
X213838327Y-104909698D01*
X213935000Y-104676309D01*
X213935000Y-103335750D01*
X213776250Y-103177000D01*
X212627000Y-103177000D01*
X212373000Y-103177000D01*
X211223750Y-103177000D01*
X211065000Y-103335750D01*
X209164769Y-103335750D01*
X209148157Y-103252235D01*
X209007809Y-103042191D01*
X208797765Y-102901843D01*
X208550000Y-102852560D01*
X206550000Y-102852560D01*
X206302235Y-102901843D01*
X206092191Y-103042191D01*
X205951843Y-103252235D01*
X205902560Y-103500000D01*
X203274802Y-103500000D01*
X201227000Y-101452199D01*
X201227000Y-101423691D01*
X211065000Y-101423691D01*
X211065000Y-102764250D01*
X211223750Y-102923000D01*
X212373000Y-102923000D01*
X212373000Y-101073750D01*
X212627000Y-101073750D01*
X212627000Y-102923000D01*
X213776250Y-102923000D01*
X213935000Y-102764250D01*
X213935000Y-102473691D01*
X216490000Y-102473691D01*
X216490000Y-102714250D01*
X216648750Y-102873000D01*
X217373000Y-102873000D01*
X217373000Y-102123750D01*
X217627000Y-102123750D01*
X217627000Y-102873000D01*
X218351250Y-102873000D01*
X218510000Y-102714250D01*
X218510000Y-102473691D01*
X218413327Y-102240302D01*
X218234699Y-102061673D01*
X218001310Y-101965000D01*
X217785750Y-101965000D01*
X217627000Y-102123750D01*
X217373000Y-102123750D01*
X217214250Y-101965000D01*
X216998690Y-101965000D01*
X216765301Y-102061673D01*
X216586673Y-102240302D01*
X216490000Y-102473691D01*
X213935000Y-102473691D01*
X213935000Y-101423691D01*
X213838327Y-101190302D01*
X213659699Y-101011673D01*
X213426310Y-100915000D01*
X212785750Y-100915000D01*
X212627000Y-101073750D01*
X212373000Y-101073750D01*
X212214250Y-100915000D01*
X211573690Y-100915000D01*
X211340301Y-101011673D01*
X211161673Y-101190302D01*
X211065000Y-101423691D01*
X201227000Y-101423691D01*
X201227000Y-100735000D01*
X226104233Y-100735000D01*
X225605259Y-101233974D01*
X225265000Y-102055431D01*
X225265000Y-102944569D01*
X225605259Y-103766026D01*
X226233974Y-104394741D01*
X227055431Y-104735000D01*
X227944569Y-104735000D01*
X228766026Y-104394741D01*
X229265001Y-103895766D01*
X229265000Y-136104233D01*
X228766026Y-135605259D01*
X227944569Y-135265000D01*
X227055431Y-135265000D01*
X226233974Y-135605259D01*
X225605259Y-136233974D01*
X225265000Y-137055431D01*
X225265000Y-137944569D01*
X225605259Y-138766026D01*
X226104233Y-139265000D01*
X173895767Y-139265000D01*
X174394741Y-138766026D01*
X174735000Y-137944569D01*
X174735000Y-137055431D01*
X174394741Y-136233974D01*
X173766026Y-135605259D01*
X172944569Y-135265000D01*
X172055431Y-135265000D01*
X171233974Y-135605259D01*
X170735000Y-136104233D01*
X170735000Y-103895767D01*
X171233974Y-104394741D01*
X172055431Y-104735000D01*
X172944569Y-104735000D01*
X173766026Y-104394741D01*
X174394741Y-103766026D01*
X174735000Y-102944569D01*
X174735000Y-102055431D01*
X174394741Y-101233974D01*
X173895767Y-100735000D01*
X181290198Y-100735000D01*
X175315530Y-106709669D01*
X175315530Y-106709669D01*
G37*
X175315530Y-106709669D02*
X175252071Y-106752071D01*
X175084096Y-107003464D01*
X175040000Y-107225149D01*
X175040000Y-107225153D01*
X175025112Y-107300000D01*
X175040000Y-107374847D01*
X175040001Y-119996288D01*
X174922569Y-120113720D01*
X174765000Y-120494126D01*
X174765000Y-120905874D01*
X174922569Y-121286280D01*
X175213720Y-121577431D01*
X175594126Y-121735000D01*
X176005874Y-121735000D01*
X176386280Y-121577431D01*
X176677431Y-121286280D01*
X176835000Y-120905874D01*
X176835000Y-120785000D01*
X176905874Y-120785000D01*
X177286280Y-120627431D01*
X177577431Y-120336280D01*
X177735000Y-119955874D01*
X177735000Y-119544126D01*
X177577431Y-119163720D01*
X177460000Y-119046289D01*
X177460000Y-113500154D01*
X177544126Y-113535000D01*
X177955874Y-113535000D01*
X178336280Y-113377431D01*
X178627431Y-113086280D01*
X178785000Y-112705874D01*
X178785000Y-112539801D01*
X180697801Y-110627000D01*
X181800000Y-110627000D01*
X181848601Y-110617333D01*
X181889803Y-110589803D01*
X181917333Y-110548601D01*
X181920038Y-110535000D01*
X182205874Y-110535000D01*
X182586280Y-110377431D01*
X182877431Y-110086280D01*
X183035000Y-109705874D01*
X183035000Y-109539801D01*
X188814802Y-103760000D01*
X190802560Y-103760000D01*
X190802560Y-104800000D01*
X190851843Y-105047765D01*
X190992191Y-105257809D01*
X191202235Y-105398157D01*
X191450000Y-105447440D01*
X193450000Y-105447440D01*
X193665000Y-105404674D01*
X193665000Y-105505874D01*
X193822569Y-105886280D01*
X193990001Y-106053712D01*
X193990000Y-106161772D01*
X193952560Y-106350000D01*
X193952560Y-107350000D01*
X194001843Y-107597765D01*
X194142191Y-107807809D01*
X194352235Y-107948157D01*
X194490000Y-107975560D01*
X194490001Y-111035197D01*
X176810199Y-128715000D01*
X176644126Y-128715000D01*
X176263720Y-128872569D01*
X175972569Y-129163720D01*
X175815000Y-129544126D01*
X175815000Y-129955874D01*
X175972569Y-130336280D01*
X176263720Y-130627431D01*
X176644126Y-130785000D01*
X177055874Y-130785000D01*
X177195899Y-130727000D01*
X183240001Y-130727000D01*
X183240001Y-132296288D01*
X183122569Y-132413720D01*
X182965000Y-132794126D01*
X182965000Y-133205874D01*
X183122569Y-133586280D01*
X183413720Y-133877431D01*
X183794126Y-134035000D01*
X184205874Y-134035000D01*
X184225188Y-134027000D01*
X188274812Y-134027000D01*
X188294126Y-134035000D01*
X188705874Y-134035000D01*
X189086280Y-133877431D01*
X189377431Y-133586280D01*
X189380556Y-133578735D01*
X189384097Y-133596537D01*
X189487573Y-133751399D01*
X189552072Y-133847929D01*
X189615527Y-133890328D01*
X190209672Y-134484475D01*
X190252071Y-134547929D01*
X190315524Y-134590327D01*
X190315526Y-134590329D01*
X190440902Y-134674102D01*
X190503463Y-134715904D01*
X190725148Y-134760000D01*
X190725152Y-134760000D01*
X190799999Y-134774888D01*
X190874846Y-134760000D01*
X200925148Y-134760000D01*
X201000000Y-134774889D01*
X201074852Y-134760000D01*
X210475153Y-134760000D01*
X210550000Y-134774888D01*
X210624847Y-134760000D01*
X210624852Y-134760000D01*
X210846537Y-134715904D01*
X211097929Y-134547929D01*
X211140331Y-134484470D01*
X212439432Y-133185370D01*
X212451843Y-133247765D01*
X212592191Y-133457809D01*
X212802235Y-133598157D01*
X212904859Y-133618570D01*
X212913720Y-133627431D01*
X213294126Y-133785000D01*
X213705874Y-133785000D01*
X214086280Y-133627431D01*
X214095141Y-133618570D01*
X214197765Y-133598157D01*
X214329700Y-133510000D01*
X215670300Y-133510000D01*
X215802235Y-133598157D01*
X216050000Y-133647440D01*
X216950000Y-133647440D01*
X217197765Y-133598157D01*
X217407809Y-133457809D01*
X217548157Y-133247765D01*
X217590328Y-133035750D01*
X218290000Y-133035750D01*
X218290000Y-133276309D01*
X218386673Y-133509698D01*
X218565301Y-133688327D01*
X218798690Y-133785000D01*
X219014250Y-133785000D01*
X219173000Y-133626250D01*
X219173000Y-132877000D01*
X219427000Y-132877000D01*
X219427000Y-133626250D01*
X219585750Y-133785000D01*
X219801310Y-133785000D01*
X220034699Y-133688327D01*
X220213327Y-133509698D01*
X220310000Y-133276309D01*
X220310000Y-133035750D01*
X220151250Y-132877000D01*
X219427000Y-132877000D01*
X219173000Y-132877000D01*
X218448750Y-132877000D01*
X218290000Y-133035750D01*
X217590328Y-133035750D01*
X217597440Y-133000000D01*
X217597440Y-132500000D01*
X217548157Y-132252235D01*
X217407809Y-132042191D01*
X217359632Y-132010000D01*
X218378514Y-132010000D01*
X218290000Y-132223691D01*
X218290000Y-132464250D01*
X218448750Y-132623000D01*
X219173000Y-132623000D01*
X219173000Y-132603000D01*
X219427000Y-132603000D01*
X219427000Y-132623000D01*
X220151250Y-132623000D01*
X220310000Y-132464250D01*
X220310000Y-132223691D01*
X220213327Y-131990302D01*
X220212127Y-131989102D01*
X220273157Y-131897765D01*
X220322440Y-131650000D01*
X220322440Y-130850000D01*
X220273157Y-130602235D01*
X220132809Y-130392191D01*
X219922765Y-130251843D01*
X219675000Y-130202560D01*
X218925000Y-130202560D01*
X218677235Y-130251843D01*
X218467191Y-130392191D01*
X218401837Y-130490000D01*
X217329700Y-130490000D01*
X217265516Y-130447113D01*
X217274888Y-130399999D01*
X217260000Y-130325152D01*
X217260000Y-130325148D01*
X217215904Y-130103463D01*
X217047929Y-129852071D01*
X216984473Y-129809671D01*
X212624961Y-125450159D01*
X216829446Y-125450159D01*
X216915852Y-125706643D01*
X217489336Y-125916458D01*
X218099460Y-125890839D01*
X218544148Y-125706643D01*
X218630554Y-125450159D01*
X217730000Y-124549605D01*
X216829446Y-125450159D01*
X212624961Y-125450159D01*
X211304138Y-124129336D01*
X216183542Y-124129336D01*
X216209161Y-124739460D01*
X216393357Y-125184148D01*
X216649841Y-125270554D01*
X217550395Y-124370000D01*
X217909605Y-124370000D01*
X218810159Y-125270554D01*
X219066643Y-125184148D01*
X219276458Y-124610664D01*
X219250839Y-124000540D01*
X219066643Y-123555852D01*
X218810159Y-123469446D01*
X217909605Y-124370000D01*
X217550395Y-124370000D01*
X216649841Y-123469446D01*
X216393357Y-123555852D01*
X216183542Y-124129336D01*
X211304138Y-124129336D01*
X210464643Y-123289841D01*
X216829446Y-123289841D01*
X217730000Y-124190395D01*
X218630554Y-123289841D01*
X218544148Y-123033357D01*
X217970664Y-122823542D01*
X217360540Y-122849161D01*
X216915852Y-123033357D01*
X216829446Y-123289841D01*
X210464643Y-123289841D01*
X201927000Y-114752199D01*
X201927000Y-112027000D01*
X202542967Y-112027000D01*
X207750439Y-117234473D01*
X207792839Y-117297929D01*
X207856295Y-117340329D01*
X208044230Y-117465904D01*
X208092373Y-117475480D01*
X208265916Y-117510000D01*
X208265920Y-117510000D01*
X208340768Y-117524888D01*
X208415616Y-117510000D01*
X213843331Y-117510000D01*
X213888690Y-117619507D01*
X214320493Y-118051310D01*
X214884670Y-118285000D01*
X215495330Y-118285000D01*
X216059507Y-118051310D01*
X216460000Y-117650817D01*
X216860493Y-118051310D01*
X217424670Y-118285000D01*
X218035330Y-118285000D01*
X218599507Y-118051310D01*
X219000000Y-117650817D01*
X219400493Y-118051310D01*
X219964670Y-118285000D01*
X220575330Y-118285000D01*
X221139507Y-118051310D01*
X221540000Y-117650817D01*
X221940493Y-118051310D01*
X222504670Y-118285000D01*
X223115330Y-118285000D01*
X223679507Y-118051310D01*
X224111310Y-117619507D01*
X224345000Y-117055330D01*
X224345000Y-116444670D01*
X224111310Y-115880493D01*
X223679507Y-115448690D01*
X223115330Y-115215000D01*
X222504670Y-115215000D01*
X222395162Y-115260360D01*
X219750331Y-112615530D01*
X219707929Y-112552071D01*
X219456537Y-112384096D01*
X219234852Y-112340000D01*
X219234847Y-112340000D01*
X219160000Y-112325112D01*
X219085153Y-112340000D01*
X206914802Y-112340000D01*
X205527000Y-110952199D01*
X205527000Y-110285750D01*
X221090000Y-110285750D01*
X221090000Y-110526309D01*
X221186673Y-110759698D01*
X221365301Y-110938327D01*
X221598690Y-111035000D01*
X221814250Y-111035000D01*
X221973000Y-110876250D01*
X221973000Y-110127000D01*
X222227000Y-110127000D01*
X222227000Y-110876250D01*
X222385750Y-111035000D01*
X222601310Y-111035000D01*
X222834699Y-110938327D01*
X223013327Y-110759698D01*
X223110000Y-110526309D01*
X223110000Y-110285750D01*
X222951250Y-110127000D01*
X222227000Y-110127000D01*
X221973000Y-110127000D01*
X221248750Y-110127000D01*
X221090000Y-110285750D01*
X205527000Y-110285750D01*
X205527000Y-107984714D01*
X205759698Y-107888327D01*
X205938327Y-107709699D01*
X206035000Y-107476310D01*
X206035000Y-107135750D01*
X205876250Y-106977000D01*
X205547440Y-106977000D01*
X205547440Y-106723000D01*
X205876250Y-106723000D01*
X206035000Y-106564250D01*
X206035000Y-106223690D01*
X205938327Y-105990301D01*
X205898026Y-105950000D01*
X211052560Y-105950000D01*
X211052560Y-108950000D01*
X211101843Y-109197765D01*
X211242191Y-109407809D01*
X211452235Y-109548157D01*
X211700000Y-109597440D01*
X213300000Y-109597440D01*
X213547765Y-109548157D01*
X213757809Y-109407809D01*
X213898157Y-109197765D01*
X213947440Y-108950000D01*
X213947440Y-108294126D01*
X221065000Y-108294126D01*
X221065000Y-108705874D01*
X221077560Y-108736197D01*
X221077560Y-108900000D01*
X221126843Y-109147765D01*
X221187873Y-109239102D01*
X221186673Y-109240302D01*
X221090000Y-109473691D01*
X221090000Y-109714250D01*
X221248750Y-109873000D01*
X221973000Y-109873000D01*
X221973000Y-109853000D01*
X222227000Y-109853000D01*
X222227000Y-109873000D01*
X222951250Y-109873000D01*
X223110000Y-109714250D01*
X223110000Y-109473691D01*
X223013327Y-109240302D01*
X223012127Y-109239102D01*
X223073157Y-109147765D01*
X223122440Y-108900000D01*
X223122440Y-108736197D01*
X223135000Y-108705874D01*
X223135000Y-108294126D01*
X223122440Y-108263803D01*
X223122440Y-108100000D01*
X223073157Y-107852235D01*
X222932809Y-107642191D01*
X222722765Y-107501843D01*
X222475000Y-107452560D01*
X221725000Y-107452560D01*
X221477235Y-107501843D01*
X221267191Y-107642191D01*
X221126843Y-107852235D01*
X221077560Y-108100000D01*
X221077560Y-108263803D01*
X221065000Y-108294126D01*
X213947440Y-108294126D01*
X213947440Y-108210000D01*
X215125153Y-108210000D01*
X215200000Y-108224888D01*
X215274847Y-108210000D01*
X215274852Y-108210000D01*
X215496537Y-108165904D01*
X215747929Y-107997929D01*
X215790331Y-107934470D01*
X217984473Y-105740329D01*
X218047929Y-105697929D01*
X218215904Y-105446537D01*
X218218339Y-105434296D01*
X218332809Y-105357809D01*
X218473157Y-105147765D01*
X218522440Y-104900000D01*
X218522440Y-104100000D01*
X218473157Y-103852235D01*
X218412127Y-103760898D01*
X218413327Y-103759698D01*
X218510000Y-103526309D01*
X218510000Y-103285750D01*
X218351250Y-103127000D01*
X217627000Y-103127000D01*
X217627000Y-103147000D01*
X217373000Y-103147000D01*
X217373000Y-103127000D01*
X216648750Y-103127000D01*
X216490000Y-103285750D01*
X216490000Y-103526309D01*
X216586673Y-103759698D01*
X216587873Y-103760898D01*
X216526843Y-103852235D01*
X216477560Y-104100000D01*
X216477560Y-104900000D01*
X216510350Y-105064848D01*
X214885199Y-106690000D01*
X213947440Y-106690000D01*
X213947440Y-105950000D01*
X213898157Y-105702235D01*
X213757809Y-105492191D01*
X213547765Y-105351843D01*
X213300000Y-105302560D01*
X211700000Y-105302560D01*
X211452235Y-105351843D01*
X211242191Y-105492191D01*
X211101843Y-105702235D01*
X211052560Y-105950000D01*
X205898026Y-105950000D01*
X205759698Y-105811673D01*
X205526309Y-105715000D01*
X205483750Y-105715000D01*
X205327087Y-105871663D01*
X205147765Y-105751843D01*
X205029586Y-105728336D01*
X205016250Y-105715000D01*
X205010000Y-105715000D01*
X205010000Y-105624848D01*
X205024888Y-105550000D01*
X205010000Y-105475152D01*
X205010000Y-105475148D01*
X204975161Y-105300000D01*
X204965904Y-105253462D01*
X204840329Y-105065527D01*
X204797929Y-105002071D01*
X204734473Y-104959671D01*
X203274802Y-103500000D01*
X205902560Y-103500000D01*
X205902560Y-104800000D01*
X205951843Y-105047765D01*
X206092191Y-105257809D01*
X206302235Y-105398157D01*
X206550000Y-105447440D01*
X208550000Y-105447440D01*
X208797765Y-105398157D01*
X209007809Y-105257809D01*
X209148157Y-105047765D01*
X209197440Y-104800000D01*
X209197440Y-103500000D01*
X209164769Y-103335750D01*
X211065000Y-103335750D01*
X211065000Y-104676309D01*
X211161673Y-104909698D01*
X211340301Y-105088327D01*
X211573690Y-105185000D01*
X212214250Y-105185000D01*
X212373000Y-105026250D01*
X212373000Y-103177000D01*
X212627000Y-103177000D01*
X212627000Y-105026250D01*
X212785750Y-105185000D01*
X213426310Y-105185000D01*
X213659699Y-105088327D01*
X213838327Y-104909698D01*
X213935000Y-104676309D01*
X213935000Y-103335750D01*
X213776250Y-103177000D01*
X212627000Y-103177000D01*
X212373000Y-103177000D01*
X211223750Y-103177000D01*
X211065000Y-103335750D01*
X209164769Y-103335750D01*
X209148157Y-103252235D01*
X209007809Y-103042191D01*
X208797765Y-102901843D01*
X208550000Y-102852560D01*
X206550000Y-102852560D01*
X206302235Y-102901843D01*
X206092191Y-103042191D01*
X205951843Y-103252235D01*
X205902560Y-103500000D01*
X203274802Y-103500000D01*
X201227000Y-101452199D01*
X201227000Y-101423691D01*
X211065000Y-101423691D01*
X211065000Y-102764250D01*
X211223750Y-102923000D01*
X212373000Y-102923000D01*
X212373000Y-101073750D01*
X212627000Y-101073750D01*
X212627000Y-102923000D01*
X213776250Y-102923000D01*
X213935000Y-102764250D01*
X213935000Y-102473691D01*
X216490000Y-102473691D01*
X216490000Y-102714250D01*
X216648750Y-102873000D01*
X217373000Y-102873000D01*
X217373000Y-102123750D01*
X217627000Y-102123750D01*
X217627000Y-102873000D01*
X218351250Y-102873000D01*
X218510000Y-102714250D01*
X218510000Y-102473691D01*
X218413327Y-102240302D01*
X218234699Y-102061673D01*
X218001310Y-101965000D01*
X217785750Y-101965000D01*
X217627000Y-102123750D01*
X217373000Y-102123750D01*
X217214250Y-101965000D01*
X216998690Y-101965000D01*
X216765301Y-102061673D01*
X216586673Y-102240302D01*
X216490000Y-102473691D01*
X213935000Y-102473691D01*
X213935000Y-101423691D01*
X213838327Y-101190302D01*
X213659699Y-101011673D01*
X213426310Y-100915000D01*
X212785750Y-100915000D01*
X212627000Y-101073750D01*
X212373000Y-101073750D01*
X212214250Y-100915000D01*
X211573690Y-100915000D01*
X211340301Y-101011673D01*
X211161673Y-101190302D01*
X211065000Y-101423691D01*
X201227000Y-101423691D01*
X201227000Y-100735000D01*
X226104233Y-100735000D01*
X225605259Y-101233974D01*
X225265000Y-102055431D01*
X225265000Y-102944569D01*
X225605259Y-103766026D01*
X226233974Y-104394741D01*
X227055431Y-104735000D01*
X227944569Y-104735000D01*
X228766026Y-104394741D01*
X229265001Y-103895766D01*
X229265000Y-136104233D01*
X228766026Y-135605259D01*
X227944569Y-135265000D01*
X227055431Y-135265000D01*
X226233974Y-135605259D01*
X225605259Y-136233974D01*
X225265000Y-137055431D01*
X225265000Y-137944569D01*
X225605259Y-138766026D01*
X226104233Y-139265000D01*
X173895767Y-139265000D01*
X174394741Y-138766026D01*
X174735000Y-137944569D01*
X174735000Y-137055431D01*
X174394741Y-136233974D01*
X173766026Y-135605259D01*
X172944569Y-135265000D01*
X172055431Y-135265000D01*
X171233974Y-135605259D01*
X170735000Y-136104233D01*
X170735000Y-103895767D01*
X171233974Y-104394741D01*
X172055431Y-104735000D01*
X172944569Y-104735000D01*
X173766026Y-104394741D01*
X174394741Y-103766026D01*
X174735000Y-102944569D01*
X174735000Y-102055431D01*
X174394741Y-101233974D01*
X173895767Y-100735000D01*
X181290198Y-100735000D01*
X175315530Y-106709669D01*
G36*
X214073000Y-129047802D02*
X214073000Y-130377026D01*
X213950000Y-130352560D01*
X213050000Y-130352560D01*
X212802235Y-130401843D01*
X212592191Y-130542191D01*
X212451843Y-130752235D01*
X212402560Y-131000000D01*
X212402560Y-131072637D01*
X210235199Y-133240000D01*
X209310000Y-133240000D01*
X209310000Y-133035750D01*
X209151250Y-132877000D01*
X208427000Y-132877000D01*
X208427000Y-132897000D01*
X208173000Y-132897000D01*
X208173000Y-132877000D01*
X207448750Y-132877000D01*
X207290000Y-133035750D01*
X207290000Y-133240000D01*
X206649702Y-133240000D01*
X206697440Y-133000000D01*
X206697440Y-132500000D01*
X206648157Y-132252235D01*
X206507809Y-132042191D01*
X206459632Y-132010000D01*
X207378514Y-132010000D01*
X207290000Y-132223691D01*
X207290000Y-132464250D01*
X207448750Y-132623000D01*
X208173000Y-132623000D01*
X208173000Y-132603000D01*
X208427000Y-132603000D01*
X208427000Y-132623000D01*
X209151250Y-132623000D01*
X209310000Y-132464250D01*
X209310000Y-132223691D01*
X209213327Y-131990302D01*
X209212127Y-131989102D01*
X209273157Y-131897765D01*
X209322440Y-131650000D01*
X209322440Y-130850000D01*
X209273157Y-130602235D01*
X209132809Y-130392191D01*
X209060000Y-130343541D01*
X209060000Y-124827000D01*
X209852198Y-124827000D01*
X214073000Y-129047802D01*
X214073000Y-129047802D01*
G37*
X214073000Y-129047802D02*
X214073000Y-130377026D01*
X213950000Y-130352560D01*
X213050000Y-130352560D01*
X212802235Y-130401843D01*
X212592191Y-130542191D01*
X212451843Y-130752235D01*
X212402560Y-131000000D01*
X212402560Y-131072637D01*
X210235199Y-133240000D01*
X209310000Y-133240000D01*
X209310000Y-133035750D01*
X209151250Y-132877000D01*
X208427000Y-132877000D01*
X208427000Y-132897000D01*
X208173000Y-132897000D01*
X208173000Y-132877000D01*
X207448750Y-132877000D01*
X207290000Y-133035750D01*
X207290000Y-133240000D01*
X206649702Y-133240000D01*
X206697440Y-133000000D01*
X206697440Y-132500000D01*
X206648157Y-132252235D01*
X206507809Y-132042191D01*
X206459632Y-132010000D01*
X207378514Y-132010000D01*
X207290000Y-132223691D01*
X207290000Y-132464250D01*
X207448750Y-132623000D01*
X208173000Y-132623000D01*
X208173000Y-132603000D01*
X208427000Y-132603000D01*
X208427000Y-132623000D01*
X209151250Y-132623000D01*
X209310000Y-132464250D01*
X209310000Y-132223691D01*
X209213327Y-131990302D01*
X209212127Y-131989102D01*
X209273157Y-131897765D01*
X209322440Y-131650000D01*
X209322440Y-130850000D01*
X209273157Y-130602235D01*
X209132809Y-130392191D01*
X209060000Y-130343541D01*
X209060000Y-124827000D01*
X209852198Y-124827000D01*
X214073000Y-129047802D01*
G36*
X196627000Y-132623000D02*
X197073000Y-132623000D01*
X197073000Y-132877000D01*
X196627000Y-132877000D01*
X196627000Y-132897000D01*
X196373000Y-132897000D01*
X196373000Y-132877000D01*
X195927000Y-132877000D01*
X195927000Y-132623000D01*
X196373000Y-132623000D01*
X196373000Y-132603000D01*
X196627000Y-132603000D01*
X196627000Y-132623000D01*
X196627000Y-132623000D01*
G37*
X196627000Y-132623000D02*
X197073000Y-132623000D01*
X197073000Y-132877000D01*
X196627000Y-132877000D01*
X196627000Y-132897000D01*
X196373000Y-132897000D01*
X196373000Y-132877000D01*
X195927000Y-132877000D01*
X195927000Y-132623000D01*
X196373000Y-132623000D01*
X196373000Y-132603000D01*
X196627000Y-132603000D01*
X196627000Y-132623000D01*
M02*
